<?xml version="1.0" encoding="utf-8"?>
<!-- Generator: Adobe Illustrator 27.0.1, SVG Export Plug-In . SVG Version: 6.00 Build 0)  -->
<svg version="1.1" id="Capa_1" xmlns="http://www.w3.org/2000/svg" xmlns:xlink="http://www.w3.org/1999/xlink" x="0px" y="0px"
	 viewBox="0 0 36 36" style="enable-background:new 0 0 36 36;" xml:space="preserve">
<style type="text/css">
	.st0{fill:#E72F47;}
	.st1{fill:#FFFFFF;}
</style>
<g>
	<circle class="st0" cx="18" cy="18" r="18"/>
	<g>
		<g>
			<path class="st1" d="M23.9,24.3C23.9,24.3,24,24.3,23.9,24.3l0-0.1L23.9,24.3z"/>
			<path class="st1" d="M24.1,23.8c-0.1-0.1-0.2-0.2-0.3-0.1C24,23.7,23.9,23.8,24.1,23.8C24.1,23.9,24,24,24,24c0,0,0,0.1,0.1,0.1
				C24.1,24,24.1,23.9,24.1,23.8C24.1,23.7,24.1,23.8,24.1,23.8z"/>
			<path class="st1" d="M24.3,16.8L24.3,16.8C24.3,16.8,24.3,16.8,24.3,16.8z"/>
			<path class="st1" d="M24.4,12.4C24.4,12.5,24.4,12.5,24.4,12.4C24.4,12.5,24.4,12.4,24.4,12.4z"/>
			<path class="st1" d="M24.2,11.6C24.2,11.6,24.2,11.6,24.2,11.6C24.2,11.6,24.2,11.6,24.2,11.6z"/>
			<path class="st1" d="M24.3,16.8l0-0.1C24.3,16.7,24.3,16.7,24.3,16.8z"/>
			<path class="st1" d="M23.8,22.8C23.8,22.8,23.8,22.9,23.8,22.8L23.8,22.8L23.8,22.8z"/>
			<path class="st1" d="M24.4,18.7L24.4,18.7C24.4,18.7,24.4,18.8,24.4,18.7L24.4,18.7z"/>
			<path class="st1" d="M24.4,20.2c0,0-0.1,0-0.1-0.1C24.3,20.1,24.3,20.2,24.4,20.2C24.4,20.2,24.4,20.2,24.4,20.2z"/>
			<path class="st1" d="M24.2,22.5L24.2,22.5C24.3,22.5,24.2,22.5,24.2,22.5z"/>
			<path class="st1" d="M24.4,17.7C24.4,17.7,24.5,17.6,24.4,17.7C24.5,17.6,24.4,17.6,24.4,17.7z"/>
			<path class="st1" d="M22.4,23.8L22.4,23.8C22.4,23.8,22.4,23.8,22.4,23.8z"/>
			<polygon class="st1" points="24.1,24.3 24.1,24.3 24.1,24.3 			"/>
			<path class="st1" d="M22.6,11.4L22.6,11.4C22.6,11.4,22.6,11.4,22.6,11.4z"/>
			<path class="st1" d="M11.4,13.6c0.1-0.1,0.1,0.2,0.2,0C11.6,13.7,11.5,13.4,11.4,13.6z"/>
			<path class="st1" d="M23.8,22.8L23.8,22.8C23.8,22.7,23.8,22.8,23.8,22.8z"/>
			<polygon class="st1" points="11.6,13.6 11.6,13.6 11.6,13.6 			"/>
			<path class="st1" d="M19.4,11.5C19.5,11.5,19.5,11.5,19.4,11.5C19.5,11.5,19.5,11.5,19.4,11.5z"/>
			<path class="st1" d="M21.8,11.7L21.8,11.7C21.7,11.6,21.8,11.6,21.8,11.7z"/>
			<path class="st1" d="M18.2,11.6C18.2,11.6,18.2,11.6,18.2,11.6L18.2,11.6C18.2,11.6,18.2,11.6,18.2,11.6z"/>
			<polygon class="st1" points="17,11.7 17,11.7 17.1,11.7 			"/>
			<path class="st1" d="M18.6,23.8C18.7,23.8,18.7,23.9,18.6,23.8C18.7,23.8,18.8,23.8,18.6,23.8z"/>
			<path class="st1" d="M23.9,22.8C23.8,22.8,23.8,22.8,23.9,22.8L23.9,22.8C23.8,22.8,23.9,22.8,23.9,22.8z"/>
			<path class="st1" d="M18.2,12.5l-0.2,0C18.1,12.5,18.1,12.5,18.2,12.5z"/>
			<path class="st1" d="M12.3,22.1L12.3,22.1C12.3,22.1,12.3,22.1,12.3,22.1z"/>
			<path class="st1" d="M17.4,12.5c0,0-0.1-0.1-0.1-0.1c0,0,0,0,0,0L17.4,12.5z"/>
			<path class="st1" d="M18.7,23.9L18.7,23.9L18.7,23.9z"/>
			<path class="st1" d="M20,23.7c-0.2,0-0.1,0.1-0.1,0.2c-0.2,0-0.1-0.1-0.2-0.2c-0.1,0-0.2,0.2-0.4,0.2c0,0,0,0,0-0.1
				c-0.1,0.1-0.4,0-0.6,0.1c0,0,0,0,0,0c0,0.1,0,0.1,0,0.2c-0.1,0-0.2,0.1-0.2,0c0.1,0,0.1,0,0.1-0.1l-0.1,0c-0.1-0.1,0.1,0,0.1-0.1
				c-0.2,0-0.4,0.1-0.5,0.1c0-0.1,0.3,0,0.1-0.2l0.2,0c-0.2-0.2,0.1,0,0-0.2c-0.3,0-0.3,0.1-0.6,0c-0.1,0.1,0,0.1,0,0.2
				c-0.4,0.1-0.3-0.3-0.6-0.2c-0.1,0.1-0.1,0.2-0.3,0.2l0.1-0.1c-0.3,0-0.1,0.2-0.4,0.1c0-0.1,0.2,0,0.2-0.1
				c-0.2-0.1-0.1,0.1-0.3,0.1l0-0.1c-0.3,0-0.6,0.1-0.9,0.1c0,0,0.1-0.1,0-0.1c-0.4,0.1-0.8,0-1.2-0.1l-0.1,0.1c0,0-0.1,0,0-0.1
				c-0.1,0,0,0.1-0.1,0.1c-0.1,0-0.1-0.1-0.1-0.1c-0.3,0.1-0.7,0.2-1,0.1l0.1,0c-0.2,0-0.2,0.2-0.4,0.1l0,0c-0.4,0-0.4,0-0.5,0
				c0-0.1,0-0.2,0.1-0.2c-0.2,0.1,0.1-0.4-0.2-0.4c0.1-0.3,0.1-0.2,0.2-0.6c0-0.1-0.1-0.1-0.2-0.3l0.1,0l-0.1-0.2l0.1-0.1l0-0.1
				c0,0-0.1,0.1-0.1,0.1c-0.1-0.2,0.1-0.4,0.1-0.4l-0.1-0.4c0,0,0.1,0.1,0.1,0.1c-0.1-0.2,0.1,0,0-0.2c0,0-0.1,0-0.1,0
				c0.1-0.1,0.1-0.3,0-0.5l0.1,0c0-0.3,0-0.7,0-1c0,0.1-0.2,0.1-0.2,0l0.1,0c-0.1-0.1,0,0.1-0.1,0c0-0.1,0.1-0.1,0.2,0l0-0.2
				c0,0,0.1,0,0.1,0c-0.1-0.1,0.1-0.3,0-0.4l0,0c0-0.4,0-0.5,0-0.8c-0.1,0-0.1-0.1-0.2-0.2c0-0.2,0.1-0.4,0.1-0.7
				c-0.1-0.2-0.1-0.1-0.2-0.1c0.1,0,0.1-0.3,0.2-0.1c0-0.3,0-0.4-0.1-0.8c0,0-0.1,0.1-0.1,0.1c0-0.1,0-0.2,0.1-0.1l0,0
				c-0.1-0.4,0.3-1,0.1-1.3l0,0l-0.1-0.4c0-0.2,0.1,0.1,0.1,0c-0.2-0.4,0-0.6-0.1-0.9c0.1-0.1,0.1-0.3,0.1-0.6c0-0.1,0-0.2,0-0.3
				c0-0.1,0-0.1,0-0.2c0,0,0,0,0,0l-0.1,0c-0.1,0,0,0,0.1,0c-0.1,0-0.1,0-0.1,0c0,0,0-0.1,0-0.1c0,0,0.9,0.1,1.4,0.2
				c0.3,0,0.2-0.3,0.5-0.2l-0.1,0.1c0.6-0.1,1.1,0,1.7-0.1c0,0,0,0.1-0.1,0.1c0.1,0.1,0.4,0,0.4-0.1c0.1,0,0,0.1,0.1,0.1
				c0.1,0.1,0.3-0.1,0.3,0c0,0,0,0-0.1,0c0.1,0,0.3,0,0.3-0.1c0.2,0,0.4,0,0.5,0c0.1-0.1,0.3,0.1,0.4-0.1c0,0.2,0.4,0.1,0.5,0.1
				c0,0.1,0.1,0.1,0.1,0.1c0.1,0,0.3,0,0.3-0.1c0.3,0.2,0.5-0.2,0.7,0.1c0.4-0.1,0.8-0.2,1.2-0.2c0,0.2-0.4,0-0.4,0.2
				c0.4-0.1,0.6-0.2,1-0.2c0.1,0-0.1,0.1-0.1,0.1c0.4-0.1,0.7,0,1-0.1c0,0,0,0-0.1,0c0.1,0,0.2,0,0.1-0.1l-0.1,0
				c-0.1-0.1,0.3-0.2,0.3-0.3c-0.1,0.2,0.3,0.1,0.2,0.3c0,0,0.1-0.1,0.1-0.1c0.1,0,0.1,0,0,0.1c0.2,0,0.1-0.1,0.4-0.1
				c0,0,0,0.1-0.1,0.1c0.1-0.1,0.2-0.1,0.4-0.1c0,0,0,0.1,0,0.1c0.2,0,0.3-0.1,0.4-0.1c0.1,0,0.2-0.1,0.3,0c-0.2,0.2,0,0.1-0.1,0.2
				l0,0l0,0l0.1-0.1c0,0.1,0.1,0.1,0.1,0.2c0,0,0,0-0.1,0c0,0.1,0,0.1,0,0.2c0-0.1,0-0.1,0.1-0.1c0.1,0.1,0.2,0,0.1,0.1
				c0,0,0,0.2-0.1,0.2l0,0c0,0.1,0.1,0.2,0.1,0.3c0,0-0.2,0-0.2,0c0.1,0.1,0,0.4,0.2,0.5c0,0-0.1,0-0.1,0l0.1,0.1
				c0,0.1,0,0.1-0.1,0.1c0,0.2,0.2-0.1,0.1,0.2c0,0,0,0,0-0.1c0,0.3,0.1,0.5,0,0.7c-0.1,0.1,0-0.2-0.2-0.1c0,0.3,0.2,0.7,0.1,1.1
				l0-0.1c0.2,0-0.1,0.3,0,0.4c0,0-0.1-0.1-0.1,0c0,0.2,0,0.5,0.1,0.8l-0.1,0c0,0.1,0,0.4,0,0.5c0.1,0,0,0.1,0.1,0.1
				c-0.3,0.5,0.2,0.9-0.1,1.3c0,0,0-0.1,0-0.1l0,0.3c0.1,0,0.1,0,0.1-0.1c0.1,0,0.1,0.1,0.1,0.2c-0.1-0.2-0.1,0-0.2,0.1
				c0,0,0.1,0,0.1,0c-0.2,0.2,0.2,0,0.1,0.3l0,0c0,0.1,0.1,0.2,0.1,0.3c-0.1,0,0-0.1-0.1-0.1c0,0.1,0.2,0.3,0.1,0.4
				c0-0.1,0-0.1-0.1-0.2c-0.1,0.1-0.1,0.2-0.1,0.3l0,0L23.9,20l0-0.1c0.3,0.2,0,0.4,0.2,0.6c-0.2-0.2-0.1,0-0.2-0.1
				c0,0.1-0.1,0.1-0.1,0.1c0.1,0.1-0.1,0.2,0.1,0.3c0,0,0,0.1-0.1,0.1c0,0.1,0.1,0,0.1,0c0.1,0.2-0.2,0.5,0,0.8
				c0.1,0.3,0.2,0.3,0.3,0.6c-0.1,0.1-0.1-0.1-0.1-0.1c-0.1,0.1,0,0.2,0,0.4c0,0-0.1,0-0.1,0c0,0.1,0.1,0.1,0.1,0.2
				c0,0-0.1-0.1-0.1-0.1c0,0.1,0.1,0.2,0.1,0.4c-0.1,0-0.1-0.1-0.1-0.1c0,0.1,0.1,0.4,0.2,0.4l0-0.1c0,0.1-0.1,0-0.1,0
				c-0.1-0.1,0-0.2,0.1-0.2l0,0.1c0.2-0.1,0-0.4,0-0.5l0.2,0.1L24,22.7c0,0,0.1-0.1,0.2,0c0.1-0.1-0.1-0.1,0-0.2c0,0,0,0,0,0l0-0.1
				c0,0,0.1,0,0.1,0.1c0.1-0.2-0.1-0.4,0-0.5l0,0c-0.1-0.3-0.1,0-0.2-0.3l0.3-0.2l-0.1,0c0,0,0-0.1,0.1-0.1c-0.1-0.1,0,0-0.1-0.1
				c0.1-0.2,0-0.4,0.1-0.5c-0.1-0.1-0.1,0.2-0.1,0c0.2,0,0-0.2,0.1-0.3c0.1,0,0,0.2,0.1,0c-0.2-0.1,0-0.3,0-0.4
				c-0.1,0-0.1-0.3-0.1-0.5c0,0,0.1-0.4,0.1-0.6l0,0c-0.1,0-0.1-0.2-0.1-0.4c0.1,0,0.1,0,0.2,0.1l0-0.1c0,0-0.1-0.1-0.1-0.2l0.1,0
				c0-0.2-0.1-0.4-0.1-0.6c-0.1,0-0.3,0.2-0.3-0.1c0.1,0,0.1,0,0.2,0c0,0,0-0.1,0-0.1l0.1,0.1c0-0.1-0.1-0.1-0.1-0.1
				c0.1,0,0.1-0.1,0.1,0c0,0,0,0.1,0,0.1c0-0.1,0.1-0.2,0.1-0.2c0,0-0.1,0-0.1-0.1c0-0.2,0.1-0.1,0.1-0.2c-0.1,0,0-0.2-0.1-0.2
				c0-0.1,0.1-0.1,0.1-0.1c0-0.1,0-0.4-0.1-0.3l0,0l0,0v0v0c-0.1-0.3,0.1-0.6,0-0.9l0,0c0-0.2,0-0.4-0.1-0.5c0-0.1,0.1-0.1,0.1-0.1
				c0-0.1-0.1-0.2,0-0.4c0.1,0.1,0.1,0,0,0.1c0-0.2,0.1-0.2,0-0.4c0.1,0.1,0.1-0.1,0.1-0.2l-0.1,0.1c0-0.1,0-0.2,0-0.3l0.1,0
				c0.2-0.4-0.3-0.7,0-0.9c-0.1-0.1-0.1,0.2-0.2,0.1c0-0.2,0.2-0.3,0.2-0.4c0.1-0.2-0.2-0.2-0.1-0.5c0,0-0.2,0.1-0.2-0.1
				c0-0.2,0.2-0.3,0.2-0.1c0,0.1,0,0.1,0,0.1c0,0.1,0,0.1,0.1,0.1l0,0c0-0.1,0-0.5,0.1-0.4c0-0.2-0.1,0-0.1,0.1c0-0.3,0-0.4,0-0.6
				c-0.1,0-0.2,0-0.3,0c0,0,0,0.1,0,0.1c-0.5-0.1-0.3,0.1-0.6,0.1c-0.1-0.1,0-0.2-0.2-0.1c-0.1,0,0-0.1,0-0.2
				c-0.2,0.1-0.4-0.1-0.5-0.1l0.1,0c-0.1,0-0.1,0-0.2,0l0.1,0.1c-0.1,0-0.1,0-0.1-0.1c-0.1,0.1,0,0.1-0.1,0.2c-0.1,0-0.3,0-0.3-0.1
				c0.3,0,0-0.1,0.2-0.1c0,0-0.1,0-0.2,0c0,0,0,0,0,0c-0.3-0.1-0.1,0.1-0.4,0.1c0-0.1-0.1-0.1-0.1-0.1c0.1,0,0.1,0.1,0,0.2
				c-0.2-0.1-0.2,0-0.3,0l0.1,0c0,0.1-0.1,0.1-0.2,0.1c0-0.1,0.1,0,0.1-0.1c-0.1,0.1-0.3-0.1-0.5,0c-0.1,0,0-0.1-0.1-0.2
				c-0.2,0.1-0.2-0.1-0.4,0c0.1,0.1,0.1,0.1-0.1,0.2l0.3-0.1l-0.2,0.1c0.1,0,0.2-0.1,0.3,0c-0.1,0.1-0.1,0.1,0,0.1
				c-0.1-0.1-0.3,0.1-0.5,0l0-0.2c-0.3-0.1-0.4,0.1-0.8,0.1l0.1,0c0,0.1-0.2,0-0.3,0c0-0.1-0.1-0.1-0.1-0.1c0,0.1-0.2,0-0.3,0.1
				l-0.1-0.1c-0.3,0-0.3,0.2-0.6,0.2c0.1-0.1,0-0.1,0.1-0.2c-0.1,0-0.2,0-0.2,0c0,0-0.2,0.1-0.3,0c0,0,0,0.1-0.1,0.1c0,0,0,0,0,0
				c0,0-0.1,0-0.1,0.1c-0.3-0.2-0.7,0-1-0.2c-0.2,0-0.4,0-0.6,0.1c0,0,0,0,0,0c-0.2-0.1-0.1,0.2-0.4,0.1c-0.1-0.1,0.1-0.1,0.1-0.1
				c0-0.2-0.3,0-0.5-0.1l0,0c-0.1-0.1-0.3,0.1-0.5,0.1c0,0,0,0,0,0c-0.2,0.1-0.4,0.2-0.6,0.2c0.1-0.1,0.1-0.1,0.1-0.1
				c-0.1,0,0,0.2-0.2,0.2c-0.1-0.1-0.2-0.1-0.2-0.2l0.2,0c-0.1-0.1-0.2,0-0.3,0l0-0.1c-0.3,0-0.3,0.2-0.6,0.2l0,0
				c-0.2,0.1-0.1-0.1-0.3,0l0-0.1c-0.1,0-0.4,0.1-0.6,0.2c0.1-0.1,0.3-0.2,0.5-0.2c-0.1,0-0.4,0-0.4,0.1c0,0,0.1-0.1,0.1,0
				c-0.1,0.1-0.3,0.2-0.5,0.2c0-0.2-0.4-0.2-0.7-0.2c0,0.2,0,0.3-0.1,0.3c0.1,0.3,0,0.6,0,0.8c0,0.2-0.1,0.4,0,0.6
				c0.2-0.2,0,0.1,0.2,0.1c0,0.1,0,0.1,0,0.1l-0.1,0.3c-0.1,0.1-0.1-0.1-0.1-0.1c0,0.2-0.1,0.1-0.2,0.2c0.1,0,0.1,0.1,0.1,0.2
				l0.1-0.2c0.1,0.3-0.2,0.3-0.1,0.6l-0.1-0.1c0,0.2,0,0.6,0.2,0.7c0,0-0.1,0.1-0.1,0c0,0.4,0.2,0.8,0.1,1.1l-0.1,0
				c0,0.1,0.1,0.1,0,0.2c0,0-0.1,0-0.1,0c0,0,0.1,0.2,0.1,0.3l-0.1-0.1c-0.1,0.4,0.2,0.6,0.2,0.9c-0.2,0-0.2,0.3-0.2,0.4l0,0
				c0,0.4,0.1,0.7,0.2,1.1c-0.2,0.2-0.1,0.8-0.2,1.2c0-0.1,0.1,0,0.1,0.1c0,0.1,0.1,0.3,0,0.2l0,0c-0.1,0.1-0.1,0.3-0.1,0.4l0.2,0
				c-0.3,0.4,0.1,1-0.2,1.2c0,0.1,0,0.2,0.1,0.3l-0.1,0c0,0.3,0,0.4,0,0.7l-0.1-0.1c0,0.2,0.3,0.3,0.3,0.5c-0.1,0-0.1,0.1-0.2,0.2
				c0,0.2,0,0.3,0,0.5c0.3,0,0.8,0.1,1.1,0c0,0,0,0.1-0.1,0.1c0.2,0,0.6,0.1,0.5-0.1c0,0.1,0.3,0,0.5,0l0,0.1
				c0.1-0.1,0.2-0.2,0.4-0.2c0,0,0,0.1,0,0.1c0.2,0.1,0.1-0.1,0.3,0L14,24.6c0.2,0,0.2,0,0.2-0.1c0.1,0,0.3,0,0.3,0.1
				c0-0.1,0.1-0.1,0.2-0.1c0,0,0,0.1,0,0.1c0.3,0.1,0.4-0.1,0.6,0c0,0,0,0.1,0,0.1c-0.2,0-0.4,0-0.4,0c0,0.1,0.2,0.1,0,0.2
				c0.1-0.1,0.4-0.2,0.6-0.2c0,0,0,0,0,0l0,0c0,0,0.1,0,0.1,0c0.1,0,0.1,0,0.1,0c0,0.1,0.2,0,0.3,0c0-0.1,0.1-0.1,0-0.2
				c0,0,0,0-0.1,0c0,0,0,0,0,0l0,0c-0.1,0-0.1,0-0.2,0c0.1-0.1,0.1-0.1,0.2,0c0-0.1,0.1-0.1,0.1-0.2c0.1,0.1,0.4,0.2,0.4,0.3
				c0.3-0.1,0.6,0,0.8-0.2c0.1,0,0.1,0.1,0.1,0.1c0,0-0.1,0-0.1,0c0.2-0.1,0.5,0,0.5-0.2c0.2,0.1-0.1,0.1,0.2,0.1l0,0
				c0.5,0.2,0.9-0.4,1.4-0.1c0,0-0.1,0-0.1,0c0.7,0.1,1.4-0.1,2,0.1c0.2,0,0.2,0,0.3-0.1l0,0.1l0.2-0.1c0.3-0.1,0.5,0.3,0.8,0.1
				l0-0.1c0.1,0,0.4,0,0.4,0c0,0,0-0.1,0.1,0l0,0.1l0.3-0.1c0.2,0,0,0.2,0.3,0.2c0.1,0,0.4-0.2,0.3-0.2c-0.1,0-0.1,0-0.1-0.1l0.1,0
				c0-0.2,0.1-0.4-0.2-0.5l-0.2,0.1l-0.1-0.1l0.2,0c-0.1-0.1-0.2,0-0.2,0c0,0,0-0.1-0.1-0.1l-0.2,0.2c0-0.1,0.1-0.1,0-0.2
				c-0.1,0.1,0.1,0.2-0.1,0.2c-0.1-0.1-0.1-0.1-0.2-0.1c0,0,0-0.1,0.1-0.1c-0.1,0.1-0.3,0-0.3,0.1c-0.1-0.1-0.3,0-0.3-0.1
				c0,0-0.2,0.1-0.3,0.1c0.2-0.2-0.3,0-0.3-0.2c-0.1,0.2-0.5,0.1-0.7,0.2c0,0,0,0,0.1,0c-0.1,0-0.2-0.1-0.2-0.1
				c0,0.1-0.2,0.2-0.3,0.3c-0.2-0.1,0.1-0.2,0-0.3c0,0.1-0.3,0.1-0.2,0.2c-0.1-0.1-0.1,0-0.2-0.2c0,0.2-0.1,0-0.2,0.1
				c-0.2-0.1,0-0.2-0.2-0.1C19.8,23.7,20,23.7,20,23.7z M15.6,24L15.6,24C15.6,24,15.6,24,15.6,24C15.6,24,15.6,24,15.6,24z
				 M15.2,24c0,0,0.1,0,0.2,0c0,0,0,0.1,0,0.1C15.3,24,15.2,24,15.2,24z M16,24.7C15.9,24.7,15.9,24.7,16,24.7
				C15.9,24.7,16,24.7,16,24.7C16,24.7,16,24.7,16,24.7C16,24.7,16,24.7,16,24.7z"/>
			<path class="st1" d="M16.1,24.6C16.1,24.6,16.1,24.6,16.1,24.6L16.1,24.6L16.1,24.6L16.1,24.6z"/>
			<path class="st1" d="M24.3,16.8L24.3,16.8C24.3,16.8,24.3,16.9,24.3,16.8L24.3,16.8z"/>
			<polygon class="st1" points="12.3,22.5 12.3,22.5 12.3,22.5 			"/>
			<path class="st1" d="M23.9,18.9C23.9,18.9,23.9,18.9,23.9,18.9C23.9,18.9,23.9,18.9,23.9,18.9z"/>
			<path class="st1" d="M23.9,19.8l0,0.1C23.9,19.9,23.9,19.8,23.9,19.8z"/>
			<path class="st1" d="M23.9,20.5C23.9,20.5,23.9,20.5,23.9,20.5L23.9,20.5L23.9,20.5z"/>
			<path class="st1" d="M21.8,12.4L21.8,12.4C21.7,12.4,21.8,12.4,21.8,12.4z"/>
			<path class="st1" d="M24,12.9c0,0,0-0.1,0-0.1C23.9,12.8,23.9,12.9,24,12.9z"/>
			<polygon class="st1" points="18.2,12.5 18.2,12.5 18.2,12.5 			"/>
			<path class="st1" d="M23.9,12.6c0,0.1,0,0.1,0,0.1C23.9,12.7,23.9,12.7,23.9,12.6z"/>
			<path class="st1" d="M23.8,23.4L23.8,23.4C23.8,23.5,23.8,23.5,23.8,23.4L23.8,23.4z"/>
			<path class="st1" d="M23.8,23.5L23.8,23.5C23.8,23.5,23.8,23.5,23.8,23.5z"/>
			<path class="st1" d="M23.9,23.6L23.9,23.6C23.8,23.5,23.8,23.6,23.9,23.6z"/>
			<path class="st1" d="M23.9,22.5L23.9,22.5C23.8,22.5,23.8,22.5,23.9,22.5z"/>
			<path class="st1" d="M23.8,22.2c0,0.1-0.1,0.2-0.1,0.3l0,0C23.8,22.5,23.9,22.3,23.8,22.2z"/>
			<path class="st1" d="M24.3,21.1l0,0.2c0,0,0.1-0.1,0.1,0C24.5,21.1,24.3,21.4,24.3,21.1z"/>
			<path class="st1" d="M24.4,20.4C24.4,20.5,24.4,20.4,24.4,20.4C24.4,20.3,24.4,20.3,24.4,20.4z"/>
			<path class="st1" d="M24.4,15.2L24.4,15.2C24.5,15.2,24.4,15.3,24.4,15.2z"/>
			<polygon class="st1" points="23.9,14.3 23.8,14.4 23.9,14.4 			"/>
			<polygon class="st1" points="24.6,13.7 24.6,13.7 24.5,13.6 			"/>
			<path class="st1" d="M17.2,11.6l0,0.1C17.3,11.7,17.3,11.5,17.2,11.6z"/>
			<path class="st1" d="M13.5,11.7c0-0.1-0.1-0.1-0.2,0C13.4,11.6,13.4,11.7,13.5,11.7z"/>
			<polygon class="st1" points="11.4,21.5 11.3,21.4 11.4,21.6 			"/>
		</g>
		<g>
			<path class="st1" d="M17.6,21.2C17.7,21.3,17.7,21.3,17.6,21.2L17.6,21.2L17.6,21.2z"/>
			<path class="st1" d="M17.9,21.2c0-0.1-0.1-0.1-0.2-0.2C17.8,21.1,17.7,21.1,17.9,21.2c-0.1,0-0.1,0-0.2,0c0,0,0,0,0,0.1
				C17.9,21.3,17.9,21.2,17.9,21.2C17.9,21.1,17.9,21.2,17.9,21.2z"/>
			<path class="st1" d="M19.5,18.6L19.5,18.6C19.5,18.6,19.5,18.6,19.5,18.6z"/>
			<path class="st1" d="M20.4,17C20.4,17,20.4,17,20.4,17C20.4,17,20.4,17,20.4,17z"/>
			<path class="st1" d="M20.7,16.8L20.7,16.8C20.7,16.8,20.7,16.8,20.7,16.8z"/>
			<path class="st1" d="M19.5,18.6L19.5,18.6C19.5,18.6,19.5,18.6,19.5,18.6z"/>
			<path class="st1" d="M17.9,20.7C17.9,20.7,17.9,20.7,17.9,20.7L17.9,20.7L17.9,20.7z"/>
			<path class="st1" d="M19.2,19.4L19.2,19.4C19.2,19.4,19.2,19.4,19.2,19.4L19.2,19.4z"/>
			<path class="st1" d="M18.9,19.9c0,0-0.1-0.1-0.1-0.1C18.8,19.9,18.8,19.9,18.9,19.9C18.9,19.9,18.9,19.9,18.9,19.9z"/>
			<path class="st1" d="M18.3,20.7L18.3,20.7L18.3,20.7z"/>
			<path class="st1" d="M19.4,19C19.4,19,19.4,19,19.4,19C19.4,19,19.4,19,19.4,19z"/>
			<path class="st1" d="M18,20.5L18,20.5C18,20.5,18,20.5,18,20.5z"/>
			<polygon class="st1" points="17.8,21.4 17.8,21.4 17.8,21.4 			"/>
			<path class="st1" d="M21,16.3L21,16.3C21,16.3,21,16.3,21,16.3z"/>
			<path class="st1" d="M17.3,14.4c0.1,0.1-0.1,0.1,0,0.2C17.3,14.6,17.4,14.5,17.3,14.4z"/>
			<path class="st1" d="M17.9,20.7L17.9,20.7C17.9,20.6,17.9,20.7,17.9,20.7z"/>
			<path class="st1" d="M17.3,14.6L17.3,14.6L17.3,14.6C17.3,14.6,17.3,14.6,17.3,14.6z"/>
			<path class="st1" d="M21.9,14.5C21.9,14.5,21.9,14.5,21.9,14.5C21.8,14.6,21.9,14.5,21.9,14.5z"/>
			<path class="st1" d="M21,15.9L21,15.9C21,15.9,21,15.9,21,15.9z"/>
			<path class="st1" d="M21.1,14.5C21,14.5,21.1,14.5,21.1,14.5C21,14.5,21,14.5,21.1,14.5C21,14.5,21.1,14.5,21.1,14.5z"/>
			<polygon class="st1" points="20.3,14.5 20.3,14.6 20.3,14.6 			"/>
			<path class="st1" d="M17.2,19C17.2,19.1,17.2,19.1,17.2,19C17.2,19.1,17.3,19.1,17.2,19z"/>
			<path class="st1" d="M17.9,20.7C17.9,20.7,17.9,20.7,17.9,20.7L17.9,20.7C17.9,20.7,17.9,20.7,17.9,20.7z"/>
			<path class="st1" d="M20.3,15.4L20.3,15.4C20.3,15.4,20.3,15.4,20.3,15.4z"/>
			<path class="st1" d="M15.6,15.6L15.6,15.6C15.6,15.6,15.6,15.6,15.6,15.6z"/>
			<path class="st1" d="M20.3,15.4C20.3,15.3,20.3,15.3,20.3,15.4C20.3,15.3,20.3,15.3,20.3,15.4L20.3,15.4z"/>
			<path class="st1" d="M17.2,19.1L17.2,19.1L17.2,19.1z"/>
			<path class="st1" d="M17.6,19.5c0-0.1-0.1,0-0.2,0c-0.1-0.1,0.1-0.1,0.1-0.1c-0.1,0-0.2,0-0.2-0.1c0,0,0,0,0.1,0
				c-0.1,0-0.1-0.2-0.2-0.2c0,0,0,0,0,0c-0.1,0-0.1,0.1-0.2,0.1c0,0-0.1,0,0-0.1c0,0,0,0,0.1,0l-0.1,0c0.1-0.1,0.1,0,0.1,0
				c-0.1,0-0.2-0.1-0.2-0.1c0.1-0.1,0.1,0.1,0.2,0l0,0.1c0.2-0.1,0,0.1,0.2-0.1c0-0.1-0.1-0.1-0.1-0.2c-0.1,0-0.1,0.1-0.2,0.1
				c-0.2-0.1,0.2-0.3,0-0.3c-0.1,0-0.2,0.1-0.2,0l0.1,0c0-0.1-0.2,0-0.2-0.1c0.1,0,0.1,0.1,0.1,0c0.1-0.1-0.1,0-0.1-0.1l0.1-0.1
				c-0.1-0.1-0.2-0.2-0.3-0.3c0,0,0.1,0,0.1-0.1c-0.1-0.1-0.1-0.3-0.1-0.5l-0.1,0c0,0,0,0,0.1,0c0-0.1-0.1,0-0.1,0
				c0,0,0-0.1,0.1-0.1c-0.1-0.1-0.3-0.2-0.3-0.4l0,0c0-0.1-0.2,0-0.2-0.1l0,0c0-0.2-0.2-0.4-0.1-0.6c-0.2,0,0-0.2-0.2-0.1
				c0.1-0.1,0.1-0.1,0.1-0.3c0,0-0.2,0-0.2,0l0.1-0.1l-0.1,0l0.1-0.1l0,0c0,0,0,0.1-0.1,0.1c0,0,0-0.1,0-0.1c0,0,0.1,0,0.1-0.1
				c0,0-0.1,0-0.1,0c0.1,0,0.1,0,0.1,0c-0.1,0,0.1,0,0,0c0,0-0.1,0-0.1,0c0.1,0,0.1,0,0,0l0.1,0c0,0-0.1-0.1-0.1-0.1
				c-0.1,0-0.3-0.2-0.3-0.2l0.1,0.1l0.1,0.1c-0.1,0-0.1-0.1-0.1-0.1c0,0,0,0,0,0c0,0,0,0-0.1,0c0.1,0,0.2,0.1,0.3,0.2l0,0
				c0.1,0,0.1,0.1,0.1,0.1c-0.1-0.1,0.2,0.1,0,0l0,0c0,0,0,0,0,0c-0.1-0.1,0-0.1-0.1-0.2c0.1,0,0.1,0.1,0.1,0.1
				c0.1-0.1,0-0.1,0.1-0.2c0,0.1,0.1,0.1,0.1,0.2c0.1,0,0.2,0,0.3-0.1c0,0,0-0.1,0-0.1c0,0,0.1,0,0.1,0.1l0,0
				c0.2-0.1,0.4,0.3,0.6,0.1l0,0l0.2-0.1c0.1,0,0,0.1,0,0.1c0.2-0.2,0.3,0,0.4-0.1c0.1,0.3,0.4,0,0.5,0.2l0-0.1c0-0.1,0,0,0.1,0.1
				c0-0.1,0-0.1,0-0.1c0.3-0.1,0.6,0.1,1,0.2c0.1,0,0.1-0.3,0.2-0.2l0,0.1c0.2-0.1,0.5,0,0.7-0.1c0,0,0,0.1,0,0.1
				c0,0.1,0.2,0,0.2-0.1c0,0,0,0.1,0,0.1c0,0.1,0.1-0.1,0.1,0c0,0,0,0,0,0c0,0,0.1,0,0.1-0.1c0.1,0,0.1,0,0.1,0
				c0.1-0.1,0,0.1,0.1-0.1c-0.1,0.2,0,0.1,0,0.1c0,0.1,0,0.1-0.1,0.1c0,0,0.1,0,0.1-0.1c-0.2,0.2,0.3-0.2-0.1,0.1l0.1,0
				c0.1,0,0.2,0,0.2,0c-0.2,0.1,0-0.1-0.2,0c0.1,0,0.2,0,0.2,0.1c0,0-0.1,0-0.1,0c0,0,0,0,0,0.1c0,0,0,0.1,0,0.2c0,0,0,0,0,0
				c0,0-0.1,0,0,0.1l0,0c0.1,0,0.2,0.2,0.2,0.2c-0.2-0.1-0.1,0.1-0.3-0.1c0,0,0,0.1,0.1,0.1c0,0-0.1,0-0.1,0c0,0.1,0.1,0.1,0,0.2
				c0,0,0,0-0.1-0.1c0,0.1,0.1,0.1,0,0.2c0,0,0,0,0,0c-0.1,0.1,0.1,0.3-0.1,0.4c-0.1-0.1-0.1,0-0.2,0l0,0.1l0.1,0c0,0.1,0,0.2,0,0.2
				l0-0.1l0,0.1l0.1,0c0,0.1,0.2,0.1,0.1,0.1c0,0,0,0.1-0.1,0.1l0,0c0,0.1,0,0.1,0,0.1c0,0-0.1-0.1-0.2-0.1c0.1,0.1,0,0.2,0,0.2
				c0,0-0.1-0.1-0.1-0.1l0.1,0.1c0,0-0.1,0-0.1,0c-0.1,0.1,0.2,0.1,0.1,0.1c0,0,0,0,0,0c-0.1,0.1,0,0.2-0.1,0.3
				c-0.1,0,0-0.1-0.1-0.1c0,0.1,0,0.4-0.1,0.5l0,0c0.2,0.1-0.1,0.1-0.1,0.2c0,0-0.1-0.1-0.1-0.1c-0.1,0.1,0,0.2-0.1,0.4l0,0
				c-0.1,0-0.1,0.1-0.1,0.2c0,0,0,0.1,0.1,0.1c-0.3,0,0,0.4-0.3,0.4c0,0,0-0.1,0,0l0,0.2c0.1,0,0.1,0,0.1,0c0,0,0.1,0.1,0,0.1
				c0-0.1-0.1-0.1-0.2-0.1c0,0,0,0,0.1,0c-0.2,0,0.1,0.1,0,0.1l0,0c0,0,0,0.1,0,0.1c-0.1,0,0-0.1-0.1-0.1c0,0.1,0.1,0.2,0,0.2
				c0,0,0-0.1,0-0.1c-0.1,0-0.1,0-0.1,0l0,0l-0.1,0.1l0,0c0.2,0.2,0,0.2,0.1,0.3c-0.1-0.2-0.1-0.1-0.2-0.1c0,0-0.1,0-0.1,0
				c0.1,0.1-0.1,0,0,0.2c0,0,0,0-0.1,0c0,0.1,0.1,0,0.1,0c0.1,0.1-0.2,0.1-0.1,0.3c0,0.1,0.1,0.2,0.1,0.3c-0.1,0-0.1-0.1-0.1-0.1
				c-0.1,0-0.1,0.1-0.1,0.1c0,0-0.1,0-0.1,0c0,0,0.1,0.1,0,0.1c0,0-0.1-0.1-0.1-0.1c0,0.1,0,0.1,0,0.2c-0.1,0-0.1-0.1-0.1-0.1
				c0,0.1,0,0.2,0.1,0.2l0.1,0c0,0-0.1,0-0.1-0.1c0-0.1,0.1-0.1,0.1,0l0,0c0.2,0.1,0-0.2,0.1-0.2l0.1,0.1l-0.1-0.1
				c0,0,0.1,0,0.1,0.1c0.1,0,0-0.1,0.1-0.1c0,0,0,0,0,0l0-0.1c0,0,0.1,0,0.1,0.1c0.1,0,0-0.2,0.1-0.2l0,0c0-0.1-0.1-0.1-0.2-0.2
				l0.3,0.1l-0.1-0.1c0,0,0,0,0.1,0c0-0.1,0,0-0.1-0.1c0.1,0,0-0.2,0.2-0.1c-0.1-0.1-0.1,0-0.1-0.1c0.2,0.1,0-0.1,0.1-0.1
				c0.1,0.1,0,0.1,0.1,0.1c-0.1-0.1,0.1-0.1,0.1-0.2c-0.1-0.1,0-0.1,0-0.2c0,0,0.1-0.1,0.2-0.2l0,0C19,19.5,19,19.4,19,19.3
				c0.1,0,0.1,0.1,0.1,0.1l0-0.1c0,0,0-0.1,0-0.1l0.1,0.1c0-0.1,0-0.2,0.1-0.2c-0.1,0-0.3-0.1-0.3-0.2c0,0,0.1,0.1,0.1,0.1
				c0,0,0,0,0-0.1l0.1,0.1c0.1,0-0.1-0.1,0-0.1c0.1,0,0.1,0,0.1,0c0,0,0,0,0,0c0,0,0.1-0.1,0.1,0c0,0-0.1,0-0.1-0.1
				c0-0.1,0.1,0,0.1,0c0,0,0-0.1-0.1-0.1c0,0,0.1,0,0.1,0c0-0.1,0.1-0.2-0.1-0.2l0,0l0,0l0,0l0,0c0-0.2,0.2-0.2,0.2-0.3l0,0
				c0-0.1,0.1-0.2,0-0.2c0,0,0.1,0,0.1,0c0-0.1,0-0.1,0.1-0.1c0,0.1,0.1,0,0,0.1c0.1-0.1,0.1,0,0.1-0.2c0.1,0.1,0.1,0,0.1,0l-0.1,0
				c0,0,0-0.1,0.1-0.1l0.1,0.1c0.2-0.1-0.1-0.4,0.2-0.4c-0.1-0.1-0.1,0-0.2,0c0-0.1,0.2,0,0.3-0.1c0.1-0.1-0.1-0.2,0-0.2
				c0,0-0.2-0.1-0.2-0.1c0-0.1,0.2,0,0.2,0.1c0,0,0,0,0,0c0,0,0,0.1,0.1,0.1l0,0c0.1,0,0.1-0.1,0.2,0c0-0.1-0.1-0.1-0.1,0
				c0.1-0.1,0.1-0.1,0.2-0.2c0,0-0.1,0-0.1,0c0.1-0.1,0-0.1,0-0.2c0.1,0,0.1,0.1,0.1,0c0.1,0,0.1,0,0.1,0.1c0-0.1,0.1-0.1,0.2-0.2
				l0,0.1c0,0,0-0.1,0-0.1l-0.1,0c0,0,0,0,0.1,0c0-0.1-0.1,0-0.2-0.1c0.1,0,0-0.1,0.1-0.1c-0.1,0.1,0.1,0,0.1,0.1c0,0,0,0,0-0.1
				c0,0,0,0,0,0c0.1,0-0.1-0.1,0-0.2c0.1,0,0.1,0,0.1,0c0,0-0.1,0-0.1-0.1c0.1,0,0-0.1,0-0.1l0,0c-0.1,0,0-0.1,0-0.1
				c0,0,0,0.1,0,0.1c-0.1-0.1,0.2-0.1,0.2-0.2c0.1,0,0.1,0,0.2,0c0-0.1,0.2-0.1,0.2-0.3c-0.1,0.1-0.1,0-0.2,0l0,0.2
				c0,0-0.1-0.1-0.1-0.1c0,0.1,0,0.1,0,0.2c0-0.1,0-0.1-0.1,0c0.2-0.1,0-0.1,0.1-0.2l0.3,0c0.2-0.2,0-0.2,0.2-0.4l-0.1,0.1
				c-0.1,0,0-0.1,0-0.1c0.1-0.1,0.2-0.1,0.3-0.2c-0.1,0,0-0.1,0-0.1c-0.1,0-0.1,0-0.2,0.1c0,0,0-0.1,0.1-0.1c-0.1,0-0.5,0.2-0.6,0.2
				c0.1-0.1,0.1-0.1,0.3-0.2c-0.1,0-0.1,0-0.2,0c0,0-0.2,0.1-0.2,0c-0.1,0-0.1,0.1-0.2,0.1c0,0,0,0,0,0c0,0-0.1,0-0.1,0.1
				c0-0.2-0.4,0-0.5-0.2c-0.1,0-0.2,0-0.3,0.1c0,0,0,0,0,0c-0.1-0.1-0.1,0.2-0.2,0.1c-0.1-0.1,0.1-0.1,0-0.1c0-0.2-0.1,0-0.2-0.1
				l0,0c-0.1-0.1-0.1,0.1-0.2,0.1c0,0,0,0,0,0c-0.1,0.1-0.2,0.2-0.3,0.2c0-0.1,0-0.1,0-0.1c0,0,0,0.2-0.1,0.2c0-0.1-0.1-0.1-0.1-0.2
				l0.1,0c0-0.1-0.1,0-0.1,0l0-0.1c-0.1,0-0.1,0.2-0.2,0.2l0,0c-0.1,0.1-0.1-0.1-0.1,0l0-0.1c0,0-0.2,0.1-0.2,0.2
				c0-0.1,0.1-0.2,0.2-0.2c0,0-0.2,0-0.2,0.1c0,0,0-0.1,0.1,0c-0.1,0.1-0.1,0.2-0.2,0.2c0-0.3-0.2-0.1-0.3-0.3c-0.2,0.1-0.3,0-0.5,0
				c0.1,0.2-0.1,0,0,0.2c0,0-0.1,0-0.1,0l-0.1-0.1c0-0.1,0-0.1,0-0.1c-0.1,0,0-0.1-0.1-0.2c0,0.1,0,0.1-0.1,0.1l0.1,0.1
				c-0.1,0.1-0.1-0.2-0.2-0.1l0-0.1c-0.1,0-0.3,0-0.3,0.2c0,0,0-0.1,0-0.1c-0.2,0-0.4,0.2-0.5,0.1l0-0.1c0,0-0.1,0.1-0.1,0
				c0,0,0-0.1,0-0.1c0,0-0.1,0.1-0.1,0.1l0-0.1c-0.2-0.1-0.2,0.2-0.4,0.2c0-0.2-0.3-0.2-0.4-0.2l0,0c-0.4,0-0.5,0.1-0.6,0.2
				c-0.1-0.1-0.3-0.1-0.4-0.1c0,0.2,0.2,0.4,0.2,0.6c0,0,0.2,0.1,0.2,0.1c0,0.1,0.2,0.2,0,0.1l0,0c-0.2,0,0,0.2,0,0.3l0.2,0
				c-0.1,0.1,0,0.3,0.1,0.4c0.1,0.1,0.1,0.1,0,0.2c0.1,0,0.1,0.1,0.1,0.1l-0.1,0c0,0.1,0,0.2,0.1,0.3l-0.1,0c0,0.1,0.3,0,0.4,0
				l-0.1,0.1c0.1,0.1,0,0.3,0.2,0.4c0,0-0.1,0-0.1,0c0,0.1,0,0.3,0.2,0.2c-0.1,0.1,0,0.1,0.1,0.2l-0.1,0c0.1,0,0.2,0,0.3,0
				c0,0-0.1,0.1-0.1,0c0,0.1,0.1,0,0.1,0.1l-0.1,0c0,0.1,0.1,0,0.1,0c0.1,0,0,0.1,0,0.2c0.1,0,0.1,0,0.1,0c0,0-0.1,0-0.1,0
				c0,0.1,0.2,0.1,0.1,0.2c0,0,0,0-0.1,0c0-0.1-0.1-0.2-0.1-0.2c-0.1,0-0.1,0.1-0.2,0.1c0.1,0,0.3,0,0.3,0.1c0,0,0,0,0,0l0,0
				c0,0,0,0,0,0c0,0,0,0,0,0.1c-0.1,0,0,0.1,0,0.1c0.1,0,0.1,0,0.2-0.1c0,0,0,0,0,0c0,0,0,0,0,0l0,0c0,0,0-0.1,0-0.1
				c0.1,0,0.1,0,0.1,0.1c0.1,0,0.1,0,0.2,0c-0.1,0.1-0.1,0.2-0.2,0.3c0.1,0.1,0.2,0.2,0.4,0.2c0,0,0,0.1-0.1,0.1c0,0,0,0-0.1,0
				c0.1,0,0.1,0.2,0.2,0.1c0,0.1-0.1,0-0.1,0.1l0,0c-0.1,0.3,0.5,0.2,0.3,0.5c0,0,0,0,0,0c0,0.3,0.4,0.5,0.3,0.8
				c0,0.1,0.1,0.1,0.2,0.1l-0.1,0.1l0.2,0c0.1,0.1-0.2,0.3,0.1,0.4l0.1-0.1c0,0.1,0.1,0.1,0,0.2c0,0,0.1,0,0.1,0l-0.1,0l0.1,0.1
				c0,0.1-0.2,0.1-0.2,0.2c0,0,0.2,0.1,0.3,0c0,0,0-0.1,0.1-0.1l0,0c0.2-0.1,0.3-0.1,0.4-0.3l-0.1,0l0.1-0.1l0,0.1
				c0.1-0.1,0-0.1-0.1-0.1c0,0,0.1-0.1,0.1-0.1l-0.2,0c0.1,0,0.1,0,0.1-0.1c-0.1,0-0.1,0.1-0.2,0.1c0.1-0.1,0.1-0.1,0-0.1
				c0,0,0.1,0,0.1,0c-0.1,0-0.1-0.1-0.2-0.1c0.1-0.1-0.1-0.1,0.1-0.2c0,0-0.1,0-0.2,0c0.2,0-0.1-0.1,0.1-0.2c-0.2,0-0.2-0.1-0.3-0.2
				c0,0,0,0,0,0c0-0.1,0-0.1,0-0.1c-0.1,0.1-0.2,0-0.3,0c0.1-0.1,0.2,0,0.3-0.1c-0.1,0.1-0.2-0.1-0.2,0c0.1-0.1,0-0.1,0.1-0.1
				c-0.2,0.1,0,0-0.2,0c0.1-0.1,0.1-0.1,0.1-0.1C17.5,19.5,17.6,19.5,17.6,19.5z M16.5,17.9L16.5,17.9C16.5,17.9,16.5,18,16.5,17.9
				C16.5,18,16.5,18,16.5,17.9z M16.5,17.8C16.5,17.8,16.5,17.8,16.5,17.8C16.4,17.9,16.4,17.9,16.5,17.8
				C16.4,17.9,16.4,17.8,16.5,17.8z M15.9,18.4C15.9,18.4,15.9,18.4,15.9,18.4C16,18.4,16,18.4,15.9,18.4L15.9,18.4
				C16,18.4,16,18.4,15.9,18.4z"/>
			<polygon class="st1" points="16.1,18.4 16.1,18.4 16.1,18.4 16.1,18.4 			"/>
			<path class="st1" d="M19.5,18.6L19.5,18.6C19.5,18.6,19.4,18.6,19.5,18.6C19.4,18.6,19.5,18.6,19.5,18.6z"/>
			<polygon class="st1" points="15.7,15.7 15.7,15.7 15.7,15.7 			"/>
			<path class="st1" d="M18.7,19.2C18.7,19.2,18.7,19.2,18.7,19.2C18.7,19.2,18.7,19.2,18.7,19.2z"/>
			<path class="st1" d="M18.5,19.6L18.5,19.6C18.5,19.6,18.5,19.6,18.5,19.6z"/>
			<path class="st1" d="M18.3,19.8C18.4,19.8,18.4,19.8,18.3,19.8L18.3,19.8L18.3,19.8z"/>
			<path class="st1" d="M20.4,15.6L20.4,15.6C20.4,15.6,20.4,15.6,20.4,15.6z"/>
			<path class="st1" d="M20,17C19.9,16.9,19.9,16.9,20,17C19.9,16.9,19.9,16.9,20,17z"/>
			<polygon class="st1" points="20.3,15.4 20.3,15.4 20.3,15.4 			"/>
			<path class="st1" d="M20,16.8C19.9,16.9,19.9,16.9,20,16.8C19.9,16.9,20,16.9,20,16.8z"/>
			<path class="st1" d="M17.7,20.9L17.7,20.9C17.7,20.9,17.7,20.9,17.7,20.9L17.7,20.9z"/>
			<path class="st1" d="M17.7,20.9L17.7,20.9C17.7,20.9,17.7,20.9,17.7,20.9z"/>
			<path class="st1" d="M17.7,21L17.7,21C17.7,20.9,17.7,21,17.7,21z"/>
			<path class="st1" d="M17.9,20.6L17.9,20.6C17.9,20.6,17.9,20.6,17.9,20.6z"/>
			<path class="st1" d="M18,20.5c0,0-0.1,0-0.1,0.1L18,20.5C17.9,20.5,18,20.5,18,20.5z"/>
			<path class="st1" d="M18.6,20.2L18.6,20.2c0,0.1,0,0.1,0,0.1C18.8,20.3,18.6,20.4,18.6,20.2z"/>
			<path class="st1" d="M18.8,20C18.8,20.1,18.9,20,18.8,20C18.9,20,18.9,20,18.8,20z"/>
			<path class="st1" d="M19.8,18L19.8,18C19.9,18.1,19.9,18.1,19.8,18z"/>
			<polygon class="st1" points="19.6,17.4 19.5,17.5 19.6,17.5 			"/>
			<polygon class="st1" points="20.3,17.5 20.3,17.6 20.3,17.5 			"/>
			<path class="st1" d="M20.4,14.5l0,0.1C20.5,14.5,20.5,14.4,20.4,14.5z"/>
			<path class="st1" d="M18.7,14.6C18.7,14.5,18.7,14.5,18.7,14.6C18.7,14.5,18.7,14.6,18.7,14.6z"/>
			<polygon class="st1" points="14.6,15.6 14.5,15.6 14.6,15.7 			"/>
		</g>
		<g>
			<g>
				<path class="st1" d="M26.8,18C26.8,18,26.9,18,26.8,18l0-0.1L26.8,18z"/>
				<path class="st1" d="M27,17.5c-0.1-0.1-0.2-0.2-0.3-0.1C26.8,17.4,26.7,17.4,27,17.5c0,0.2-0.1,0.2-0.1,0.2c0,0,0,0.1,0.1,0.2
					C27,17.7,27,17.6,27,17.5C26.9,17.4,26.9,17.4,27,17.5z"/>
				<path class="st1" d="M23.3,10.5L23.3,10.5C23.3,10.6,23.3,10.6,23.3,10.5z"/>
				<path class="st1" d="M18.6,8.8C18.7,8.8,18.7,8.8,18.6,8.8C18.6,8.8,18.6,8.8,18.6,8.8z"/>
				<path class="st1" d="M17.7,8.6C17.8,8.6,17.8,8.6,17.7,8.6C17.8,8.6,17.8,8.6,17.7,8.6z"/>
				<path class="st1" d="M23.3,10.5l-0.1-0.1C23.2,10.5,23.3,10.5,23.3,10.5z"/>
				<path class="st1" d="M26.5,16.4C26.5,16.4,26.6,16.5,26.5,16.4L26.5,16.4L26.5,16.4z"/>
				<path class="st1" d="M25,12L25,12C25.1,12,25.1,12,25,12L25,12z"/>
				<path class="st1" d="M26.1,13.4c0,0-0.1,0-0.2,0C25.9,13.4,26,13.4,26.1,13.4C26,13.4,26,13.4,26.1,13.4z"/>
				<path class="st1" d="M26.9,16L26.9,16C26.9,16,26.9,16,26.9,16z"/>
				<path class="st1" d="M24.2,11.1C24.2,11.1,24.2,11,24.2,11.1C24.2,11,24.2,11.1,24.2,11.1z"/>
				<path class="st1" d="M26.3,19.8L26.3,19.8C26.3,19.8,26.3,19.8,26.3,19.8z"/>
				<polygon class="st1" points="27,18 27,18 27.1,18 				"/>
				<path class="st1" d="M16.1,8.7L16.1,8.7C16.2,8.7,16.1,8.7,16.1,8.7z"/>
				<path class="st1" d="M8.8,20C8.8,19.8,9,20.2,9,20C9,20,8.8,19.8,8.8,20z"/>
				<path class="st1" d="M26.5,16.4L26.5,16.4C26.5,16.3,26.5,16.4,26.5,16.4z"/>
				<path class="st1" d="M9,20L9,20L9,20C9,20,9,20,9,20z"/>
				<path class="st1" d="M12.7,10.2C12.7,10.2,12.7,10.2,12.7,10.2C12.7,10.2,12.7,10.2,12.7,10.2z"/>
				<path class="st1" d="M15.2,9.1L15.2,9.1C15.2,9.1,15.2,9.1,15.2,9.1z"/>
				<path class="st1" d="M11.7,11.2C11.6,11.2,11.6,11.2,11.7,11.2L11.7,11.2C11.6,11.3,11.6,11.2,11.7,11.2z"/>
				<polygon class="st1" points="10.7,12.3 10.7,12.3 10.7,12.3 				"/>
				<path class="st1" d="M24.5,23.5c0,0,0.1,0,0.1,0C24.6,23.5,24.7,23.3,24.5,23.5z"/>
				<path class="st1" d="M26.6,16.4C26.6,16.4,26.5,16.4,26.6,16.4L26.6,16.4C26.6,16.4,26.6,16.4,26.6,16.4z"/>
				<path class="st1" d="M12.2,11.9L12,12C12.1,12,12.1,11.9,12.2,11.9z"/>
				<path class="st1" d="M15.6,26.2L15.6,26.2C15.7,26.2,15.7,26.2,15.6,26.2z"/>
				<path class="st1" d="M11.6,12.5c-0.1,0-0.1,0-0.1,0c0,0,0,0,0,0L11.6,12.5z"/>
				<path class="st1" d="M24.6,23.5L24.6,23.5L24.6,23.5z"/>
				<path class="st1" d="M25.3,22.2c-0.1,0.2,0.1,0.2,0.1,0.2c-0.1,0.2-0.1,0-0.2,0.1c0,0.2,0,0.3-0.1,0.4c0,0,0,0-0.1,0
					c0,0.2-0.3,0.4-0.3,0.6c0,0,0,0,0,0c0.1,0,0.1,0.1,0.2,0.1c-0.1,0.1-0.1,0.2-0.1,0.2c0,0,0-0.1,0-0.1l0,0.1
					c-0.2,0,0.1-0.1,0-0.2c-0.1,0.2-0.2,0.4-0.3,0.5c-0.1-0.1,0.2-0.3,0-0.2l0.2-0.1c-0.3,0,0.1-0.1-0.2-0.1
					c-0.2,0.2-0.2,0.3-0.4,0.5c0,0.1,0.1,0.1,0.1,0.2c-0.2,0.4-0.5,0-0.6,0.3c0,0.1,0.1,0.3-0.2,0.3l0-0.2c-0.2,0.2,0,0.3-0.3,0.4
					c0-0.1,0.2-0.2,0.1-0.2c-0.2,0-0.1,0.1-0.2,0.2l-0.1-0.1c-0.3,0.2-0.5,0.4-0.8,0.6c0,0,0-0.1-0.1-0.1c-0.2,0.1-0.4,0.2-0.6,0.3
					C21.1,26,20.9,26,20.7,26l-0.1,0.2c0,0-0.1,0,0-0.1c-0.2,0,0,0.1,0,0.1c-0.1,0-0.1,0-0.1-0.1c-0.2,0.2-0.7,0.4-1.1,0.3l0.1,0
					c-0.2,0-0.2,0.3-0.5,0.2l0,0c-0.5,0-1.1,0.1-1.5-0.1c-0.1,0.2-0.5-0.1-0.5,0.1c-0.3-0.2-0.2-0.2-0.6-0.3c-0.1,0-0.2,0.1-0.3,0.1
					l0-0.1l-0.2,0.1l-0.1-0.2l-0.1,0c0,0,0.1,0.1,0.1,0.1c-0.2,0-0.4-0.2-0.4-0.3L14.9,26c0,0,0.1,0,0.2,0c-0.3,0,0-0.1-0.2-0.1
					c0,0,0,0.1-0.1,0.1c-0.1-0.1-0.3-0.2-0.5-0.3l0.1-0.1c-0.3-0.2-0.6-0.3-1-0.5c0.1,0.1,0,0.2-0.1,0.2l0-0.1
					c-0.1,0,0.1,0.1-0.1,0.1c-0.1-0.1,0-0.2,0.1-0.2L13.1,25c0,0,0.1,0,0.1-0.1c-0.1,0-0.2-0.3-0.3-0.2l0,0
					c-0.3-0.2-0.4-0.3-0.7-0.5c-0.1,0.1-0.2,0-0.3,0c-0.1-0.2-0.2-0.4-0.4-0.6c-0.2-0.1-0.1,0-0.2,0c0.1-0.1-0.1-0.3,0-0.2
					c-0.2-0.3-0.3-0.3-0.6-0.6c0,0.1,0,0.1,0,0.1c-0.1-0.1-0.1-0.2,0-0.2l0,0c-0.4-0.3-0.3-1.1-0.6-1.4l0,0l-0.2-0.3
					c0-0.2,0.1,0.1,0.1-0.1c-0.3-0.3-0.2-0.6-0.4-1c0.2-0.3-0.2-0.9,0-1.3l-0.1,0c-0.1-0.1,0-0.1,0-0.2c-0.1,0-0.1,0.1-0.1,0
					c-0.1-0.8,0.1-1.6,0.4-2.4c0.1-0.3-0.3-0.3,0-0.6l0.1,0.1c0-0.3,0.1-0.6,0.2-0.9c0.1-0.3,0.3-0.5,0.3-0.8c0,0,0,0.1,0,0.1
					c0.1-0.1,0.2-0.4,0.2-0.4c0.1-0.1,0.1,0,0.1,0c0.1-0.1,0.1-0.3,0.2-0.3c0,0,0,0,0,0.1c0-0.1,0.2-0.3,0.1-0.3
					c0.2-0.1,0.2-0.4,0.4-0.5c0-0.2,0.3-0.2,0.2-0.4c0.1,0.1,0.4-0.2,0.4-0.3c0,0.1,0.1,0,0.1,0c0.1-0.1,0.2-0.2,0.1-0.3
					c0.3-0.1,0.4-0.5,0.6-0.4c0.3-0.4,0.7-0.6,1-0.9c0.1,0.1-0.4,0.2-0.3,0.4c0.3-0.3,0.5-0.5,0.8-0.6c0.1,0,0,0.1,0,0.1
					c0.3-0.2,0.7-0.3,1-0.5c0,0,0,0-0.1,0.1c0.1,0,0.2,0,0.1-0.1l-0.1,0c-0.1-0.1,0.2-0.3,0.2-0.4c-0.1,0.2,0.4,0,0.2,0.3
					c0,0,0.1-0.1,0.1-0.1c0.1,0,0.1,0,0,0.1c0.2-0.1,0.1-0.2,0.4-0.2c0,0,0,0.1-0.1,0.1c0.1-0.1,0.2-0.2,0.4-0.2c0,0,0,0,0,0.1
					c0.3-0.1,0.6-0.2,0.9-0.2c-0.1,0.2,0.1,0,0.1,0.2c0.1,0,0.1,0,0.2,0L18,9.3c0.2,0,0.3-0.1,0.5,0l-0.1,0.1l0.3,0l-0.2-0.1
					c0.2-0.1,0-0.2,0.2-0.1c-0.1,0,0.2,0,0.3,0.1l0,0c0.1,0,0.2-0.1,0.3,0c0,0-0.1,0.1,0,0.2c0.1-0.1,0.4,0,0.5-0.1
					c0,0-0.1,0.1,0,0.1l0.1-0.1C20,9.4,20,9.4,19.9,9.5c0.2,0.1,0-0.2,0.2,0c0,0,0,0-0.1,0c0.3,0.1,0.6,0.1,0.8,0.2
					c0,0.2-0.2,0-0.2,0.1c0.4,0.1,0.8,0.1,1.1,0.3l-0.1,0c0.1-0.2,0.2,0.2,0.4,0.2c0,0-0.1,0.1-0.1,0.1c0.2,0.2,0.5,0.2,0.8,0.4
					l-0.1,0c0.1,0.1,0.3,0.3,0.4,0.4c0.1,0,0.1,0.1,0.1,0c0.2,0.5,0.9,0.5,1,1c0,0-0.1-0.1-0.1,0l0.3,0.3c0-0.1,0-0.1,0-0.2
					c0.1,0,0.2,0.1,0.2,0.1c-0.2-0.1-0.1,0.1-0.1,0.2c0,0,0.1,0,0.1,0c0,0.3,0.2-0.1,0.2,0.2l0,0c0.1,0.1,0.2,0.1,0.2,0.2
					c-0.1,0.1-0.1-0.1-0.2,0c0.1,0.1,0.3,0.1,0.3,0.3c-0.1,0-0.1-0.1-0.2-0.2c0,0.2,0,0.2,0.1,0.3l0,0l0.1,0.3l0-0.1
					c0.3,0,0.3,0.3,0.5,0.5c-0.3-0.2-0.1,0-0.2,0c0,0.1,0,0.2,0,0.2c0.1,0.1,0,0.2,0.2,0.3c0,0,0.1,0.1,0,0.1c0.1,0.1,0-0.1,0.1-0.1
					c0.2,0.2,0.1,0.6,0.4,0.9c0.2,0.3,0.3,0.3,0.4,0.6c0,0.1-0.1,0-0.1,0c0,0.2,0,0.3,0.1,0.4c0,0-0.1,0-0.1,0.1
					c0,0.1,0.1,0.1,0.1,0.2c0,0-0.1,0-0.2-0.1c0.1,0.1,0.1,0.3,0.2,0.4c-0.1,0-0.1-0.1-0.2-0.1c0.1,0.2,0.1,0.4,0.2,0.4l0-0.1
					c0,0.1-0.1,0-0.1,0c-0.1-0.1,0-0.2,0-0.2l0,0.1c0.2-0.1-0.1-0.4-0.1-0.6l0.2,0.1l-0.2-0.2c0-0.1,0.1-0.1,0.2,0
					c0-0.2-0.1-0.1,0-0.3c0,0,0,0,0,0l-0.1-0.1c0,0,0.1-0.1,0.1,0c0-0.3-0.2-0.4-0.1-0.5l0,0c-0.2-0.3-0.1,0-0.3-0.2l0.2-0.3l-0.1,0
					c0,0,0-0.1,0-0.1c-0.1-0.1,0,0-0.1,0c0-0.2-0.2-0.4-0.1-0.6c-0.1,0,0,0.2-0.1,0c0.2-0.1-0.1-0.2-0.1-0.4c0.1,0,0.1,0.2,0.1,0
					c-0.2,0-0.1-0.3-0.2-0.4c-0.1,0.1-0.2-0.2-0.4-0.4c0.1,0-0.2-0.4-0.3-0.6l0,0c-0.1,0.1-0.2-0.2-0.4-0.3c0.1,0,0.1,0,0.2,0
					L25.1,12c-0.1,0-0.1,0-0.2-0.1l0.1,0c-0.2-0.2-0.4-0.2-0.5-0.5c-0.1,0.1,0,0.3-0.3,0.2c0,0,0.1-0.1,0.2-0.1c0,0-0.1,0-0.1-0.1
					l0.1,0c-0.1-0.1-0.1,0-0.2-0.1c0.1-0.1,0-0.1,0-0.1c0,0,0,0.1,0.1,0.1c-0.1-0.1-0.1-0.2-0.1-0.3c0,0-0.1,0.1-0.1,0
					c-0.2-0.1,0-0.1-0.1-0.2c-0.1,0-0.1-0.1-0.2,0c0,0,0-0.1,0-0.1c-0.1,0-0.4-0.3-0.4-0.1l0,0l0,0l0,0l0,0
					c-0.3-0.1-0.6-0.5-0.9-0.6l0,0c-0.2-0.1-0.4-0.2-0.6-0.2c-0.1,0-0.1-0.1-0.1-0.2c-0.2,0-0.2,0-0.4-0.2c0.2,0,0-0.1,0.2,0
					c-0.2-0.1-0.2-0.2-0.5-0.2c0.1-0.1-0.1-0.2-0.2-0.2L21,9.3c-0.1,0-0.2-0.1-0.3-0.1l0.1-0.1c-0.4-0.3-0.8,0-1.1-0.3
					C19.6,8.9,20,8.9,19.9,9c-0.2,0-0.4-0.3-0.4-0.3c-0.3-0.1-0.3,0.1-0.6,0.1c0,0,0.1,0.2-0.2,0.2c-0.2,0-0.2-0.2-0.1-0.2
					c0,0,0.1,0,0.1,0c0.1,0,0.2,0,0.1-0.1l0,0c-0.1-0.1-0.4-0.1-0.3-0.1c-0.2,0-0.1,0.1,0,0.1c-0.3-0.1-0.4,0-0.7-0.1
					c0,0,0.1,0.1,0,0.1c-0.4,0-0.2,0.1-0.4,0.1c-0.2-0.1,0-0.2-0.2-0.1c-0.2,0,0-0.1,0-0.2c-0.2,0.1-0.5,0-0.6,0l0.1-0.1
					c-0.1,0-0.1,0-0.2,0.1l0.1,0.1c-0.1,0-0.1,0-0.1,0c-0.1,0.1,0.1,0.1-0.1,0.2c-0.1,0-0.3,0.1-0.3,0c0.3,0-0.1-0.1,0.2-0.2
					c0,0-0.1,0-0.2,0c0,0,0,0,0,0c-0.3,0-0.1,0.2-0.4,0.2c0-0.1-0.1-0.1-0.1-0.1c0.1,0,0.1,0.1,0,0.2c-0.2,0-0.2,0.1-0.3,0.1l0.1,0
					c0,0.1-0.1,0.1-0.2,0.2c0,0,0.1-0.1,0.1-0.1c-0.1,0.2-0.4,0-0.5,0.2c-0.1,0-0.1-0.1-0.1-0.1c-0.2,0.2-0.3,0-0.5,0.2
					c0.1,0,0.1,0,0,0.2l0.3-0.2l-0.2,0.2c0.1-0.1,0.2-0.2,0.3-0.2c-0.1,0.1-0.1,0.1,0,0.1c-0.2,0-0.3,0.2-0.5,0.2l-0.1-0.2
					c-0.3,0-0.4,0.3-0.8,0.5l0.1,0c0,0.1-0.2,0.1-0.3,0.2c0-0.1-0.1-0.1-0.2-0.1c0,0-0.2,0.2-0.2,0.3l-0.2,0
					c-0.3,0.2-0.2,0.4-0.4,0.6c0-0.1-0.1-0.1,0-0.2c-0.1,0.1-0.2,0.1-0.1,0.2c-0.1,0-0.1,0.3-0.3,0.3c0,0.1,0,0.1-0.1,0.2
					c0,0,0,0,0,0c0,0-0.1,0.2,0,0.1c-0.4,0.1-0.6,0.6-0.9,0.7c-0.1,0.2-0.3,0.4-0.4,0.6c0,0,0,0,0,0c-0.2,0.2,0.1,0.3-0.1,0.5
					c-0.2,0.1,0-0.2-0.1-0.1c-0.2-0.1-0.2,0.3-0.4,0.4l0-0.1c-0.1,0.1-0.1,0.4-0.2,0.6c0,0,0,0,0,0c0,0.2,0,0.5-0.1,0.8
					c-0.1-0.1,0-0.1-0.1-0.1c0,0.1,0.2,0,0.1,0.2c-0.1,0.1-0.2,0.2-0.3,0.2c0-0.1,0-0.1,0.1-0.2c-0.2,0.1-0.1,0.3-0.1,0.4l-0.1,0
					c-0.1,0.3,0.1,0.4,0,0.7l0.1,0c0.1,0.2-0.1,0.1,0,0.3l-0.2,0c0,0.1,0.1,0.5,0.1,0.7c-0.1-0.1-0.1-0.4-0.2-0.6
					c0,0.1-0.1,0.4,0,0.5c0-0.1,0-0.1,0-0.2c0.1,0.2,0.1,0.4,0.1,0.6c-0.3-0.1-0.1,0.6-0.3,0.8c0.1,0.4,0,0.9,0.1,1.4
					c0.2-0.2,0,0.1,0.2,0.1C9,19.9,9,20,9,20l0,0.4c0,0.1-0.1-0.1-0.1-0.1c0,0.3-0.1,0.1-0.1,0.3c0.1-0.1,0.1,0.1,0.1,0.2l0-0.2
					c0.2,0.3-0.1,0.4,0.1,0.7L9,21.2c0.1,0.2,0.2,0.7,0.5,0.8c0,0,0,0.1-0.1,0c0.2,0.4,0.6,0.8,0.7,1.2l-0.1,0
					c0.1,0.1,0.2,0.1,0.2,0.2c0,0-0.1,0,0,0c0,0,0.2,0.1,0.3,0.2l-0.1,0c0.2,0.4,0.5,0.5,0.8,0.7c-0.1,0.1,0.1,0.4,0.2,0.6l0,0
					c0.4,0.4,0.7,0.5,1.2,0.7c0.1,0.3,0.8,0.6,1.2,0.9c-0.1-0.1,0.1-0.1,0.2-0.1c0.1,0.1,0.3,0,0.2,0.2l0,0c0,0.2,0.2,0.2,0.4,0.3
					l0.1-0.2c0.3,0.5,1.2,0.3,1.4,0.6c0.1,0,0.3,0,0.4,0l0,0.1c0.3,0.1,0.5,0.1,0.9,0.1l-0.1,0.1c0.2,0,0.3-0.3,0.5-0.3l0.1,0.2
					c0.4,0,0.8,0.1,1.2,0c0,0,0,0.1-0.1,0.1c0.2,0,0.7,0,0.6-0.2c0,0.1,0.4,0,0.6-0.1l0,0.1c0.1-0.2,0.1-0.2,0.4-0.3
					c0.1,0,0.1,0.1,0,0.1c0.2,0,0.1-0.1,0.4-0.1l-0.1,0.1c0.2,0,0.2-0.1,0.2-0.2c0.1-0.1,0.4-0.1,0.4,0c0-0.1,0.1-0.2,0.2-0.2
					c0,0,0,0.1,0,0.1c0.3,0,0.4-0.3,0.6-0.3c0,0,0,0,0.1,0c-0.2,0.1-0.4,0.2-0.4,0.2c0,0.1,0.2,0,0.1,0.2c0.1-0.1,0.3-0.4,0.5-0.5
					c0,0,0,0,0,0l0,0c0,0,0.1,0,0.1-0.1c0.1,0,0.1,0,0.2-0.1c0.1,0.1,0.2-0.1,0.3-0.1c-0.1-0.1,0.1-0.1-0.1-0.1c0,0,0,0-0.1,0.1
					c0,0,0,0,0,0l0,0c-0.1,0-0.1,0.1-0.2,0.1c0-0.1,0.1-0.2,0.2-0.2c0-0.1,0-0.2,0-0.2c0.2,0.1,0.5,0,0.6,0c0.2-0.2,0.6-0.5,0.6-0.8
					c0.1-0.1,0.1,0,0.2,0c0,0.1-0.1,0.1-0.1,0.1c0.1-0.2,0.4-0.4,0.3-0.5c0.2-0.1,0,0.2,0.2-0.1l0,0.1c0.3-0.2,0.4-0.4,0.5-0.6
					c0.1-0.3,0.2-0.5,0.5-0.7c0,0-0.1,0-0.1,0c0.5-0.6,0.7-1.4,1.2-2.1c0.1-0.2,0-0.2,0-0.4l0.1,0l-0.1-0.3c0-0.3,0.4-0.5,0.3-0.9
					l-0.1,0c0-0.1,0-0.5,0.1-0.4c0,0-0.1-0.1,0-0.1l0.1,0c0-0.1,0-0.2-0.1-0.4c0.1-0.3,0.2,0.1,0.3-0.4c0-0.2-0.2-0.4-0.2-0.4
					c0,0.1,0,0.2-0.1,0.2l0-0.1c-0.2,0-0.3-0.1-0.5,0.2l0.1,0.2l-0.1,0.1l0-0.2c-0.1,0.1,0,0.2,0,0.2c0,0-0.1,0-0.1,0.1l0.2,0.2
					c-0.1,0-0.1-0.1-0.2,0c0.1,0.1,0.2-0.1,0.2,0.1c-0.1,0.1-0.2,0.1-0.1,0.2c0,0-0.1,0-0.1-0.1c0,0.1,0,0.3,0.1,0.4
					c-0.1,0.1,0,0.4-0.2,0.3c0,0,0.1,0.2,0.1,0.3c-0.1-0.2-0.1,0.4-0.3,0.3c0.1,0.2-0.1,0.5-0.1,0.8c0,0,0-0.1,0-0.1
					c-0.1,0.1-0.1,0.1-0.2,0.2c0.1,0.1,0.1,0.3,0.1,0.4c-0.2,0.1-0.1-0.2-0.3-0.2c0.1,0,0,0.3,0.1,0.3c-0.1,0.1-0.1,0.1-0.2,0.1
					c0.2,0.1,0,0.1,0,0.3c-0.2,0.1-0.2,0-0.2,0.2C25.2,22.4,25.3,22.2,25.3,22.2z M22,25.7L22,25.7C22,25.7,22.1,25.7,22,25.7
					C22.1,25.7,22,25.7,22,25.7z M21.6,25.9c0,0,0.1,0,0.2-0.1c0,0,0,0.1,0,0.1C21.8,25.9,21.7,25.9,21.6,25.9z M22.8,26.1
					c-0.1,0-0.1,0-0.1,0C22.7,26.2,22.7,26.1,22.8,26.1C22.8,26.1,22.8,26.1,22.8,26.1C22.8,26.1,22.8,26.1,22.8,26.1z"/>
				<path class="st1" d="M22.8,26C22.8,26,22.8,26,22.8,26C22.8,25.9,22.8,25.9,22.8,26L22.8,26L22.8,26z"/>
				<path class="st1" d="M23.4,10.6L23.4,10.6C23.4,10.6,23.4,10.6,23.4,10.6C23.4,10.6,23.4,10.6,23.4,10.6z"/>
				<polygon class="st1" points="16.1,26.3 16.1,26.3 16.1,26.3 				"/>
				<path class="st1" d="M24.8,12.5C24.8,12.5,24.8,12.5,24.8,12.5C24.8,12.5,24.8,12.5,24.8,12.5z"/>
				<path class="st1" d="M25.4,13.3l0,0.1C25.4,13.3,25.4,13.3,25.4,13.3z"/>
				<path class="st1" d="M25.7,14C25.7,14,25.8,13.9,25.7,14L25.7,14L25.7,14z"/>
				<path class="st1" d="M15.5,9.8L15.5,9.8C15.4,9.8,15.5,9.8,15.5,9.8z"/>
				<path class="st1" d="M19,9.2c0,0-0.1,0-0.1,0C19,9.3,19,9.3,19,9.2z"/>
				<polygon class="st1" points="12.2,11.8 12.2,11.8 12.2,11.9 				"/>
				<path class="st1" d="M18.7,9.3c0.1,0,0.1,0,0.2,0C18.9,9.3,18.8,9.2,18.7,9.3z"/>
				<path class="st1" d="M26.6,17.1L26.6,17.1C26.6,17.1,26.6,17.1,26.6,17.1L26.6,17.1z"/>
				<path class="st1" d="M26.6,17.1L26.6,17.1C26.7,17.1,26.7,17.1,26.6,17.1z"/>
				<path class="st1" d="M26.7,17.2L26.7,17.2C26.7,17.2,26.7,17.2,26.7,17.2z"/>
				<path class="st1" d="M26.5,16.1L26.5,16.1C26.5,16.1,26.5,16.1,26.5,16.1z"/>
				<path class="st1" d="M26.4,15.8c0,0.1,0,0.2,0,0.3l0,0C26.4,16.1,26.5,15.8,26.4,15.8z"/>
				<path class="st1" d="M26.4,14.4l0.1,0.3c0-0.1,0.1-0.1,0.1,0C26.6,14.3,26.6,14.7,26.4,14.4z"/>
				<path class="st1" d="M26.1,13.6C26.2,13.7,26.2,13.6,26.1,13.6C26.1,13.5,26.1,13.5,26.1,13.6z"/>
				<path class="st1" d="M21.8,9.6L21.8,9.6C21.7,9.5,21.8,9.5,21.8,9.6z"/>
				<path class="st1" d="M20.5,9.6C20.6,9.7,20.6,9.7,20.5,9.6l0.2,0C20.6,9.6,20.6,9.6,20.5,9.6z"/>
				<polygon class="st1" points="20.1,8.8 20.1,8.8 19.9,8.8 				"/>
				<path class="st1" d="M10.7,12l0.1,0C10.9,12,10.8,11.9,10.7,12z"/>
				<path class="st1" d="M8.9,16.1c-0.1,0-0.1,0.2-0.1,0.2C8.9,16.2,8.9,16.1,8.9,16.1z"/>
				<polygon class="st1" points="14.7,26.9 14.6,26.9 14.8,26.9 				"/>
			</g>
			<g>
				<g>
					<g>
						<path class="st1" d="M18.1,9.4C18.1,9.4,18.2,9.4,18.1,9.4L18.1,9.4L18.1,9.4z"/>
						<path class="st1" d="M18.2,9.1c-0.1,0-0.2,0-0.3,0.1C18,9.2,18,9.2,18.2,9.1c0,0.1-0.1,0.1-0.1,0.1c0,0,0,0.1,0.1,0
							C18.2,9.2,18.2,9.2,18.2,9.1C18.1,9.1,18.1,9.1,18.2,9.1z"/>
						<path class="st1" d="M15.8,6.8L15.8,6.8C15.8,6.8,15.8,6.8,15.8,6.8z"/>
						<path class="st1" d="M13.7,6.5C13.7,6.5,13.7,6.5,13.7,6.5C13.7,6.5,13.7,6.5,13.7,6.5z"/>
						<path class="st1" d="M13.3,6.4C13.3,6.4,13.3,6.4,13.3,6.4C13.3,6.4,13.3,6.4,13.3,6.4z"/>
						<path class="st1" d="M15.8,6.8L15.8,6.8C15.8,6.8,15.8,6.8,15.8,6.8z"/>
						<path class="st1" d="M17.7,8.9C17.7,8.9,17.7,8.9,17.7,8.9L17.7,8.9L17.7,8.9z"/>
						<path class="st1" d="M16.7,7.1L16.7,7.1C16.7,7.1,16.7,7.1,16.7,7.1L16.7,7.1z"/>
						<path class="st1" d="M17.3,7.6c0,0-0.1,0.1-0.1,0.1C17.2,7.6,17.3,7.6,17.3,7.6C17.3,7.6,17.3,7.6,17.3,7.6z"/>
						<path class="st1" d="M18,8.5L18,8.5L18,8.5z"/>
						<path class="st1" d="M16.3,6.9C16.3,6.9,16.3,6.8,16.3,6.9C16.3,6.9,16.3,6.9,16.3,6.9z"/>
						<path class="st1" d="M8.7,17.2L8.7,17.2C8.7,17.2,8.7,17.2,8.7,17.2z"/>
						<polygon class="st1" points="9.2,18 9.2,18 9.1,18.1 						"/>
						<path class="st1" d="M12.6,6.5L12.6,6.5C12.6,6.5,12.6,6.5,12.6,6.5z"/>
						<path class="st1" d="M7.4,7.9c0,0,0.1,0.2,0.2,0.1C7.6,8.1,7.5,7.9,7.4,7.9z"/>
						<path class="st1" d="M17.7,8.9L17.7,8.9C17.7,8.9,17.7,8.9,17.7,8.9z"/>
						<polygon class="st1" points="7.6,8.1 7.6,8.1 7.6,8.1 						"/>
						<path class="st1" d="M11.3,7.2C11.3,7.2,11.3,7.3,11.3,7.2C11.3,7.3,11.3,7.2,11.3,7.2z"/>
						<path class="st1" d="M12.3,6.9L12.3,6.9C12.3,6.9,12.3,6.9,12.3,6.9z"/>
						<path class="st1" d="M10.8,7.6C10.8,7.6,10.8,7.6,10.8,7.6C10.8,7.6,10.8,7.6,10.8,7.6C10.8,7.6,10.8,7.6,10.8,7.6z"/>
						<polygon class="st1" points="10.3,7.8 10.3,7.8 10.3,7.8 						"/>
						<path class="st1" d="M7.7,16.1C7.7,16.1,7.7,16.2,7.7,16.1C7.7,16.1,7.8,16.2,7.7,16.1z"/>
						<path class="st1" d="M17.7,8.9C17.7,8.9,17.7,8.9,17.7,8.9L17.7,8.9C17.7,8.9,17.7,8.9,17.7,8.9z"/>
						<path class="st1" d="M11.1,8.4L11.1,8.4C11,8.4,11.1,8.4,11.1,8.4z"/>
						<path class="st1" d="M7.9,12.2L7.9,12.2C7.9,12.2,7.9,12.2,7.9,12.2z"/>
						<path class="st1" d="M10.7,8.5C10.7,8.5,10.7,8.5,10.7,8.5C10.7,8.5,10.7,8.5,10.7,8.5L10.7,8.5z"/>
						<path class="st1" d="M7.6,16.2L7.6,16.2L7.6,16.2z"/>
						<path class="st1" d="M8.1,16.5c0-0.1-0.1,0-0.2,0.1C7.8,16.5,8,16.5,8.1,16.5c-0.2-0.1-0.3-0.1-0.3-0.1c0,0,0,0,0.1,0
							c-0.1,0-0.1-0.2-0.2-0.2c0,0,0,0,0,0c-0.1,0-0.1,0.1-0.2,0.1c0,0-0.1,0,0-0.1c0,0,0,0,0.1,0l0,0c0.1-0.1,0.1,0,0.2,0
							c-0.1-0.1-0.2-0.1-0.2-0.2c0.1,0,0.1,0.1,0.2,0l0,0.1c0.2-0.1,0,0.1,0.2-0.1c0-0.1-0.1-0.1-0.1-0.2c-0.1,0-0.1,0-0.2,0
							c-0.2-0.1,0.3-0.2,0.1-0.3c-0.1,0-0.2,0-0.2-0.1l0.1,0c0-0.1-0.2,0-0.1-0.2c0.1,0,0.1,0.1,0.1,0.1c0.1-0.1-0.1,0-0.1-0.1
							l0.1,0c0-0.1-0.1-0.2-0.2-0.4c0,0,0.1,0,0.1,0c-0.1-0.2,0-0.4,0.1-0.5l-0.1-0.1c0,0,0.1,0,0.1,0c0-0.1-0.1,0-0.1,0
							c0,0,0.1,0,0.1,0c-0.1-0.1-0.2-0.4,0-0.5l0,0c0.1-0.1-0.2-0.1-0.1-0.2l0,0c0.1-0.2,0-0.4,0.2-0.6c-0.1-0.1,0.1-0.2-0.1-0.3
							c0.1-0.1,0.2,0,0.3-0.2c0,0-0.1-0.1-0.1-0.2l0.1,0l-0.1-0.1l0.1,0l0-0.1c0,0-0.1,0-0.1,0c0-0.1,0.1-0.2,0.2-0.2l0-0.2
							c0,0,0,0.1,0.1,0.1c-0.1-0.1,0.1,0,0-0.1c0,0-0.1,0-0.1,0c0.1,0,0.1-0.1,0.1-0.2l0.1,0c0.1-0.1,0.1-0.3,0.1-0.5
							c-0.1,0.1-0.2,0-0.2-0.1l0.1,0c-0.1-0.1-0.1,0-0.1,0c0-0.1,0.1,0,0.2,0l0-0.1c0,0,0.1,0,0.1,0c-0.1-0.1,0.2-0.1,0-0.2l0,0
							c0-0.2,0-0.3,0-0.4c-0.1,0-0.1-0.1-0.1-0.1c0-0.1,0.1-0.2,0.1-0.4c0-0.1-0.1,0-0.1-0.1c0.1,0,0.1-0.1,0.2-0.1
							c0-0.2,0-0.2-0.1-0.4c0,0-0.1,0-0.1,0c0,0,0-0.1,0.1-0.1l0,0c-0.1-0.1,0-0.3,0-0.3C8.5,9,8.5,9,8.4,9l0,0c0,0-0.1-0.1-0.1-0.1
							c0,0,0.1,0.1,0.2,0.1l0,0c-0.2-0.2,0,0-0.1-0.2c0.4,0.3,0-0.1,0.2,0.2L8.4,8.8c-0.1-0.1,0,0,0.1,0.1c0,0,0,0,0,0c0,0,0,0,0,0
							c0,0,0,0-0.1-0.1l0,0c0,0,0.1,0,0.2,0.1c0,0,0,0,0.1,0.1c0.1,0,0.2,0,0.3,0C9,9,8.9,8.7,9.1,8.8l0,0.1
							c0.3-0.2,0.6-0.1,0.8-0.3c0,0,0,0.1,0,0.1c0.1,0.1,0.2,0,0.2-0.1c0,0,0,0.1,0.1,0.1c0.1,0,0.1-0.2,0.2-0.1c0,0,0,0,0,0
							c0-0.1,0.2,0,0.1-0.1c0.1,0,0.2-0.1,0.3-0.1c0-0.1,0.2,0,0.1-0.2c0.1,0.2,0.2,0.1,0.2,0c0,0.1,0.1,0,0.1,0.1
							c0.1,0,0.1-0.1,0.1-0.2c0.2,0.1,0.2-0.3,0.3,0C11.7,8,11.8,7.9,12,7.7c0.1,0.2-0.2,0.1-0.1,0.3c0.1-0.1,0.2-0.3,0.3-0.4
							c0.1,0,0,0.1,0,0.1c0.1-0.1,0.3-0.1,0.4-0.3c0,0,0,0,0,0.1c0,0,0.1,0,0-0.1l0,0c-0.1-0.1,0-0.3,0-0.3c0.1,0.2,0.2,0,0.2,0.3
							c0,0,0-0.1,0-0.1c0,0,0.1,0,0.1,0.1c0.1-0.1,0-0.1,0.1-0.2c0,0,0,0.1,0,0.1c0-0.1,0-0.2,0.1-0.2c0,0,0,0,0,0.1
							C13.2,7.2,13.3,7,13.4,7c0,0.2,0.1,0,0.1,0.2l0.1-0.1l0-0.1c0.1,0,0.1-0.1,0.2-0.1l0,0.1c0,0,0.1,0,0.1,0c0,0-0.1,0-0.1,0
							c0.1-0.1,0-0.2,0.1-0.1c0,0,0.1,0,0.1,0.1l0,0c0,0,0.1-0.1,0.1-0.1c0,0,0,0.2,0,0.2c0-0.1,0.2,0,0.2-0.2c0,0,0,0.1,0,0.1
							l0-0.1c0,0,0,0,0,0.1c0.1,0,0-0.2,0.1-0.1c0,0,0,0,0,0c0.1,0,0.2,0,0.3,0c0,0.1-0.1,0-0.1,0.1c0.2,0,0.3-0.1,0.5-0.1l0,0
							c0.1-0.2,0.1,0.1,0.2,0c0,0-0.1,0.1,0,0.1c0.1,0.1,0.2,0,0.4,0l0,0c0,0.1,0.1,0.1,0.2,0.1c0,0,0.1,0,0.1-0.1
							c0.1,0.3,0.4,0,0.5,0.3c0,0-0.1,0-0.1,0c0.1,0,0.1,0,0.2,0c0-0.1,0-0.1,0-0.1c0,0,0.1,0,0.1,0c-0.1,0-0.1,0.1-0.1,0.2
							c0,0,0,0,0-0.1c0,0.2,0.1-0.1,0.1,0l0,0c0,0,0.1,0,0.1,0c0,0.1-0.1,0-0.1,0.1c0.1,0,0.2-0.1,0.2,0c0,0-0.1,0-0.1,0
							c0,0.1,0,0.1,0,0.2l0,0l0,0.1l0,0c0.2-0.2,0.2,0.1,0.3,0c-0.2,0-0.1,0.1-0.2,0.1c0,0,0,0.1,0,0.1c0.1,0,0,0.1,0.2,0.1
							c0,0,0,0,0,0.1c0.1,0,0-0.1,0.1-0.1c0.2,0,0,0.3,0.3,0.3c0.1,0.1,0.3,0,0.4,0.1c0,0.1-0.1,0.1-0.1,0.1c0,0.1,0,0.1,0.1,0.1
							c0,0,0,0-0.1,0.1c0,0,0.1,0,0.1,0c0,0-0.1,0-0.1,0c0.1,0,0.1,0,0.2,0.1c0,0-0.1,0-0.1,0c0.1,0,0.1,0.1,0.2,0.1L18,9
							c0,0-0.1,0.1-0.1,0c-0.1,0,0-0.1,0-0.1l0,0c0.2-0.2-0.1-0.1-0.2-0.2L18,8.7l-0.2,0c0,0,0.1-0.1,0.1-0.1c0-0.1-0.1,0,0-0.1
							c0,0,0,0,0,0l-0.1,0c0,0,0.1-0.1,0.1,0c0-0.2-0.2-0.1-0.1-0.2l0,0c-0.1-0.1-0.1,0.1-0.3,0.1l0.2-0.2l-0.1,0.1c0,0,0,0,0-0.1
							c-0.1,0,0,0-0.1,0.1c0-0.1-0.2-0.1-0.1-0.3c-0.1,0,0,0.1-0.1,0.1c0.1-0.2-0.1,0-0.1-0.2c0.1-0.1,0.1,0,0.1-0.1
							c-0.1,0.1-0.1-0.1-0.1-0.1c-0.1,0.1-0.1,0-0.2-0.1c0,0-0.1-0.2-0.2-0.3l0,0c-0.1,0.1-0.2,0-0.2,0c0-0.1,0.1-0.1,0.1-0.1
							l-0.1,0c0,0-0.1,0-0.1,0l0.1-0.1c-0.1,0-0.2,0-0.3-0.1c0,0.1,0,0.3-0.2,0.3c0,0,0.1-0.1,0.1-0.1c0,0-0.1,0-0.1,0l0.1-0.1
							c0-0.1-0.1,0.1-0.1,0c0-0.1,0-0.1,0-0.1c0,0,0,0,0,0c0,0-0.1-0.1-0.1-0.2c0,0,0,0.1-0.1,0.1c-0.1,0,0-0.1,0-0.1
							c0,0-0.1,0-0.1,0.1c0,0,0-0.1,0-0.1c-0.1,0-0.2-0.1-0.2,0.1l0,0l0,0l0,0l0,0c-0.2,0-0.3-0.2-0.4-0.2l0,0c-0.1,0-0.2,0-0.3,0
							c0,0,0-0.1,0-0.1c-0.1,0-0.1,0.1-0.2,0c0.1-0.1,0-0.1,0.1,0c-0.1-0.1-0.1-0.1-0.2,0c0-0.1-0.1-0.1-0.1-0.1l0.1,0.1
							c0,0-0.1,0-0.1,0l0-0.1c-0.2-0.2-0.3,0.2-0.5,0c0,0.1,0.1,0.1,0.1,0.2c-0.1,0-0.2-0.2-0.2-0.2c-0.1-0.1-0.1,0.2-0.2,0.2
							c0,0,0,0.2,0,0.2c-0.1,0-0.1-0.2-0.1-0.2c0,0,0,0,0,0c0,0,0.1,0,0-0.1l0,0c0,0-0.2,0-0.2-0.1c-0.1,0.1,0,0.1,0,0.1
							c-0.1,0-0.2,0-0.3,0c0,0,0.1,0.1,0,0.1c-0.2,0-0.1,0.1-0.2,0.1c-0.1,0,0-0.2-0.1-0.1c-0.1,0-0.1-0.1,0-0.2
							c-0.1,0.1-0.2,0-0.3,0l0-0.1c0,0-0.1,0-0.1,0.1l0.1,0.1c0,0-0.1,0-0.1,0c0,0.1,0.1,0.1,0.1,0.2c-0.1,0-0.1,0.1-0.2,0
							c0.1,0-0.1-0.1,0-0.2c0,0,0,0-0.1,0c0,0,0,0,0,0c-0.2,0,0,0.1-0.1,0.2c0-0.1-0.1-0.1-0.1-0.1c0,0,0.1,0.1,0.1,0.2
							c-0.1,0-0.1,0.1-0.1,0.1l0.1,0c0,0.1,0,0.1-0.1,0.1c0,0,0-0.1,0-0.1c0,0.1-0.2,0-0.2,0.1C12,7,12,6.9,12,6.9
							c0,0.1-0.1,0-0.2,0.1c0.1,0.1,0.1,0,0,0.2L12,7l0,0.2c0,0,0.1-0.1,0.1-0.1c0,0.1,0,0.1,0,0.1c-0.1-0.1-0.1,0.1-0.2,0.1
							l-0.1-0.2c-0.1,0-0.1,0.2-0.3,0.2l0.1,0c0,0.1-0.1,0-0.1,0.1c0-0.1-0.1-0.1-0.1-0.1c0,0-0.1,0-0.1,0.2l-0.1-0.1
							c-0.1,0,0,0.3-0.2,0.3c0-0.1-0.1-0.1,0-0.2c0,0-0.1,0-0.1,0.1c0,0-0.1,0.1-0.1,0.1c0,0,0,0.1,0,0.1c0,0,0,0,0,0
							c0,0,0,0.1,0,0.1c-0.2-0.2-0.3,0.1-0.5,0c-0.1,0-0.2,0.1-0.2,0.1c0,0,0,0,0,0c-0.1,0,0,0.2-0.1,0.2C9.8,8,10,8,9.9,8
							C9.8,7.7,9.8,8,9.7,7.9l0,0C9.6,7.8,9.6,8,9.5,8c0,0,0,0,0,0c0,0.1-0.2,0.2-0.3,0.2c0-0.1,0-0.1,0-0.1c0,0,0,0.2,0,0.2
							c0,0-0.1-0.1-0.1-0.2l0.1,0C9.1,8,9,8.1,9,8.1L9,8c-0.1,0-0.1,0.2-0.2,0.2l0,0c-0.1,0.2-0.1-0.1-0.1,0c0,0,0-0.1,0-0.1
							c-0.1,0-0.2,0.1-0.2,0.1c0,0,0,0-0.1,0c0,0,0-0.1,0-0.1c0-0.1,0.1-0.1,0.2-0.1c0,0-0.2,0-0.2,0c0,0,0,0,0,0.1c0,0,0,0,0,0
							c0,0,0,0,0,0l0,0c0,0.1-0.1,0.1-0.2,0.1C8,8,7.8,8.2,7.7,8l0,0c0,0-0.1,0-0.1-0.1l0,0l0,0l0,0l0,0l0,0L7.3,7.6l0,0l0,0l0,0
							l0,0c0,0,0,0.1,0,0.1c0.1,0.1,0,0.1,0.2,0.2c0,0.1,0,0.1,0,0.1l0,0.1c0,0,0-0.1-0.1-0.1c0,0.1,0,0-0.1,0c0.1,0,0.1,0.1,0,0.1
							l0.2,0c0,0.1-0.2,0-0.3,0.1c0,0,0,0.1,0.1,0.2L7.2,8.3c0.1,0.1,0.1,0.2,0.2,0.4c0,0.1,0.1,0.2,0.2,0.3c0,0-0.1,0-0.1,0
							c0.1,0.4,0.3,0.5,0.2,0.6l-0.1,0c0,0,0.1,0,0.1,0.1c0,0-0.1,0-0.1,0c0,0,0.1,0.1,0.1,0.1l-0.1,0C7.5,9.9,7.7,10,7.7,10.1
							c-0.2,0-0.2,0.1-0.3,0.2l0,0c0,0.2,0.1,0.3,0.1,0.5c-0.2,0.1-0.2,0.3-0.3,0.5c0,0,0.1,0,0.1,0.1c0,0,0.1,0.1-0.1,0.1l0,0
							c-0.2,0-0.1,0.1-0.2,0.2l0.2,0.1c-0.3,0.1,0,0.5-0.3,0.5c0,0.1,0,0.1,0.1,0.2l-0.1,0c-0.1,0.1-0.1,0.2-0.1,0.3l-0.1-0.1
							c0,0.1,0.3,0.2,0.3,0.3l-0.2,0c0,0.2-0.2,0.3-0.1,0.5c0,0-0.1,0-0.1,0c0,0.1-0.2,0.3,0.1,0.3c-0.1,0,0,0.2,0,0.3l-0.1,0
							c0.1,0.1,0.2,0.1,0.2,0.2c0,0-0.1,0-0.1,0c-0.1,0.1,0.1,0.1,0,0.2l-0.1,0c0,0.1,0,0.1,0.1,0.1c0,0.1,0,0.2-0.1,0.2
							c0.1,0,0.1,0.1,0.1,0.1c0,0-0.1,0-0.1,0c-0.1,0.1,0.1,0.2,0,0.3c0,0-0.1,0-0.1,0c0-0.1,0-0.2,0-0.2c-0.1,0-0.1,0.1-0.2,0
							c0.1,0.1,0.2,0.2,0.2,0.3c0,0,0,0,0,0l0,0c0,0,0,0,0,0.1c0,0,0,0,0,0.1c-0.1,0,0,0.1,0,0.2c0.1,0,0.1,0,0.2,0c0,0,0,0,0,0
							c0,0,0,0,0,0l0,0c0,0,0-0.1,0-0.1c0.1,0,0.1,0.1,0,0.1c0.1,0,0.1,0,0.2,0c-0.1,0.1-0.2,0.2-0.3,0.2c0.1,0.1,0.1,0.3,0.3,0.4
							c0,0,0,0.1-0.1,0.1c0,0,0,0-0.1-0.1C6.9,15.9,6.9,16,7,16c0,0.1-0.1,0-0.1,0.1l0,0c-0.1,0.3,0.5,0.3,0.3,0.7c0,0,0,0,0-0.1
							c0.1,0.4,0.5,0.5,0.6,0.9c0,0.1,0.1,0,0.2,0L8,17.7l0.2,0c0.2,0,0.1,0.4,0.3,0.3l0-0.1c0,0,0.2,0,0.1,0.1c0,0,0.1-0.1,0.1,0
							l0,0.1l0.2,0c0.1,0.1-0.1,0.2,0.1,0.3c0.1,0,0.2-0.1,0.2-0.1c0,0,0-0.1,0-0.1l0.1,0c0.1-0.2,0.2-0.3,0.1-0.5l-0.1,0.1l0-0.1
							l0.1,0c0-0.1-0.1,0-0.1,0c0,0,0-0.1,0-0.1L9,17.5C9,17.5,9,17.4,9,17.4c-0.1,0.1,0,0.2-0.1,0.2c0-0.1,0-0.1,0-0.1
							c0,0,0-0.1,0.1-0.1c-0.1,0-0.1,0-0.2,0c0-0.1-0.1-0.1,0-0.2c0,0-0.1,0.1-0.2,0.1c0.2-0.1-0.1-0.1,0-0.3c-0.1,0.1-0.2,0-0.3,0
							c0,0,0,0,0,0c0,0,0-0.1,0-0.1C8.2,17,8.1,16.9,8,16.9c0.1-0.1,0.2-0.1,0.2-0.2c-0.1,0.1-0.2,0-0.2,0.1c0-0.1,0-0.1,0.1-0.2
							c-0.1,0.1,0,0-0.2,0c0-0.1,0.1-0.1,0-0.1C8,16.5,8.1,16.5,8.1,16.5z M7.3,14.9L7.3,14.9C7.3,14.9,7.3,14.9,7.3,14.9
							C7.3,14.9,7.3,14.9,7.3,14.9z M7.3,14.7C7.3,14.7,7.3,14.7,7.3,14.7C7.3,14.8,7.3,14.8,7.3,14.7C7.3,14.8,7.3,14.7,7.3,14.7z
							 M6.6,15.1C6.6,15.1,6.6,15,6.6,15.1C6.6,15,6.6,15.1,6.6,15.1L6.6,15.1C6.6,15.1,6.6,15.1,6.6,15.1z"/>
						<path class="st1" d="M6.8,15.1C6.8,15.1,6.8,15.1,6.8,15.1L6.8,15.1L6.8,15.1L6.8,15.1z"/>
						<path class="st1" d="M15.8,6.9L15.8,6.9L15.8,6.9C15.8,6.9,15.8,6.9,15.8,6.9z"/>
						<polygon class="st1" points="7.9,12.4 7.9,12.4 7.9,12.4 						"/>
						<path class="st1" d="M16.5,7.6C16.5,7.6,16.5,7.6,16.5,7.6C16.5,7.6,16.5,7.6,16.5,7.6z"/>
						<path class="st1" d="M16.8,7.9L16.8,7.9C16.9,7.9,16.8,7.9,16.8,7.9z"/>
						<path class="st1" d="M17,8.1C17.1,8.1,17.1,8.1,17,8.1L17,8.1L17,8.1z"/>
						<path class="st1" d="M12.7,7.5L12.7,7.5C12.6,7.6,12.6,7.6,12.7,7.5z"/>
						<path class="st1" d="M13.9,6.9C13.9,6.9,13.9,6.9,13.9,6.9C13.9,6.9,13.9,6.9,13.9,6.9z"/>
						<polygon class="st1" points="11.1,8.4 11.1,8.4 11.1,8.4 						"/>
						<path class="st1" d="M13.8,6.9C13.8,7,13.9,6.9,13.8,6.9C13.9,6.9,13.8,6.9,13.8,6.9z"/>
						<path class="st1" d="M17.8,9.1L17.8,9.1C17.8,9.1,17.8,9.1,17.8,9.1L17.8,9.1z"/>
						<path class="st1" d="M17.8,9.1L17.8,9.1C17.9,9.1,17.9,9.1,17.8,9.1z"/>
						<path class="st1" d="M17.9,9.2L17.9,9.2C17.9,9.2,17.9,9.2,17.9,9.2z"/>
						<path class="st1" d="M17.6,8.8L17.6,8.8C17.6,8.8,17.6,8.8,17.6,8.8z"/>
						<path class="st1" d="M17.6,8.7c0,0,0,0.1,0,0.1l0,0C17.6,8.8,17.6,8.7,17.6,8.7z"/>
						<path class="st1" d="M17.6,8l0.1,0.1c0,0,0-0.1,0.1-0.1C17.7,7.8,17.7,8.1,17.6,8z"/>
						<path class="st1" d="M17.4,7.7C17.4,7.7,17.4,7.6,17.4,7.7C17.4,7.6,17.4,7.6,17.4,7.7z"/>
						<path class="st1" d="M15.1,6.6L15.1,6.6C15.1,6.5,15.1,6.5,15.1,6.6z"/>
						<polygon class="st1" points="14.6,7 14.6,7 14.6,7 						"/>
						<polygon class="st1" points="14.3,6.3 14.3,6.3 14.3,6.3 						"/>
						<path class="st1" d="M10.3,7.7l0.1,0.1C10.4,7.7,10.4,7.6,10.3,7.7z"/>
						<path class="st1" d="M8.7,8.1C8.7,8.1,8.7,8,8.7,8.1C8.7,8.1,8.7,8.2,8.7,8.1z"/>
						<polygon class="st1" points="7.1,11.7 7.1,11.7 7.1,11.7 						"/>
					</g>
					<g>
						<path class="st1" d="M17.5,9.2C17.5,9.2,17.6,9.3,17.5,9.2L17.5,9.2L17.5,9.2z"/>
						<path class="st1" d="M17.8,9.1c0-0.1-0.1-0.2-0.2-0.2C17.7,9,17.6,9,17.8,9.1c-0.1,0-0.1,0-0.2,0c0,0,0,0,0,0.1
							C17.7,9.2,17.8,9.2,17.8,9.1C17.8,9.1,17.8,9.1,17.8,9.1z"/>
						<path class="st1" d="M20.3,7.2L20.3,7.2C20.3,7.2,20.3,7.2,20.3,7.2z"/>
						<path class="st1" d="M22.2,7C22.2,7,22.2,7,22.2,7C22.2,7,22.2,7,22.2,7z"/>
						<path class="st1" d="M22.5,7.2L22.5,7.2C22.5,7.2,22.5,7.2,22.5,7.2z"/>
						<path class="st1" d="M20.3,7.2L20.3,7.2C20.4,7.1,20.3,7.2,20.3,7.2z"/>
						<path class="st1" d="M17.8,8.6C17.8,8.6,17.8,8.6,17.8,8.6L17.8,8.6L17.8,8.6z"/>
						<path class="st1" d="M19.6,7.6L19.6,7.6C19.6,7.6,19.6,7.7,19.6,7.6L19.6,7.6z"/>
						<path class="st1" d="M19.1,8c0,0,0-0.1-0.1-0.1C19,7.9,19,8,19.1,8C19,8,19,8,19.1,8z"/>
						<path class="st1" d="M18.2,8.7L18.2,8.7L18.2,8.7z"/>
						<path class="st1" d="M20,7.4C20,7.4,20,7.4,20,7.4L20,7.4z"/>
						<path class="st1" d="M27.8,18L27.8,18C27.8,18,27.8,18.1,27.8,18z"/>
						<polygon class="st1" points="26.8,17.9 26.8,17.9 26.8,17.9 						"/>
						<path class="st1" d="M23,7.5L23,7.5C23,7.5,23,7.5,23,7.5z"/>
						<path class="st1" d="M27.7,8.8c0.1-0.2,0.1-0.1,0.3-0.3C27.9,8.5,27.8,8.7,27.7,8.8z"/>
						<path class="st1" d="M17.8,8.5L17.8,8.5C17.8,8.5,17.8,8.5,17.8,8.5z"/>
						<polygon class="st1" points="28,8.5 28,8.5 28,8.5 						"/>
						<path class="st1" d="M24.4,8.1C24.4,8,24.4,8,24.4,8.1C24.4,8,24.4,8,24.4,8.1z"/>
						<path class="st1" d="M23.4,7.4L23.4,7.4C23.4,7.5,23.4,7.4,23.4,7.4z"/>
						<path class="st1" d="M25,8.1C25,8.2,25,8.2,25,8.1C25,8.2,25,8.2,25,8.1C25,8.2,25,8.2,25,8.1z"/>
						<polygon class="st1" points="25.5,8.4 25.5,8.3 25.5,8.3 						"/>
						<path class="st1" d="M29.1,16.4c0,0-0.1,0-0.1,0C29.1,16.4,29.1,16.5,29.1,16.4z"/>
						<path class="st1" d="M17.8,8.6C17.8,8.6,17.8,8.6,17.8,8.6L17.8,8.6C17.8,8.6,17.8,8.6,17.8,8.6z"/>
						<path class="st1" d="M25.3,7.4L25.3,7.4C25.3,7.4,25.3,7.4,25.3,7.4z"/>
						<path class="st1" d="M28.9,12L28.9,12C28.9,12,28.9,12,28.9,12z"/>
						<path class="st1" d="M25.6,7.5C25.6,7.5,25.6,7.6,25.6,7.5C25.6,7.6,25.7,7.6,25.6,7.5L25.6,7.5z"/>
						<path class="st1" d="M29,16.4L29,16.4L29,16.4z"/>
						<path class="st1" d="M28.9,17.2c0.1-0.1-0.1-0.1-0.1-0.2c0-0.1,0.1,0,0.2,0c0-0.1-0.1-0.2,0-0.3c0,0,0,0,0.1,0
							c-0.1-0.1,0.1-0.2,0-0.4c0,0,0,0,0,0c-0.1,0-0.1,0-0.2-0.1c0,0-0.1-0.1,0-0.1c0,0,0,0,0,0.1l0-0.1c0.1,0,0,0.1,0.1,0.1
							c0-0.1-0.1-0.2,0-0.3c0.1,0,0,0.2,0.1,0.1L29,16.3c0.2,0,0,0.1,0.2,0.1c0.1-0.1,0-0.2,0.1-0.3c-0.1,0-0.1,0-0.2-0.1
							c-0.1-0.2,0.4-0.1,0.2-0.3c-0.1-0.1-0.2-0.1-0.1-0.2l0.1,0.1c0-0.1-0.2-0.1-0.1-0.2c0.1,0,0,0.1,0.1,0.1
							c0.1-0.1-0.1-0.1-0.1-0.1l0.1,0c0-0.1-0.1-0.3-0.1-0.5c0,0,0.1,0,0.1,0c-0.1-0.2,0-0.4,0.1-0.6l-0.1-0.1c0,0,0,0,0.1,0
							c0-0.1-0.1,0-0.1,0c0,0,0.1-0.1,0.1,0c-0.1-0.1-0.2-0.3-0.1-0.5l0,0c0-0.1-0.2-0.1-0.2-0.2l0,0c0-0.2-0.1-0.5,0-0.7
							c-0.2,0,0-0.2-0.2-0.2c0.1-0.2,0.1-0.1,0.1-0.3c0,0-0.2,0-0.2-0.1l0.1,0l-0.1,0L29,12l0,0c0,0,0,0.1-0.1,0.1
							c-0.1-0.1,0-0.2,0.1-0.2l-0.2-0.2c0,0,0.1,0,0.1,0c-0.1-0.1,0.1-0.1,0-0.1c0,0-0.1,0-0.1,0c0.1-0.1,0-0.2,0-0.2l0.1,0
							c0-0.1-0.1-0.3-0.2-0.4c0,0.1-0.2,0.1-0.2,0l0.1,0c-0.1,0,0,0.1-0.1,0c0-0.1,0.1-0.1,0.2-0.1l-0.1-0.1c0,0,0.1,0,0.1,0
							c-0.1,0,0.1-0.1,0-0.2l0,0c0-0.1-0.1-0.2-0.1-0.3c-0.1,0-0.1,0-0.2-0.1c0-0.1,0.1-0.2,0.1-0.3c-0.1-0.1-0.1,0-0.2,0
							c0.1,0,0.1-0.1,0.2-0.1c0-0.1,0-0.2-0.1-0.3c0,0-0.1,0-0.1,0c0,0,0-0.1,0.1-0.1l0,0c-0.1-0.1,0-0.2,0.1-0.4
							c0.1-0.2,0.2-0.4,0.1-0.5l0,0c0-0.1,0-0.2,0-0.2c0.1-0.1,0.1,0,0.2-0.1l0,0c-0.2,0-0.2-0.1-0.2-0.1c0-0.1,0-0.2,0-0.2
							c0.1-0.2,0.1-0.3,0.2-0.4l0,0l0,0l0,0l0,0l-0.3,0.4l0,0l0,0l0,0c0,0,0,0,0,0c0,0,0,0,0,0l0,0c0,0,0,0,0,0l0,0c0,0,0,0,0,0
							c0,0,0,0,0,0l0,0c-0.1,0-0.3,0-0.6-0.1c-0.1-0.1-0.3,0-0.4,0c-0.1,0-0.1,0-0.2-0.1c-0.1,0-0.1,0.3-0.2,0.2L27,7.8
							c-0.2,0.1-0.5-0.1-0.7,0c0,0,0-0.1,0.1-0.1c0-0.1-0.2,0-0.2,0c0,0,0-0.1,0-0.1c0-0.1-0.2,0.1-0.2,0c0,0,0,0,0,0
							c0,0-0.1-0.1-0.1,0.1c-0.1-0.1-0.2,0-0.2-0.1c-0.1,0.1-0.1-0.1-0.2,0c0.1-0.2-0.1-0.2-0.2-0.1c0,0,0-0.1,0-0.1
							c-0.1,0-0.1,0-0.2,0.1c0-0.2-0.3,0.1-0.3-0.2c-0.2,0-0.4,0-0.6-0.1c0.1-0.2,0.2,0.1,0.3-0.1c-0.2,0-0.3,0.1-0.5,0
							C24,7,24.1,7,24.1,7c-0.2,0-0.3-0.2-0.5-0.1c0,0,0,0,0,0c0,0-0.1-0.1-0.1,0l0,0c0,0.1-0.2,0.2-0.2,0.2
							c0.1-0.2-0.1-0.1,0.1-0.3c0,0-0.1,0-0.1,0.1c0,0,0-0.1,0-0.1c-0.1,0-0.1,0.1-0.2,0c0,0,0,0,0.1-0.1c-0.1,0-0.2,0.1-0.2,0
							c0,0,0-0.1,0,0c-0.2,0-0.3,0.1-0.5,0c0.1-0.1,0-0.1,0-0.2l-0.1,0l0,0.1c-0.1,0-0.2,0.1-0.2,0l0.1,0c-0.1,0-0.1,0-0.2,0
							c0,0,0.1,0,0.1,0.1c-0.1,0.1,0,0.2-0.1,0.1c0,0-0.1,0-0.1-0.1l0,0c0,0-0.1,0.1-0.1,0c0,0,0-0.2,0-0.2c0,0.1-0.2,0-0.2,0.2
							c0,0,0-0.1,0-0.1l0,0.1c0,0,0,0,0-0.1c-0.1,0,0,0.2-0.1,0.1c0,0,0,0,0,0c-0.1,0-0.2,0.1-0.4,0c-0.1-0.1,0.1,0,0-0.2
							c-0.2,0-0.3,0.2-0.5,0.2l0,0c0,0.2-0.1-0.1-0.2,0c0,0,0-0.1,0-0.1c-0.1,0-0.2,0.1-0.4,0.2l0-0.1c-0.1,0-0.2,0-0.3,0
							c0,0.1,0,0.1,0,0.1c-0.3-0.2-0.3,0.3-0.6,0.2c0,0,0-0.1,0-0.1c0,0-0.1,0.1-0.1,0.1c0.1,0.1,0,0,0.1,0.1c0,0.1,0,0.1,0,0.1
							c0-0.1-0.1-0.1-0.1-0.1c0,0,0,0.1,0,0.1c-0.2-0.1,0.1,0.2-0.1,0.1l0,0c0,0,0,0.1-0.1,0.1c-0.1-0.1,0-0.1,0-0.1
							c-0.1,0,0,0.2-0.1,0.2c0,0,0-0.1,0-0.1c-0.1-0.1-0.1,0-0.2,0l0,0l-0.1,0l0,0c0.1,0.3-0.1,0.1-0.1,0.4c0-0.2,0-0.1-0.1-0.2
							c0,0-0.1,0-0.1,0c0,0.1-0.1,0-0.1,0.2c0,0,0,0-0.1,0c0,0.1,0.1,0,0.1,0.1c0,0.2-0.3,0.1-0.3,0.3c0,0.2,0,0.2,0,0.4
							c-0.1,0-0.1-0.1-0.1-0.1C18,8.5,18,8.6,18,8.6c0,0,0,0-0.1,0c0,0,0.1,0.1,0,0.1c0,0-0.1-0.1-0.1-0.1c0,0.1,0,0.2,0,0.2
							c-0.1,0-0.1-0.1-0.1-0.1c0,0.1,0,0.2,0,0.3l0.1,0c0,0-0.1,0-0.1-0.1c0-0.1,0.1-0.1,0.1,0l0,0.1C18,9,17.9,8.7,17.9,8.7
							l0.1,0.1L18,8.6c0,0,0.1,0,0.1,0.1c0.1,0,0-0.1,0.1-0.1c0,0,0,0,0,0l0-0.1c0,0,0.1,0.1,0.1,0.1c0.1,0,0-0.2,0.1-0.2l0,0
							c0.1-0.1-0.1-0.1-0.1-0.3l0.3,0.1l-0.1-0.1c0,0,0,0,0.1,0c0-0.1,0,0-0.1-0.1c0.1,0,0.1-0.2,0.3-0.1c0-0.1-0.1,0-0.1-0.1
							c0.2,0.1,0-0.1,0.2-0.1c0.1,0.1,0,0.1,0.1,0.1C18.8,7.9,19,8,19,8c-0.1-0.1,0.1-0.1,0.1-0.2c0,0,0.2-0.1,0.3-0.1l0,0
							c-0.1-0.1,0-0.2,0.1-0.2c0,0.1,0,0.1,0,0.2l0,0c0,0,0-0.1,0-0.1l0,0.1c0.1,0,0.1-0.2,0.2-0.2c0-0.1-0.2-0.2-0.1-0.3
							c0,0,0.1,0.1,0.1,0.2c0,0,0-0.1,0,0l0,0.1c0.1,0,0-0.1,0-0.1c0,0.1,0,0,0.1,0.1c0,0,0,0,0,0c0,0,0.1,0,0.1,0c0,0,0-0.1,0-0.1
							c0.1,0,0.1,0.1,0.1,0.1c0-0.1,0.1,0,0-0.1c0,0,0,0,0.1,0.1c0-0.1,0.2-0.1,0.1-0.2l0,0l0,0l0,0l0,0c0.1-0.2,0.3,0,0.4-0.1l0,0
							C20.8,7,20.9,7,20.9,6.9C20.9,6.9,21,7,21,7C21,7,21,6.9,21.1,7C21.1,7,21.2,7,21.1,7c0.1,0,0.1,0.1,0.2,0
							c0,0.1,0.1,0.1,0.1,0.1L21.3,7c0,0,0.1,0,0.1,0l0,0.1c0.2,0.1,0.3-0.3,0.4,0c0-0.1-0.1-0.1,0-0.2c0.1,0,0.1,0.2,0.2,0.2
							C22,7.2,22,6.9,22.1,7c0,0,0-0.2,0.1-0.2c0.1,0,0.1,0.2,0,0.2c0,0,0,0,0,0c0,0-0.1,0,0,0.1l0,0c0,0,0.1,0.1,0.1,0.1
							c0.1,0,0-0.1,0-0.1c0.1,0.1,0.1,0,0.2,0.1c0,0,0-0.1,0-0.1C22.6,7.2,22.6,7,22.7,7c0,0.1-0.1,0.2,0,0.1c0,0.1,0,0.1-0.1,0.1
							c0.1-0.1,0.1,0.1,0.2,0.1l0,0c0,0,0,0,0.1,0l0-0.1c0,0,0,0,0,0.1c0,0,0-0.1,0.1-0.2c0,0.1,0.1,0,0.1,0.1C23,7.3,23,7.4,23,7.4
							c0,0,0,0,0.1,0c0,0,0,0,0,0c0,0.1,0.1-0.1,0.2,0c0,0.1,0,0.1,0,0.1c0,0,0-0.1,0.1-0.1c0,0.1,0.1,0,0.1,0l0,0
							c0-0.1,0.1,0,0.1,0c0,0-0.1,0-0.1,0c0.1-0.1,0.1,0.2,0.2,0.1c0,0.1-0.1,0.1,0,0.2c0.1,0,0.1,0.1,0.2,0.1c0-0.1,0-0.1,0.1-0.1
							l-0.2,0l0.2-0.1c0,0-0.1,0-0.1,0c0.1,0,0.1,0,0.1-0.1c0,0.2,0.2,0,0.2,0.1l-0.1,0.2c0.1,0.1,0.2,0,0.4,0.1l0-0.1
							c0.1-0.1,0.1,0,0.2,0c0,0.1,0,0.1,0,0.2c0-0.1,0.1,0.1,0.2-0.1l0,0.1c0.1,0.1,0.2-0.1,0.3-0.1c-0.1,0.1,0,0.1-0.1,0.2
							c0,0,0.1,0,0.1,0c0,0.1,0.1-0.1,0.2,0c0,0,0.1-0.1,0.1-0.1c0,0,0,0,0,0c0,0,0.1,0,0.1-0.1c0,0.3,0.3,0.1,0.4,0.3
							c0.1,0,0.2,0,0.3,0c0,0,0,0,0,0c0.1,0.1,0.1-0.2,0.2-0.1c0,0.1-0.1,0-0.1,0.1c0,0.2,0.2,0,0.2,0.2l0,0c0,0.1,0.2-0.1,0.3,0
							c0,0,0,0,0,0c0.1-0.1,0.2-0.1,0.4-0.1c0,0.1-0.1,0,0,0.1c0,0,0-0.2,0.1-0.2c0,0.1,0.1,0.1,0.1,0.2l-0.1,0c0,0.1,0.1,0,0.2,0
							l0,0.1c0.1,0,0.2-0.2,0.3-0.1l0,0c0.1-0.1,0.1,0.1,0.1,0c0,0,0,0.1,0,0.1c0,0,0.1-0.1,0.1-0.2c0,0,0,0,0.1,0
							c0,0-0.1,0.1-0.1,0.1c0,0.1-0.1,0.1-0.1,0.1c0,0,0,0,0.1,0c0,0,0,0,0-0.1c0,0,0,0,0,0c0,0,0,0,0,0l0,0
							c0.1-0.1,0.1-0.2,0.2-0.2c-0.2,0.3,0.1,0-0.1,0.3c0,0,0,0,0,0c0.1-0.1,0,0,0,0c0.3-0.4,0,0,0.3-0.3c0,0,0,0,0,0
							c-0.1,0.1-0.1,0.2-0.2,0.2c-0.1,0.1-0.1,0-0.1,0.1c0,0-0.1,0.1-0.2,0.2c0.1-0.1,0.1-0.1,0.1-0.1l0.1-0.1
							c0.1,0-0.1,0.1-0.1,0.1c0,0,0,0,0,0l-0.1,0c0,0,0,0,0.2,0c0,0-0.1,0-0.1,0c0,0,0.2,0.3,0,0.5l-0.1,0c0,0,0.1,0.1,0,0.1
							c0,0-0.1,0-0.1,0c0,0,0.1,0.1,0.1,0.1l-0.1,0c-0.1,0.2,0.2,0.3,0.2,0.4c-0.2,0-0.2,0.2-0.2,0.3l0,0c0,0.2,0.2,0.4,0.3,0.5
							c-0.1,0.2,0,0.4,0,0.6c0,0,0.1,0,0.2,0c0,0.1,0.1,0.1,0,0.1l0,0c-0.1,0.1-0.1,0.2,0,0.2l0.2,0c-0.2,0.3,0.2,0.4,0,0.6
							c0.1,0,0.1,0.1,0.1,0.1l-0.1,0c0,0.1,0,0.2,0.1,0.3l-0.1,0c0,0.1,0.3,0,0.3,0.1l-0.1,0.1c0,0.1-0.1,0.3,0.1,0.4
							c0,0-0.1,0-0.1,0c0,0.1-0.1,0.3,0.1,0.2c-0.1,0,0,0.1,0.1,0.2l-0.1,0c0.1,0,0.2,0,0.2,0.1c0,0-0.1,0-0.1,0
							c0,0.1,0.1,0,0.1,0.1l-0.1,0c0,0.1,0,0.1,0.1,0.1c0,0,0,0.1-0.1,0.2c0.1,0,0.1,0,0.1,0.1c0,0-0.1,0-0.1,0
							c-0.1,0.1,0.1,0.2,0,0.3c0,0-0.1,0-0.1,0c0-0.1,0-0.2,0-0.2c-0.1,0-0.1,0.1-0.2,0c0.1,0.1,0.2,0.2,0.2,0.2c0,0,0,0,0,0l0,0
							c0,0,0,0,0,0c0,0,0,0,0,0.1c-0.1,0,0,0.1-0.1,0.1c0.1,0,0.1,0.1,0.2,0c0,0,0,0,0,0c0,0,0,0,0,0l0,0c0,0,0-0.1,0-0.1
							c0.1,0,0.1,0.1,0,0.1c0.1,0,0.1,0.1,0.2,0.1c-0.2,0-0.2,0.1-0.3,0.1c0,0.1,0,0.3,0.2,0.4c0,0-0.1,0-0.1,0c0,0,0,0,0-0.1
							c0,0.1,0,0.2,0.1,0.2c-0.1,0.1-0.1-0.1-0.1,0l0,0c-0.3,0.1,0.2,0.5-0.2,0.6c0,0,0,0,0.1,0c-0.2,0.2-0.2,0.6-0.6,0.6
							c-0.1,0,0,0.1,0,0.2l-0.1-0.1l0,0.2c0,0.2-0.3-0.1-0.4,0.1l0.1,0.1c-0.1,0-0.1,0.1-0.2,0c0,0,0,0.1,0,0.1l0-0.1l-0.1,0.2
							c-0.1,0-0.1-0.2-0.2-0.2c0,0-0.1,0.2-0.1,0.3c0,0,0.1,0,0.1,0.1l0,0c0.1,0.2,0.1,0.4,0.2,0.4l0.1-0.1l0.1,0.1l-0.1,0
							c0.1,0.1,0.1,0,0.1-0.1c0,0,0.1,0.1,0.1,0.1l0-0.2c0,0.1,0,0.1,0.1,0.1c0-0.1-0.1-0.1-0.1-0.2c0.1,0,0.1,0.1,0.1,0
							c0,0,0,0.1,0,0.1c0-0.1,0.1-0.1,0.1-0.2c0.1,0.1,0.1-0.1,0.2,0c0,0,0-0.2,0-0.2c0,0.2,0.2-0.1,0.3,0.1c0-0.2,0.2-0.2,0.2-0.4
							c0,0,0,0,0,0c0.1,0,0.1,0,0.2,0c-0.1-0.1,0-0.2-0.1-0.3c0.2,0,0.1,0.2,0.2,0.2c-0.1-0.1,0-0.2-0.1-0.2c0.1,0,0.1,0,0.2,0
							c-0.1-0.1,0-0.1,0-0.2c0.1,0,0.2,0.1,0.2,0C28.9,17.1,28.9,17.2,28.9,17.2z M29.2,14.9L29.2,14.9
							C29.2,14.9,29.2,14.9,29.2,14.9C29.2,14.9,29.2,14.9,29.2,14.9z M29.2,14.7C29.2,14.7,29.2,14.7,29.2,14.7
							C29.2,14.8,29.2,14.8,29.2,14.7C29.2,14.7,29.2,14.7,29.2,14.7z M28.5,15C28.5,15,28.5,15,28.5,15C28.5,15,28.5,15,28.5,15
							L28.5,15C28.5,15,28.5,15,28.5,15z"/>
						<polygon class="st1" points="28.6,15.1 28.6,15.1 28.7,15.1 28.6,15.1 						"/>
						<path class="st1" d="M20.3,7.2L20.3,7.2C20.3,7.1,20.3,7.1,20.3,7.2C20.3,7.1,20.3,7.2,20.3,7.2z"/>
						<polygon class="st1" points="29,12.1 29,12.2 29,12.2 						"/>
						<path class="st1" d="M19.2,7.3C19.2,7.3,19.2,7.3,19.2,7.3C19.2,7.3,19.2,7.3,19.2,7.3z"/>
						<path class="st1" d="M18.9,7.5L18.9,7.5C18.8,7.5,18.9,7.5,18.9,7.5z"/>
						<path class="st1" d="M18.6,7.7C18.6,7.7,18.6,7.7,18.6,7.7L18.6,7.7L18.6,7.7z"/>
						<path class="st1" d="M23.7,6.8L23.7,6.8C23.8,6.8,23.7,6.8,23.7,6.8z"/>
						<path class="st1" d="M22.1,6.6C22.1,6.5,22.1,6.5,22.1,6.6C22.1,6.5,22.1,6.5,22.1,6.6z"/>
						<polygon class="st1" points="25.3,7.4 25.3,7.4 25.3,7.4 						"/>
						<path class="st1" d="M22.2,6.5C22.2,6.5,22.2,6.5,22.2,6.5C22.2,6.5,22.2,6.5,22.2,6.5z"/>
						<path class="st1" d="M17.6,8.8L17.6,8.8C17.6,8.8,17.6,8.8,17.6,8.8L17.6,8.8z"/>
						<path class="st1" d="M17.6,8.8L17.6,8.8C17.6,8.8,17.6,8.8,17.6,8.8z"/>
						<path class="st1" d="M17.6,8.9L17.6,8.9C17.6,8.9,17.6,8.9,17.6,8.9z"/>
						<path class="st1" d="M17.9,8.5L17.9,8.5C17.9,8.4,17.9,8.4,17.9,8.5z"/>
						<path class="st1" d="M18,8.3c0,0-0.1,0-0.1,0.1L18,8.3C17.8,8.4,18,8.4,18,8.3z"/>
						<path class="st1" d="M18.7,8.2L18.7,8.2c-0.1,0.1,0,0.1,0,0.1C18.8,8.3,18.6,8.3,18.7,8.2z"/>
						<path class="st1" d="M19,8C18.9,8.1,19,8.1,19,8C19,8.1,19,8,19,8z"/>
						<path class="st1" d="M21,7L21,7C21.1,7.1,21,7.1,21,7z"/>
						<polygon class="st1" points="21.4,6.5 21.3,6.4 21.3,6.5 						"/>
						<polygon class="st1" points="21.7,7.1 21.7,7.2 21.8,7.1 						"/>
						<path class="st1" d="M25.4,8.4l0-0.1C25.4,8.3,25.3,8.4,25.4,8.4z"/>
						<path class="st1" d="M27.2,8.7c0,0.1,0.1,0.1,0.1,0C27.3,8.7,27.3,8.7,27.2,8.7z"/>
						<polygon class="st1" points="28,12 27.9,11.9 28,12 						"/>
					</g>
				</g>
				<g>
					<g>
						<path class="st1" d="M18.5,26.8C18.5,26.8,18.4,26.7,18.5,26.8L18.5,26.8L18.5,26.8z"/>
						<path class="st1" d="M18.2,26.9c0,0.1,0.1,0.2,0.2,0.2C18.3,27,18.4,27,18.2,26.9c0.1,0,0.1,0,0.2,0c0,0,0,0,0-0.1
							C18.3,26.8,18.2,26.9,18.2,26.9C18.2,26.9,18.2,26.9,18.2,26.9z"/>
						<path class="st1" d="M15.7,28.9L15.7,28.9C15.7,28.9,15.7,28.9,15.7,28.9z"/>
						<path class="st1" d="M13.8,29C13.8,29,13.8,29,13.8,29C13.8,29,13.8,29,13.8,29z"/>
						<path class="st1" d="M13.5,28.8L13.5,28.8C13.5,28.8,13.5,28.8,13.5,28.8z"/>
						<path class="st1" d="M15.7,28.9L15.7,28.9C15.6,28.9,15.7,28.9,15.7,28.9z"/>
						<path class="st1" d="M18.2,27.5C18.2,27.5,18.2,27.4,18.2,27.5L18.2,27.5L18.2,27.5z"/>
						<path class="st1" d="M16.4,28.4L16.4,28.4C16.4,28.4,16.4,28.4,16.4,28.4L16.4,28.4z"/>
						<path class="st1" d="M16.9,28c0,0,0,0.1,0.1,0.1C17,28.1,17,28.1,16.9,28C17,28,17,28,16.9,28z"/>
						<path class="st1" d="M17.8,27.4L17.8,27.4L17.8,27.4z"/>
						<path class="st1" d="M16,28.6C16,28.6,16,28.6,16,28.6L16,28.6z"/>
						<path class="st1" d="M8.2,18L8.2,18C8.2,18,8.2,18,8.2,18z"/>
						<polygon class="st1" points="9.2,18.1 9.2,18.1 9.2,18.1 						"/>
						<path class="st1" d="M13,28.5L13,28.5C13,28.5,13,28.5,13,28.5z"/>
						<path class="st1" d="M8.3,27.2c-0.1,0.2-0.1,0.1-0.3,0.3C8.1,27.5,8.2,27.3,8.3,27.2z"/>
						<path class="st1" d="M18.2,27.5L18.2,27.5C18.2,27.5,18.2,27.5,18.2,27.5z"/>
						<polygon class="st1" points="8,27.5 8,27.5 8,27.5 						"/>
						<path class="st1" d="M11.6,28C11.6,28,11.6,28,11.6,28C11.6,28,11.6,28,11.6,28z"/>
						<path class="st1" d="M12.6,28.6L12.6,28.6C12.6,28.6,12.6,28.6,12.6,28.6z"/>
						<path class="st1" d="M11,27.9C11,27.9,11,27.8,11,27.9C11,27.8,11,27.9,11,27.9C11,27.8,11,27.8,11,27.9z"/>
						<polygon class="st1" points="10.5,27.7 10.5,27.7 10.5,27.7 						"/>
						<path class="st1" d="M6.9,19.6c0,0,0.1,0,0.1,0C6.9,19.6,6.9,19.5,6.9,19.6z"/>
						<path class="st1" d="M18.2,27.4C18.2,27.4,18.2,27.5,18.2,27.4L18.2,27.4C18.2,27.4,18.2,27.4,18.2,27.4z"/>
						<path class="st1" d="M10.7,28.6L10.7,28.6C10.7,28.6,10.7,28.6,10.7,28.6z"/>
						<path class="st1" d="M7.1,24L7.1,24C7.1,24,7.1,24,7.1,24z"/>
						<path class="st1" d="M10.4,28.5C10.4,28.5,10.4,28.4,10.4,28.5C10.4,28.4,10.3,28.4,10.4,28.5L10.4,28.5z"/>
						<path class="st1" d="M7,19.6L7,19.6L7,19.6z"/>
						<path class="st1" d="M7.1,18.8c-0.1,0.1,0.1,0.1,0.1,0.2c0,0.1-0.1,0-0.2,0c0,0.1,0.1,0.2,0,0.3c0,0,0,0-0.1,0
							c0.1,0.1-0.1,0.2,0,0.4c0,0,0,0,0,0c0.1,0,0.1,0,0.2,0.1c0,0,0.1,0.1,0,0.1c0,0,0,0,0-0.1l0,0.1c-0.1,0,0-0.1-0.1-0.1
							c0,0.1,0.1,0.2,0,0.3c-0.1,0,0-0.2-0.1-0.1L7,19.7c-0.2,0,0-0.1-0.2-0.1c-0.1,0.1,0,0.2-0.1,0.3c0.1,0,0.1,0,0.2,0.1
							c0.1,0.2-0.4,0.1-0.2,0.3c0.1,0.1,0.2,0.1,0.1,0.2l-0.1-0.1c0,0.1,0.2,0.1,0.1,0.2c-0.1,0,0-0.1-0.1-0.1
							c-0.1,0.1,0.1,0.1,0.1,0.1l-0.1,0c0,0.1,0.1,0.3,0.1,0.5c0,0-0.1,0-0.1,0c0.1,0.2,0,0.4-0.1,0.6l0.1,0.1c0,0,0,0-0.1,0
							c0,0.1,0.1,0,0.1,0c0,0-0.1,0.1-0.1,0c0.1,0.1,0.2,0.3,0.1,0.5l0,0c0,0.1,0.2,0.1,0.2,0.2l0,0c0,0.2,0.1,0.5,0,0.7
							c0.2,0,0,0.2,0.2,0.2C7,23.6,7,23.5,6.9,23.7c0,0,0.2,0,0.2,0.1l-0.1,0l0.1,0L7,24l0,0c0,0,0-0.1,0.1-0.1
							c0.1,0.1,0,0.2-0.1,0.2l0.2,0.2c0,0-0.1,0-0.1,0c0.1,0.1-0.1,0.1,0,0.1c0,0,0.1,0,0.1,0c-0.1,0.1,0,0.2,0,0.2l-0.1,0
							c0,0.1,0.1,0.3,0.2,0.4c0-0.1,0.2-0.1,0.2,0l-0.1,0c0.1,0,0-0.1,0.1,0c0,0.1-0.1,0.1-0.2,0.1l0.1,0.1c0,0-0.1,0-0.1,0
							c0.1,0-0.1,0.1,0,0.2l0,0c0,0.1,0.1,0.2,0.1,0.3c0.1,0,0.1,0,0.2,0.1c0,0.1-0.1,0.2-0.1,0.3c0.1,0.1,0.1,0,0.2,0
							c-0.1,0-0.1,0.1-0.2,0.1c0,0.1,0,0.2,0.1,0.3c0,0,0.1,0,0.1,0c0,0,0,0.1-0.1,0.1l0,0c0.1,0.1,0,0.2-0.1,0.4
							c-0.1,0.2-0.2,0.4-0.1,0.5l0,0c0,0.1,0,0.2,0,0.2c-0.1,0.1-0.1,0-0.2,0.1l0,0c0.2,0,0.2,0.1,0.2,0.1c0,0.1,0,0.2,0,0.2
							c-0.1,0.2-0.1,0.3-0.2,0.4l0,0l0,0l0,0l0,0l0.3-0.4l0,0l0,0l0,0c0,0,0,0,0,0c0,0,0,0,0,0l0,0c0,0,0,0,0,0v0c0,0,0,0,0,0
							c0,0,0,0,0,0l0,0c0.1,0,0.3,0,0.6,0.1c0.1,0.1,0.3,0,0.4,0c0.1,0,0.1,0,0.2,0.1c0.1,0,0.1-0.3,0.2-0.2L9,28.2
							c0.2-0.1,0.5,0.1,0.7,0c0,0,0,0.1-0.1,0.1c0,0.1,0.2,0,0.2,0c0,0,0,0.1,0,0.1c0,0.1,0.2-0.1,0.2,0c0,0,0,0,0,0
							c0,0,0.1,0.1,0.1-0.1c0.1,0.1,0.2,0,0.2,0.1c0.1-0.1,0.1,0.1,0.2,0c-0.1,0.2,0.1,0.2,0.2,0.1c0,0,0,0.1,0,0.1
							c0.1,0,0.1,0,0.2-0.1c0,0.2,0.3-0.1,0.3,0.2c0.2,0,0.4,0,0.6,0.1c-0.1,0.2-0.2-0.1-0.3,0.1c0.2,0,0.3-0.1,0.5,0
							c0,0-0.1,0.1-0.1,0.1c0.2,0,0.3,0.2,0.5,0.1c0,0,0,0,0,0c0,0,0.1,0.1,0.1,0l0,0c0-0.1,0.2-0.2,0.2-0.2
							c-0.1,0.2,0.1,0.1-0.1,0.3c0,0,0.1,0,0.1-0.1c0,0,0,0.1,0,0.1c0.1,0,0.1-0.1,0.2,0c0,0,0,0-0.1,0.1c0.1,0,0.2-0.1,0.2,0
							c0,0,0,0.1,0,0c0.2,0,0.3-0.1,0.5,0c-0.1,0.1,0,0.1,0,0.2l0.1,0l0-0.1c0.1,0,0.2-0.1,0.2,0l-0.1,0c0.1,0,0.1,0,0.2,0
							c0,0-0.1,0-0.1-0.1c0.1-0.1,0-0.2,0.1-0.1c0,0,0.1,0,0.1,0.1l0,0c0,0,0.1-0.1,0.1,0c0,0,0,0.2,0,0.2c0-0.1,0.2,0,0.2-0.2
							c0,0,0,0.1,0,0.1l0-0.1c0,0,0,0,0,0.1c0.1,0,0-0.2,0.1-0.1c0,0,0,0,0,0c0.1,0,0.2-0.1,0.4,0c0.1,0.1-0.1,0,0,0.2
							c0.2,0,0.3-0.2,0.5-0.2l0,0c0-0.2,0.1,0.1,0.2,0c0,0,0,0.1,0,0.1c0.1,0,0.2-0.1,0.4-0.2l0,0.1c0.1,0,0.2,0,0.3,0
							c0-0.1,0-0.1,0-0.1c0.3,0.2,0.3-0.3,0.6-0.2c0,0,0,0.1,0,0.1c0,0,0.1-0.1,0.1-0.1c-0.1-0.1,0,0-0.1-0.1c0-0.1,0-0.1,0-0.1
							c0,0.1,0.1,0.1,0.1,0.1c0,0,0-0.1,0-0.1c0.2,0.1-0.1-0.2,0.1-0.1l0,0c0,0,0-0.1,0.1-0.1c0.1,0.1,0,0.1,0,0.1
							c0.1,0,0-0.2,0.1-0.2c0,0,0,0.1,0,0.1c0.1,0.1,0.1,0,0.2,0l0,0l0.1,0l0,0c-0.1-0.3,0.1-0.1,0.1-0.4c0,0.2,0,0.1,0.1,0.2
							c0,0,0.1,0,0.1,0c0-0.1,0.1,0,0.1-0.2c0,0,0,0,0.1,0c0-0.1-0.1,0-0.1-0.1c0-0.2,0.3-0.1,0.3-0.3c0-0.2,0-0.2,0-0.4
							c0.1,0,0.1,0.1,0.1,0.1c0.1,0,0.1-0.1,0.1-0.1c0,0,0,0,0.1,0c0,0-0.1-0.1,0-0.1c0,0,0.1,0.1,0.1,0.1c0-0.1,0-0.2,0-0.2
							c0.1,0,0.1,0.1,0.1,0.1c0-0.1,0-0.2,0-0.3l-0.1,0c0,0,0.1,0,0.1,0.1c0,0.1-0.1,0.1-0.1,0l0-0.1c-0.2-0.1-0.1,0.2-0.1,0.2
							l-0.1-0.1l0.1,0.1c0,0-0.1,0-0.1-0.1c-0.1,0,0,0.1-0.1,0.1c0,0,0,0,0,0l0,0.1c0,0-0.1-0.1-0.1-0.1c-0.1,0,0,0.2-0.1,0.2l0,0
							c-0.1,0.1,0.1,0.1,0.1,0.3l-0.3-0.1l0.1,0.1c0,0,0,0-0.1,0c0,0.1,0,0,0.1,0.1c-0.1,0-0.1,0.2-0.3,0.1c0,0.1,0.1,0,0.1,0.1
							c-0.2-0.1,0,0.1-0.2,0.1c-0.1-0.1,0-0.1-0.1-0.1C17.2,28.1,17,28,17,28c0.1,0.1-0.1,0.1-0.1,0.2c0,0-0.2,0.1-0.3,0.1l0,0
							c0.1,0.1,0,0.2-0.1,0.2c0-0.1,0-0.1,0-0.2l0,0c0,0,0,0.1,0,0.1l0-0.1c-0.1,0-0.1,0.2-0.2,0.2c0,0.1,0.2,0.2,0.1,0.3
							c0,0-0.1-0.1-0.1-0.2c0,0,0,0.1,0,0l0-0.1c-0.1,0,0,0.1,0,0.1c0-0.1,0,0-0.1-0.1c0,0,0,0,0,0c0,0-0.1,0-0.1-0.1
							c0,0,0,0.1,0,0.1c-0.1,0-0.1-0.1-0.1-0.1c0,0.1-0.1,0,0,0.1c0,0,0,0-0.1-0.1c0,0.1-0.2,0.1-0.1,0.2l0,0l0,0l0,0l0,0
							c-0.1,0.2-0.3,0-0.4,0.1l0,0c-0.1,0.1-0.2,0.1-0.2,0.2c0,0-0.1-0.1-0.1-0.1c-0.1,0-0.1,0.1-0.2,0c0.1-0.1,0-0.1,0.1-0.1
							c-0.1,0-0.1-0.1-0.2,0c0-0.1-0.1-0.1-0.1-0.1l0.1,0.1c0,0-0.1,0-0.1,0l0-0.1c-0.2-0.1-0.3,0.3-0.4,0c0,0.1,0.1,0.1,0,0.2
							c-0.1,0-0.1-0.2-0.2-0.2C14,28.8,14,29.1,13.9,29c0,0,0,0.2-0.1,0.2c-0.1,0-0.1-0.2,0-0.2c0,0,0,0,0,0c0,0,0.1,0,0-0.1l0,0
							c0,0-0.1-0.1-0.1-0.1c-0.1,0,0,0.1,0,0.1c-0.1-0.1-0.1,0-0.2-0.1c0,0,0,0.1,0,0.1c-0.1-0.1-0.1,0.1-0.2,0.1
							c0-0.1,0.1-0.2,0-0.1c0-0.1,0-0.1,0.1-0.1c-0.1,0.1-0.1-0.1-0.2-0.1l0,0c0,0,0,0-0.1,0l0,0.1c0,0,0,0,0-0.1c0,0,0,0.1-0.1,0.2
							c0-0.1-0.1,0-0.1-0.1c0.1,0.1,0-0.1,0.1-0.1c0,0,0,0-0.1,0c0,0,0,0,0,0c0-0.1-0.1,0.1-0.2,0c0-0.1,0-0.1,0-0.1
							c0,0,0,0.1-0.1,0.1c0-0.1-0.1,0-0.1,0l0,0c0,0.1-0.1,0-0.1,0c0,0,0.1,0,0.1,0c-0.1,0.1-0.1-0.2-0.2-0.1c0-0.1,0.1-0.1,0-0.2
							c-0.1,0-0.1-0.1-0.2-0.1c0,0.1,0,0.1-0.1,0.1l0.2,0l-0.2,0.1c0,0,0.1,0,0.1,0c-0.1,0-0.1,0-0.1,0.1c0-0.2-0.2,0-0.2-0.1
							l0.1-0.2c-0.1-0.1-0.2,0-0.4-0.1l0,0.1c-0.1,0.1-0.1,0-0.2,0c0-0.1,0-0.1,0-0.2c0,0.1-0.1-0.1-0.2,0.1l0-0.1
							c-0.1-0.1-0.2,0.1-0.3,0.1c0.1-0.1,0-0.1,0.1-0.2c0,0-0.1,0-0.1,0c0-0.1-0.1,0.1-0.2,0c0,0-0.1,0.1-0.1,0.1c0,0,0,0,0,0
							c0,0-0.1,0-0.1,0.1c0-0.3-0.3-0.1-0.4-0.3c-0.1,0-0.2,0-0.3,0c0,0,0,0,0,0c-0.1-0.1-0.1,0.2-0.2,0.1c0-0.1,0.1,0,0.1-0.1
							c0-0.2-0.2,0-0.2-0.2l0,0c0-0.1-0.2,0.1-0.3,0c0,0,0,0,0,0c-0.1,0.1-0.2,0.1-0.4,0.1c0-0.1,0.1,0,0-0.1c0,0,0,0.2-0.1,0.2
							c0-0.1-0.1-0.1-0.1-0.2l0.1,0c0-0.1-0.1,0-0.2,0l0-0.1c-0.1,0-0.2,0.2-0.3,0.1l0,0c-0.1,0.1-0.1-0.1-0.1,0c0,0,0-0.1,0-0.1
							c0,0-0.1,0.1-0.1,0.2c0,0,0,0-0.1,0c0,0,0.1-0.1,0.1-0.1c0-0.1,0.1-0.1,0.1-0.1c0,0,0,0-0.1,0c0,0,0,0,0,0.1c0,0,0,0,0,0
							c0,0,0,0,0,0l0,0c-0.1,0.1-0.1,0.2-0.2,0.2c0.2-0.3-0.1,0,0.1-0.3c0,0,0,0,0,0c-0.1,0.1,0,0,0,0c-0.3,0.4,0,0-0.3,0.3
							c0,0,0,0,0,0c0.1-0.1,0.1-0.2,0.2-0.2c0.1-0.1,0.1,0,0.1-0.1c0,0,0.1-0.1,0.2-0.2c-0.1,0.1-0.1,0.1-0.1,0.1l-0.1,0.1
							c-0.1,0,0.1-0.1,0.1-0.1c0,0,0,0,0,0l0.1,0c0,0,0,0-0.2,0c0,0,0.1,0,0.1,0c0,0-0.2-0.3,0-0.5l0.1,0c0,0-0.1-0.1,0-0.1
							c0,0,0.1,0,0.1,0c0,0-0.1-0.1-0.1-0.2l0.1,0c0.1-0.2-0.2-0.3-0.2-0.4c0.2,0,0.2-0.2,0.2-0.3l0,0c0-0.2-0.2-0.4-0.3-0.5
							c0.1-0.2,0-0.4,0-0.6c0,0-0.1,0-0.2,0c0-0.1-0.1-0.1,0-0.1l0,0c0.1-0.1,0.1-0.2,0-0.2l-0.2,0c0.2-0.3-0.2-0.4,0-0.6
							c-0.1,0-0.1-0.1-0.1-0.1l0.1,0c0-0.1,0-0.2-0.1-0.3l0.1,0c0-0.1-0.3,0-0.3-0.1L7.7,23c0-0.1,0.1-0.3-0.1-0.4c0,0,0.1,0,0.1,0
							c0-0.1,0.1-0.3-0.1-0.2c0.1,0,0-0.1-0.1-0.2l0.1,0c-0.1,0-0.2,0-0.2-0.1c0,0,0.1,0,0.1,0c0-0.1-0.1,0-0.1-0.1l0.1,0
							c0-0.1,0-0.1-0.1-0.1c0,0,0-0.1,0.1-0.2c-0.1,0-0.1,0-0.1-0.1c0,0,0.1,0,0.1,0c0.1-0.1-0.1-0.2,0-0.3c0,0,0.1,0,0.1,0
							c0,0.1,0,0.2,0,0.2c0.1,0,0.1-0.1,0.2,0c-0.1-0.1-0.2-0.2-0.2-0.2c0,0,0,0,0,0l0,0c0,0,0,0,0,0c0,0,0,0,0-0.1
							c0.1,0,0-0.1,0.1-0.1c-0.1,0-0.1-0.1-0.2,0c0,0,0,0,0,0c0,0,0,0,0,0l0,0c0,0,0,0.1,0,0.1c-0.1,0-0.1-0.1,0-0.1
							c-0.1,0-0.1-0.1-0.2-0.1c0.2,0,0.2-0.1,0.3-0.1c0-0.1,0-0.3-0.2-0.4c0,0,0.1,0,0.1,0c0,0,0,0,0,0.1c0-0.1,0-0.2-0.1-0.2
							c0.1-0.1,0.1,0.1,0.1,0l0,0c0.3-0.1-0.2-0.5,0.2-0.6c0,0,0,0-0.1,0c0.2-0.2,0.2-0.6,0.6-0.6c0.1,0,0-0.1,0-0.2l0.1,0.1l0-0.2
							c0-0.2,0.3,0.1,0.4-0.1l-0.1-0.1c0.1,0,0.1-0.1,0.2,0c0,0,0-0.1,0-0.1l0,0.1l0.1-0.2c0.1,0,0.1,0.2,0.2,0.2
							c0,0,0.1-0.2,0.1-0.3c0,0-0.1,0-0.1-0.1l0,0c-0.1-0.2-0.1-0.4-0.2-0.4l-0.1,0.1l-0.1-0.1l0.1,0c-0.1-0.1-0.1,0-0.1,0.1
							c0,0-0.1-0.1-0.1-0.1l0,0.2c0-0.1,0-0.1-0.1-0.1c0,0.1,0.1,0.1,0.1,0.2c-0.1,0-0.1-0.1-0.1,0c0,0,0-0.1,0-0.1
							c0,0.1-0.1,0.1-0.1,0.2c-0.1-0.1-0.1,0.1-0.2,0c0,0,0,0.2,0,0.2c0-0.2-0.2,0.1-0.3-0.1c0,0.2-0.2,0.2-0.2,0.4c0,0,0,0,0,0
							c-0.1,0-0.1,0-0.2,0c0.1,0.1,0,0.2,0.1,0.3c-0.2,0-0.1-0.2-0.2-0.2c0.1,0.1,0,0.2,0.1,0.2c-0.1,0-0.1,0-0.2,0
							c0.1,0.1,0,0.1,0,0.2c-0.1,0-0.2-0.1-0.2,0C7.1,18.9,7.1,18.8,7.1,18.8z M6.8,21.1L6.8,21.1C6.8,21.1,6.8,21.1,6.8,21.1
							C6.8,21.1,6.8,21.1,6.8,21.1z M6.8,21.3C6.8,21.3,6.8,21.3,6.8,21.3C6.8,21.2,6.9,21.3,6.8,21.3C6.8,21.3,6.8,21.3,6.8,21.3z
							 M7.5,21C7.5,21,7.5,21,7.5,21C7.5,21,7.5,21,7.5,21L7.5,21C7.5,21,7.5,21,7.5,21z"/>
						<polygon class="st1" points="7.4,20.9 7.4,20.9 7.3,20.9 7.4,20.9 						"/>
						<path class="st1" d="M15.7,28.9L15.7,28.9C15.7,28.9,15.7,28.9,15.7,28.9C15.7,28.9,15.7,28.9,15.7,28.9z"/>
						<polygon class="st1" points="7,23.9 7,23.9 7,23.8 						"/>
						<path class="st1" d="M16.7,28.7C16.8,28.8,16.8,28.8,16.7,28.7C16.8,28.8,16.8,28.8,16.7,28.7z"/>
						<path class="st1" d="M17.1,28.5L17.1,28.5C17.2,28.5,17.1,28.5,17.1,28.5z"/>
						<path class="st1" d="M17.4,28.3C17.4,28.3,17.4,28.3,17.4,28.3L17.4,28.3L17.4,28.3z"/>
						<path class="st1" d="M12.3,29.2L12.3,29.2C12.2,29.2,12.3,29.2,12.3,29.2z"/>
						<path class="st1" d="M13.9,29.4C13.9,29.5,13.9,29.5,13.9,29.4C13.9,29.5,13.9,29.5,13.9,29.4z"/>
						<polygon class="st1" points="10.7,28.6 10.7,28.6 10.7,28.6 						"/>
						<path class="st1" d="M13.8,29.5C13.8,29.5,13.8,29.5,13.8,29.5C13.8,29.5,13.8,29.5,13.8,29.5z"/>
						<path class="st1" d="M18.4,27.2L18.4,27.2C18.4,27.2,18.4,27.2,18.4,27.2L18.4,27.2z"/>
						<path class="st1" d="M18.4,27.2L18.4,27.2C18.4,27.2,18.4,27.2,18.4,27.2z"/>
						<path class="st1" d="M18.4,27.1L18.4,27.1C18.4,27.2,18.4,27.1,18.4,27.1z"/>
						<path class="st1" d="M18.1,27.6L18.1,27.6C18.1,27.6,18.1,27.6,18.1,27.6z"/>
						<path class="st1" d="M18,27.7c0,0,0.1,0,0.1-0.1L18,27.7C18.2,27.6,18,27.6,18,27.7z"/>
						<path class="st1" d="M17.3,27.8L17.3,27.8c0.1-0.1,0-0.1,0-0.1C17.2,27.7,17.4,27.7,17.3,27.8z"/>
						<path class="st1" d="M17,28C17.1,27.9,17,27.9,17,28C17,28,17,28,17,28z"/>
						<path class="st1" d="M15,29L15,29C14.9,28.9,15,28.9,15,29z"/>
						<polygon class="st1" points="14.6,29.5 14.7,29.6 14.7,29.5 						"/>
						<polygon class="st1" points="14.3,28.9 14.3,28.9 14.2,28.9 						"/>
						<path class="st1" d="M10.6,27.6l0,0.1C10.6,27.7,10.7,27.6,10.6,27.6z"/>
						<path class="st1" d="M8.8,27.3c0-0.1-0.1-0.1-0.1,0C8.7,27.3,8.7,27.3,8.8,27.3z"/>
						<polygon class="st1" points="8,24 8.1,24.1 8,24 						"/>
					</g>
					<g>
						<path class="st1" d="M17.9,26.6C17.9,26.6,17.8,26.6,17.9,26.6L17.9,26.6L17.9,26.6z"/>
						<path class="st1" d="M17.8,26.9c0.1,0,0.2,0,0.3-0.1C18,26.8,18,26.8,17.8,26.9c0-0.1,0.1-0.1,0.1-0.1c0,0,0-0.1-0.1,0
							C17.8,26.8,17.8,26.8,17.8,26.9C17.9,26.9,17.9,26.9,17.8,26.9z"/>
						<path class="st1" d="M20.2,29.2L20.2,29.2C20.2,29.2,20.2,29.2,20.2,29.2z"/>
						<path class="st1" d="M22.3,29.5C22.3,29.5,22.3,29.5,22.3,29.5C22.3,29.5,22.3,29.5,22.3,29.5z"/>
						<path class="st1" d="M22.7,29.6C22.7,29.6,22.7,29.6,22.7,29.6C22.7,29.6,22.7,29.6,22.7,29.6z"/>
						<path class="st1" d="M20.2,29.2L20.2,29.2C20.2,29.2,20.2,29.2,20.2,29.2z"/>
						<path class="st1" d="M18.3,27.1C18.3,27.1,18.3,27.1,18.3,27.1L18.3,27.1L18.3,27.1z"/>
						<path class="st1" d="M19.3,28.9L19.3,28.9C19.3,28.9,19.3,28.9,19.3,28.9L19.3,28.9z"/>
						<path class="st1" d="M18.7,28.4c0,0,0.1-0.1,0.1-0.1C18.8,28.4,18.7,28.4,18.7,28.4C18.7,28.4,18.7,28.4,18.7,28.4z"/>
						<path class="st1" d="M18,27.5L18,27.5L18,27.5z"/>
						<path class="st1" d="M19.7,29.1C19.7,29.1,19.7,29.2,19.7,29.1C19.7,29.2,19.7,29.1,19.7,29.1z"/>
						<path class="st1" d="M27.3,18.8L27.3,18.8C27.3,18.8,27.3,18.8,27.3,18.8z"/>
						<polygon class="st1" points="26.8,18 26.9,18 26.9,18 						"/>
						<path class="st1" d="M23.4,29.5L23.4,29.5C23.4,29.5,23.4,29.5,23.4,29.5z"/>
						<path class="st1" d="M28.6,28.1c0,0-0.1-0.2-0.2-0.1C28.4,27.9,28.5,28.1,28.6,28.1z"/>
						<path class="st1" d="M18.3,27.1L18.3,27.1C18.3,27.1,18.3,27.1,18.3,27.1z"/>
						<polygon class="st1" points="28.4,27.9 28.4,27.9 28.4,27.9 						"/>
						<path class="st1" d="M24.7,28.8C24.7,28.8,24.7,28.8,24.7,28.8C24.7,28.8,24.7,28.8,24.7,28.8z"/>
						<path class="st1" d="M23.7,29.1L23.7,29.1C23.7,29.1,23.7,29.1,23.7,29.1z"/>
						<path class="st1" d="M25.2,28.4C25.2,28.4,25.2,28.4,25.2,28.4C25.2,28.4,25.2,28.4,25.2,28.4C25.2,28.4,25.2,28.4,25.2,28.4z
							"/>
						<polygon class="st1" points="25.7,28.2 25.7,28.2 25.7,28.2 						"/>
						<path class="st1" d="M28.3,19.9C28.3,19.9,28.3,19.9,28.3,19.9C28.3,19.9,28.3,19.8,28.3,19.9z"/>
						<path class="st1" d="M18.3,27.1C18.3,27.1,18.3,27.1,18.3,27.1L18.3,27.1C18.3,27.1,18.3,27.1,18.3,27.1z"/>
						<path class="st1" d="M24.9,27.6L24.9,27.6C25,27.6,24.9,27.6,24.9,27.6z"/>
						<path class="st1" d="M28.1,23.8L28.1,23.8C28.1,23.8,28.1,23.8,28.1,23.8z"/>
						<path class="st1" d="M25.3,27.5C25.3,27.5,25.3,27.5,25.3,27.5C25.3,27.5,25.3,27.5,25.3,27.5L25.3,27.5z"/>
						<path class="st1" d="M28.4,19.8L28.4,19.8L28.4,19.8z"/>
						<path class="st1" d="M27.9,19.5c0,0.1,0.1,0,0.2-0.1C28.2,19.5,28.1,19.5,27.9,19.5c0.2,0.1,0.3,0.1,0.3,0.1c0,0,0,0-0.1,0
							c0.1,0,0.1,0.2,0.2,0.2c0,0,0,0,0,0c0.1,0,0.1-0.1,0.2-0.1c0,0,0.1,0,0,0.1c0,0,0,0-0.1,0l0,0c-0.1,0.1-0.1,0-0.2,0
							c0.1,0.1,0.2,0.1,0.2,0.2c-0.1,0-0.1-0.1-0.2,0l0-0.1c-0.2,0.1,0-0.1-0.2,0.1c0,0.1,0.1,0.1,0.1,0.2c0.1,0,0.1,0,0.2,0
							c0.2,0.1-0.3,0.2-0.1,0.3c0.1,0,0.2,0,0.2,0.1l-0.1,0c0,0.1,0.2,0,0.1,0.2c-0.1,0-0.1-0.1-0.1-0.1c-0.1,0.1,0.1,0,0.1,0.1
							l-0.1,0c0,0.1,0.1,0.2,0.2,0.4c0,0-0.1,0-0.1,0c0.1,0.2,0,0.4-0.1,0.5l0.1,0.1c0,0-0.1,0-0.1,0c0,0.1,0.1,0,0.1,0
							c0,0-0.1,0-0.1,0c0.1,0.1,0.2,0.4,0,0.5l0,0c-0.1,0.1,0.2,0.1,0.1,0.2l0,0c-0.1,0.2,0,0.4-0.2,0.6c0.1,0.1-0.1,0.2,0.1,0.3
							c-0.1,0.1-0.2,0-0.3,0.2c0,0,0.1,0.1,0.1,0.2l-0.1,0l0.1,0.1l-0.1,0l0,0.1c0,0,0.1,0,0.1,0c0,0.1-0.1,0.2-0.2,0.2l0,0.2
							c0,0,0-0.1-0.1-0.1c0.1,0.1-0.1,0,0,0.1c0,0,0.1,0,0.1,0c-0.1,0-0.1,0.1-0.1,0.2l-0.1,0c-0.1,0.1-0.1,0.3-0.1,0.5
							c0.1-0.1,0.2,0,0.2,0.1l-0.1,0c0.1,0.1,0.1,0,0.1,0c0,0.1-0.1,0-0.2,0l0,0.1c0,0-0.1,0-0.1,0c0.1,0.1-0.2,0.1,0,0.2l0,0
							c0,0.2,0,0.3,0,0.4c0.1,0,0.1,0.1,0.1,0.1c0,0.1-0.1,0.2-0.1,0.4c0,0.1,0.1,0,0.1,0.1c-0.1,0-0.1,0.1-0.2,0.1
							c0,0.2,0,0.2,0.1,0.4c0,0,0.1,0,0.1,0c0,0,0,0.1-0.1,0.1l0,0c0.1,0.1,0,0.3,0,0.3c-0.1,0.1-0.1,0.1,0,0.1l0,0
							c0,0,0.1,0.1,0.1,0.1c0,0-0.1-0.1-0.2-0.1l0,0c0.2,0.2,0,0,0.1,0.2c-0.4-0.3,0,0.1-0.2-0.2l0.1,0.1c0.1,0.1,0,0-0.1-0.1
							c0,0,0,0,0,0c0,0,0,0,0,0c0,0,0,0,0.1,0.1l0,0c0,0-0.1,0-0.2-0.1c0,0,0,0-0.1-0.1c-0.1,0-0.2,0-0.3,0c-0.2,0-0.1,0.3-0.3,0.2
							l0-0.1c-0.3,0.2-0.6,0.1-0.8,0.3c0,0,0-0.1,0-0.1c-0.1-0.1-0.2,0-0.2,0.1c0,0,0-0.1-0.1-0.1c-0.1,0-0.1,0.2-0.2,0.1
							c0,0,0,0,0,0c0,0.1-0.2,0-0.1,0.1c-0.1,0-0.2,0.1-0.3,0.1c0,0.1-0.2,0-0.1,0.2c-0.1-0.2-0.2-0.1-0.2,0c0-0.1-0.1,0-0.1-0.1
							c-0.1,0-0.1,0.1-0.1,0.2c-0.2-0.1-0.2,0.2-0.3,0c-0.2,0.2-0.3,0.3-0.5,0.4c-0.1-0.2,0.2-0.1,0.1-0.3c-0.1,0.1-0.2,0.3-0.3,0.4
							c-0.1,0,0-0.1,0-0.1c-0.1,0.1-0.3,0.1-0.4,0.3c0,0,0,0,0-0.1c0,0-0.1,0,0,0.1l0,0c0.1,0.1,0,0.3,0,0.3c-0.1-0.2-0.2,0-0.2-0.3
							c0,0,0,0.1,0,0.1c0,0-0.1,0-0.1-0.1c-0.1,0.1,0,0.1-0.1,0.2c0,0,0-0.1,0-0.1c0,0.1,0,0.2-0.1,0.2c0,0,0,0,0-0.1
							c-0.1,0.1-0.2,0.2-0.3,0.2c0-0.2-0.1,0-0.1-0.2l-0.1,0.1l0,0.1c-0.1,0-0.1,0.1-0.2,0.1l0-0.1c0,0-0.1,0-0.1,0c0,0,0.1,0,0.1,0
							c-0.1,0.1,0,0.2-0.1,0.1c0,0-0.1,0-0.1-0.1l0,0c0,0-0.1,0.1-0.1,0.1c0,0,0-0.2,0-0.2c0,0.1-0.2,0-0.2,0.2c0,0,0-0.1,0-0.1
							l0,0.1c0,0,0,0,0-0.1c-0.1,0,0,0.2-0.1,0.1c0,0,0,0,0,0c-0.1,0-0.2,0-0.3,0c0-0.1,0.1,0,0.1-0.1c-0.2,0-0.3,0.1-0.5,0.1l0,0
							c-0.1,0.2-0.1-0.1-0.2,0c0,0,0.1-0.1,0-0.1c-0.1-0.1-0.2,0-0.4,0l0,0c0-0.1-0.1-0.1-0.2-0.1c0,0-0.1,0-0.1,0.1
							c-0.1-0.3-0.4,0-0.5-0.3c0,0,0.1,0,0.1,0c-0.1,0-0.1,0-0.2,0c0,0.1,0,0.1,0,0.1c0,0-0.1,0-0.1,0c0.1,0,0.1-0.1,0.1-0.2
							c0,0,0,0,0,0.1c0-0.2-0.1,0.1-0.1,0l0,0c0,0-0.1,0-0.1,0c0-0.1,0.1,0,0.1-0.1c-0.1,0-0.2,0.1-0.2,0c0,0,0.1,0,0.1,0
							c0-0.1,0-0.1,0-0.2l0,0l0-0.1l0,0c-0.2,0.2-0.2-0.1-0.3,0c0.2,0,0.1-0.1,0.2-0.1c0,0,0-0.1,0-0.1c-0.1,0,0-0.1-0.2-0.1
							c0,0,0,0,0-0.1c-0.1,0,0,0.1-0.1,0.1c-0.2,0,0-0.3-0.3-0.3c-0.1-0.1-0.3,0-0.4-0.1c0-0.1,0.1-0.1,0.1-0.1c0-0.1,0-0.1-0.1-0.1
							c0,0,0,0,0.1-0.1c0,0-0.1,0-0.1,0c0,0,0.1,0,0.1,0c-0.1,0-0.1,0-0.2-0.1c0,0,0.1,0,0.1,0c-0.1,0-0.1-0.1-0.2-0.1l0,0.1
							c0,0,0.1-0.1,0.1,0c0.1,0,0,0.1,0,0.1l0,0c-0.2,0.2,0.1,0.1,0.2,0.2L18,27.3l0.2,0c0,0-0.1,0.1-0.1,0.1c0,0.1,0.1,0,0,0.1
							c0,0,0,0,0,0l0.1,0c0,0-0.1,0.1-0.1,0c0,0.2,0.2,0.1,0.1,0.2l0,0c0.1,0.1,0.1-0.1,0.3-0.1l-0.2,0.2l0.1-0.1c0,0,0,0,0,0.1
							c0.1,0,0,0,0.1-0.1c0,0.1,0.2,0.1,0.1,0.3c0.1,0,0-0.1,0.1-0.1c-0.1,0.2,0.1,0,0.1,0.2c-0.1,0.1-0.1,0-0.1,0.1
							c0.1-0.1,0.1,0.1,0.1,0.1c0.1-0.1,0.1,0,0.2,0.1c0,0,0.1,0.2,0.2,0.3l0,0c0.1-0.1,0.2,0,0.2,0c0,0.1-0.1,0.1-0.1,0.1l0.1,0
							c0,0,0.1,0,0.1,0l-0.1,0.1c0.1,0,0.2,0,0.3,0.1c0-0.1,0-0.3,0.2-0.3c0,0-0.1,0.1-0.1,0.1c0,0,0.1,0,0.1,0l-0.1,0.1
							c0,0.1,0.1-0.1,0.1,0c0,0.1,0,0.1,0,0.1c0,0,0,0,0,0c0,0,0.1,0.1,0.1,0.2c0,0,0-0.1,0.1-0.1c0.1,0,0,0.1,0,0.1
							c0,0,0.1,0,0.1-0.1c0,0,0,0.1,0,0.1c0.1,0,0.2,0.1,0.2-0.1l0,0l0,0l0,0l0,0c0.2,0,0.3,0.2,0.4,0.2l0,0c0.1,0,0.2,0,0.3,0
							c0,0,0,0.1,0,0.1c0.1,0,0.1-0.1,0.2,0c-0.1,0.1,0,0.1-0.1,0c0.1,0.1,0.1,0.1,0.2,0c0,0.1,0.1,0.1,0.1,0.1l-0.1-0.1
							c0,0,0.1,0,0.1,0l0,0.1c0.2,0.2,0.3-0.2,0.5,0c0-0.1-0.1-0.1-0.1-0.2c0.1,0,0.2,0.2,0.2,0.2c0.1,0.1,0.1-0.2,0.2-0.2
							c0,0,0-0.2,0-0.2c0.1,0,0.1,0.2,0.1,0.2c0,0,0,0,0,0c0,0-0.1,0,0,0.1l0,0c0,0,0.2,0,0.1,0.1c0.1-0.1,0-0.1,0-0.1
							c0.1,0,0.2,0,0.3,0c0,0-0.1-0.1,0-0.1c0.2,0,0.1-0.1,0.2-0.1c0.1,0,0,0.2,0.1,0.1c0.1,0,0.1,0.1,0,0.2c0.1-0.1,0.2,0,0.3,0
							l0,0.1c0,0,0.1,0,0.1-0.1l-0.1-0.1c0,0,0.1,0,0.1,0c0-0.1-0.1-0.1-0.1-0.2c0.1,0,0.1-0.1,0.2,0c-0.1,0,0.1,0.1,0,0.2
							c0,0,0,0,0.1,0c0,0,0,0,0,0c0.2,0,0-0.1,0.1-0.2c0,0.1,0.1,0.1,0.1,0.1c0,0-0.1-0.1-0.1-0.2c0.1,0,0.1-0.1,0.1-0.1l-0.1,0
							c0-0.1,0-0.1,0.1-0.1c0,0,0,0.1,0,0.1c0-0.1,0.2,0,0.2-0.1c0.1,0,0.1,0.1,0.1,0.1c0-0.1,0.1,0,0.2-0.1c-0.1-0.1-0.1,0,0-0.2
							L24,29l0-0.2c0,0-0.1,0.1-0.1,0.1c0-0.1,0-0.1,0-0.1c0.1,0.1,0.1-0.1,0.2-0.1l0.1,0.2c0.1,0,0.1-0.2,0.3-0.2l-0.1,0
							c0-0.1,0.1,0,0.1-0.1c0,0.1,0.1,0.1,0.1,0.1c0,0,0.1,0,0.1-0.2l0.1,0.1c0.1,0,0-0.3,0.2-0.3c0,0.1,0.1,0.1,0,0.2
							c0,0,0.1,0,0.1-0.1c0,0,0.1-0.1,0.1-0.1c0,0,0-0.1,0-0.1c0,0,0,0,0,0c0,0,0-0.1,0-0.1c0.2,0.2,0.3-0.1,0.5,0
							c0.1,0,0.2-0.1,0.2-0.1c0,0,0,0,0,0c0.1,0,0-0.2,0.1-0.2c0.1,0.1,0,0.1,0,0.1c0.1,0.2,0.1-0.1,0.2,0.1l0,0
							c0.1,0.1,0.1-0.1,0.2-0.1c0,0,0,0,0,0c0-0.1,0.2-0.2,0.3-0.2c0,0.1,0,0.1,0,0.1c0,0,0-0.2,0-0.2c0,0,0.1,0.1,0.1,0.2l-0.1,0
							c0.1,0.1,0.1,0,0.1,0l0,0.1c0.1,0,0.1-0.2,0.2-0.2l0,0c0.1-0.2,0.1,0.1,0.1,0c0,0,0,0.1,0,0.1c0.1,0,0.2-0.1,0.2-0.1
							c0,0,0,0,0.1,0c0,0,0,0.1,0,0.1c0,0.1-0.1,0.1-0.2,0.1c0,0,0.2,0,0.2,0c0,0,0,0,0-0.1c0,0,0,0,0,0c0,0,0,0,0,0l0,0
							c0-0.1,0.1-0.1,0.2-0.1c0.1,0.2,0.3,0.1,0.4,0.2l0,0c0,0,0.1,0,0.1,0.1l0,0l0,0l0,0l0,0l0,0l0.3,0.3l0,0l0,0l0,0l0,0
							c0,0,0-0.1,0-0.1c-0.1-0.1,0-0.1-0.2-0.2c0-0.1,0-0.1,0-0.1l0-0.1c0,0,0,0.1,0.1,0.1c0-0.1,0,0,0.1,0c-0.1,0-0.1-0.1,0-0.1
							l-0.2,0c0-0.1,0.2,0,0.3-0.1c0,0,0-0.1-0.1-0.2l0.1,0.1c-0.1-0.1-0.1-0.2-0.2-0.4c0-0.1-0.1-0.2-0.2-0.3c0,0,0.1,0,0.1,0
							c-0.1-0.4-0.3-0.5-0.2-0.6l0.1,0c0,0-0.1,0-0.1-0.1c0,0,0.1,0,0.1,0c0,0-0.1-0.1-0.1-0.1l0.1,0c0.1-0.2-0.2-0.2-0.2-0.4
							c0.2,0,0.2-0.1,0.3-0.2l0,0c0-0.2-0.1-0.3-0.1-0.5c0.2-0.1,0.2-0.3,0.3-0.5c0,0-0.1,0-0.1-0.1c0,0-0.1-0.1,0.1-0.1l0,0
							c0.2,0,0.1-0.1,0.2-0.2l-0.2-0.1c0.3-0.1,0-0.5,0.3-0.5c0-0.1,0-0.1-0.1-0.2l0.1,0c0.1-0.1,0.1-0.2,0.1-0.3l0.1,0.1
							c0-0.1-0.3-0.2-0.3-0.3l0.2,0c0-0.2,0.2-0.3,0.1-0.5c0,0,0.1,0,0.1,0c0-0.1,0.2-0.3-0.1-0.3c0.1,0,0-0.2,0-0.3l0.1,0
							c-0.1-0.1-0.2-0.1-0.2-0.2c0,0,0.1,0,0.1,0c0.1-0.1-0.1-0.1,0-0.2l0.1,0c0-0.1,0-0.1-0.1-0.1c0-0.1,0-0.1,0.1-0.2
							c-0.1,0-0.1-0.1-0.1-0.1c0,0,0.1,0,0.1,0c0.1-0.1-0.1-0.2,0-0.3c0,0,0.1,0,0.1,0c0,0.1,0,0.2,0,0.2c0.1,0,0.1-0.1,0.2,0
							c-0.1-0.1-0.2-0.2-0.2-0.3c0,0,0,0,0,0l0,0c0,0,0,0,0-0.1c0,0,0,0,0-0.1c0.1,0,0-0.1,0-0.2c-0.1,0-0.1,0-0.2,0c0,0,0,0,0,0
							c0,0,0,0,0,0l0,0c0,0,0,0.1,0,0.1c-0.1,0-0.1-0.1,0-0.1c-0.1,0-0.1,0-0.2,0c0.1-0.1,0.2-0.2,0.3-0.2c-0.1-0.1-0.1-0.3-0.3-0.4
							c0,0,0-0.1,0.1-0.1c0,0,0,0,0.1,0.1C29.1,20.2,29.1,20,29,20c0-0.1,0.1,0,0.1-0.1l0,0c0.1-0.3-0.5-0.3-0.3-0.7c0,0,0,0,0,0.1
							c-0.1-0.4-0.5-0.5-0.6-0.9c0-0.1-0.1,0-0.2,0l0.1-0.1l-0.2,0c-0.2,0-0.1-0.4-0.3-0.3l0,0.1c0,0-0.2,0-0.1-0.1
							c0,0-0.1,0.1-0.1,0l0-0.1l-0.2,0c-0.1-0.1,0.1-0.2,0-0.3c-0.1,0-0.2,0.1-0.2,0.1c0,0,0,0.1,0,0.1l-0.1,0
							c-0.1,0.2-0.2,0.3-0.1,0.5l0.1-0.1l0,0.1l-0.1,0c0,0.1,0.1,0,0.1,0c0,0,0,0.1,0,0.1l0.1-0.1c0,0.1-0.1,0.1-0.1,0.2
							c0.1-0.1,0-0.2,0.1-0.2c0,0.1,0,0.1,0,0.1c0,0,0,0.1-0.1,0.1c0.1,0,0.1,0,0.2,0c0,0.1,0.1,0.1,0,0.2c0,0,0.1-0.1,0.2-0.1
							c-0.2,0.1,0.1,0.1,0,0.3c0.1-0.1,0.2,0,0.3,0c0,0,0,0,0,0c0,0,0,0.1,0,0.1c0.1-0.1,0.2-0.1,0.3-0.1c-0.1,0.1-0.2,0.1-0.2,0.2
							c0.1-0.1,0.2,0,0.2-0.1c0,0.1,0,0.1-0.1,0.2c0.1-0.1,0,0,0.2,0c0,0.1-0.1,0.1,0,0.1C28,19.5,27.9,19.5,27.9,19.5z M28.7,21.2
							L28.7,21.2C28.7,21.1,28.7,21.1,28.7,21.2C28.7,21.1,28.7,21.1,28.7,21.2z M28.7,21.3C28.7,21.3,28.7,21.3,28.7,21.3
							C28.7,21.3,28.8,21.3,28.7,21.3C28.7,21.3,28.7,21.3,28.7,21.3z M29.4,20.9C29.4,21,29.4,21,29.4,20.9
							C29.4,21,29.4,21,29.4,20.9L29.4,20.9C29.4,20.9,29.4,20.9,29.4,20.9z"/>
						<path class="st1" d="M29.3,20.9C29.3,20.9,29.3,20.9,29.3,20.9L29.3,20.9L29.3,20.9L29.3,20.9z"/>
						<path class="st1" d="M20.2,29.2L20.2,29.2L20.2,29.2C20.2,29.1,20.2,29.2,20.2,29.2z"/>
						<polygon class="st1" points="28.1,23.6 28.1,23.6 28.1,23.6 						"/>
						<path class="st1" d="M19.5,28.4C19.5,28.4,19.5,28.4,19.5,28.4C19.5,28.4,19.5,28.4,19.5,28.4z"/>
						<path class="st1" d="M19.2,28.1L19.2,28.1C19.1,28.1,19.1,28.1,19.2,28.1z"/>
						<path class="st1" d="M19,27.9C18.9,27.9,18.9,27.9,19,27.9L19,27.9L19,27.9z"/>
						<path class="st1" d="M23.3,28.5L23.3,28.5C23.4,28.4,23.4,28.5,23.3,28.5z"/>
						<path class="st1" d="M22.1,29.1C22.1,29.1,22.1,29.1,22.1,29.1C22.1,29.1,22.1,29.1,22.1,29.1z"/>
						<polygon class="st1" points="24.9,27.6 24.9,27.6 24.9,27.6 						"/>
						<path class="st1" d="M22.2,29.1C22.1,29.1,22.1,29.1,22.2,29.1C22.1,29.1,22.2,29.1,22.2,29.1z"/>
						<path class="st1" d="M18.2,26.9L18.2,26.9C18.2,26.9,18.2,26.9,18.2,26.9L18.2,26.9z"/>
						<path class="st1" d="M18.2,26.9L18.2,26.9C18.1,26.9,18.1,26.9,18.2,26.9z"/>
						<path class="st1" d="M18.1,26.8L18.1,26.8C18.1,26.8,18.1,26.8,18.1,26.8z"/>
						<path class="st1" d="M18.4,27.2L18.4,27.2C18.4,27.2,18.4,27.2,18.4,27.2z"/>
						<path class="st1" d="M18.4,27.3c0,0,0-0.1,0-0.1l0,0C18.4,27.2,18.4,27.3,18.4,27.3z"/>
						<path class="st1" d="M18.4,28l-0.1-0.1c0,0,0,0.1-0.1,0.1C18.3,28.2,18.3,27.9,18.4,28z"/>
						<path class="st1" d="M18.6,28.3C18.6,28.3,18.6,28.4,18.6,28.3C18.6,28.4,18.6,28.4,18.6,28.3z"/>
						<path class="st1" d="M20.9,29.5L20.9,29.5C20.9,29.5,20.9,29.5,20.9,29.5z"/>
						<polygon class="st1" points="21.4,29 21.4,29 21.4,29.1 						"/>
						<polygon class="st1" points="21.7,29.7 21.7,29.7 21.7,29.7 						"/>
						<path class="st1" d="M25.7,28.3l-0.1-0.1C25.6,28.3,25.6,28.4,25.7,28.3z"/>
						<path class="st1" d="M27.3,27.9C27.3,27.9,27.3,28,27.3,27.9C27.3,27.9,27.3,27.9,27.3,27.9z"/>
						<polygon class="st1" points="28.9,24.3 28.9,24.4 28.9,24.3 						"/>
					</g>
				</g>
			</g>
		</g>
	</g>
</g>
</svg>
