<?xml version="1.0" encoding="utf-8"?>
<!-- Generator: Adobe Illustrator 27.0.1, SVG Export Plug-In . SVG Version: 6.00 Build 0)  -->
<svg version="1.1" id="Capa_1" xmlns="http://www.w3.org/2000/svg" xmlns:xlink="http://www.w3.org/1999/xlink" x="0px" y="0px"
	 viewBox="0 0 33.9 37" style="enable-background:new 0 0 33.9 37;" xml:space="preserve">
<style type="text/css">
	.st0{fill:none;stroke:#E72F47;stroke-width:0.7498;stroke-miterlimit:10;}
</style>
<g>
	<g>
		<path class="st0" d="M13.2,27.9c-1.8-0.4-3.8-2.4-3.8-4.6c0-2.5,1.9-4.3,4-4.3c1.5,0,2.9,1.4,3.5,3H17c0.6-1.5,1.9-3,3.5-3
			c2.1,0,4,1.8,4,4.3c0,2.2-2.1,4.2-3.8,4.6"/>
		<line class="st0" x1="9.7" y1="15.4" x2="24.7" y2="15.4"/>
		<line class="st0" x1="21.2" y1="12.5" x2="21.2" y2="19"/>
		<path class="st0" d="M22.1,11.8c0,0.5-0.4,1-1,1c-0.5,0-1-0.4-1-1c0-0.5,0.4-1,1-1C21.6,10.9,22.1,11.3,22.1,11.8z"/>
	</g>
	<g>
		<circle class="st0" cx="16.9" cy="19.6" r="13.9"/>
		<g>
			<g>
				<path class="st0" d="M3.3,19.5c-2.6-0.9-3.6-3-3.2-6.3C0.5,9.4,2.5,7.8,0.9,4c0,0,0.7,2.4,7.9-1.4c2.5-1.3,6.9-0.1,8.6,3.5"/>
				<path class="st0" d="M30.6,19.5c2.6-0.9,3.6-3,3.2-6.3C33.3,9.4,31.4,7.8,33,4c0,0-0.7,2.4-7.9-1.4c-2.5-1.3-6.9-0.1-8.6,3.5"/>
			</g>
			<g>
				<path class="st0" d="M3.3,19.6c-2.6,0.9-3.6,3-3.2,6.3c0.4,3.8,2.4,5.5,0.8,9.3c0,0,0.7-2.4,7.9,1.4c2.5,1.3,6.9,0.1,8.6-3.5"/>
				<path class="st0" d="M30.6,19.6c2.6,0.9,3.6,3,3.2,6.3c-0.5,3.8-2.4,5.5-0.8,9.3c0,0-0.7-2.4-7.9,1.4c-2.5,1.3-6.9,0.1-8.6-3.5"
					/>
			</g>
		</g>
	</g>
</g>
</svg>
