<svg version="1.2" xmlns="http://www.w3.org/2000/svg" viewBox="0 0 261 285" width="261" height="285">
	<title>3978615-ai</title>
	<style>
		tspan { white-space:pre } 
		.s0 { fill: #f54a53 } 
		.s1 { fill: #b3242b } 
		.t2 { font-size: 13px;fill: #3b1952;font-weight: 700;font-family: "Rubik-Bold", "Rubik" } 
		.t3 { font-size: 13px;fill: #3b1952;font-weight: 400;font-style: italic;font-family: "Rubik-Italic", "Rubik" } 
		.t4 { font-size: 25px;fill: #3b1952;font-weight: 500;font-family: "Mathlete-Bulky", "Mathlete" } 
		.s5 { fill: #f28e04 } 
		.s6 { fill: #db3d04 } 
		.s7 { fill: #feff4b } 
		.s8 { fill: #e39e36 } 
		.s9 { fill: #aeff7f } 
		.s10 { fill: #64b833 } 
		.s11 { fill: #40fcfd } 
		.s12 { fill: #209191 } 
		.s13 { fill: #6250ca } 
		.s14 { fill: #35278a } 
		.s15 { fill: #ad6dd9 } 
		.s16 { fill: #72319e } 
	</style>
	<g id="BACKGROUND">
	</g>
	<g id="OBJECTS">
		<g id="&lt;Group&gt;">
			<g id="&lt;Group&gt;">
				<g id="&lt;Group&gt;">
					<g id="&lt;Group&gt;">
						<path id="&lt;Path&gt;" class="s0" d="m-225.3 215c-53.2-0.1-96.1-43.2-96-96.3 0.1-53.2 43.2-96.1 96.4-96 53.1 0.1 96 43.2 95.9 96.3-0.1 53.2-43.2 96.1-96.3 96z"/>
						<path id="&lt;Compound Path&gt;" fill-rule="evenodd" class="s0" d="m-225.3 217c-54.3-0.1-98.1-44.1-98-98.3 0.2-54.3 44.1-98.1 98.4-98 54.2 0.1 98 44.1 97.9 98.4-0.1 54.2-44.1 98-98.3 97.9zm94.3-98c0.1-52-41.9-94.2-94-94.3-52-0.1-94.2 41.9-94.3 94-0.1 52 41.9 94.2 94 94.3 52 0.1 94.2-41.9 94.3-94z"/>
					</g>
					<g id="&lt;Group&gt;">
						<path id="&lt;Path&gt;" class="s0" d="m-292.2 51.5l134.4 0.3-0.3 134.4-134.4-0.3z"/>
						<path id="&lt;Compound Path&gt;" fill-rule="evenodd" class="s0" d="m-294.2 51.5c0-1.1 0.9-2 2-2l134.4 0.3c1.1 0 2 0.9 2 2l-0.3 134.4c0 1.1-0.9 2-2 2l-134.4-0.3c-1.1 0-2-0.9-2-2zm3.8 132.4l130.3 0.2 0.3-130.3-130.4-0.3z"/>
					</g>
					<g id="&lt;Group&gt;">
						<path id="&lt;Path&gt;" class="s0" d="m-261.8 91.4l73.4 0.1-36.8 62.5z"/>
						<path id="&lt;Compound Path&gt;" fill-rule="evenodd" class="s0" d="m-225.2 156c-0.7 0-1.4-0.4-1.7-1l-36.6-62.6c-0.4-0.6-0.4-1.4 0-2 0.3-0.6 1-1 1.7-1l73.4 0.1c0.7 0 1.4 0.4 1.7 1 0.4 0.7 0.4 1.4 0 2.1l-36.8 62.4c-0.3 0.6-1 1-1.7 1zm-33.1-62.6l33.1 56.6 33.3-56.5z"/>
					</g>
					<g id="&lt;Group&gt;">
						<path id="&lt;Path&gt;" class="s0" d="m-319.6 118c0 0-32.6-0.4-22.6-36.4 8.4-30 17.7-35.4 9-62l-1.3-2.3c26.9 7.8 38.1-8 67.7-17.4 35.7-11.3 43.4 21.3 43.4 21.3"/>
						<path id="&lt;Path&gt;" class="s0" d="m-319.6 120q0 0-0.1 0c-0.5 0-14.2-0.3-21.7-10.3-5.2-6.9-6.1-16.5-2.7-28.6 2.4-8.6 4.8-15 6.9-20.7 5.2-14 8.1-21.7 2.2-40l-1.2-2.1c-0.4-0.7-0.4-1.6 0.1-2.2 0.5-0.6 1.4-0.9 2.2-0.7 17.2 5 27.5 0 41.7-6.9 7-3.5 14.9-7.3 24.8-10.5 11.8-3.7 21.9-3.2 30.1 1.4 12.3 7 15.7 20.7 15.9 21.3 0.2 1.1-0.5 2.2-1.5 2.4-1.1 0.3-2.2-0.4-2.4-1.5-0.1-0.1-3.2-12.6-14-18.7-7.2-4.1-16.2-4.5-26.9-1.1-9.6 3.1-17.4 6.9-24.3 10.3-13.3 6.5-24.1 11.7-40.4 8.2 5.9 18.8 2.7 27.5-2.5 41.5-2.1 5.6-4.5 12-6.9 20.3-3 10.9-2.3 19.3 2.1 25.2 6.3 8.4 18.5 8.7 18.6 8.7 1.1 0 2 0.9 2 2-0.1 1.1-0.9 2-2 2z"/>
					</g>
					<g id="&lt;Group&gt;">
						<path id="&lt;Path&gt;" class="s0" d="m-127.2 118.4c0 0 32.6-0.2 22.7-36.3-8.2-30-20.7-35.5-11.8-62.1l1.3-2.2c-26.9 7.7-35-8.2-64.6-17.7-35.6-11.5-43.8 21.1-43.8 21.1"/>
						<path id="&lt;Path&gt;" class="s0" d="m-127.2 120.4c-1.1 0-2-0.9-2-2 0-1.1 0.9-2 2-2 0.1 0 12.3-0.2 18.6-8.7 4.4-5.8 5.2-14.2 2.2-25.1-2.7-9.7-5.8-16.8-8.5-23-5.4-12.3-9.3-21.2-3.8-38.8-15.7 3.3-25.3-1.7-37.1-8-6.7-3.6-14.3-7.6-24.4-10.8-10.6-3.4-19.7-3.1-27 0.9-10.9 6.1-14.2 18.6-14.3 18.8-0.2 1-1.3 1.7-2.4 1.4-1.1-0.2-1.7-1.3-1.4-2.4 0.1-0.6 3.7-14.3 16.1-21.3 8.3-4.6 18.5-5 30.2-1.2 10.5 3.3 18.2 7.4 25 11 12.6 6.7 21.6 11.5 38.4 6.7 0.8-0.3 1.7 0 2.2 0.7 0.5 0.6 0.5 1.5 0.1 2.2l-1.2 2.1c-5.6 16.9-2.3 24.5 3.3 37.1 2.7 6.4 5.9 13.5 8.6 23.5 3.4 12.2 2.4 21.8-2.8 28.7-7.5 10-21.2 10.2-21.8 10.2q0 0 0 0z"/>
					</g>
					<g id="&lt;Group&gt;">
						<path id="&lt;Path&gt;" class="s0" d="m-319.6 118.3c0 0-32.6 0.2-22.7 36.3 8.2 30 17.5 35.5 8.7 62.1l-1.3 2.2c26.9-7.7 38.1 8.2 67.7 17.7 35.6 11.5 43.4-21.1 43.4-21.1"/>
						<path id="&lt;Path&gt;" class="s0" d="m-253.1 241.1q-6.9 0-14.7-2.6c-10-3.2-17.9-7.1-24.9-10.5-14.2-7-24.4-12.1-41.6-7.2-0.8 0.3-1.7 0-2.2-0.6-0.5-0.7-0.5-1.6-0.1-2.3l1.2-2.1c6-18.2 3.2-26-2-40-2.1-5.7-4.5-12.1-6.9-20.6-3.3-12.2-2.3-21.8 2.9-28.7 7.5-10 21.2-10.2 21.8-10.2 1.1 0.1 2 0.9 2 2 0 1.1-0.9 2-2 2-0.1 0-12.3 0.2-18.7 8.7-4.4 5.8-5.1 14.2-2.1 25.1 2.3 8.4 4.7 14.7 6.7 20.4 5.2 14 8.4 22.7 2.4 41.5 16.4-3.5 27.1 1.8 40.4 8.4 6.8 3.4 14.6 7.2 24.3 10.3 10.6 3.4 19.7 3.1 26.9-0.9 10.8-6.1 13.9-18.6 14-18.7 0.2-1.1 1.3-1.8 2.4-1.5 1.1 0.2 1.7 1.3 1.5 2.4-0.2 0.6-3.6 14.3-15.9 21.2q-6.9 3.9-15.4 3.9z"/>
					</g>
					<g id="&lt;Group&gt;">
						<path id="&lt;Path&gt;" class="s0" d="m-127.2 118.7c0 0 32.6 0.4 22.6 36.4-8.4 30-20.9 35.4-12.1 62l1.3 2.3c-26.9-7.8-35 8-64.7 17.4-35.6 11.3-43.7-21.3-43.7-21.3"/>
						<path id="&lt;Path&gt;" class="s0" d="m-194.2 241.2q-8.6 0-15.4-3.9c-12.5-6.9-16-20.7-16.1-21.3-0.3-1.1 0.4-2.1 1.4-2.4 1.1-0.3 2.2 0.4 2.5 1.4 0 0.2 3.2 12.8 14.2 18.8 7.2 4.1 16.3 4.5 26.9 1.1 10.1-3.2 17.7-7.2 24.5-10.7 11.8-6.2 21.4-11.2 37.2-7.8-5.5-17.7-1.6-26.6 3.9-38.9 2.7-6.2 5.8-13.2 8.5-22.9 3.1-10.9 2.4-19.3-2-25.2-6.3-8.4-18.5-8.7-18.6-8.7-1.1 0-2-0.9-2-2 0-1.1 0.9-2.1 2-2 0.6 0 14.3 0.3 21.8 10.3 5.2 6.9 6.1 16.5 2.7 28.7-2.8 9.9-6 17.1-8.8 23.4-5.5 12.6-8.9 20.2-3.4 37.2l1.2 2.1c0.4 0.7 0.3 1.6-0.2 2.2-0.5 0.6-1.3 0.9-2.1 0.7-16.8-4.9-25.8-0.1-38.4 6.4-6.8 3.6-14.6 7.7-25.1 11q-7.8 2.5-14.7 2.5z"/>
					</g>
				</g>
				<g id="&lt;Group&gt;">
					<g id="&lt;Group&gt;">
						<path id="&lt;Compound Path&gt;" fill-rule="evenodd" class="s1" d="m-225.3 218c-54.9-0.1-99.1-44.5-99-99.3 0.2-54.9 44.5-99.1 99.4-99 54.8 0.1 99 44.5 98.9 99.4-0.1 54.8-44.5 99-99.3 98.9zm93.3-99c0.1-51.5-41.5-93.2-93-93.3-51.4-0.1-93.2 41.5-93.3 93-0.1 51.5 41.5 93.2 93 93.3 51.5 0.1 93.2-41.5 93.3-93z"/>
					</g>
					<g id="&lt;Group&gt;">
						<path id="&lt;Compound Path&gt;" fill-rule="evenodd" class="s1" d="m-295.2 51.5c0-1.6 1.4-3 3-3l134.4 0.3c1.6 0 3 1.4 3 3l-0.3 134.4c0 1.6-1.3 3-3 3l-134.4-0.3c-1.6 0-3-1.3-3-3zm5.8 131.4l128.3 0.2 0.3-128.3-128.4-0.3z"/>
					</g>
					<g id="&lt;Group&gt;">
						<path id="&lt;Compound Path&gt;" fill-rule="evenodd" class="s1" d="m-225.2 157c-1.1 0-2.1-0.6-2.6-1.5l-36.6-62.6c-0.5-0.9-0.5-2.1 0-3 0.6-0.9 1.6-1.5 2.6-1.5l73.4 0.1c1.1 0 2.1 0.6 2.6 1.6 0.5 0.9 0.5 2 0 3l-36.8 62.4c-0.6 0.9-1.6 1.5-2.6 1.5zm-31.3-62.6l31.3 53.7 31.6-53.6z"/>
					</g>
				</g>
			</g>
			<text id="Root chakra
 Muladhara 
" style="transform: matrix(2,.004,-0.004,2,-216.842,333.725)" >
				<tspan x="-38.1" y="0" class="t2">Root chakra
</tspan>
				<tspan x="-34.6" y="15.2" class="t3"> Muladhara 
</tspan>
			</text>
			<text id="I exist" style="transform: matrix(2,.004,-0.004,2,-217.741,420.313)" >
				<tspan x="-25.6" y="0" class="t4" dx="0 1 1 1 1 1 1 1" >I exist
</tspan>
			</text>
		</g>
		<g id="&lt;Group&gt;">
			<g id="&lt;Group&gt;">
				<g id="&lt;Group&gt;">
					<g id="&lt;Group&gt;">
						<path id="&lt;Path&gt;" class="s5" d="m131.6 236.8c-51-0.1-92.2-41.4-92-92.4 0.1-51 41.4-92.2 92.4-92.1 51 0.1 92.1 41.4 92 92.4-0.1 51-41.4 92.2-92.4 92.1z"/>
						<path id="&lt;Compound Path&gt;" fill-rule="evenodd" class="s5" d="m131.6 238.8c-52.1-0.1-94.2-42.3-94-94.4 0.1-52.2 42.3-94.2 94.4-94.1 52.1 0.1 94.1 42.3 94 94.4-0.1 52.2-42.3 94.2-94.4 94.1zm90.4-94.1c0.1-49.9-40.1-90.3-90-90.4-49.9-0.1-90.3 40.2-90.4 90.1-0.1 49.9 40.1 90.3 90 90.4 49.9 0.1 90.3-40.2 90.4-90.1z"/>
					</g>
					<g id="&lt;Group&gt;">
						<path id="&lt;Path&gt;" class="s5" d="m131.7 211c-40.5-0.1-73.1-32.9-73-73.3 0.1-40.5 32.8-73.1 73.3-73 40.4 0.1 73 32.8 72.9 73.3-0.1 40.4-32.8 73-73.2 73z"/>
						<path id="&lt;Compound Path&gt;" fill-rule="evenodd" class="s5" d="m131.7 213c-41.6-0.1-75.1-33.8-75-75.3 0.1-41.6 33.7-75.1 75.3-75 41.5 0.1 75 33.7 74.9 75.3-0.1 41.5-33.7 75-75.2 75zm71.2-75c0.1-39.4-31.6-71.2-71-71.3-39.3-0.1-71.1 31.7-71.2 71-0.1 39.3 31.6 71.2 71 71.3 39.3 0 71.1-31.7 71.2-71z"/>
					</g>
					<g id="&lt;Group&gt;">
						<path id="&lt;Path&gt;" class="s5" d="m131.7 171.2c-28.5-0.1-51.6-23.2-51.5-51.8 0-28.6 23.2-51.7 51.7-51.6 28.6 0.1 51.7 23.2 51.6 51.8 0 28.6-23.2 51.6-51.8 51.6z"/>
						<path id="&lt;Compound Path&gt;" fill-rule="evenodd" class="s5" d="m131.7 173.2c-29.6-0.1-53.6-24.1-53.5-53.8 0-29.7 24.1-53.7 53.8-53.6 29.6 0.1 53.6 24.1 53.5 53.8 0 29.7-24.1 53.6-53.8 53.6zm49.8-53.6c0.1-27.5-22.1-49.7-49.6-49.8-27.4-0.1-49.7 22.1-49.7 49.6-0.1 27.5 22.1 49.7 49.5 49.8 27.5 0 49.8-22.1 49.8-49.6z"/>
					</g>
					<g id="&lt;Group&gt;">
						<path id="&lt;Path&gt;" class="s5" d="m178.3 62.7c0 0 15.6-10.8 1.6-28.4-10.2-12.9-41.3-19.2-47.4-33.2h0.6c-6.2 14-37.3 20.2-47.6 33-14 17.6 1.5 28.4 1.5 28.4"/>
						<path id="&lt;Path&gt;" class="s5" d="m178.3 64.7c-0.6 0-1.2-0.3-1.6-0.8-0.6-0.9-0.4-2.2 0.5-2.8 0-0.1 5.4-3.9 6.4-10.5 0.7-4.7-1.1-9.8-5.2-15-4.4-5.6-13.4-10.1-22.2-14.5-9.1-4.5-18.6-9.2-23.4-15.6-4.9 6.3-14.4 11-23.5 15.5-8.8 4.4-17.8 8.8-22.2 14.4-4.2 5.2-6 10.3-5.3 15 0.9 6.6 6.3 10.5 6.4 10.5 0.9 0.7 1.1 1.9 0.4 2.8-0.6 0.9-1.9 1.1-2.8 0.5-0.2-0.2-6.8-4.9-8-13.2-0.8-5.9 1.2-12 6.1-18.1 5-6.3 14.5-10.9 23.6-15.4 9.5-4.7 19.3-9.6 23-15.8-0.1-0.5 0-1.2 0.3-1.7 0.4-0.5 1-0.9 1.7-0.9h0.6c0.7 0 1.3 0.4 1.7 1 0.3 0.5 0.4 1.1 0.2 1.6 3.8 6.3 13.6 11.1 23 15.9 9.1 4.5 18.5 9.2 23.5 15.5 4.9 6.1 6.9 12.2 6 18.1-1.2 8.3-7.8 13-8 13.2q-0.6 0.3-1.2 0.3z"/>
					</g>
					<g id="&lt;Group&gt;">
						<path id="&lt;Path&gt;" class="s5" d="m178 227.6c0 0 15.5 10.9 1.5 28.4-10.3 12.9-41.4 19.1-47.6 33h0.6c-6.1-14-37.2-20.3-47.4-33.2-14-17.6 1.6-28.4 1.6-28.4"/>
						<path id="&lt;Path&gt;" class="s5" d="m132.5 291h-0.6c-0.7 0-1.3-0.3-1.7-0.9-0.3-0.5-0.4-1.1-0.2-1.7-3.8-6.2-13.6-11.1-23-15.8-9.1-4.6-18.6-9.3-23.5-15.5-4.9-6.2-6.9-12.3-6-18.2 1.2-8.3 7.7-12.9 8-13.1 0.9-0.7 2.2-0.4 2.8 0.5 0.6 0.9 0.4 2.1-0.5 2.7 0 0.1-5.4 4-6.4 10.5-0.7 4.8 1.1 9.8 5.2 15.1 4.4 5.6 13.4 10.1 22.2 14.4 9.1 4.6 18.5 9.3 23.4 15.6 4.9-6.3 14.4-11 23.5-15.5 8.8-4.3 17.8-8.8 22.2-14.3 4.2-5.3 6-10.3 5.3-15.1-0.9-6.5-6.3-10.4-6.4-10.5-0.9-0.6-1.1-1.9-0.4-2.8 0.6-0.9 1.8-1.1 2.7-0.4 0.3 0.1 6.9 4.8 8.1 13.1 0.8 5.9-1.3 12-6.1 18.2-5 6.2-14.5 10.9-23.6 15.4-9.5 4.7-19.3 9.5-23.1 15.7 0.2 0.6 0.1 1.2-0.2 1.7-0.4 0.6-1 0.9-1.7 0.9z"/>
					</g>
					<g id="&lt;Group&gt;">
						<path id="&lt;Path&gt;" class="s5" d="m81.8 60.5c0 0-2.3-18.8-24.3-14.7-16.2 3-36.3 27.5-51.5 26.5l0.3-0.6c9.4 12 0.3 42.4 6.8 57.5 9 20.6 25.9 12 25.9 12"/>
						<path id="&lt;Path&gt;" class="s5" d="m30.8 145c-2-0.1-4.1-0.3-6.3-1.1-5.6-2-10.1-6.7-13.2-13.9-3.2-7.3-2.9-17.9-2.6-28 0.3-10.6 0.6-21.5-3.1-27.8-0.6-0.1-1.1-0.4-1.4-1-0.3-0.6-0.3-1.3 0-1.9l0.3-0.6c0.3-0.6 0.9-1 1.6-1 0.6-0.1 1.2 0.2 1.6 0.6 7.2-0.4 16.1-6.8 24.7-13 8.3-5.9 16.9-12 24.7-13.5 7.7-1.4 14.1-0.3 18.9 3.2 6.7 5 7.8 13 7.8 13.3 0.2 1.1-0.6 2.1-1.7 2.2-1.1 0.2-2.1-0.6-2.2-1.7-0.1-0.1-1-6.7-6.3-10.6-3.9-2.8-9.2-3.6-15.8-2.4-6.9 1.3-15.1 7.1-23 12.8-8.4 6-16.9 12.1-24.8 13.4 3.3 7.3 3 17.8 2.7 28.1-0.3 9.7-0.6 19.8 2.3 26.3 2.6 6.1 6.3 10.1 10.8 11.7 6.2 2.2 12.2-0.7 12.3-0.7 0.9-0.5 2.1-0.1 2.6 0.9 0.5 1 0.1 2.2-0.8 2.7-0.3 0.1-4.1 2-9.1 2z"/>
					</g>
					<g id="&lt;Group&gt;">
						<path id="&lt;Path&gt;" class="s5" d="m37.9 147.1c0 0-17.6-7-24.7 14.3-5.1 15.6 6.7 45.1-1.6 57.9l-0.3-0.5c15-2.5 37.3 20.1 53.7 21.6 22.3 2.1 22.9-16.9 22.9-16.9"/>
						<path id="&lt;Path&gt;" class="s5" d="m68.2 242.6q-1.7 0-3.4-0.2c-8-0.7-17-6-25.8-11.2-9.2-5.3-18.6-10.9-25.8-10.6-0.4 0.4-1 0.7-1.6 0.7-0.7 0-1.3-0.3-1.7-0.9l-0.3-0.6c-0.4-0.5-0.4-1.2-0.2-1.9 0.3-0.5 0.7-0.9 1.3-1.1 3.1-6.5 1.8-17.4 0.6-27.9-1.2-10.1-2.5-20.5 0-28.1 2.5-7.5 6.5-12.5 11.9-15 7.6-3.6 15.1-0.7 15.4-0.5 1 0.4 1.5 1.5 1.1 2.6-0.4 1-1.5 1.5-2.6 1.1 0 0-6.2-2.4-12.3 0.4-4.3 2-7.6 6.3-9.7 12.6-2.2 6.8-1 16.8 0.2 26.4 1.2 10.2 2.4 20.7-0.2 28.2 8 0.6 17.1 6 25.9 11.2 8.4 4.9 17.1 10 24.1 10.6 6.7 0.6 11.9-0.7 15.5-3.8 5-4.4 5.3-11.1 5.3-11.1 0-1.1 1-1.9 2.1-1.9 1.1 0 1.9 0.9 1.9 2 0 0.3-0.3 8.4-6.6 13.9-3.8 3.4-8.9 5.1-15.1 5.1z"/>
					</g>
					<g id="&lt;Group&gt;">
						<path id="&lt;Path&gt;" class="s5" d="m182.9 60.7c0 0 2.4-18.7 24.4-14.6 16.2 3.1 36.2 27.7 51.4 26.7l-0.3-0.6c-9.4 12-0.5 42.4-7.1 57.5-9 20.5-25.8 11.8-25.8 11.8"/>
						<path id="&lt;Path&gt;" class="s5" d="m233.6 145.4c-5-0.1-8.8-2-9.1-2.1-0.9-0.5-1.3-1.7-0.8-2.7 0.5-1 1.7-1.3 2.7-0.8 0 0 6 2.9 12.2 0.7 4.5-1.6 8.2-5.5 10.9-11.6 2.8-6.5 2.6-16.6 2.4-26.3-0.3-10.3-0.5-20.8 2.8-28.1-7.9-1.4-16.4-7.5-24.7-13.5-7.9-5.7-16.1-11.6-23.1-12.9-6.5-1.3-11.8-0.5-15.7 2.3-5.4 3.9-6.3 10.5-6.3 10.6-0.2 1.1-1.2 1.9-2.3 1.7-1.1-0.1-1.8-1.1-1.7-2.2 0-0.4 1.1-8.3 7.9-13.3 4.8-3.5 11.2-4.5 18.9-3.1 7.8 1.5 16.4 7.7 24.6 13.6 8.6 6.2 17.5 12.6 24.7 13.1 0.4-0.4 1-0.7 1.6-0.6 0.7 0.1 1.3 0.5 1.6 1.1l0.3 0.5c0.3 0.6 0.3 1.4 0 1.9-0.3 0.6-0.8 0.9-1.4 1-3.7 6.3-3.5 17.2-3.2 27.8 0.2 10.1 0.5 20.7-2.8 28-3.1 7.2-7.6 11.8-13.2 13.8-2.2 0.8-4.3 1.1-6.3 1.1z"/>
					</g>
					<g id="&lt;Group&gt;">
						<path id="&lt;Path&gt;" class="s5" d="m226.5 147.5c0 0 17.6-6.9 24.6 14.4 5.1 15.6-6.8 45 1.4 57.9l0.3-0.6c-15-2.5-37.4 20-53.8 21.5-22.3 1.9-22.8-17-22.8-17"/>
						<path id="&lt;Path&gt;" class="s5" d="m195.8 242.8c-6.2 0-11.3-1.7-15.1-5.1-6.2-5.5-6.5-13.6-6.5-13.9 0-1.1 0.8-2 1.9-2.1 1.2 0 2.1 0.9 2.1 2 0 0 0.3 6.7 5.2 11.1 3.6 3.2 8.8 4.5 15.5 3.9 7-0.6 15.7-5.7 24.2-10.6 8.8-5.1 17.9-10.4 25.9-11-2.6-7.6-1.3-18 0-28.2 1.2-9.7 2.4-19.7 0.2-26.4-2.1-6.4-5.4-10.6-9.7-12.7-6-2.8-12.2-0.5-12.3-0.4-1 0.4-2.1-0.1-2.5-1.2-0.5-1 0.1-2.1 1.1-2.5 0.3-0.2 7.8-3.1 15.4 0.5 5.4 2.5 9.3 7.6 11.8 15.1 2.5 7.6 1.2 18-0.1 28.1-1.3 10.5-2.6 21.3 0.5 27.9 0.6 0.2 1 0.6 1.3 1.1 0.2 0.7 0.2 1.4-0.2 1.9l-0.3 0.6c-0.4 0.5-1 0.9-1.7 0.9-0.6 0-1.2-0.3-1.6-0.7-7.2-0.3-16.7 5.2-25.8 10.5-8.8 5.1-17.9 10.4-25.9 11.1q-1.7 0.1-3.4 0.1z"/>
					</g>
				</g>
				<g id="&lt;Group&gt;">
					<g id="&lt;Group&gt;">
						<path id="&lt;Compound Path&gt;" fill-rule="evenodd" class="s6" d="m131.6 239.8c-52.7-0.1-95.2-42.8-95-95.4 0.1-52.7 42.7-95.2 95.4-95.1 52.7 0.1 95.1 42.8 95 95.4-0.1 52.7-42.7 95.2-95.4 95.1zm89.4-95.1c0.1-49.3-39.7-89.3-89-89.4-49.4-0.1-89.3 39.7-89.4 89.1-0.1 49.3 39.7 89.3 89 89.4 49.4 0.1 89.3-39.7 89.4-89.1z"/>
					</g>
					<g id="&lt;Group&gt;">
						<path id="&lt;Compound Path&gt;" fill-rule="evenodd" class="s6" d="m131.7 214c-42.1-0.1-76.1-34.2-76-76.3 0.1-42.1 34.2-76.1 76.3-76 42.1 0.1 76 34.2 75.9 76.3-0.1 42.1-34.2 76-76.2 76zm70.2-76c0.1-38.8-31.2-70.2-70-70.3-38.7-0.1-70.1 31.2-70.2 70-0.1 38.8 31.2 70.2 70 70.3 38.7 0 70.2-31.2 70.2-70z"/>
					</g>
					<g id="&lt;Group&gt;">
						<path id="&lt;Compound Path&gt;" fill-rule="evenodd" class="s6" d="m131.7 174.2c-30.2-0.1-54.6-24.6-54.5-54.8 0-30.3 24.5-54.7 54.8-54.6 30.2 0.1 54.6 24.6 54.5 54.8 0 30.2-24.5 54.6-54.8 54.6zm48.8-54.6c0.1-26.9-21.6-48.7-48.6-48.8-26.9 0-48.7 21.7-48.7 48.6-0.1 26.9 21.6 48.7 48.5 48.8 27 0 48.8-21.7 48.8-48.6z"/>
					</g>
				</g>
			</g>
			<text id="Sacral chakra
Svadhistana 
" style="transform: matrix(2,.004,-0.004,2,131.818,334.424)" >
				<tspan x="-43.1" y="0" class="t2">Sacral chakra
</tspan>
				<tspan x="-38.7" y="15.2" class="t3">Svadhistana 
</tspan>
			</text>
			<text id="I desire
" style="transform: matrix(2,.004,-0.004,2,130.917,421.011)" >
				<tspan x="-28.6" y="0" class="t4" dx="0 1 1 1 1 1 1 1 1" >I desire
</tspan>
			</text>
		</g>
		<g id="&lt;Group&gt;">
			<g id="&lt;Group&gt;">
				<g id="&lt;Group&gt;">
					<g id="&lt;Group&gt;">
						<path id="&lt;Path&gt;" class="s7" d="m505.2 240.4c-51.7-0.1-93.4-42-93.3-93.7 0.1-51.7 42-93.5 93.7-93.3 51.7 0.1 93.4 42 93.3 93.7-0.1 51.7-42 93.4-93.7 93.3z"/>
						<path id="&lt;Compound Path&gt;" fill-rule="evenodd" class="s7" d="m505.2 242.4c-52.8-0.1-95.4-42.9-95.3-95.7 0.1-52.8 42.9-95.5 95.7-95.3 52.8 0.1 95.4 42.8 95.3 95.7-0.1 52.8-42.9 95.4-95.7 95.3zm91.7-95.3c0.1-50.6-40.7-91.6-91.3-91.7-50.6-0.2-91.6 40.7-91.7 91.3-0.1 50.6 40.7 91.6 91.3 91.7 50.6 0.1 91.6-40.7 91.7-91.3z"/>
					</g>
					<g id="&lt;Group&gt;">
						<path id="&lt;Path&gt;" class="s7" d="m426.9 97.6l158.2-0.2-79.9 143z"/>
						<path id="&lt;Compound Path&gt;" fill-rule="evenodd" class="s7" d="m505.2 242.4q0 0 0 0c-0.7 0-1.4-0.4-1.7-1l-78.3-142.8c-0.3-0.6-0.3-1.4 0-2 0.4-0.6 1-1 1.7-1l158.2-0.2q0 0 0 0c0.7 0 1.3 0.4 1.7 1 0.4 0.6 0.4 1.4 0 2l-79.8 143c-0.4 0.6-1.1 1-1.8 1zm-74.9-142.8l74.9 136.7 76.5-136.9z"/>
					</g>
					<g id="&lt;Group&gt;">
						<path id="&lt;Path&gt;" class="s7" d="m509.9 50.8c0 0-6.8-11.6 7.4-18.8 10.5-5.3 32.4-0.2 40.6-7.4l-0.4-0.2c-0.2 10.9 18.1 24.1 20.9 35.5 3.9 15.5-9.4 17.9-9.4 17.9"/>
						<path id="&lt;Path&gt;" class="s7" d="m569 79.8c-0.9 0-1.8-0.6-1.9-1.6-0.2-1.1 0.5-2.1 1.6-2.3 0 0 4.4-0.9 6.8-4.7 1.8-2.7 2.1-6.4 1-10.8-1.2-4.8-5.7-10.3-10-15.6-4.4-5.5-9-11.1-10.5-16.6-5.1 2.4-12.4 2.6-19.4 2.9-6.9 0.2-14 0.4-18.4 2.6-4.1 2.1-6.6 4.8-7.5 7.9-1.3 4.3 0.9 8.2 0.9 8.2 0.6 1 0.3 2.2-0.7 2.7-0.9 0.6-2.1 0.3-2.7-0.7-0.1-0.2-3.1-5.4-1.4-11.3 1.3-4.2 4.5-7.7 9.6-10.3 5.2-2.7 12.8-2.9 20.1-3.1 7.3-0.3 14.8-0.5 19-3.2 0.2-0.5 0.5-0.9 0.9-1.2 0.6-0.3 1.3-0.4 1.9-0.1l0.4 0.2c0.6 0.3 1.1 0.9 1.2 1.5 0 0.5-0.1 1-0.4 1.4 0.7 5 5.5 10.8 10.1 16.5 4.6 5.7 9.4 11.6 10.8 17.2 1.4 5.6 0.8 10.3-1.5 14-3.4 5.2-9.3 6.4-9.5 6.4q-0.2 0-0.4 0z"/>
					</g>
					<g id="&lt;Group&gt;">
						<path id="&lt;Path&gt;" class="s7" d="m572.6 82.7c0 0 2.5-13.2 18-9.4 11.3 2.8 24.6 21.1 35.4 21l-0.2-0.4c-7.1 8.1-2 30.1-7.3 40.5-7.2 14.3-18.9 7.4-18.9 7.4"/>
						<path id="&lt;Path&gt;" class="s7" d="m606.1 145.5c-4.2 0-7.3-1.8-7.5-1.9-0.9-0.6-1.2-1.8-0.7-2.8 0.6-0.9 1.8-1.3 2.8-0.7 0 0 3.9 2.2 8.2 1 3.1-0.9 5.7-3.5 7.8-7.6 2.3-4.4 2.5-11.5 2.7-18.3 0.2-7.1 0.5-14.3 2.9-19.4-5.5-1.6-11.1-6.1-16.6-10.6-5.3-4.3-10.8-8.8-15.6-10-4.5-1.1-8.1-0.7-10.9 1-3.7 2.4-4.6 6.8-4.6 6.9-0.2 1.1-1.2 1.8-2.3 1.6-1.1-0.2-1.8-1.3-1.6-2.3 0-0.3 1.2-6.2 6.4-9.5 3.7-2.4 8.4-2.9 14-1.5 5.6 1.4 11.5 6.1 17.1 10.7 5.7 4.6 11.6 9.4 16.5 10.1 0.4-0.3 0.9-0.4 1.4-0.3 0.7 0.1 1.3 0.5 1.6 1.1l0.2 0.5c0.2 0.6 0.2 1.3-0.2 1.9-0.2 0.4-0.7 0.7-1.1 0.8-2.7 4.2-3 11.8-3.2 19.1-0.2 7.3-0.5 14.9-3.1 20-2.6 5.2-6.1 8.4-10.3 9.6-1.4 0.4-2.7 0.6-3.9 0.6z"/>
					</g>
					<g id="&lt;Group&gt;">
						<path id="&lt;Path&gt;" class="s7" d="m503.6 50.8c0 0 6.8-11.6-7.4-18.9-10.4-5.3-32.4-0.2-40.5-7.5l0.4-0.2c0.1 10.9-18.2 24.1-21.1 35.4-3.9 15.5 9.4 18 9.4 18"/>
						<path id="&lt;Path&gt;" class="s7" d="m444.4 79.6q-0.2 0-0.4 0c-0.3-0.1-6.1-1.2-9.5-6.5-2.3-3.7-2.8-8.4-1.4-14 1.4-5.6 6.2-11.5 10.8-17.1 4.6-5.7 9.4-11.6 10.1-16.5-0.2-0.4-0.3-0.9-0.3-1.4 0.1-0.6 0.6-1.2 1.2-1.5l0.4-0.2c0.6-0.3 1.3-0.2 1.9 0.1 0.4 0.3 0.7 0.7 0.9 1.2 4.1 2.7 11.7 3 19 3.2 7.3 0.3 14.9 0.6 20 3.2 5.2 2.7 8.4 6.1 9.6 10.4 1.7 5.9-1.3 11.1-1.4 11.3-0.6 1-1.8 1.3-2.8 0.7-0.9-0.5-1.2-1.8-0.7-2.7 0.1-0.1 2.3-4 1-8.3-0.9-3.1-3.4-5.7-7.5-7.8-4.4-2.3-11.5-2.5-18.3-2.8-7.1-0.2-14.3-0.5-19.4-2.9-1.6 5.4-6.2 11.1-10.6 16.5-4.4 5.3-8.8 10.8-10 15.6-1.2 4.5-0.9 8.1 0.9 10.8 2.4 3.8 6.8 4.7 6.8 4.7 1.1 0.2 1.8 1.3 1.6 2.4-0.2 0.9-1 1.6-1.9 1.6z"/>
					</g>
					<g id="&lt;Group&gt;">
						<path id="&lt;Path&gt;" class="s7" d="m437.6 82.4c0 0-2.4-13.2-17.9-9.4-11.4 2.7-24.7 21-35.5 20.8l0.2-0.4c7.1 8.2 1.9 30.1 7.1 40.6 7.2 14.2 18.9 7.5 18.9 7.5"/>
						<path id="&lt;Path&gt;" class="s7" d="m403.9 145.1c-1.2 0-2.5-0.2-3.9-0.6-4.2-1.2-7.6-4.5-10.2-9.6-2.7-5.2-2.9-12.8-3.1-20.1-0.2-7.3-0.4-14.9-3.1-19.1-0.4-0.1-0.9-0.4-1.1-0.8-0.4-0.6-0.4-1.3-0.2-1.9l0.2-0.4c0.3-0.7 0.9-1.1 1.6-1.2 0.5-0.1 1 0.1 1.4 0.3 4.9-0.7 10.8-5.4 16.5-10 5.7-4.6 11.6-9.3 17.2-10.7 5.6-1.3 10.3-0.8 14 1.6 5.2 3.4 6.3 9.2 6.4 9.5 0.2 1.1-0.5 2.1-1.6 2.3-1.1 0.2-2.2-0.5-2.4-1.6 0 0-0.8-4.5-4.6-6.9-2.7-1.7-6.4-2.1-10.8-1-4.8 1.2-10.3 5.6-15.7 9.9-5.5 4.4-11.1 9-16.6 10.5 2.4 5.1 2.6 12.4 2.8 19.4 0.2 6.9 0.4 14 2.6 18.4 2.1 4.1 4.7 6.6 7.9 7.6 4.2 1.2 8.1-1 8.2-1 0.9-0.5 2.1-0.2 2.7 0.7 0.6 1 0.2 2.2-0.7 2.8-0.2 0.1-3.3 1.9-7.5 1.9z"/>
					</g>
					<g id="&lt;Group&gt;">
						<path id="&lt;Path&gt;" class="s7" d="m509.5 240.8c0 0-6.8 11.6 7.4 18.9 10.4 5.4 32.4 0.3 40.5 7.5l-0.4 0.2c-0.1-10.9 18.2-24 21.1-35.4 3.9-15.5-9.4-18-9.4-18"/>
						<path id="&lt;Path&gt;" class="s7" d="m557 269.4q-0.6 0-1.1-0.3c-0.4-0.3-0.7-0.7-0.9-1.2-4.1-2.7-11.7-2.9-19-3.2-7.3-0.3-14.9-0.5-20-3.2-5.2-2.6-8.4-6.1-9.6-10.3-1.7-6 1.3-11.2 1.4-11.4 0.6-0.9 1.8-1.3 2.8-0.7 0.9 0.6 1.2 1.8 0.7 2.7-0.1 0.1-2.3 4-1 8.3 0.9 3.1 3.4 5.7 7.5 7.8 4.4 2.3 11.5 2.5 18.3 2.8 7.1 0.2 14.3 0.5 19.4 2.9 1.6-5.4 6.2-11 10.6-16.5 4.4-5.3 8.8-10.8 10-15.6 1.2-4.4 0.9-8.1-0.9-10.8-2.4-3.8-6.8-4.7-6.8-4.7-1.1-0.2-1.8-1.3-1.6-2.3 0.2-1.1 1.2-1.8 2.3-1.6 0.3 0 6.1 1.2 9.5 6.4 2.3 3.7 2.8 8.4 1.4 14-1.4 5.6-6.2 11.5-10.8 17.1-4.6 5.7-9.4 11.6-10.1 16.5 0.2 0.4 0.3 0.9 0.3 1.4-0.1 0.7-0.6 1.3-1.2 1.5l-0.4 0.2q-0.4 0.2-0.8 0.2z"/>
					</g>
					<g id="&lt;Group&gt;">
						<path id="&lt;Path&gt;" class="s7" d="m575.5 209.2c0 0 2.4 13.2 17.9 9.5 11.4-2.8 24.7-21 35.5-20.9l-0.2 0.4c-7.1-8.1-1.9-30.1-7.1-40.5-7.2-14.3-18.9-7.5-18.9-7.5"/>
						<path id="&lt;Path&gt;" class="s7" d="m588.1 221.3q-4.7 0-8.2-2.3c-5.2-3.3-6.3-9.2-6.4-9.5-0.2-1 0.5-2.1 1.6-2.3 1.1-0.2 2.2 0.5 2.4 1.6 0 0.1 0.8 4.5 4.6 6.9 2.7 1.8 6.4 2.1 10.8 1 4.8-1.1 10.3-5.6 15.7-9.9 5.5-4.4 11.1-8.9 16.6-10.5-2.4-5.1-2.6-12.3-2.8-19.4-0.2-6.8-0.4-13.9-2.6-18.3-2.1-4.2-4.7-6.7-7.9-7.6-4.2-1.3-8.1 0.9-8.2 0.9-0.9 0.6-2.1 0.2-2.7-0.7-0.6-1-0.2-2.2 0.7-2.7 0.2-0.2 5.4-3.1 11.4-1.4 4.2 1.3 7.6 4.5 10.2 9.7 2.7 5.1 2.9 12.7 3.1 20 0.2 7.3 0.4 14.9 3.1 19.1 0.4 0.1 0.9 0.4 1.1 0.9 0.4 0.5 0.4 1.2 0.2 1.9l-0.2 0.4c-0.3 0.6-0.9 1-1.6 1.1-0.5 0.1-1 0-1.4-0.3-4.9 0.7-10.8 5.4-16.5 10-5.7 4.6-11.6 9.3-17.2 10.7q-3.1 0.8-5.8 0.7z"/>
					</g>
					<g id="&lt;Group&gt;">
						<path id="&lt;Path&gt;" class="s7" d="m500.1 240.8c0 0 6.8 11.6-7.4 18.9-10.5 5.3-32.4 0.1-40.6 7.3l0.4 0.2c0.2-10.9-18.1-24.1-20.9-35.5-3.9-15.5 9.4-17.9 9.4-17.9"/>
						<path id="&lt;Path&gt;" class="s7" d="m452.5 269.2q-0.4 0-0.8-0.2l-0.4-0.2c-0.6-0.3-1.1-0.8-1.2-1.5 0-0.5 0.1-1 0.4-1.4-0.7-4.9-5.5-10.8-10.1-16.5-4.6-5.7-9.4-11.6-10.8-17.2-1.4-5.6-0.8-10.3 1.5-14 3.4-5.2 9.3-6.3 9.5-6.4 1.1-0.2 2.1 0.5 2.3 1.6 0.2 1.1-0.5 2.2-1.6 2.4 0 0-4.4 0.9-6.8 4.6-1.8 2.7-2.1 6.4-1 10.8 1.2 4.8 5.7 10.3 10 15.7 4.4 5.4 9 11.1 10.5 16.5 5.1-2.4 12.4-2.6 19.4-2.8 6.9-0.3 14-0.5 18.4-2.7 4.1-2.1 6.6-4.7 7.5-7.8 1.3-4.3-0.9-8.2-0.9-8.3-0.6-0.9-0.3-2.2 0.7-2.7 0.9-0.6 2.1-0.2 2.7 0.7 0.1 0.2 3.1 5.4 1.4 11.4-1.3 4.2-4.5 7.6-9.6 10.2-5.2 2.7-12.8 2.9-20.1 3.2-7.3 0.2-14.8 0.4-19 3.1-0.2 0.5-0.5 0.9-0.9 1.2q-0.5 0.3-1.1 0.3z"/>
					</g>
					<g id="&lt;Group&gt;">
						<path id="&lt;Path&gt;" class="s7" d="m437.4 208.9c0 0-2.5 13.3-18 9.4-11.3-2.8-24.6-21.1-35.4-21l0.2 0.5c7.1-8.2 2-30.2 7.3-40.6 7.2-14.2 18.9-7.4 18.9-7.4"/>
						<path id="&lt;Path&gt;" class="s7" d="m424.7 221q-2.7 0-5.8-0.7c-5.6-1.4-11.5-6.2-17.1-10.8-5.7-4.6-11.6-9.4-16.5-10.1-0.4 0.3-0.9 0.4-1.4 0.3-0.7-0.1-1.3-0.5-1.6-1.1l-0.2-0.4c-0.2-0.7-0.2-1.4 0.2-1.9 0.2-0.5 0.7-0.8 1.1-0.9 2.7-4.2 3-11.7 3.2-19.1 0.2-7.3 0.5-14.8 3.1-20 2.6-5.1 6.1-8.4 10.3-9.6 6-1.7 11.1 1.2 11.4 1.4 0.9 0.5 1.2 1.8 0.7 2.7-0.6 1-1.8 1.3-2.8 0.7 0 0-3.9-2.2-8.2-0.9-3.1 0.9-5.7 3.4-7.8 7.5-2.3 4.4-2.5 11.5-2.7 18.4-0.2 7-0.5 14.2-2.9 19.4 5.5 1.5 11.1 6.1 16.6 10.5 5.3 4.3 10.8 8.8 15.6 10 4.5 1.1 8.1 0.8 10.8-1 3.8-2.4 4.7-6.8 4.7-6.9 0.2-1 1.2-1.8 2.3-1.5 1.1 0.2 1.8 1.2 1.6 2.3 0 0.2-1.2 6.1-6.4 9.5q-3.5 2.2-8.2 2.2z"/>
					</g>
				</g>
				<g id="&lt;Group&gt;">
					<g id="&lt;Group&gt;">
						<path id="&lt;Compound Path&gt;" fill-rule="evenodd" class="s8" d="m505.2 243.4c-53.4-0.1-96.4-43.3-96.3-96.7 0.1-53.4 43.3-96.5 96.7-96.3 53.4 0.1 96.4 43.3 96.3 96.7-0.1 53.4-43.3 96.4-96.7 96.3zm90.7-96.3c0.1-50.1-40.3-90.6-90.3-90.7-50.1-0.1-90.6 40.2-90.7 90.3-0.1 50.1 40.2 90.6 90.3 90.7 50.1 0.1 90.6-40.3 90.7-90.3z"/>
					</g>
					<g id="&lt;Group&gt;">
						<path id="&lt;Compound Path&gt;" fill-rule="evenodd" class="s8" d="m505.2 243.4q0 0 0 0c-1.1 0-2.1-0.6-2.6-1.5l-78.3-142.8c-0.5-0.9-0.5-2.1 0.1-3 0.5-0.9 1.5-1.5 2.5-1.5l158.2-0.2q0 0 0 0c1 0 2 0.6 2.6 1.5 0.5 0.9 0.5 2.1 0 3l-79.9 143c-0.5 0.9-1.5 1.5-2.6 1.5zm-73.2-142.8l73.2 133.6 74.8-133.8z"/>
					</g>
				</g>
			</g>
			<text id="Solar Plexus chakra
Manipura 
" style="transform: matrix(2,.004,-0.004,2,506.171,335.174)" >
				<tspan x="-61.8" y="0" class="t2">Solar Plexus chakra
</tspan>
				<tspan x="-29.3" y="15.2" class="t3">Manipura 
</tspan>
			</text>
			<text id="tI control
" style="transform: matrix(2,.004,-0.004,2,505.221,421.762)" >
				<tspan x="-38.2" y="0" class="t4" dx="0 1 1 1 1 1 1 1 1 1 1" >tI control
</tspan>
			</text>
		</g>
		<g id="&lt;Group&gt;">
			<g id="&lt;Group&gt;">
				<g id="&lt;Group&gt;">
					<g id="&lt;Group&gt;">
						<path id="&lt;Path&gt;" class="s9" d="m850.6 238.2c-50.8-0.1-91.9-41.3-91.8-92.1 0.1-50.9 41.3-92 92.2-91.9 50.9 0.1 91.9 41.3 91.8 92.2-0.1 50.9-41.3 91.9-92.2 91.8z"/>
						<path id="&lt;Compound Path&gt;" fill-rule="evenodd" class="s9" d="m850.6 240.2c-51.9-0.1-93.9-42.2-93.8-94.2 0.1-51.9 42.2-93.9 94.2-93.8 52 0.1 93.9 42.2 93.8 94.2-0.1 52-42.2 93.9-94.2 93.8zm90.2-93.8c0.1-49.7-40-90.1-89.8-90.2-49.8-0.1-90.1 40.1-90.2 89.9-0.1 49.7 40.1 90 89.8 90.1 49.8 0.1 90.1-40 90.2-89.8z"/>
					</g>
					<g id="&lt;Group&gt;">
						<path id="&lt;Path&gt;" class="s9" d="m769.1 190.5l84.5-135.7 77.7 136z"/>
						<path id="&lt;Compound Path&gt;" fill-rule="evenodd" class="s9" d="m934.8 192.8l-169.3-0.3 88.2-141.6zm-162.2-4.4l155.3 0.4-74.4-130.2z"/>
					</g>
					<g id="&lt;Group&gt;">
						<path id="&lt;Path&gt;" class="s9" d="m769.3 101.1l83.9 136.1 78.3-135.8z"/>
						<path id="&lt;Compound Path&gt;" fill-rule="evenodd" class="s9" d="m853.3 241.1l-87.6-142 169.3 0.3zm-80.4-137.9l80.3 130.1 74.9-129.8z"/>
					</g>
					<g id="&lt;Group&gt;">
						<g id="&lt;Group&gt;">
							<path id="&lt;Path&gt;" class="s9" d="m816 14.5c8.1 7.7 7.8 4.4 22.3 9.6 20.1 7.2 10.6 27.6 10.6 27.6l-40.3 13.3c0 0-19.1-11.9-6.1-28.9 9.3-12.3 10.8-9.3 13.4-20.2"/>
							<path id="&lt;Compound Path&gt;" fill-rule="evenodd" class="s9" d="m808.4 67.2l-0.8-0.5c-0.4-0.2-9.6-6-11.3-15.6-1-5.5 0.5-10.9 4.6-16.3 3.4-4.5 5.8-7 7.6-8.8 3-3.1 4-4.1 5.5-10.5l0.9 0.2 2.5-2.6c4.8 4.5 6.2 4.8 10.3 5.8 2.5 0.6 5.9 1.4 11.3 3.3 6.3 2.2 10.5 6 12.7 11 3.7 9-0.8 18.9-1 19.3l-0.3 0.8zm9-48.8c-1.6 5.8-3.1 7.3-6 10.4-1.7 1.7-4 4.1-7.3 8.5-3.4 4.4-4.7 8.8-3.9 13 1.2 6.5 6.7 11 8.7 12.5l38.5-12.7c0.9-2.3 3.1-9.3 0.6-15.3-1.7-4-5.2-7-10.4-8.9-5.1-1.8-8.4-2.5-10.8-3.1-3.7-0.9-5.7-1.3-9.4-4.4z"/>
						</g>
					</g>
					<g id="&lt;Group&gt;">
						<g id="&lt;Group&gt;">
							<path id="&lt;Path&gt;" class="s9" d="m772.8 100c0 0-22.5-0.3-20.3-21.5 1.6-15.4 4.5-13.6 1.1-24.2"/>
							<path id="&lt;Path&gt;" class="s9" d="m772.8 102c-0.5 0-11.3-0.2-17.8-7.5-3.7-4.1-5.2-9.6-4.5-16.2 0.6-5.7 1.4-9.1 1.9-11.6 1-4.1 1.3-5.5-0.7-11.8l3.8-1.2c2.3 7.3 1.9 9.4 0.8 13.9-0.5 2.4-1.2 5.7-1.8 11.1-0.6 5.5 0.6 9.9 3.5 13.2 5.3 5.9 14.7 6.1 14.8 6.1z"/>
						</g>
						<g id="&lt;Group&gt;">
							<path id="&lt;Path&gt;" class="s9" d="m752.9 53c10.9 2.4 8.9-0.3 24-3.4 21-4.3 23.4 18.1 23.4 18.1l-31 33.4"/>
							<path id="&lt;Path&gt;" class="s9" d="m770.7 102.5l-2.9-2.8 30.4-32.6c-0.5-2.5-2.2-9.5-7.5-13.4-3.5-2.5-8-3.2-13.4-2.1-5.3 1.1-8.5 2.1-10.8 2.9-4.5 1.4-6.5 2.1-14 0.5l0.8-3.9c6.5 1.4 7.9 0.9 11.9-0.4 2.4-0.8 5.7-1.9 11.3-3 6.6-1.4 12.2-0.4 16.6 2.8 7.9 5.8 9.2 16.5 9.2 17l0.1 0.9z"/>
						</g>
					</g>
					<g id="&lt;Group&gt;">
						<g id="&lt;Group&gt;">
							<path id="&lt;Path&gt;" class="s9" d="m717.7 115.3c10.8-2.9 7.8-4.3 19.8-13.9 16.8-13.4 29.1 5.5 29.1 5.5l-9.9 41.2c0 0-20.2 10-27.8-10-5.5-14.4-2.2-14.1-10-22"/>
							<path id="&lt;Compound Path&gt;" fill-rule="evenodd" class="s9" d="m745.7 152.6c-2.4 0-4.9-0.3-7.3-1.3-5.2-2-9-6.2-11.4-12.5-2-5.3-2.9-8.6-3.5-11.1-1.1-4.1-1.4-5.5-6-10.2l0.6-0.7-0.9-3.5c6.4-1.6 7.4-2.7 10.4-5.7 1.8-1.8 4.3-4.3 8.7-7.8 5.2-4.2 10.7-5.9 16.1-5 9.6 1.6 15.6 10.6 15.9 11l0.5 0.7-10.3 43-0.9 0.4c-0.3 0.2-5.6 2.7-11.9 2.7zm-24-36.4c4.1 4.3 4.6 6.4 5.7 10.5 0.6 2.4 1.4 5.6 3.4 10.7 1.9 5.2 5 8.6 9 10.2 6.1 2.4 12.9 0.1 15.2-0.9l9.5-39.4c-1.5-2-6.3-7.5-12.8-8.5-4.2-0.7-8.6 0.7-12.9 4.1-4.3 3.4-6.6 5.8-8.4 7.5-2.6 2.7-4.1 4.2-8.7 5.8z"/>
						</g>
					</g>
					<g id="&lt;Group&gt;">
						<g id="&lt;Group&gt;">
							<path id="&lt;Path&gt;" class="s9" d="m806.5 228.6c0 0-18.2 13.1-4.2 29.3 10.2 11.6 11.5 8.5 14.8 19.2"/>
							<path id="&lt;Path&gt;" class="s9" d="m815.2 277.7c-1.9-6.3-3-7.3-6.2-10.2-1.9-1.7-4.4-4-8.2-8.3-4.4-5.1-6.3-10.4-5.7-15.9 1.2-9.7 9.9-16.1 10.3-16.3l2.3 3.2c-0.1 0-7.7 5.7-8.6 13.6-0.5 4.3 1.1 8.6 4.7 12.8 3.6 4.1 6.1 6.3 7.9 8 3.5 3.1 5.1 4.5 7.3 11.9z"/>
						</g>
						<g id="&lt;Group&gt;">
							<path id="&lt;Path&gt;" class="s9" d="m817.3 278.4c7.6-8.1 7.4-4.8 21.6-10.9 19.6-8.6 8.7-28.3 8.7-28.3l-42.5-8.5-8 17.5"/>
							<path id="&lt;Path&gt;" class="s9" d="m818.8 279.8l-3-2.7c5.2-5.7 7.3-6.3 11.7-7.6 2.4-0.7 5.6-1.7 10.6-3.9 5-2.2 8.3-5.4 9.7-9.5 2.1-6.1-0.5-12.9-1.5-15.1l-40-8-7.4 16-3.6-1.6 8.7-18.9 44.9 8.9 0.5 0.8c0.2 0.4 5.4 10 2.2 19.2-1.8 5.2-5.8 9.2-11.9 11.9-5.2 2.3-8.6 3.3-11 4-4.1 1.2-5.5 1.7-9.9 6.5z"/>
						</g>
					</g>
					<g id="&lt;Group&gt;">
						<g id="&lt;Group&gt;">
							<path id="&lt;Path&gt;" class="s9" d="m757.4 245.3c2.9-10.8 0.1-8.9-2.2-24.1-3.3-21.2 19.2-22.5 19.2-22.5l27.8 21 2.9 11"/>
							<path id="&lt;Path&gt;" class="s9" d="m759.3 245.8l-3.8-1c1.7-6.4 1.3-7.8 0.2-11.9-0.7-2.5-1.7-5.8-2.5-11.4-1-6.6 0.2-12.2 3.7-16.5 6.1-7.6 16.9-8.3 17.3-8.3l0.8-0.1 28.9 21.9 3.2 11.7-3.9 1-2.8-10.3-26.6-20.2c-2.3 0.3-9.7 1.6-13.9 6.9-2.7 3.3-3.6 7.8-2.8 13.3 0.9 5.3 1.8 8.6 2.4 10.9 1.3 4.5 1.8 6.6-0.2 14z"/>
						</g>
						<g id="&lt;Group&gt;">
							<path id="&lt;Path&gt;" class="s9" d="m803.4 229.6c0 0-1.4 22.5-22.5 19.2-15.2-2.4-13.3-5.1-24.1-2.2"/>
							<path id="&lt;Path&gt;" class="s9" d="m784.9 251.1q-2.1 0-4.3-0.3c-5.6-0.9-9-1.8-11.4-2.5-4.1-1.1-5.5-1.5-11.9 0.2l-1-3.9c7.4-2 9.4-1.4 14-0.1 2.3 0.6 5.5 1.5 10.9 2.3 5.5 0.9 10-0.1 13.3-2.8 6.3-5 6.9-14.4 6.9-14.5l4 0.2c0 0.5-0.8 11.3-8.3 17.4-3.4 2.7-7.4 4-12.2 4z"/>
						</g>
					</g>
					<g id="&lt;Group&gt;">
						<g id="&lt;Group&gt;">
							<path id="&lt;Path&gt;" class="s9" d="m721.8 185.3c7.9-7.9 4.6-7.7 10.1-22 7.8-20 27.9-9.9 27.9-9.9l9.7 41.3c0 0-12.4 18.8-29.1 5.4-12-9.7-8.9-11.1-19.7-14"/>
							<path id="&lt;Compound Path&gt;" fill-rule="evenodd" class="s9" d="m752.5 206.9c-4.5 0-9-1.8-13.3-5.3-4.4-3.5-6.9-6-8.7-7.8-3-3.1-4-4.1-10.3-5.8l0.9-3.5-0.7-0.6c4.7-4.7 5-6.1 6.1-10.2 0.6-2.5 1.5-5.9 3.6-11.2 2.4-6.2 6.2-10.4 11.4-12.4 9.1-3.5 18.8 1.3 19.2 1.5l0.9 0.4 10.1 43.1-0.5 0.7c-0.2 0.4-6.3 9.4-15.9 10.9q-1.4 0.2-2.8 0.2zm-27.8-21.7c4.5 1.5 6 3.1 8.7 5.8 1.7 1.7 4.1 4.1 8.3 7.5 4.3 3.5 8.7 4.9 12.9 4.2 6.5-1 11.3-6.5 12.8-8.5l-9.3-39.4c-2.3-1-9.1-3.3-15.2-0.9-4 1.5-7.1 4.9-9.1 10.1-2 5.1-2.8 8.3-3.4 10.7-1.1 4.1-1.6 6.1-5.7 10.5z"/>
						</g>
					</g>
					<g id="&lt;Group&gt;">
						<g id="&lt;Group&gt;">
							<path id="&lt;Path&gt;" class="s9" d="m889.5 16.1c2.6 10.8 4.1 7.9 13.4 20.2 12.9 17-6.3 28.9-6.3 28.9l-40.2-13.5c0 0-9.4-20.5 10.7-27.6 14.6-5.1 14.2-1.8 22.3-9.4"/>
							<path id="&lt;Compound Path&gt;" fill-rule="evenodd" class="s9" d="m896.9 67.4l-42-14.1-0.3-0.8c-0.2-0.4-4.7-10.3-0.9-19.3 2.1-5 6.4-8.7 12.8-11 5.3-1.9 8.7-2.6 11.2-3.2 4.2-0.9 5.6-1.3 10.4-5.8l2.4 2.6 0.9-0.2c1.6 6.4 2.6 7.5 5.5 10.6 1.8 1.8 4.2 4.3 7.6 8.9 4 5.3 5.6 10.8 4.5 16.2-1.7 9.6-10.9 15.3-11.3 15.6zm-39-17.3l38.4 12.9c2.1-1.5 7.6-6.1 8.8-12.5 0.8-4.2-0.5-8.6-3.8-13-3.3-4.4-5.6-6.8-7.3-8.6-2.9-3-4.4-4.6-5.9-10.3-3.7 3-5.8 3.5-9.5 4.3-2.4 0.6-5.7 1.3-10.8 3.1-5.2 1.9-8.7 4.8-10.4 8.8-2.6 6.1-0.4 13 0.5 15.3z"/>
						</g>
					</g>
					<g id="&lt;Group&gt;">
						<g id="&lt;Group&gt;">
							<path id="&lt;Path&gt;" class="s9" d="m951.7 54.7c-3.4 10.6-0.6 8.8 1 24.2 2.1 21.3-20.4 21.4-20.4 21.4l-27.4-32.4c0 0 2.6-22.4 23.5-18 15.1 3.2 13.1 5.8 24 3.5"/>
							<path id="&lt;Compound Path&gt;" fill-rule="evenodd" class="s9" d="m931.4 102.3l-28.6-33.8 0.1-0.8c0.1-0.5 1.4-11.2 9.3-16.9 4.5-3.3 10-4.2 16.6-2.8 5.6 1.1 8.9 2.2 11.3 3 4 1.4 5.4 1.8 11.9 0.5l0.7 3.5 0.9 0.3c-2 6.3-1.7 7.7-0.8 11.8 0.5 2.5 1.3 5.9 1.9 11.6 0.6 6.6-0.9 12.1-4.6 16.2-6.5 7.3-17.3 7.4-17.8 7.4zm-24.3-35l26.1 31c2.5-0.2 9.7-1.2 14-6.1 2.9-3.2 4.1-7.6 3.5-13.1-0.5-5.5-1.2-8.7-1.8-11.1-0.9-4.1-1.3-6.2 0.3-12-4.7 0.7-6.7 0-10.3-1.2-2.4-0.8-5.5-1.8-10.9-2.9-5.4-1.2-9.9-0.4-13.4 2.1-5.4 3.9-7.1 10.9-7.5 13.3z"/>
						</g>
					</g>
					<g id="&lt;Group&gt;">
						<g id="&lt;Group&gt;">
							<path id="&lt;Path&gt;" class="s9" d="m984.2 115.8c-10.7-2.9-7.7-4.3-19.7-14-16.7-13.4-29.1 5.4-29.1 5.4l9.7 41.3c0 0 20.1 10.1 27.9-9.9 5.5-14.4 2.2-14.1 10.1-22"/>
							<path id="&lt;Compound Path&gt;" fill-rule="evenodd" class="s9" d="m956.1 153c-6.3 0-11.6-2.5-11.9-2.7l-0.9-0.4-10.1-43.1 0.5-0.7c0.2-0.4 6.3-9.4 15.9-10.9 5.5-0.8 10.9 0.9 16.1 5.1 4.4 3.5 6.9 6 8.7 7.8 3 3 4 4.1 10.3 5.8l-0.9 3.4 0.7 0.7c-4.7 4.7-5 6.1-6.1 10.2-0.6 2.5-1.5 5.8-3.6 11.1-2.4 6.3-6.2 10.5-11.4 12.5-2.4 0.9-4.9 1.3-7.3 1.2zm-9.3-5.9c2.3 0.9 9.1 3.3 15.2 0.9 4-1.6 7.1-5 9.1-10.1 2-5.1 2.8-8.3 3.4-10.7 1.1-4.1 1.6-6.2 5.7-10.5-4.5-1.6-6-3.1-8.7-5.8-1.7-1.7-4.1-4.1-8.3-7.5-4.3-3.5-8.7-4.9-12.9-4.2-6.5 1-11.3 6.5-12.8 8.4z"/>
						</g>
					</g>
					<g id="&lt;Group&gt;">
						<g id="&lt;Group&gt;">
							<path id="&lt;Path&gt;" class="s9" d="m884.2 277.2c3.3-10.6 4.7-7.6 14.8-19.1 14.2-16.1-4.1-29.3-4.1-29.3l-41.1 10.4c0 0-10.9 19.7 8.7 28.3 14.1 6.2 14 2.9 21.5 11.1"/>
							<path id="&lt;Compound Path&gt;" fill-rule="evenodd" class="s9" d="m882.5 279.9c-4.4-4.8-5.8-5.3-9.9-6.5-2.4-0.8-5.8-1.8-10.9-4.1-6.2-2.7-10.2-6.7-11.9-11.9-3.2-9.2 2-18.8 2.3-19.2l0.4-0.7 42.9-10.9 0.7 0.5c0.4 0.3 9.1 6.7 10.2 16.4 0.6 5.5-1.3 10.8-5.8 15.9-3.7 4.2-6.3 6.6-8.2 8.3-3.2 2.8-4.2 3.8-6.2 10.1l-0.9-0.3zm-27.4-39c-1 2.2-3.7 9-1.6 15.2 1.4 4.1 4.7 7.3 9.7 9.6 5 2.1 8.2 3.1 10.5 3.8 3.7 1.2 5.7 1.8 9.2 5.1 1.9-5.7 3.5-7.1 6.7-9.9 1.8-1.6 4.3-3.9 7.9-8 3.6-4.1 5.2-8.4 4.8-12.7-0.7-6.5-6-11.5-7.9-13.1z"/>
						</g>
					</g>
					<g id="&lt;Group&gt;">
						<g id="&lt;Group&gt;">
							<path id="&lt;Path&gt;" class="s9" d="m944 245.7c-2.8-10.8-0.1-8.9 2.4-24.1 3.3-21.2-19.2-22.6-19.2-22.6l-29.1 30.8c0 0 1.2 22.5 22.4 19.3 15.2-2.3 13.4-5.1 24.1-2.2"/>
							<path id="&lt;Compound Path&gt;" fill-rule="evenodd" class="s9" d="m916.5 251.4c-4.8 0-8.8-1.4-12.1-4.1-7.6-6.1-8.3-16.9-8.3-17.4l-0.1-0.9 30.4-32.1 1 0.1c0.4 0 11.2 0.8 17.3 8.4 3.5 4.3 4.7 9.8 3.6 16.5-0.9 5.6-1.8 8.9-2.5 11.4-1.1 4.1-1.5 5.5 0.2 11.9l-1 0.2-0.9 3.5c-6.4-1.8-7.8-1.4-11.9-0.3-2.4 0.7-5.8 1.6-11.4 2.5q-2.2 0.3-4.3 0.3zm-16.4-20.9c0.4 2.4 1.7 9.6 6.8 13.7 3.4 2.8 7.8 3.7 13.3 2.9 5.4-0.8 8.6-1.7 11-2.3 3.7-1 5.7-1.6 10.4-0.7-1.4-5.8-0.8-7.8 0.4-11.9 0.6-2.4 1.5-5.6 2.4-11 0.8-5.4-0.1-9.9-2.8-13.3-4-5.1-11.1-6.5-13.6-6.8z"/>
						</g>
					</g>
					<g id="&lt;Group&gt;">
						<g id="&lt;Group&gt;">
							<path id="&lt;Path&gt;" class="s9" d="m942 153.7c0 0 20.2-9.9 27.8 10 5.5 14.4 2.2 14.2 10 22.1"/>
							<path id="&lt;Path&gt;" class="s9" d="m978.4 187.2c-5.4-5.4-5.9-7.5-7.1-12-0.6-2.4-1.4-5.7-3.4-10.7-1.9-5.2-5-8.6-9-10.2-7.5-2.9-16 1.2-16 1.2l-1.8-3.6c0.4-0.2 10.2-4.9 19.2-1.3 5.2 2 9 6.2 11.4 12.4 2 5.3 2.9 8.7 3.5 11.2 1.1 4.1 1.4 5.5 6 10.2z"/>
						</g>
						<g id="&lt;Group&gt;">
							<path id="&lt;Path&gt;" class="s9" d="m981 186.6c-10.8 2.8-7.8 4.3-19.8 13.9-16.8 13.3-29.1-5.5-29.1-5.5l13-46.5"/>
							<path id="&lt;Path&gt;" class="s9" d="m949.1 207.3q-1.4 0-2.8-0.2c-9.6-1.6-15.6-10.6-15.9-11l-0.5-0.8 13.2-47.3 3.9 1.1-12.7 45.5c1.5 2 6.2 7.5 12.7 8.5 4.2 0.7 8.6-0.7 12.9-4.2 4.3-3.3 6.6-5.7 8.4-7.5 3.2-3.3 4.7-4.8 12.2-6.7l1 3.8c-6.4 1.7-7.4 2.7-10.4 5.8-1.8 1.8-4.3 4.2-8.7 7.8-4.4 3.4-8.8 5.2-13.3 5.2z"/>
						</g>
					</g>
				</g>
				<g id="&lt;Group&gt;">
					<g id="&lt;Group&gt;">
						<path id="&lt;Compound Path&gt;" fill-rule="evenodd" class="s10" d="m850.6 241.2c-52.5-0.1-94.9-42.6-94.8-95.2 0.1-52.5 42.7-94.9 95.2-94.8 52.5 0.2 94.9 42.7 94.8 95.2-0.1 52.6-42.6 94.9-95.2 94.8zm89.2-94.8c0.1-49.2-39.6-89.1-88.8-89.2-49.2-0.1-89.1 39.6-89.2 88.9-0.1 49.2 39.6 89 88.8 89.1 49.3 0.1 89.1-39.6 89.2-88.8z"/>
					</g>
					<g id="&lt;Group&gt;">
						<path id="&lt;Compound Path&gt;" fill-rule="evenodd" class="s10" d="m931.3 193.8l-162.2-0.3c-1.1 0-2.1-0.6-2.6-1.5-0.6-1-0.5-2.1 0-3.1l84.5-135.7c0.6-0.9 1.6-1.5 2.6-1.4 1.1 0 2.1 0.6 2.6 1.5l77.8 136.1c0.5 0.9 0.5 2-0.1 3-0.5 0.9-1.5 1.4-2.6 1.4zm-156.8-6.3l151.7 0.3-72.7-127.2z"/>
					</g>
					<g id="&lt;Group&gt;">
						<path id="&lt;Compound Path&gt;" fill-rule="evenodd" class="s10" d="m853.2 240.2c-1 0-2-0.5-2.5-1.4l-84-136.1c-0.6-0.9-0.6-2.1-0.1-3.1 0.6-0.9 1.6-1.5 2.7-1.5l162.2 0.3c1.1 0 2.1 0.6 2.6 1.5 0.6 1 0.6 2.1 0 3l-78.3 135.8c-0.5 0.9-1.5 1.5-2.5 1.5q-0.1 0-0.1 0zm-78.6-136.1l78.5 127.2 73.2-126.9z"/>
					</g>
				</g>
			</g>
			<text id="Heart chakra
Anahata
" style="transform: matrix(2,.004,-0.004,2,850.528,335.864)" >
				<tspan x="-41.1" y="0" class="t2">Heart chakra
</tspan>
				<tspan x="-25.4" y="15.2" class="t3">Anahata
</tspan>
			</text>
			<text id="I love
" style="transform: matrix(2,.004,-0.004,2,849.628,422.453)" >
				<tspan x="-22.1" y="0" class="t4" dx="0 1 1 1 1 1 1" >I love
</tspan>
			</text>
		</g>
		<g id="&lt;Group&gt;">
			<g id="&lt;Group&gt;">
				<g id="&lt;Group&gt;">
					<g id="&lt;Group&gt;">
						<path id="&lt;Path&gt;" class="s11" d="m-67.7 702.9c-49.6-0.1-89.6-40.2-89.5-89.8 0.1-49.6 40.3-89.6 89.8-89.5 49.6 0.1 89.6 40.3 89.5 89.9-0.1 49.5-40.2 89.5-89.8 89.4z"/>
						<path id="&lt;Compound Path&gt;" fill-rule="evenodd" class="s11" d="m-67.7 704.9c-50.7-0.1-91.6-41.1-91.5-91.8 0.1-50.7 41.1-91.6 91.8-91.5 50.7 0.1 91.6 41.2 91.5 91.9-0.1 50.7-41.1 91.5-91.8 91.4zm87.8-91.4c0.1-48.5-39-87.8-87.5-87.9-48.4-0.1-87.7 39-87.8 87.5-0.1 48.5 39 87.7 87.5 87.8 48.5 0.1 87.7-39 87.8-87.4z"/>
					</g>
					<g id="&lt;Group&gt;">
						<path id="&lt;Path&gt;" class="s11" d="m-96.2 528.1c0 0-10-8.7-3.2-17.8 6.8-9 12.5-17.7 11.6-20.7h0.9c0.7 3.1 3.9 10.3 14.4 16.6 10.4 6.3 5.2 17.4 5.2 17.4"/>
						<path id="&lt;Path&gt;" class="s11" d="m-96.2 530.1c-0.5 0-1-0.2-1.3-0.5-4-3.5-9.8-12.1-3.5-20.5 11.4-15.2 11.4-18.5 11.3-19-0.1-0.6 0-1.2 0.4-1.7 0.4-0.5 0.9-0.9 1.6-0.8h0.9c0.9 0 1.7 0.7 1.9 1.6 0.2 0.9 2 8.4 13.4 15.3 9.5 5.7 8.1 15.6 6 20-0.5 1-1.7 1.4-2.7 0.9-1-0.4-1.4-1.6-0.9-2.6 0.2-0.4 4.3-9.6-4.5-14.9-7.5-4.5-11.4-9.5-13.3-13.1-1.6 3.4-4.7 8.5-10.9 16.7-5.6 7.5 2.5 14.8 2.9 15.1 0.8 0.7 0.9 2 0.2 2.8-0.4 0.4-1 0.7-1.5 0.7z"/>
					</g>
					<g id="&lt;Group&gt;">
						<path id="&lt;Path&gt;" class="s11" d="m-125 544.3c0 0-12.5-4.3-9.6-15.3 2.9-10.9 4.9-21.1 3-23.6l0.8-0.3c1.7 2.6 7.5 8.1 19.6 10 12 1.9 11.3 14.2 11.3 14.2"/>
						<path id="&lt;Path&gt;" class="s11" d="m-125 546.3q-0.3 0-0.6-0.1c-4.9-1.7-13.6-7.6-10.9-17.7 4.8-18.4 3.6-21.4 3.3-21.8-0.4-0.5-0.5-1.2-0.3-1.8 0.2-0.6 0.6-1.1 1.2-1.3l0.8-0.3c0.9-0.4 1.9-0.1 2.4 0.7 0.5 0.7 5 7 18.2 9.1 10.9 1.7 13.3 11.4 13 16.3 0 1.1-1 1.9-2.1 1.9-1.1-0.1-1.9-1.1-1.9-2.2 0.1-0.4 0.4-10.4-9.7-12-8.7-1.4-14.1-4.5-17.3-7.1-0.1 3.7-1.1 9.6-3.8 19.5-2.3 9 8 12.7 8.4 12.9 1 0.3 1.6 1.5 1.2 2.5-0.3 0.9-1 1.4-1.9 1.4z"/>
					</g>
					<g id="&lt;Group&gt;">
						<path id="&lt;Path&gt;" class="s11" d="m-146.7 571.5c0 0-13.2 0.8-14.7-10.4-1.5-11.2-3.6-21.4-6.3-22.9l0.6-0.7c2.6 1.8 10.1 4.6 21.9 1.7 11.9-2.8 16 8.8 16 8.8"/>
						<path id="&lt;Path&gt;" class="s11" d="m-147.6 573.5c-5.4 0-14.5-2.5-15.8-12.1-2.6-18.9-4.9-21.2-5.3-21.5-0.5-0.3-0.9-0.9-1-1.5 0-0.6 0.2-1.2 0.6-1.7l0.7-0.6c0.6-0.6 1.7-0.7 2.5-0.2 0.7 0.5 7.3 4.5 20.2 1.4 10.8-2.6 16.7 5.4 18.4 10 0.3 1-0.2 2.2-1.3 2.5-1 0.4-2.2-0.1-2.5-1.2-0.2-0.4-3.7-9.8-13.6-7.4-8.6 2.1-14.8 1.3-18.7 0.1 1.2 3.5 2.6 9.3 4 19.5 1.3 9.3 12.2 8.7 12.6 8.7 1.1-0.1 2.1 0.7 2.1 1.8 0.1 1.1-0.7 2.1-1.8 2.2q-0.5 0-1.1 0z"/>
					</g>
					<g id="&lt;Group&gt;">
						<path id="&lt;Path&gt;" class="s11" d="m-156.5 604.4c0 0-11.4 6.7-17.8-2.6-6.4-9.3-12.8-17.4-16-17.6l0.3-0.8c3.1 0.3 11-0.5 20.3-8.4 9.3-7.9 18.2 0.6 18.2 0.6"/>
						<path id="&lt;Path&gt;" class="s11" d="m-165 608.8c-3.8 0-7.9-1.5-10.9-5.8-10.9-15.7-14-16.7-14.5-16.8-0.6 0-1.2-0.4-1.5-0.9-0.3-0.5-0.5-1.2-0.3-1.7l0.3-0.9c0.3-0.9 1.2-1.4 2.2-1.3 0.8 0.1 8.6 0.7 18.7-7.9 8.5-7.2 17.3-2.7 20.9 0.7 0.8 0.7 0.8 2 0 2.8-0.7 0.8-2 0.8-2.8 0-0.3-0.2-7.7-7.1-15.5-0.5-6.7 5.8-12.6 7.9-16.7 8.6 2.8 2.5 6.6 7.1 12.5 15.6 5.3 7.7 14.7 2.2 15.1 2 1-0.6 2.2-0.2 2.8 0.7 0.5 1 0.2 2.2-0.8 2.8-2.2 1.3-5.7 2.6-9.5 2.6z"/>
					</g>
					<g id="&lt;Group&gt;">
						<path id="&lt;Path&gt;" class="s11" d="m-35.1 527.4c0 0 10-8.6 3.2-17.7-6.8-9.1-12.4-17.8-11.6-20.8h-0.9c-0.6 3.1-3.9 10.3-14.4 16.6-10.4 6.2-5.2 17.4-5.2 17.4"/>
						<path id="&lt;Path&gt;" class="s11" d="m-35.1 529.4c-0.6 0-1.2-0.2-1.6-0.7-0.7-0.8-0.6-2.1 0.2-2.8 0.4-0.3 8.5-7.6 3-15-6.1-8.2-9.3-13.4-10.8-16.8-2 3.6-5.9 8.5-13.4 13.1-8.8 5.2-4.7 14.4-4.5 14.8 0.4 1 0 2.2-1 2.7-1 0.4-2.2 0-2.7-1-2-4.4-3.4-14.3 6.1-19.9 11.4-6.9 13.3-14.4 13.5-15.3 0.2-0.9 1-1.6 1.9-1.6h0.9c0.6 0 1.2 0.3 1.6 0.8 0.4 0.5 0.5 1.1 0.4 1.7-0.2 0.5-0.2 3.8 11.2 19.1 6.2 8.4 0.4 17-3.5 20.4-0.4 0.4-0.9 0.5-1.3 0.5z"/>
					</g>
					<g id="&lt;Group&gt;">
						<path id="&lt;Path&gt;" class="s11" d="m-6.5 543.7c0 0 12.5-4.2 9.7-15.2-2.8-10.9-4.8-21.1-2.9-23.6l-0.8-0.3c-1.7 2.6-7.5 8-19.6 9.9-12.1 1.8-11.4 14.1-11.4 14.1"/>
						<path id="&lt;Path&gt;" class="s11" d="m-6.5 545.7c-0.8 0-1.6-0.5-1.9-1.3-0.3-1.1 0.2-2.2 1.3-2.6 0.4-0.1 10.7-3.8 8.4-12.8-2.6-9.9-3.6-15.8-3.7-19.5-3.2 2.5-8.6 5.6-17.4 7-10.1 1.5-9.7 11.6-9.7 12 0 1.1-0.8 2.1-1.9 2.1-1.1 0.1-2.1-0.8-2.1-1.9-0.3-4.8 2.2-14.5 13.1-16.2 13.2-2 17.8-8.3 18.2-9 0.6-0.8 1.6-1.1 2.4-0.7l0.9 0.3c0.5 0.2 1 0.7 1.2 1.3 0.1 0.6 0 1.3-0.4 1.8-0.3 0.4-1.5 3.4 3.2 21.8 2.7 10.1-6 16-10.9 17.6q-0.4 0.1-0.7 0.1z"/>
					</g>
					<g id="&lt;Group&gt;">
						<path id="&lt;Path&gt;" class="s11" d="m15.1 571c0 0 13.2 0.9 14.8-10.3 1.6-11.2 3.7-21.3 6.4-22.9l-0.7-0.6c-2.6 1.7-10 4.5-21.8 1.6-11.9-2.9-16 8.6-16 8.6"/>
						<path id="&lt;Path&gt;" class="s11" d="m16.1 573q-0.6 0-1.1 0c-1.1-0.1-2-1-1.9-2.1 0.1-1.1 1-1.9 2.1-1.9 0.5 0 11.4 0.6 12.7-8.6 1.4-10.1 2.8-16 4.1-19.5-3.9 1.2-10.1 1.9-18.7-0.2-9.9-2.4-13.5 7-13.6 7.4-0.4 1.1-1.6 1.6-2.6 1.2-1-0.4-1.6-1.5-1.2-2.5 1.6-4.6 7.6-12.6 18.3-10 13 3.2 19.6-0.8 20.3-1.3 0.8-0.5 1.9-0.4 2.5 0.2l0.7 0.7c0.4 0.4 0.6 1 0.6 1.6-0.1 0.7-0.5 1.2-1 1.5-0.5 0.3-2.8 2.6-5.4 21.5-1.4 9.6-10.4 12-15.8 12z"/>
					</g>
					<g id="&lt;Group&gt;">
						<path id="&lt;Path&gt;" class="s11" d="m23 608.2c0 0 11.9 5.8 17.5-4 5.7-9.8 11.4-18.5 14.5-18.9l-0.4-0.8c-3 0.6-10.9 0.5-20.9-6.7-9.9-7.1-18 2.1-18 2.1"/>
						<path id="&lt;Path&gt;" class="s11" d="m30.4 611.9c-3.2 0-6.3-0.9-8.3-1.8-1-0.5-1.4-1.7-0.9-2.7 0.5-1 1.7-1.4 2.7-1 0.4 0.2 10.3 4.8 14.9-3.2 5.1-8.9 8.6-13.8 11.1-16.6-4.1-0.4-10.1-2-17.3-7.1-8.4-6-15.1 1.4-15.4 1.7-0.7 0.9-2 1-2.8 0.2-0.9-0.7-0.9-2-0.2-2.8 3.2-3.7 11.7-8.8 20.7-2.4 10.8 7.8 18.5 6.5 19.4 6.3 0.9-0.1 1.8 0.3 2.2 1.2l0.3 0.8c0.3 0.6 0.3 1.2 0 1.8-0.3 0.5-0.9 0.9-1.5 1-0.5 0.1-3.5 1.3-13 17.9-3 5.1-7.6 6.7-11.9 6.7z"/>
					</g>
					<g id="&lt;Group&gt;">
						<path id="&lt;Path&gt;" class="s11" d="m-99.7 697.9c0 0-10 8.6-3.2 17.7 6.7 9.1 12.4 17.8 11.6 20.8h0.8c0.7-3.1 4-10.3 14.4-16.6 10.5-6.2 5.3-17.4 5.3-17.4"/>
						<path id="&lt;Path&gt;" class="s11" d="m-91.4 738.4c-0.6 0-1.2-0.3-1.5-0.8-0.4-0.5-0.5-1.1-0.4-1.8 0.1-0.4 0.2-3.7-11.2-19-6.2-8.4-0.4-17 3.5-20.4 0.9-0.8 2.1-0.7 2.8 0.2 0.8 0.8 0.7 2.1-0.2 2.8-0.3 0.3-8.5 7.6-2.9 15 6.1 8.2 9.3 13.4 10.8 16.8 2-3.6 5.8-8.6 13.4-13.1 8.8-5.3 4.7-14.4 4.5-14.8-0.5-1 0-2.2 1-2.7 1-0.4 2.2 0 2.6 1 2.1 4.4 3.5 14.3-6 19.9-11.4 6.9-13.3 14.4-13.5 15.3-0.2 0.9-1 1.6-1.9 1.6h-0.9q0 0-0.1 0z"/>
					</g>
					<g id="&lt;Group&gt;">
						<path id="&lt;Path&gt;" class="s11" d="m-131.4 681.6c0 0-12.6 4.2-9.7 15.2 2.8 10.9 4.8 21.1 2.9 23.6l0.8 0.3c1.7-2.6 7.5-8.1 19.6-9.9 12-1.9 11.4-14.1 11.4-14.1"/>
						<path id="&lt;Path&gt;" class="s11" d="m-137.4 722.7q-0.4 0-0.8-0.2l-0.8-0.3c-0.6-0.2-1-0.7-1.2-1.3-0.1-0.6 0-1.3 0.4-1.8 0.3-0.4 1.5-3.4-3.3-21.8-2.6-10.1 6.1-16 11-17.6 1.1-0.4 2.2 0.2 2.6 1.2 0.3 1.1-0.2 2.2-1.3 2.6-0.4 0.1-10.7 3.8-8.4 12.8 2.6 9.9 3.6 15.8 3.7 19.5 3.2-2.5 8.6-5.6 17.4-7 10.1-1.5 9.7-11.6 9.7-12 0-1.1 0.8-2.1 1.9-2.1 1.1-0.1 2 0.8 2.1 1.9 0.3 4.8-2.2 14.5-13.1 16.2-13.2 2-17.8 8.3-18.3 9-0.3 0.6-1 0.9-1.6 0.9z"/>
					</g>
					<g id="&lt;Group&gt;">
						<path id="&lt;Path&gt;" class="s11" d="m-153 648.1c0 0-13.2-0.9-14.8 10.3-1.6 11.2-3.7 21.3-6.4 22.9l0.7 0.6c2.6-1.7 10-4.5 21.8-1.6 11.9 2.9 16-8.6 16-8.6"/>
						<path id="&lt;Path&gt;" class="s11" d="m-173.5 683.9c-0.6 0-1.1-0.2-1.4-0.6l-0.7-0.6c-0.4-0.4-0.6-1-0.6-1.6 0.1-0.7 0.5-1.2 1-1.5 0.5-0.3 2.8-2.6 5.4-21.5 1.5-10.3 11.7-12.3 16.9-12 1.1 0.1 2 1 1.9 2.1-0.1 1.1-1.1 1.9-2.1 1.9-0.5-0.1-11.4-0.6-12.7 8.6-1.4 10.1-2.8 16-4.1 19.5 3.9-1.2 10.1-2 18.7 0.2 10 2.4 13.5-7 13.6-7.4 0.4-1.1 1.6-1.6 2.6-1.2 1 0.3 1.6 1.5 1.2 2.5-1.6 4.6-7.6 12.6-18.3 9.9-13-3.1-19.6 0.9-20.3 1.4q-0.6 0.3-1.1 0.3z"/>
					</g>
					<g id="&lt;Group&gt;">
						<path id="&lt;Path&gt;" class="s11" d="m-159.6 612c0 0-11.4-6.8-17.8 2.5-6.5 9.3-12.9 17.4-16.1 17.6l0.3 0.8c3.1-0.4 11 0.5 20.3 8.4 9.2 8 18.1-0.5 18.1-0.5"/>
						<path id="&lt;Path&gt;" class="s11" d="m-164.4 646.7c-3.1 0-6.5-1-9.8-3.9-10.1-8.6-17.9-8-18.7-7.9-1 0.1-1.9-0.5-2.2-1.4l-0.3-0.8c-0.2-0.6-0.1-1.2 0.3-1.8 0.3-0.5 0.9-0.8 1.5-0.8 0.5-0.1 3.6-1.1 14.5-16.7 6-8.6 16.1-5.8 20.5-3.1 1 0.5 1.3 1.7 0.7 2.7-0.5 0.9-1.7 1.3-2.7 0.7-0.4-0.2-9.9-5.7-15.2 1.9-5.8 8.5-9.7 13.1-12.4 15.6 4 0.7 9.9 2.9 16.6 8.6 7.8 6.7 15.2-0.1 15.5-0.4 0.8-0.8 2-0.7 2.8 0.1 0.8 0.8 0.7 2-0.1 2.8-2.1 2-6.2 4.4-11 4.4z"/>
					</g>
					<g id="&lt;Group&gt;">
						<path id="&lt;Path&gt;" class="s11" d="m-35.5 698.8c0 0 10 8.7 3.2 17.7-6.8 9.1-12.5 17.7-11.7 20.7h-0.9c-0.6-3-3.8-10.3-14.3-16.6-10.5-6.3-5.2-17.4-5.2-17.4"/>
						<path id="&lt;Path&gt;" class="s11" d="m-44 739.2q0 0 0 0h-0.9c-0.9 0-1.7-0.6-1.9-1.6-0.2-0.8-2-8.4-13.4-15.2-9.5-5.8-8.1-15.6-6-20 0.5-1 1.7-1.5 2.7-1 1 0.5 1.4 1.7 0.9 2.7-0.2 0.4-4.3 9.5 4.4 14.8 7.6 4.6 11.5 9.5 13.4 13.1 1.6-3.3 4.7-8.5 10.9-16.7 5.6-7.4-2.6-14.7-2.9-15-0.8-0.7-0.9-2-0.2-2.8 0.7-0.9 2-0.9 2.8-0.2 4 3.4 9.7 12.1 3.5 20.4-11.5 15.3-11.5 18.5-11.3 19 0.1 0.6 0 1.3-0.4 1.8-0.4 0.4-1 0.7-1.6 0.7z"/>
					</g>
					<g id="&lt;Group&gt;">
						<path id="&lt;Path&gt;" class="s11" d="m-3.7 679.5c0 0 12.6 4.3 9.7 15.2-2.9 11-4.9 21.1-3 23.6l-0.8 0.3c-1.8-2.6-7.5-8-19.6-9.9-12-1.9-11.4-14.2-11.4-14.2"/>
						<path id="&lt;Path&gt;" class="s11" d="m2.2 720.6c-0.7 0-1.3-0.3-1.7-0.9-0.5-0.7-5-7-18.2-9.1-10.9-1.7-13.3-11.3-13.1-16.2 0.1-1.1 1.1-1.9 2.2-1.9 1.1 0.1 1.9 1 1.8 2.1 0 0.4-0.3 10.5 9.7 12.1 8.8 1.4 14.2 4.5 17.4 7.1 0.1-3.7 1.1-9.7 3.7-19.6 2.4-9-7.9-12.7-8.3-12.8-1-0.4-1.6-1.5-1.2-2.6 0.3-1 1.5-1.6 2.5-1.2 4.9 1.7 13.6 7.6 10.9 17.6-4.9 18.5-3.6 21.5-3.3 21.9 0.3 0.5 0.5 1.2 0.3 1.8-0.2 0.5-0.6 1-1.2 1.3l-0.8 0.3q-0.4 0.1-0.7 0.1z"/>
					</g>
					<g id="&lt;Group&gt;">
						<path id="&lt;Path&gt;" class="s11" d="m13.8 649.5c0 0 13.2-1.6 15.4 9.6 2.1 11.1 4.8 21.1 7.6 22.5l-0.6 0.6c-2.7-1.5-10.3-4-22-0.4-11.6 3.6-16.4-7.8-16.4-7.8"/>
						<path id="&lt;Path&gt;" class="s11" d="m9.9 684.5c-7.7 0-12.4-6-13.9-9.7-0.5-1 0-2.2 1-2.6 1.1-0.4 2.2 0 2.7 1 0.1 0.4 4.2 9.7 14 6.7 8.4-2.6 14.7-2.2 18.6-1.2-1.4-3.4-3.1-9.2-5.1-19.3-1.8-9.1-12.7-7.9-13.1-7.9-1.1 0.2-2.1-0.6-2.2-1.7-0.2-1.1 0.6-2.1 1.7-2.2 5.2-0.7 15.5 0.8 17.5 11.1 3.7 18.7 6.1 20.8 6.6 21.1 0.5 0.3 0.9 0.8 1 1.4 0.1 0.6 0 1.3-0.5 1.7l-0.6 0.7c-0.6 0.7-1.6 0.8-2.4 0.4-0.8-0.5-7.6-4.2-20.4-0.3q-2.6 0.8-4.9 0.8z"/>
					</g>
					<g id="&lt;Group&gt;">
						<path id="&lt;Path&gt;" class="s11" d="m24.8 616.2c0 0 11.4-6.7 17.8 2.6 6.4 9.3 12.8 17.5 16 17.6l-0.3 0.9c-3.1-0.4-11 0.4-20.3 8.3-9.3 8-18.2-0.5-18.2-0.5"/>
						<path id="&lt;Path&gt;" class="s11" d="m29.5 651c-4.8 0-8.9-2.5-11.1-4.5-0.8-0.8-0.8-2 0-2.8 0.7-0.8 2-0.9 2.8-0.1 0.3 0.3 7.7 7.1 15.5 0.5 6.7-5.7 12.6-7.8 16.6-8.5-2.7-2.6-6.5-7.2-12.4-15.6-5.3-7.7-14.7-2.3-15.1-2.1-1 0.6-2.2 0.3-2.8-0.7-0.5-0.9-0.2-2.1 0.7-2.7 4.5-2.7 14.6-5.4 20.5 3.2 10.9 15.7 14 16.7 14.5 16.7 0.6 0.1 1.2 0.4 1.5 0.9 0.3 0.6 0.4 1.2 0.2 1.8l-0.2 0.8c-0.4 0.9-1.2 1.5-2.2 1.4-0.8-0.1-8.6-0.8-18.7 7.9-3.3 2.8-6.7 3.8-9.8 3.8z"/>
					</g>
					<g id="&lt;Group&gt;">
						<path id="&lt;Path&gt;" class="s11" d="m-142.3 566.6l152.4 0.3-75.9 133.6z"/>
						<path id="&lt;Compound Path&gt;" fill-rule="evenodd" class="s11" d="m-65.8 702.5c-0.7 0-1.4-0.4-1.7-1l-76.5-133.9c-0.3-0.6-0.3-1.4 0-2 0.4-0.6 1-1 1.7-1l152.4 0.3c0.7 0 1.3 0.4 1.7 1 0.3 0.6 0.3 1.4 0 2l-75.8 133.6c-0.4 0.6-1.1 1-1.8 1q0 0 0 0zm-73-133.9l73 127.9 72.4-127.6z"/>
					</g>
					<g id="&lt;Group&gt;">
						<path id="&lt;Path&gt;" class="s11" d="m-67.6 654.4c-24.5-0.1-44.2-19.9-44.1-44.3 0-24.4 19.8-44.2 44.2-44.1 24.5 0 44.2 19.8 44.1 44.3 0 24.4-19.8 44.1-44.2 44.1z"/>
						<path id="&lt;Compound Path&gt;" fill-rule="evenodd" class="s11" d="m-67.6 656.4c-25.6-0.1-46.2-20.8-46.1-46.3 0-25.6 20.7-46.2 46.3-46.1 25.5 0 46.1 20.7 46 46.3 0 25.5-20.7 46.1-46.2 46.1zm42.2-46.1c0.1-23.4-18.7-42.3-42.1-42.3-23.3-0.1-42.2 18.8-42.2 42.1-0.1 23.3 18.7 42.2 42.1 42.3 23.3 0 42.2-18.8 42.2-42.1z"/>
					</g>
				</g>
				<g id="&lt;Group&gt;">
					<g id="&lt;Group&gt;">
						<path id="&lt;Compound Path&gt;" fill-rule="evenodd" class="s12" d="m-67.7 705.9c-51.3-0.1-92.6-41.6-92.5-92.8 0.1-51.3 41.6-92.6 92.8-92.5 51.3 0.1 92.6 41.6 92.5 92.9-0.1 51.2-41.6 92.5-92.8 92.4zm86.8-92.4c0.1-48-38.6-86.8-86.5-86.9-47.9-0.1-86.7 38.6-86.8 86.5-0.1 47.9 38.6 86.7 86.5 86.8 47.9 0.1 86.7-38.5 86.8-86.4z"/>
					</g>
					<g id="&lt;Group&gt;">
						<path id="&lt;Compound Path&gt;" fill-rule="evenodd" class="s12" d="m-65.8 703.5c-1.1 0-2.1-0.6-2.6-1.5l-76.5-133.9c-0.5-0.9-0.5-2.1 0.1-3 0.5-0.9 1.5-1.5 2.6-1.5l152.3 0.3c1 0 2 0.6 2.6 1.5 0.5 0.9 0.5 2.1 0 3l-75.9 133.6c-0.5 0.9-1.5 1.5-2.6 1.5q0 0 0 0zm-71.3-133.9l71.3 124.8 70.7-124.5z"/>
					</g>
					<g id="&lt;Group&gt;">
						<path id="&lt;Compound Path&gt;" fill-rule="evenodd" class="s12" d="m-67.6 657.4c-26.1-0.1-47.2-21.2-47.1-47.3 0-26.1 21.2-47.2 47.3-47.1 26 0 47.1 21.2 47 47.3 0 26.1-21.1 47.1-47.2 47.1zm41.2-47.1c0.1-22.8-18.3-41.3-41.1-41.3-22.7-0.1-41.2 18.3-41.2 41.1-0.1 22.8 18.3 41.2 41.1 41.3 22.7 0 41.2-18.4 41.2-41.1z"/>
					</g>
				</g>
			</g>
			<text id="Throat chakra
Vishuddha
" style="transform: matrix(2,.004,-0.004,2,-67.728,782.517)" >
				<tspan x="-44.5" y="0" class="t2">Throat chakra
</tspan>
				<tspan x="-31.6" y="15.2" class="t3">Vishuddha
</tspan>
			</text>
			<text id="I express
" style="transform: matrix(2,.004,-0.004,2,-68.636,859.613)" >
				<tspan x="-34.9" y="0" class="t4" dx="0 1 1 1 1 1 1 1 1 1" >I express
</tspan>
			</text>
		</g>
		<g id="&lt;Group&gt;">
			<g id="&lt;Group&gt;">
				<g id="&lt;Group&gt;">
					<g id="&lt;Group&gt;">
						<path id="&lt;Path&gt;" class="s13" d="m200.3 571.3l151.6-0.1-71.2 132.8z"/>
						<path id="&lt;Compound Path&gt;" fill-rule="evenodd" class="s13" d="m280.7 706c-0.7 0-1.4-0.3-1.7-0.9l-80.4-132.7c-0.4-0.7-0.4-1.4 0-2.1 0.3-0.6 1-1 1.7-1l151.6-0.1q0 0 0 0c0.7 0 1.3 0.4 1.7 1 0.3 0.6 0.4 1.4 0 2l-71.2 132.8c-0.3 0.6-1 1-1.7 1q0 0 0 0zm-76.8-132.7l76.7 126.7 67.9-126.8z"/>
					</g>
					<g id="&lt;Group&gt;">
						<path id="&lt;Path&gt;" class="s13" d="m280.3 707.5c-53.4-0.1-96.4-39.4-96.3-88 0.1-48.5 43.3-87.7 96.6-87.6 53.4 0.1 96.5 39.5 96.4 88-0.1 48.6-43.4 87.7-96.7 87.6z"/>
						<path id="&lt;Compound Path&gt;" fill-rule="evenodd" class="s13" d="m280.3 709.5c-54.5-0.1-98.4-40.3-98.3-90 0.1-49.6 44.2-89.7 98.6-89.6 54.5 0.2 98.5 40.4 98.4 90-0.1 49.7-44.2 89.7-98.7 89.6zm94.7-89.6c0.1-47.4-42.1-85.9-94.4-86-52.2-0.1-94.6 38.2-94.6 85.6-0.1 47.5 42 85.9 94.3 86 52.2 0.1 94.6-38.1 94.7-85.6z"/>
					</g>
					<g id="&lt;Group&gt;">
						<path id="&lt;Path&gt;" class="s13" d="m254.7 705.3c0 0-41.9 14-67.8-4-21.2-14.8-26-37.5-39.8-56.5-14.3-19.6-31.7-25.5-31.7-25.5v0.2c0 0 17.4-5.9 31.8-25.4 13.9-18.9 18.8-41.6 40-56.3 26-17.9 67.9-3.8 67.9-3.8"/>
						<path id="&lt;Path&gt;" class="s13" d="m221.1 712.6c-11.8-0.1-24.8-2.3-35.4-9.7-14.1-9.9-21.3-23.4-28.1-36.4-3.7-6.9-7.4-14-12.1-20.5-12.2-16.7-26.8-23.2-30.1-24.5-0.4 0-0.9-0.1-1.2-0.4-0.5-0.4-0.8-1-0.8-1.6 0-0.7 0.3-1.4 0.8-1.7 0.3-0.3 0.7-0.4 1.2-0.5 3.2-1.2 17.9-7.7 30.2-24.4 4.7-6.5 8.5-13.5 12.2-20.4 6.9-13 14-26.5 28.3-36.3 26.5-18.3 67.8-4.6 69.6-4.1 1 0.4 1.6 1.5 1.2 2.6-0.3 1-1.4 1.6-2.5 1.2-0.4-0.1-41.2-13.6-66 3.6-13.5 9.2-20.1 21.7-27.1 34.9-3.7 7-7.6 14.2-12.5 20.9-10.2 13.9-21.9 21-28.2 24.1 6.3 3.1 17.9 10.3 28.1 24.3 4.9 6.7 8.7 13.9 12.4 20.9 7 13.2 13.5 25.7 26.9 35 24.8 17.3 65.7 4 66.1 3.8 1-0.3 2.2 0.2 2.5 1.3 0.4 1-0.2 2.2-1.3 2.5-1 0.4-16.4 5.4-34.2 5.4z"/>
					</g>
					<g id="&lt;Group&gt;">
						<path id="&lt;Path&gt;" class="s13" d="m307.4 705.4c0 0 41.8 14.2 67.8-3.7 21.3-14.7 26.2-37.4 40.1-56.3 14.4-19.6 31.8-25.4 31.8-25.4v0.1c0 0-17.4-5.9-31.7-25.5-13.8-18.9-18.6-41.7-39.8-56.4-26-18.1-67.8-4.1-67.8-4.1"/>
						<path id="&lt;Path&gt;" class="s13" d="m341 712.8c-17.8 0-33.2-5.1-34.2-5.5-1.1-0.3-1.6-1.5-1.3-2.5 0.4-1.1 1.5-1.6 2.6-1.3 0.4 0.2 41.1 13.7 66-3.5 13.4-9.3 20.1-21.7 27.1-34.9 3.7-7 7.5-14.2 12.5-20.9 10.2-13.9 21.9-21.1 28.2-24.1-6.3-3.2-17.9-10.3-28.1-24.3-4.9-6.7-8.8-13.9-12.4-20.9-7-13.3-13.6-25.7-27-35.1-24.8-17.2-65.6-3.9-66-3.8-1.1 0.4-2.2-0.2-2.5-1.2-0.4-1.1 0.2-2.2 1.2-2.6 1.8-0.5 43.2-14.1 69.6 4.4 14.2 9.8 21.3 23.3 28.2 36.4 3.6 6.9 7.4 14 12.1 20.5 12.1 16.6 26.7 23.2 30.1 24.5 0.4 0 0.8 0.1 1.2 0.4 0.5 0.3 0.8 0.9 0.8 1.6 0 0.6-0.3 1.3-0.8 1.7-0.4 0.2-0.8 0.4-1.2 0.4-3.2 1.3-17.9 7.8-30.2 24.5-4.8 6.4-8.5 13.5-12.2 20.4-6.9 13-14.1 26.5-28.3 36.3-10.6 7.3-23.6 9.5-35.4 9.5z"/>
					</g>
				</g>
				<g id="&lt;Group&gt;">
					<g id="&lt;Group&gt;">
						<path id="&lt;Compound Path&gt;" fill-rule="evenodd" class="s14" d="m280.7 707c-1.1 0-2-0.5-2.6-1.4l-80.3-132.7c-0.6-1-0.6-2.1-0.1-3.1 0.5-0.9 1.5-1.5 2.6-1.5l151.6-0.1q0 0 0 0c1 0 2 0.6 2.5 1.5 0.6 0.9 0.6 2 0.1 3l-71.2 132.8c-0.5 0.9-1.5 1.5-2.5 1.5q-0.1 0-0.1 0zm-75.1-132.7l74.9 123.7 66.4-123.8z"/>
					</g>
					<g id="&lt;Group&gt;">
						<path id="&lt;Compound Path&gt;" fill-rule="evenodd" class="s14" d="m280.3 710.5c-55-0.1-99.4-40.8-99.3-91 0.1-50.2 44.6-90.7 99.6-90.6 55.1 0.2 99.5 40.8 99.4 91-0.1 50.2-44.7 90.7-99.7 90.6zm93.7-90.6c0.1-46.9-41.7-84.9-93.4-85-51.7-0.1-93.6 37.8-93.6 84.6-0.1 46.9 41.6 84.9 93.3 85 51.7 0.1 93.6-37.7 93.7-84.6z"/>
					</g>
				</g>
			</g>
			<text id="Third Eye chakra
Ajna
" style="transform: matrix(2,.004,-0.004,2,280.93,783.216)" >
				<tspan x="-52.4" y="0" class="t2">Third Eye chakra
</tspan>
				<tspan x="-13.4" y="15.2" class="t3">Ajna
</tspan>
			</text>
			<text id="I am the witness
" style="transform: matrix(2,.004,-0.004,2,280.024,860.312)" >
				<tspan x="-64.3" y="0" class="t4" dx="0 1 1 1 1 1 1 1 1 1 1 1 1 1 1 1 1" >I am the witness
</tspan>
			</text>
		</g>
		<g id="&lt;Group&gt;">
			<g id="&lt;Group&gt;">
				<g id="&lt;Group&gt;">
					<path id="&lt;Compound Path&gt;" fill-rule="evenodd" class="s15" d="m792.7 634v0.1c-5.7 1.7-5.1 6.9-10 14.5-5 7.7-11.8 3.3-11.8 3.3v-0.5l-1.6 0.8c2.3 1.6 4.5 2.2 4.5 2.2l-0.1 0.1c0 0-7.5-0.4-12.3 4.8l1.5 1.7 0.6-1c0 0 8.8-1.5 9.6 6.8 0.7 8.2-2.5 12.4 2 15.9-5.8-1.3-7.9 3.4-16 7.6-5.8 3-9.3 0.1-10.8-1.7l-2.8-0.2c1 4.4 4.2 7.2 4.2 7.2 0 0-5.4-2.7-11.6-1.2l0.4 2.7c1.4 0.4 8.2 2.7 6 9.9-2.5 7.9-7.1 10.5-4.3 15.4h-0.1c-4.8-3.4-8.6 0.1-17.6 0.8-9.1 0.7-9.7-7.4-9.7-7.4l0.4-0.3-2.1-3.8c-3.7 5.5-1.4 11.5-1.4 11.5h-0.1c0 0-4-5.4-11.4-5.9l-2.2 0.9c1.5 1.5 5.3 6.1 0.8 11.1-5.5 6.1-10.8 6.6-10.3 12.2h-0.1c-2.9-5.1-7.8-3.5-16.4-6.7-8.5-3.1-5.6-10.7-5.6-10.7l1.4-0.3-1.2-1.2c-7.7 3.1-8.7 10.4-8.7 10.4h-0.1c0 0-1.1-7.6-9-10.6l-0.8 1.6h0.4c0 0 2.8 7.6-5.7 10.8-8.6 3.1-13.5 1.4-16.4 6.6h-0.1c0.5-5.6-4.7-6.2-10.3-12.3-5.5-6.2 1.5-11.6 1.5-11.6l0.5 0.1v-3.2c-8.7-0.6-13.5 5.8-13.5 5.8h-0.1c0 0 1.6-3.9 0.2-8.4l-2.7-0.3 1.3 1c0 0-0.6 8.1-9.7 7.4-9.1-0.8-12.8-4.3-17.6-0.9h-0.1c2.8-4.9-1.8-7.6-4.2-15.5-2-6.3 3.2-8.9 5.3-9.6l-2.8-3c-5.3-0.6-9.5 1.6-9.5 1.6l-0.1-0.1c0 0 3.1-2.6 4.2-6.8l-4.2-3.8 1.1 2c0 0-3.7 7.2-11.7 3-8.1-4.2-10.2-9-15.9-7.7h-0.1c4.5-3.4 1.3-7.7 2.1-15.9 0.9-8.3 9.7-6.7 9.7-6.7l3.7 6.3-1.8-8c-3.3-2.7-7.2-3.4-9.4-3.5v0.1c0 0-6.8 4.4-11.7-3.3-4.9-7.6-4.3-12.8-10-14.5v-0.1c5.6-0.7 5-6 9.8-12.7 3.6-5.1 8.4-3.1 10.5-1.8l0.2-0.7c-3.9-3.7-9.2-4.2-9.2-4.2v-0.1c0 0 5-0.6 8.9-4.2v-0.2c-2.2 1.3-6.9 3.1-10.4-1.9-4.8-6.8-4.1-12.1-9.7-12.8 5.6-1.8 5.1-6.9 10-14.6 3.9-5.9 8.8-4.6 10.8-3.7 1.4 0 4.9-0.2 8.3-2.1l0.1-2.4c0 0-8.8 1.5-9.6-6.8-0.7-8.2 2.4-12.5-2.1-15.9h0.1c5.8 1.3 7.9-3.5 16-7.6 8.1-4.2 11.7 3.1 11.7 3.1l3.5 0.3c-0.1-5.8-4.6-9.6-4.6-9.6l0.1-0.1c0 0 5.1 2.6 11 1.3l0.5-2.3c-2.4-1.1-6.3-3.8-4.5-9.4 2.5-7.9 7.1-10.6 4.3-15.5h0.1c4.8 3.5 8.6-0.1 17.6-0.7 9.1-0.7 9.7 7.4 9.7 7.4l-0.8 0.6h1.9c1.8-4.7 0.2-9 0.2-9 0 0 4.3 5.7 12.1 5.9l1.9-2.6-0.9 0.2c0 0-7.1-5.5-1.5-11.7 5.5-6.1 10.8-6.6 10.3-12.3l0.1 0.1c2.9 5.1 7.8 3.5 16.4 6.6 8.5 3.2 5.6 10.8 5.6 10.8l-3.7 0.8 1.2 1.1q0.2-0.1 0.5-0.1c10.2-2.3 11.5-11.4 11.5-11.4 0 0 1.1 7.9 9.5 10.8l2.7-0.4-3.7-0.8c0 0-2.8-7.6 5.7-10.7 8.6-3.1 13.5-1.5 16.4-6.6h0.1c-0.5 5.6 4.7 6.1 10.3 12.3 4 4.4 1.4 8.5-0.3 10.5l1.5 0.8c7.5-0.4 11.6-5.9 11.6-5.9v0.1c0 0-2.3 5.8 1.3 11.2l2.1-3-0.3-0.2c0 0 0.6-8.1 9.7-7.4 9.1 0.7 12.8 4.3 17.6 0.9h0.1c-2.8 4.9 1.8 7.5 4.2 15.5 2.5 7.9-6.2 9.9-6.2 9.9l-0.1-0.1 0.5 2.2c5.9 1.3 11-1.3 11-1.3v0.1c0 0-2 1.7-3.3 4.6l0.2-0.1 2 2.7c1.7-1.8 5.1-4.1 10.5-1.3 8.1 4.2 10.2 8.9 15.9 7.6l0.1 0.1c-4.5 3.4-1.3 7.6-2.1 15.9-0.5 5.1-4.1 6.4-6.7 6.7l1.2 4c3.3 1.1 6.1 0.9 6.1 0.9v0.1c0 0-1.2 0.4-2.9 1.2l2.9 0.9c2.4-0.5 6-0.2 8.9 4.3 4.9 7.7 4.3 12.9 10 14.6v0.1c-5.6 0.7-5 5.9-9.8 12.7-2.7 3.8-6.1 3.6-8.6 2.7v0.6c3.2 1.7 6.2 2 6.2 2v0.1c0 0-2.9 0.4-6.1 2.1l0.1 2.7c2.4-0.8 5.7-0.9 8.4 2.9 4.8 6.8 4.1 12 9.7 12.7zm-250.9-55.9q-0.8-0.5-1.5-0.8l-0.1 1.3zm-1.7 72.6c0.8-0.4 1.9-0.9 3.1-1.7l-3.1-1.2z"/>
					<path id="&lt;Compound Path&gt;" fill-rule="evenodd" class="s15" d="m686.5 743.5q-0.4 0-0.8-0.1c-0.4-0.2-0.8-0.6-1-0.9-1.4-2.4-3.1-2.8-7.1-3.6-2.2-0.4-5-1-8.3-2.2-3.2-1.2-5.4-3.1-6.5-5.6-0.8-1.7-0.9-3.3-0.9-4.7-3.4 3-4 6.9-4.1 6.9-0.1 1-0.9 1.7-1.9 1.7-1 0-1.9-0.7-2.1-1.7 0-0.2-0.7-4.7-5.1-7.7 0.2 1.5 0.2 3.5-0.8 5.5-1.1 2.5-3.3 4.4-6.5 5.6-3.3 1.2-6.1 1.7-8.3 2.1-4 0.8-5.7 1.2-7.1 3.6q-0.3 0.5-0.9 0.8c-0.7 0.3-1.4 0.2-2-0.2-0.6-0.4-1-1.1-0.9-1.8 0.2-2.3-0.8-3.2-3.8-5.5-1.7-1.3-3.8-2.9-6-5.3-1.9-2.1-2.8-4.5-2.6-7 0.3-3.4 2.7-5.9 3.8-7-6.2 0.6-9.6 5-9.6 5-0.6 0.8-1.6 1.1-2.4 0.7-1-0.5-1.5-1.6-1.1-2.6 0 0 0.2-0.5 0.3-1.3q-0.5 0.7-1.2 1.3c-2.1 1.8-5 2.6-8.4 2.3-3.4-0.2-6.2-0.9-8.4-1.4-4-1-5.6-1.3-7.9 0.2-0.3 0.3-0.8 0.4-1.2 0.4-0.7 0-1.4-0.4-1.7-1-0.4-0.6-0.4-1.4-0.1-2 1.2-2 0.7-3.3-1.1-6.6-1-1.9-2.3-4.2-3.2-7.3-1.7-5.1 0.6-8.8 3.9-10.8l-0.4-0.4c-4.3-0.3-7.7 1.3-7.7 1.4-0.9 0.4-1.9 0.2-2.5-0.5-0.7-0.9-0.6-2.2 0.2-2.9 0 0 2.1-1.9 3.2-4.7-0.9 1.1-2.5 2.7-4.9 3.4-2.6 0.9-5.5 0.5-8.5-1-3.1-1.6-5.4-3.3-7.2-4.7-3.3-2.5-4.7-3.4-7.4-2.8q-0.6 0.1-1.2-0.2c-0.7-0.2-1.2-0.9-1.3-1.6 0-0.7 0.2-1.4 0.8-1.8 1.9-1.4 1.8-2.8 1.5-6.6-0.2-2.1-0.5-4.7-0.1-7.9 0.2-2.9 1.4-5.1 3.4-6.7 1.7-1.3 3.8-1.8 5.5-1.9-1.6-0.6-3.1-0.9-4.2-1.1-1.1 0.6-3.9 1.8-7.1 1.1-2.7-0.5-5-2.3-6.9-5.2-1.9-2.9-3-5.5-3.9-7.6-1.6-3.8-2.4-5.3-5-6.1q-0.6-0.2-1-0.7c-0.4-0.6-0.5-1.4-0.2-2.1 0.3-0.6 0.8-1.1 1.5-1.2 2.4-0.3 3-1.5 4.6-4.9 0.9-2 2-4.4 3.9-7 1.1-1.5 2.4-2.7 3.9-3.4-0.6-0.1-1-0.1-1-0.1-1-0.1-1.8-1-1.8-2 0-1 0.8-1.9 1.8-2.1q0 0 0.5-0.1-1.9-1-3.4-3.1c-1.9-2.6-3-5-3.8-6.9-1.6-3.5-2.3-4.7-4.6-5-0.7-0.1-1.3-0.5-1.6-1.2-0.3-0.6-0.2-1.4 0.3-2 0.2-0.3 0.6-0.6 1-0.8 2.6-0.8 3.4-2.3 5-6.1 0.9-2 2.1-4.6 4-7.6 4.4-6.9 10.5-5.5 12.8-4.6 0.9 0 2.4-0.2 4-0.6-1.3-0.3-2.8-0.8-4.2-1.8-1.9-1.6-3.1-3.8-3.4-6.7-0.3-3.2 0-5.8 0.2-8 0.4-3.7 0.4-5.1-1.5-6.5-0.5-0.4-0.8-1.1-0.7-1.8 0-0.7 0.5-1.3 1.1-1.6 0.4-0.2 0.9-0.3 1.4-0.2 2.6 0.6 4.1-0.3 7.4-2.8 1.8-1.3 4.1-3 7.2-4.6 3-1.6 5.9-1.9 8.5-1.1 2.7 0.9 4.5 2.9 5.3 4.1-0.9-3.6-3.5-5.9-3.6-5.9-0.8-0.7-0.9-2-0.2-2.8 0.6-0.7 1.7-1 2.5-0.6 0 0 3.5 1.7 7.7 1.4-3.5-2.4-4.9-6.3-3.5-10.6 1-3.1 2.3-5.4 3.3-7.3 1.8-3.3 2.3-4.5 1.2-6.6-0.4-0.6-0.4-1.3 0-1.9 0.3-0.7 1-1 1.7-1.1 0.3 0 0.9 0.2 1.3 0.4 2.2 1.6 3.9 1.3 7.8 0.3 2.3-0.5 5-1.2 8.5-1.4 3.4-0.3 6.2 0.5 8.3 2.3q0.8 0.7 1.4 1.5c-0.2-1.2-0.5-2-0.5-2.1-0.4-1 0.1-2.1 1-2.5 0.9-0.4 2-0.2 2.5 0.6 0.2 0.2 3.3 4.2 8.9 5-1.2-1.3-2.8-3.5-3-6.3-0.2-2.5 0.6-4.9 2.6-7 2.2-2.4 4.3-4 6-5.3 3-2.2 4-3.1 3.8-5.5 0-0.7 0.3-1.4 0.9-1.8 0.5-0.4 1.3-0.5 1.9-0.2 0.4 0.2 0.8 0.5 1 0.9 1.4 2.4 3.1 2.8 7.1 3.6 2.2 0.4 5 0.9 8.3 2.2 3.2 1.1 5.4 3 6.5 5.6 0.8 1.7 0.9 3.4 0.8 4.8 4.4-3 5.1-7.6 5.1-7.7 0.1-1 1-1.7 2-1.7 1 0 1.9 0.7 2 1.7 0.1 0.2 0.7 4.1 4.1 6.9 0-1.2 0.2-2.6 0.9-4 1.1-2.5 3.3-4.4 6.5-5.6 3.3-1.2 6.1-1.7 8.3-2.1 4-0.8 5.7-1.2 7.1-3.6 0.2-0.4 0.5-0.7 0.9-0.8 0.7-0.3 1.5-0.2 2 0.2 0.6 0.4 1 1.1 0.9 1.8-0.2 2.3 0.8 3.2 3.8 5.5 1.7 1.3 3.8 2.9 6 5.2 2.8 3.2 3.3 6.9 1.6 10.5 5.2-1.1 8-4.8 8.1-4.9 0.5-0.7 1.6-1 2.4-0.6 1 0.5 1.5 1.6 1.1 2.6-0.1 0.1-1 2.6-0.5 5.6 0.4-1.5 1.3-3.7 3.2-5.3 2.2-1.9 5-2.6 8.4-2.4 3.4 0.3 6.2 1 8.4 1.5 4 1 5.7 1.3 7.9-0.3 0.3-0.2 0.8-0.3 1.2-0.3 0.7 0 1.4 0.4 1.7 1 0.4 0.6 0.4 1.4 0.1 2-1.2 2-0.7 3.3 1.1 6.6 1 1.9 2.3 4.2 3.2 7.3 0.9 2.7 0.7 5.2-0.5 7.4-0.9 1.6-2.3 2.8-3.6 3.5 3.7 0 6.5-1.4 6.5-1.4 0.8-0.4 1.8-0.2 2.4 0.5 0.7 0.9 0.7 2.2-0.2 2.9 0 0-1.1 1-2.2 2.7l0.1 0.1c3.2-2.2 7.1-2.3 11.1-0.2 3.1 1.6 5.4 3.3 7.2 4.7 3.3 2.4 4.7 3.4 7.4 2.8q0.6-0.1 1.2 0.1c0.7 0.3 1.2 0.9 1.3 1.6 0 0.7-0.2 1.5-0.8 1.9-1.9 1.4-1.8 2.8-1.5 6.5 0.2 2.1 0.5 4.8 0.2 8-0.4 4-2.6 6.9-6.2 8l0.3 0.9c2.4 0.6 4.4 0.5 4.4 0.5 1 0 1.9 0.7 2.1 1.6q0 0.2 0 0.4c2.6 0.1 5.9 1.2 8.6 5.5 1.9 2.9 3 5.5 3.9 7.6 1.6 3.7 2.4 5.3 5 6.1q0.6 0.2 1 0.7c0.4 0.6 0.5 1.4 0.2 2-0.3 0.7-0.8 1.2-1.5 1.3-2.4 0.3-3 1.5-4.6 4.9-0.9 1.9-2 4.3-3.9 6.9q-1.2 1.7-2.7 2.7c0.4 0.4 0.7 1 0.7 1.6-0.1 1-0.8 1.8-1.8 2 0 0-0.9 0.1-2.1 0.5 2.3 0.4 4.3 1.8 5.9 4 1.9 2.7 3 5.1 3.8 7 1.6 3.5 2.3 4.7 4.6 5 0.7 0 1.3 0.5 1.6 1.2 0.3 0.6 0.2 1.4-0.3 1.9-0.2 0.4-0.6 0.7-1 0.8-2.6 0.8-3.4 2.4-5 6.1-0.9 2.1-2.1 4.7-4 7.6-1.8 2.9-4.1 4.7-6.9 5.2q-0.9 0.2-1.8 0.2c-0.3 0.8-1.1 1.4-2 1.4 0 0-3.5-0.2-7 1.5 1.6 0.2 3.4 0.7 5 1.9 2 1.5 3.2 3.8 3.4 6.7 0.3 3.2 0.1 5.8-0.1 7.9-0.4 3.8-0.4 5.1 1.5 6.6 0.5 0.4 0.8 1.1 0.7 1.8 0 0.7-0.5 1.3-1.1 1.6-0.4 0.2-1 0.2-1.4 0.2-2.6-0.7-4.1 0.3-7.4 2.7-1.8 1.4-4.1 3.1-7.2 4.7-4.7 2.4-8.3 1.5-10.6 0.1 0.8 1.1 1.6 1.8 1.6 1.8 0.8 0.7 1 2 0.3 2.8-0.6 0.7-1.7 1-2.5 0.6-0.1 0-3.4-1.7-7.6-1.4 1.6 0.8 3.6 2.1 4.8 4.3 1.1 2.1 1.2 4.6 0.4 7.3-1 3-2.3 5.4-3.3 7.2-1.8 3.4-2.3 4.6-1.2 6.6 0.4 0.7 0.4 1.4 0 2-0.5 1-2.1 1.3-3 0.7-2.2-1.6-3.9-1.3-7.9-0.3-2.2 0.5-4.9 1.2-8.4 1.4-3.4 0.3-6.2-0.5-8.3-2.4-2-1.7-2.9-4-3.2-5.5-0.4 2.9 0.5 5.1 0.5 5.2 0.4 1-0.1 2.1-1.1 2.5-0.8 0.4-1.9 0.2-2.5-0.6 0 0-3-3.9-8.5-4.9 1.9 3.2 2.3 7.2-1.2 11.1-2.2 2.4-4.3 4-6 5.2-3 2.3-4 3.2-3.8 5.5 0 0.7-0.3 1.4-0.8 1.8q-0.6 0.4-1.2 0.4zm-20.5-17.7c-0.3 1.8-0.2 5.3 4.7 7.2 3 1.1 5.5 1.6 7.7 2 2.6 0.5 4.9 0.9 6.9 2.3 1-1.9 2.8-3.3 4.6-4.7 1.7-1.2 3.5-2.6 5.4-4.7 3-3.3 1.3-6.3-0.7-8.3-0.5-0.5-0.7-1.2-0.6-1.8 0.1-0.7 0.6-1.3 1.3-1.5l2.2-0.9q0.4-0.1 0.8-0.1c3.7 0.3 6.6 1.5 8.7 2.9 0.1-2.2 0.7-4.9 2.5-7.6 0.3-0.5 1-0.9 1.7-0.8 0.7 0 1.3 0.4 1.7 1l2.1 3.7c0.3 0.6 0.3 1.4 0 2 0.4 1.8 1.8 5.1 7.3 4.7 3.2-0.2 5.6-0.8 7.8-1.3 2.6-0.6 4.9-1.2 7.2-0.8 0.1-2.2 1.2-4.1 2.3-6.2 1-1.8 2.1-3.8 3-6.5 0.5-1.7 0.4-3.1-0.2-4.2-1.1-2.1-3.9-3-4.4-3.2-0.8-0.2-1.3-0.8-1.4-1.6l-0.5-2.6c-0.2-1.1 0.5-2 1.5-2.3 2.6-0.7 5-0.6 7.1-0.4-0.5-0.9-0.9-2-1.2-3.2-0.1-0.6 0-1.3 0.4-1.7 0.4-0.5 1-0.8 1.7-0.8l2.8 0.2c0.5 0 1.1 0.3 1.4 0.7 2.2 2.6 5 3 8.4 1.2 2.8-1.4 4.9-2.9 6.7-4.3 2.1-1.5 4-3 6.3-3.5-0.7-2-0.5-4.3-0.3-6.6 0.2-2 0.4-4.3 0.2-7.2-0.2-1.7-0.8-3-1.9-3.8-1.4-1.1-3.4-1.3-4.5-1.2l-0.1 0.1c-0.3 0.6-0.9 0.9-1.5 1-0.7 0-1.3-0.2-1.7-0.7l-1.5-1.6c-0.7-0.8-0.7-2 0-2.7 2.3-2.6 5.2-3.9 7.7-4.7-0.2-0.4-0.4-0.8-0.3-1.3 0-0.7 0.5-1.3 1.1-1.6l1.7-0.8c0.7-0.3 1.4-0.2 1.9 0.2q0.5 0.3 0.7 0.8c1.7 0.7 5.3 1.6 8.3-3 1.7-2.7 2.7-5 3.6-7.1 1-2.4 2-4.6 3.7-6.2-1.6-1.4-2.5-3.4-3.5-5.5-0.9-1.9-1.8-4-3.4-6.3-1.7-2.3-3.6-3-6.2-2.2-0.6 0.2-1.2 0.2-1.7-0.2-0.6-0.4-0.9-1-0.9-1.6l-0.1-2.7c0-0.8 0.4-1.4 1.1-1.8q0.3-0.2 0.6-0.4-0.4-0.1-0.7-0.3c-0.7-0.4-1.1-1-1.1-1.8v-0.5c0-0.7 0.3-1.3 0.9-1.7 0.5-0.4 1.2-0.5 1.8-0.2 2.6 0.9 4.6 0.3 6.3-2.1 1.6-2.3 2.6-4.4 3.5-6.3 0.9-2.1 1.9-4.1 3.5-5.5-1.7-1.6-2.7-3.8-3.7-6.2-0.9-2.1-1.9-4.4-3.6-7.1-1.8-2.9-4.1-4-6.8-3.4-0.5 0.1-1 0-1.5-0.3l-2.3-0.7c-0.8-0.2-1.4-0.9-1.4-1.7q0 0 0 0-1-0.2-2-0.5c-0.6-0.2-1.1-0.7-1.3-1.4l-1.2-3.9c-0.1-0.5 0-1.2 0.3-1.7 0.3-0.4 0.8-0.8 1.4-0.8 3.1-0.4 4.7-2 5-5 0.3-2.8 0-5.1-0.2-7.2-0.2-2.3-0.4-4.5 0.4-6.6-2.4-0.5-4.3-2-6.4-3.5-1.8-1.4-3.8-2.9-6.6-4.3-3.3-1.7-6-1.4-8.1 0.9-0.4 0.4-1 0.7-1.6 0.6-0.6 0-1.1-0.3-1.5-0.8l-1.5-2q-0.5-0.3-0.8-0.7c-0.4-0.6-0.5-1.4-0.1-2q0-0.2 0.1-0.3c-1.9 0.2-4.1 0.2-6.4-0.3-0.8-0.1-1.4-0.7-1.6-1.4l-0.5-2.2c-0.2-0.9 0.2-1.7 0.9-2.2 0.4-0.2 0.8-0.3 1.2-0.3 1-0.3 3.1-1.2 4.1-3 0.7-1.2 0.8-2.6 0.2-4.3-0.8-2.7-1.9-4.7-2.9-6.5-1.1-2.1-2.2-4-2.3-6.2-2.3 0.4-4.6-0.2-7.2-0.8-2.1-0.5-4.6-1.1-7.8-1.4-5.6-0.4-7 3.1-7.3 4.8 0.2 0.6 0.2 1.4-0.3 2l-2.1 3q-0.6 0.8-1.7 0.8c-0.6 0-1.2-0.3-1.6-0.9-1.7-2.5-2.2-5.2-2.3-7.4-2.1 1.4-5.1 2.7-8.8 2.9q-0.5 0-1-0.2l-1.6-0.9c-0.5-0.3-0.9-0.8-1-1.4-0.1-0.6 0.1-1.2 0.5-1.7 3.6-4 1.1-6.9 0.3-7.8-1.9-2.1-3.8-3.5-5.4-4.7-1.9-1.4-3.7-2.8-4.6-4.7-2 1.3-4.4 1.8-6.9 2.3-2.2 0.4-4.7 0.9-7.7 2-5 1.8-5.1 5.3-4.8 7.1l2.5 0.5c0.9 0.2 1.6 1.1 1.6 2.1-0.1 0.9-0.8 1.7-1.7 1.9l-2.7 0.4q-0.5 0.1-1-0.1c-4.6-1.6-7.3-4.6-8.8-7.2-1.8 3.1-5 6.5-11.1 7.8l-0.4 0.1c-0.6 0.2-1.3 0-1.8-0.4l-1.3-1.1c-0.5-0.5-0.8-1.3-0.6-2 0.2-0.8 0.8-1.3 1.6-1.5l2.5-0.5c0.3-1.8 0.2-5.3-4.7-7.2-3-1.1-5.5-1.6-7.7-2-2.6-0.5-4.9-1-6.9-2.3-1 1.9-2.8 3.2-4.6 4.6-1.7 1.3-3.5 2.7-5.4 4.8-1.2 1.3-1.8 2.6-1.6 3.9 0.1 1.8 1.4 3.4 2.2 4.2 0.7-0.2 1.5 0.2 1.9 0.9 0.5 0.6 0.5 1.5 0 2.2l-1.8 2.7c-0.4 0.5-1 0.8-1.7 0.8-4-0.1-7.2-1.4-9.4-2.9-0.1 1.4-0.3 3.1-1 4.7-0.3 0.8-1 1.3-1.9 1.3h-2c-0.8-0.1-1.6-0.6-1.8-1.4-0.3-0.8-0.1-1.6 0.5-2.1-0.5-1.8-2-4.9-7.3-4.5-3.2 0.2-5.6 0.8-7.8 1.3-2.6 0.6-4.9 1.2-7.2 0.8-0.1 2.1-1.2 4.1-2.3 6.1-1 1.9-2.1 3.9-3 6.6-0.3 1.2-1.5 4.7 3.4 6.9 0.9 0.4 1.4 1.4 1.2 2.3l-0.5 2.3c-0.2 0.8-0.8 1.4-1.6 1.6-2.3 0.5-4.5 0.4-6.4 0.2 0.8 1.7 1.5 3.8 1.5 6.2 0 0.6-0.2 1.1-0.7 1.5-0.4 0.4-0.9 0.6-1.5 0.5l-3.5-0.4c-0.7 0-1.3-0.4-1.6-1-0.4-0.9-3.1-5.3-9-2.2-2.8 1.4-4.9 2.9-6.7 4.2-2.1 1.6-4 3-6.3 3.6 0.7 2 0.5 4.2 0.3 6.5-0.2 2.1-0.4 4.4-0.2 7.2 0.2 1.8 0.8 3.1 1.9 3.9 2.1 1.6 5.4 1.1 5.4 1.1 0.6-0.1 1.2 0.1 1.6 0.5 0.5 0.4 0.7 1 0.7 1.6l-0.1 2.4c0 0.7-0.4 1.3-1 1.7-1.7 0.8-3.3 1.4-4.8 1.8q0 0 0 0.1c0 0.8-0.6 1.5-1.3 1.7l-1.6 0.6c-0.6 0.2-1.3 0.1-1.8-0.2-0.6-0.4-0.9-1-0.9-1.7v-0.2c-2.2-1-5.3-1.1-8 3-1.7 2.7-2.7 5-3.6 7-1.1 2.4-2 4.6-3.7 6.3 1.6 1.4 2.5 3.4 3.5 5.5 0.8 1.9 1.8 4 3.4 6.3 2 2.8 4.6 3.2 7.8 1.4 0.6-0.4 1.4-0.4 2-0.1 0.6 0.4 1 1 1 1.7v0.2c0.1 0.6-0.2 1.2-0.6 1.6-1.3 1.1-2.6 2-3.9 2.7 1.4 0.7 2.8 1.6 4.2 2.9 0.4 0.4 0.6 1.1 0.5 1.7l-0.1 0.7c-0.1 0.7-0.5 1.2-1.1 1.5-0.6 0.3-1.3 0.2-1.9-0.1-3.2-2-5.9-1.5-7.9 1.3-1.6 2.2-2.6 4.4-3.5 6.2-0.9 2.2-1.9 4.2-3.5 5.6 1.7 1.6 2.7 3.8 3.7 6.2 0.9 2.1 1.9 4.4 3.6 7.1q1.9 2.9 4.3 3.4c1.5 0.3 2.8 0 3.7-0.3v-2.4c0-0.7 0.3-1.3 0.8-1.7 0.6-0.4 1.3-0.4 1.9-0.2l3 1.1c0.7 0.3 1.2 0.9 1.3 1.7 0.1 0.5-0.1 1-0.4 1.4 2 0.6 4.1 1.6 6.1 3.2 0.4 0.3 0.6 0.7 0.7 1.1l1.7 8c0.2 0.9-0.3 1.9-1.2 2.3-0.9 0.3-2-0.1-2.5-0.9l-3.2-5.4c-1.1-0.1-3.1 0-4.5 1.1-1.1 0.9-1.7 2.1-1.9 3.9-0.2 2.8 0 5.1 0.2 7.2 0.2 2.3 0.4 4.5-0.4 6.5 2.4 0.6 4.3 2 6.4 3.6 1.8 1.3 3.8 2.9 6.6 4.3q3.1 1.6 5.5 0.8c1.4-0.4 2.4-1.4 3-2.1l-0.5-0.9c-0.5-0.9-0.4-2 0.4-2.6 0.8-0.6 1.9-0.6 2.6 0.1l4.3 3.8c0.5 0.5 0.8 1.2 0.6 2-0.3 1-0.7 2-1.1 2.9 1.4-0.2 3-0.3 4.8 0 0.4 0 0.9 0.2 1.2 0.6l2.8 2.9c0.4 0.5 0.6 1.2 0.5 1.8-0.2 0.7-0.7 1.2-1.3 1.4-2.6 1-5.5 3-4.1 7.2 0.8 2.7 1.9 4.8 2.9 6.6 1.1 2 2.2 4 2.3 6.2 2.3-0.4 4.6 0.1 7.2 0.8 2.2 0.5 4.6 1.1 7.8 1.4 2.3 0.1 4.1-0.3 5.4-1.4 1.1-1 1.6-2.3 1.9-3.2l-0.3-0.2c-0.7-0.5-1-1.5-0.7-2.3 0.4-0.9 1.3-1.4 2.1-1.3l2.7 0.4c0.8 0.1 1.4 0.6 1.7 1.3 0.4 1.5 0.6 2.8 0.7 4.1 2.5-1.7 6.2-3.2 11-2.9 1 0.1 1.8 0.9 1.8 2v3.2c0 0.6-0.3 1.1-0.7 1.5q-0.5 0.4-1.1 0.4c-0.8 0.8-2.1 2.4-2.3 4.3-0.1 1.3 0.4 2.6 1.6 4 1.9 2.1 3.8 3.5 5.4 4.7 1.9 1.4 3.6 2.7 4.6 4.7 2-1.4 4.4-1.8 6.9-2.3 2.2-0.4 4.7-0.9 7.7-2q3.2-1.2 4.3-3.5c0.7-1.5 0.6-3.1 0.4-3.9q-0.3-0.3-0.5-0.7c-0.3-0.5-0.3-1.2 0-1.7l0.8-1.6c0.5-0.9 1.6-1.3 2.5-1 4.4 1.7 6.9 4.5 8.3 7 1.5-2.4 3.9-5.1 8-6.8 0.8-0.3 1.6-0.1 2.2 0.4l1.2 1.3c0.5 0.5 0.7 1.3 0.5 2-0.2 0.7-0.8 1.2-1.5 1.3z"/>
				</g>
				<g id="&lt;Group&gt;">
					<g id="&lt;Group&gt;">
						<path id="&lt;Compound Path&gt;" fill-rule="evenodd" class="s16" d="m657.7 697.4c-45.8-0.1-82.8-37.2-82.7-83 0.1-45.8 37.2-82.8 83-82.7 45.8 0.1 82.8 37.2 82.7 83-0.1 45.8-37.2 82.8-83 82.7zm77-82.7c0.1-42.5-34.2-76.9-76.7-77-42.5-0.1-76.9 34.2-77 76.7-0.1 42.5 34.2 76.9 76.7 77 42.5 0.1 76.9-34.2 77-76.7z"/>
					</g>
					<g id="&lt;Group&gt;">
						<path id="&lt;Path&gt;" class="s16" d="m623.1 541.8c-0.6 0-1.2-0.2-1.8-0.6-0.4-0.4-4.3-3.5-4.7-8.3-0.2-1.9 0.1-4.8 2.8-7.7 2.2-2.5 4.4-4.1 6.1-5.4 3-2.3 3.6-2.9 3.4-4.6-0.1-1.1 0.4-2.1 1.3-2.8 0.8-0.6 2-0.7 2.9-0.3 0.6 0.3 1.2 0.8 1.5 1.3 1.1 2 2.5 2.3 6.4 3.1 2.3 0.4 5.1 0.9 8.4 2.2 3.5 1.2 5.9 3.3 7.2 6.1 1.8 4.1 0.5 8 0.3 8.5-0.6 1.5-2.3 2.3-3.9 1.7-1.5-0.5-2.3-2.3-1.7-3.8 0.4-1.1 1.3-5-3.9-6.9-2.9-1.1-5.4-1.5-7.5-1.9-2.3-0.5-4.5-0.9-6.4-1.9-1.1 1.6-2.8 2.9-4.4 4.1-1.6 1.2-3.4 2.6-5.2 4.6-1 1.1-1.5 2.1-1.4 3.2 0.2 1.9 2 3.7 2.5 4 1.3 1.1 1.5 2.9 0.5 4.3-0.6 0.7-1.5 1.1-2.4 1.1z"/>
					</g>
					<g id="&lt;Group&gt;">
						<path id="&lt;Path&gt;" class="s16" d="m596.1 559.9q-0.4 0-0.8-0.1c-0.6-0.2-5.7-1.7-8-6-1.3-2.4-1.5-5.1-0.7-7.9 1-3.1 2.2-5.4 3.2-7.2 1.8-3.2 2-3.8 1-5.4-0.5-0.9-0.5-2.1 0-3 0.6-1 1.6-1.5 2.7-1.5 0.6 0 1.3 0.2 1.8 0.6 2 1.4 3.4 1.3 7.4 0.6 2.3-0.5 5.1-1 8.7-1q0.2 0 0.4 0c9.2 0 12.3 6.8 12.7 10.5 0.1 1.6-1.1 3.1-2.7 3.2-1.7 0.2-3.1-1-3.3-2.6-0.1-0.9-1-5.3-7-5.1-3.1 0-5.6 0.5-7.7 0.9-2.2 0.4-4.4 0.8-6.5 0.5-0.4 1.9-1.3 3.5-2.2 5.2-0.9 1.6-2 3.5-2.7 6-0.4 1.3-0.4 2.3 0.1 3.3 1.2 2.1 4.4 3.1 4.4 3.1 1.6 0.4 2.5 2.1 2.1 3.7-0.4 1.3-1.6 2.2-2.9 2.2z"/>
					</g>
					<g id="&lt;Group&gt;">
						<path id="&lt;Path&gt;" class="s16" d="m579.7 585.6c-4.2 0-9.4-1.6-11.5-7.5-1.2-3-1.5-5.6-1.8-7.6-0.5-3.4-0.6-4.2-2.6-5.2-1.1-0.4-1.7-1.5-1.7-2.6-0.1-1.1 0.6-2.2 1.6-2.7 0.5-0.3 1.1-0.5 1.7-0.4 2.6 0.3 3.7-0.5 6.6-3.1 1.6-1.5 3.7-3.3 6.7-5.1 7.7-4.8 14.5-0.7 17 2.1 1.1 1.3 0.9 3.2-0.3 4.3-1.2 1.1-3.1 1-4.2-0.3-0.4-0.4-4.2-4.2-9.4-1-2.5 1.5-4.3 3.1-5.9 4.5-1.5 1.4-3 2.7-4.8 3.5 0.8 1.7 1 3.4 1.3 5.2 0.2 1.8 0.5 3.9 1.4 6.3 1.8 5 7.9 3.5 8.2 3.4 1.6-0.4 3.2 0.5 3.6 2.2 0.4 1.6-0.6 3.2-2.2 3.6-1 0.3-2.3 0.4-3.7 0.4z"/>
					</g>
					<g id="&lt;Group&gt;">
						<path id="&lt;Path&gt;" class="s16" d="m572.2 617.7c-3.5 0-7.5-1.3-10.1-5.5-1.8-2.8-2.7-5.2-3.4-7.1-1.2-3.3-1.6-4.1-3.8-4.7-1.1-0.3-1.9-1.2-2.2-2.3-0.2-1.1 0.2-2.2 1-2.9 0.5-0.4 1.2-0.7 1.8-0.8 2.6-0.2 3.4-1.1 5.6-4.1 1.3-1.7 3-3.9 5.5-6.2 6.6-6 14.1-3.2 17.1-0.9 1.3 1 1.6 2.9 0.6 4.2-1 1.3-2.9 1.6-4.2 0.6-0.5-0.4-5-3.5-9.4 0.5-2.2 2-3.6 3.8-4.8 5.4-1.2 1.6-2.3 3.1-3.9 4.3 1.1 1.5 1.7 3.1 2.3 4.8 0.7 1.8 1.4 3.8 2.9 6 2.9 4.6 8.6 2.1 8.8 2 1.5-0.7 3.3-0.1 4 1.4 0.7 1.5 0 3.3-1.5 4-1.5 0.7-3.8 1.4-6.3 1.3z"/>
					</g>
					<g id="&lt;Group&gt;">
						<path id="&lt;Path&gt;" class="s16" d="m688.9 541.9c-0.9 0-1.7-0.4-2.3-1.1-1-1.3-0.8-3.2 0.5-4.2 0.6-0.5 2.3-2.2 2.5-4.1q0.1-1.5-1.3-3.2c-1.9-2-3.7-3.4-5.3-4.6-1.6-1.2-3.2-2.5-4.3-4.1-2 1-4.1 1.4-6.4 1.8-2.2 0.4-4.6 0.9-7.5 1.9-5.2 1.9-4.3 5.8-3.9 6.9 0.5 1.6-0.3 3.3-1.9 3.8-1.5 0.6-3.2-0.2-3.8-1.7-0.1-0.5-1.5-4.4 0.4-8.5 1.3-2.8 3.7-4.8 7.2-6.1 3.3-1.2 6.1-1.7 8.4-2.2 3.9-0.7 5.3-1 6.4-3 0.3-0.6 0.8-1 1.4-1.3 1-0.4 2.1-0.3 3 0.4 0.9 0.6 1.4 1.6 1.3 2.7-0.2 1.7 0.4 2.3 3.4 4.6 1.7 1.3 3.8 3 6 5.4 2.7 3 3 5.9 2.9 7.8-0.5 4.7-4.4 7.9-4.8 8.2-0.6 0.4-1.2 0.6-1.9 0.6z"/>
					</g>
					<g id="&lt;Group&gt;">
						<path id="&lt;Path&gt;" class="s16" d="m715.9 560.1c-1.3 0-2.5-0.9-2.8-2.2-0.5-1.6 0.4-3.2 2-3.7 0.9-0.2 3.5-1.3 4.4-3.1q0.8-1.3 0.2-3.2c-0.7-2.5-1.8-4.4-2.7-6.1-0.9-1.6-1.8-3.3-2.1-5.1-2.2 0.2-4.3-0.2-6.5-0.6-2.2-0.4-4.7-0.9-7.8-1-6-0.1-6.9 4.3-7 5.1-0.2 1.7-1.7 2.9-3.3 2.7-1.7-0.2-2.8-1.7-2.7-3.3 0.4-3.7 3.7-10.7 13.1-10.5 3.6 0.1 6.5 0.7 8.8 1.1 3.9 0.7 5.3 0.9 7.4-0.6 0.5-0.3 1-0.5 1.6-0.6 1.1 0 2.2 0.6 2.8 1.5 0.5 1 0.6 2.2 0 3.1-1 1.6-0.8 2.2 1 5.3 1 1.9 2.2 4.2 3.2 7.3 0.8 2.8 0.6 5.5-0.7 7.8-2.4 4.3-7.5 5.8-8.1 6q-0.4 0.1-0.8 0.1z"/>
					</g>
					<g id="&lt;Group&gt;">
						<path id="&lt;Path&gt;" class="s16" d="m735.3 586c-1.4 0-2.7-0.2-3.7-0.5-1.6-0.4-2.6-2.1-2.2-3.7 0.4-1.6 2.1-2.5 3.7-2.1 0.6 0.2 6.4 1.4 8.2-3.3 0.9-2.5 1.2-4.6 1.4-6.4 0.3-1.7 0.5-3.5 1.3-5.1-1.8-0.9-3.3-2.2-4.8-3.6-1.6-1.4-3.3-2.9-5.9-4.5-5.2-3.2-9 0.6-9.4 1-1.1 1.2-3 1.3-4.2 0.2-1.2-1.1-1.3-3-0.2-4.2 2.5-2.8 9.3-6.9 17-2.1 3 1.8 5 3.7 6.7 5.2 2.8 2.5 3.8 3.3 6.5 3.1 0.6-0.1 1.1 0 1.7 0.3 1 0.5 1.6 1.6 1.6 2.7 0 1.2-0.6 2.2-1.7 2.7-2 1-2.2 1.8-2.6 5.2-0.3 2-0.7 4.5-1.8 7.6-2.2 5.9-7.4 7.5-11.6 7.5z"/>
					</g>
					<g id="&lt;Group&gt;">
						<path id="&lt;Path&gt;" class="s16" d="m742.7 618.1c-2.5 0-4.8-0.7-6.3-1.4-1.5-0.7-2.2-2.5-1.5-4 0.7-1.5 2.5-2.1 4-1.4 0.6 0.3 6 2.5 8.9-1.9 1.4-2.3 2.1-4.3 2.8-6 0.6-1.7 1.2-3.3 2.3-4.8-1.5-1.2-2.7-2.7-3.9-4.3-1.2-1.6-2.5-3.5-4.7-5.4-4.3-4.1-8.9-1-9.4-0.6-1.3 0.9-3.2 0.7-4.2-0.7-1-1.3-0.7-3.1 0.6-4.1 3.1-2.3 10.6-5.1 17.1 1 2.5 2.3 4.2 4.5 5.5 6.2 2.2 3 3 3.9 5.6 4.2 0.6 0 1.2 0.2 1.6 0.6 0.9 0.7 1.3 1.9 1.1 3-0.2 1.1-1 2-2.1 2.3-2.3 0.6-2.7 1.4-3.9 4.7-0.7 1.9-1.6 4.3-3.4 7.1-2.7 4.2-6.6 5.5-10.1 5.5z"/>
					</g>
					<g id="&lt;Group&gt;">
						<path id="&lt;Path&gt;" class="s16" d="m676.1 520.1q-0.3 0-0.6-0.1c-1.7-0.4-2.7-2-2.3-3.6 0.3-1.2 0.6-5.3-6-6.8-5.6-1.2-8.9-4.1-10.9-6.9-2 2.8-5.4 5.7-10.9 6.9q-3.9 0.9-5.4 3.1c-1 1.7-0.7 3.6-0.7 3.6 0.4 1.6-0.6 3.2-2.2 3.6-1.7 0.4-3.3-0.6-3.6-2.2-0.1-0.5-0.9-4.4 1.5-8.2 1.8-2.9 4.9-4.8 9.1-5.8 8.1-1.7 9.2-8.7 9.2-8.8 0.2-1.5 1.5-2.6 3-2.6 1.5 0 2.8 1.1 3 2.6 0.1 0.3 1.2 7.1 9.2 8.9 4.2 0.9 7.3 2.9 9.1 5.7 2.4 3.9 1.6 7.8 1.5 8.2-0.4 1.4-1.6 2.4-3 2.4z"/>
					</g>
					<g id="&lt;Group&gt;">
						<path id="&lt;Path&gt;" class="s16" d="m595.8 538.3c-0.8 0-1.6-0.4-2.2-1.1-0.3-0.3-3.1-3.7-2.7-8.3 0.3-3.2 2.2-6.1 5.5-8.6 6.1-4.7 3.6-11.2 3.6-11.3-0.6-1.5 0.1-3.2 1.5-3.8 1.3-0.6 2.9-0.2 3.7 0.9 0.2 0.2 4.8 6.1 13 4.5 10.3-2.1 15 4.3 16.1 8 0.5 1.6-0.5 3.2-2 3.7-1.6 0.5-3.3-0.4-3.8-2-0.2-0.9-2.1-5.3-9.1-3.9-5.5 1.1-9.9-0.1-13.1-1.8-0.5 3.5-2.2 7.4-6.3 10.5q-2.9 2.1-3.1 4.4c-0.2 2 1.2 3.8 1.2 3.8 1.1 1.2 1 3.1-0.3 4.2-0.5 0.5-1.3 0.8-2 0.8z"/>
					</g>
					<g id="&lt;Group&gt;">
						<path id="&lt;Path&gt;" class="s16" d="m570.3 565.8q-0.5 0-1.1-0.3c-0.5-0.2-4.8-2.1-6.6-6.6-1.1-3-0.8-6.2 0.8-9.6 3.1-6.5-2.5-11.4-2.6-11.5-0.6-0.5-1-1.2-1-2-0.1-0.8 0.1-1.6 0.7-2.2 0.9-1 2.4-1.4 3.7-0.8 0.2 0.2 7.4 3.7 13.9-1.1 8.1-6 15.4-2.3 18.1 0.5 1.2 1.2 1.2 3.1 0 4.2-1.1 1.2-3.1 1.2-4.2 0-0.4-0.4-4.6-4.1-10.4 0.1-4.2 3.1-8.6 3.8-12.2 3.7 1.2 3.3 1.5 7.3-0.6 11.7q-1.3 2.8-0.6 4.8c0.9 2.2 3.3 3.3 3.3 3.3 1.5 0.7 2.2 2.4 1.6 3.9-0.5 1.2-1.6 1.9-2.8 1.9z"/>
					</g>
					<g id="&lt;Group&gt;">
						<path id="&lt;Path&gt;" class="s16" d="m558.8 601.1c-4.2 0-12-2.5-12.7-12-0.4-7.2-8.1-9.5-8.2-9.5-1.5-0.4-2.5-2-2.1-3.5 0.3-1.5 1.6-2.5 3.1-2.5 0.3 0.1 8.4 0.3 11.7-6.3 4.4-8.7 12.8-8.4 16.6-7 1.6 0.6 2.4 2.3 1.8 3.9-0.6 1.5-2.3 2.3-3.8 1.8-1-0.4-6.3-1.8-9.2 4-2.2 4.4-5.7 6.8-9 8.1 2.6 2.3 4.8 5.7 5.1 10.6 0.4 6.3 6.2 6.4 6.8 6.4 1.6 0 3 1.3 3.1 2.9 0 1.7-1.3 3.1-3 3.1q-0.1 0-0.2 0z"/>
					</g>
					<g id="&lt;Group&gt;">
						<path id="&lt;Path&gt;" class="s16" d="m716.9 535.7c-0.7 0-1.4-0.2-2-0.7-1.2-1.1-1.3-3-0.2-4.2 0-0.1 1.4-1.8 1.2-3.9q-0.2-2.2-3-4.4c-4.1-3.1-5.9-7-6.4-10.5-3.1 1.7-7.5 3-13 1.8-7.1-1.4-8.9 2.9-9.2 3.8-0.5 1.6-2.2 2.5-3.8 2-1.5-0.5-2.4-2.2-1.9-3.7 1.1-3.7 5.9-10.1 16.1-8 8.3 1.7 12.9-4.3 13-4.4 0.8-1.1 2.3-1.5 3.6-0.9 1.5 0.7 2.2 2.4 1.6 3.9-0.2 0.6-2.3 6.7 3.6 11.3 3.3 2.4 5.1 5.4 5.4 8.6 0.4 4.6-2.4 8-2.7 8.3-0.6 0.7-1.4 1-2.3 1z"/>
					</g>
					<g id="&lt;Group&gt;">
						<path id="&lt;Path&gt;" class="s16" d="m742.3 563.3c-1.2 0-2.3-0.7-2.8-1.8-0.6-1.6 0.1-3.3 1.7-3.9 0.1-0.1 2.5-1.2 3.3-3.3q0.7-2-0.6-4.8c-2-4.4-1.7-8.5-0.5-11.8-3.6 0.2-8-0.5-12.3-3.7-5.9-4.4-10.1-0.3-10.3-0.1-1.2 1.2-3.1 1.2-4.2 0-1.2-1.2-1.2-3.1 0-4.3 2.7-2.7 10.1-6.4 18.1-0.4 6.5 4.8 13.7 1.4 14 1.2 1.2-0.6 2.7-0.3 3.6 0.8 1.1 1.2 0.9 3.2-0.3 4.3-0.2 0.1-5.7 5-2.6 11.4 1.6 3.4 1.8 6.6 0.7 9.6-1.8 4.5-6.1 6.4-6.6 6.6q-0.6 0.2-1.2 0.2z"/>
					</g>
					<g id="&lt;Group&gt;">
						<path id="&lt;Path&gt;" class="s16" d="m753.7 598.7q-0.1 0-0.2 0c-1.7 0-3-1.4-2.9-3.1 0-1.6 1.3-2.9 3-2.9q0 0 0 0c1.2 0 6.4-0.3 6.8-6.4 0.4-4.8 2.7-8.2 5.2-10.5-3.3-1.3-6.7-3.8-9-8.2-3-6.1-8.9-4.1-9.1-4-1.6 0.5-3.3-0.3-3.8-1.8-0.6-1.6 0.2-3.3 1.8-3.9 3.8-1.4 12.2-1.7 16.5 7 3.4 6.7 11.4 6.5 11.8 6.4 1.5 0 2.7 1 3 2.4 0.4 1.6-0.6 3.2-2.1 3.6-0.3 0.1-7.8 2.3-8.3 9.4-0.6 9.6-8.4 12-12.7 12z"/>
					</g>
					<g id="&lt;Group&gt;">
						<path id="&lt;Path&gt;" class="s16" d="m631.6 716.3c-0.7 0-1.3-0.1-1.8-0.5-0.9-0.6-1.4-1.7-1.3-2.7 0.2-1.8-0.4-2.4-3.4-4.7-1.7-1.3-3.8-2.9-6-5.4-2.7-3-3-5.9-2.9-7.8 0.5-4.7 4.4-7.8 4.8-8.2 1.3-1 3.2-0.7 4.2 0.6 1 1.3 0.8 3.1-0.5 4.2-0.6 0.5-2.3 2.2-2.5 4q-0.1 1.6 1.3 3.2c1.8 2.1 3.7 3.4 5.3 4.7 1.6 1.2 3.2 2.4 4.3 4.1 2-1.1 4.1-1.5 6.4-1.9 2.2-0.4 4.6-0.8 7.5-1.9 5.2-1.9 4.3-5.7 3.9-6.9-0.5-1.5 0.3-3.2 1.9-3.8 1.5-0.5 3.2 0.2 3.8 1.8 0.1 0.4 1.5 4.4-0.4 8.5-1.3 2.7-3.7 4.8-7.2 6-3.3 1.3-6.1 1.8-8.4 2.2-3.9 0.7-5.3 1.1-6.4 3-0.3 0.6-0.8 1-1.4 1.3q-0.6 0.2-1.2 0.2z"/>
					</g>
					<g id="&lt;Group&gt;">
						<path id="&lt;Path&gt;" class="s16" d="m593.2 699.3c-1.1 0-2.1-0.6-2.7-1.5-0.5-0.9-0.6-2.1 0-3.1 1-1.5 0.8-2.1-1-5.3-1-1.8-2.2-4.1-3.2-7.2-0.8-2.8-0.6-5.6 0.7-7.9 2.4-4.3 7.5-5.8 8.1-6 1.6-0.4 3.2 0.5 3.6 2.1 0.5 1.6-0.4 3.3-2 3.7-0.9 0.3-3.5 1.3-4.4 3.1q-0.8 1.4-0.2 3.3c0.7 2.4 1.8 4.3 2.7 6 0.9 1.7 1.8 3.3 2.1 5.2 2.2-0.2 4.3 0.2 6.5 0.6 2.2 0.4 4.7 0.8 7.8 0.9 6.2 0.1 6.9-4.5 7-5.1 0.2-1.6 1.6-2.8 3.3-2.6 1.6 0.1 2.8 1.6 2.7 3.2-0.4 3.7-3.6 10.5-12.7 10.5q-0.2 0-0.5 0c-3.6-0.1-6.4-0.6-8.7-1-3.9-0.8-5.4-0.9-7.4 0.5-0.5 0.4-1 0.6-1.6 0.6q-0.1 0-0.1 0z"/>
					</g>
					<g id="&lt;Group&gt;">
						<path id="&lt;Path&gt;" class="s16" d="m585.7 678.9c-2.3 0-4.7-0.7-7.3-2.2-3-1.9-5-3.7-6.7-5.2-2.8-2.6-3.9-3.4-6.5-3.1q-0.9 0.1-1.7-0.4c-1-0.5-1.6-1.6-1.6-2.7 0-1.2 0.6-2.2 1.7-2.7 2-0.9 2.2-1.8 2.6-5.1 0.3-2 0.7-4.6 1.8-7.6 3-8 11.3-8.1 15.3-7.1 1.6 0.5 2.6 2.1 2.2 3.7-0.4 1.6-2.1 2.6-3.7 2.2-0.6-0.2-6.4-1.5-8.2 3.3-0.9 2.4-1.2 4.5-1.4 6.3-0.3 1.8-0.5 3.5-1.3 5.2 1.8 0.8 3.3 2.2 4.8 3.5 1.6 1.4 3.3 3 5.9 4.6 5.2 3.2 8.9-0.6 9.4-1.1 1.1-1.2 3-1.3 4.2-0.1 1.2 1.1 1.3 2.9 0.2 4.2-1.7 1.8-5.2 4.3-9.7 4.3z"/>
					</g>
					<g id="&lt;Group&gt;">
						<path id="&lt;Path&gt;" class="s16" d="m575.4 647.6c-2.9 0-6-1-8.9-3.7-2.5-2.4-4.2-4.5-5.5-6.3-2.2-2.9-3-3.9-5.6-4.1-0.6-0.1-1.2-0.3-1.6-0.7-0.9-0.7-1.3-1.9-1.1-3 0.2-1.1 1-2 2.1-2.3 2.3-0.6 2.7-1.4 3.9-4.6 0.7-2 1.6-4.4 3.4-7.1 4.5-7.2 12.7-5.9 16.4-4.2 1.5 0.7 2.2 2.5 1.5 4-0.7 1.5-2.5 2.2-4 1.5-0.6-0.3-6-2.6-8.9 1.9-1.4 2.2-2.1 4.2-2.8 6-0.6 1.6-1.2 3.3-2.3 4.7 1.5 1.2 2.7 2.8 3.8 4.3 1.3 1.7 2.6 3.5 4.8 5.5 4.5 4.2 9.2 0.7 9.4 0.6 1.3-1 3.2-0.7 4.2 0.6 1 1.3 0.7 3.2-0.6 4.2-1.7 1.3-4.7 2.7-8.2 2.7z"/>
					</g>
					<g id="&lt;Group&gt;">
						<path id="&lt;Path&gt;" class="s16" d="m679.9 716.5q-0.6 0-1.2-0.3c-0.6-0.2-1.2-0.7-1.5-1.3-1.1-1.9-2.5-2.3-6.4-3-2.3-0.5-5.1-1-8.4-2.2-3.5-1.3-5.9-3.4-7.2-6.1-1.9-4.1-0.5-8.1-0.3-8.5 0.6-1.6 2.3-2.4 3.9-1.8 1.5 0.6 2.3 2.3 1.7 3.9-0.4 1.1-1.3 4.9 3.9 6.8 2.9 1.1 5.4 1.6 7.5 2 2.3 0.4 4.5 0.8 6.4 1.9 1.1-1.7 2.8-2.9 4.4-4.1 1.6-1.2 3.4-2.6 5.2-4.6 1-1.2 1.5-2.2 1.4-3.3-0.2-1.9-2-3.6-2.5-4-1.3-1-1.5-2.9-0.5-4.2 1-1.3 2.9-1.6 4.2-0.5 0.4 0.3 4.3 3.4 4.7 8.2 0.2 1.9-0.1 4.8-2.8 7.8-2.2 2.4-4.4 4.1-6.1 5.4-3 2.2-3.6 2.8-3.4 4.6 0.1 1-0.4 2.1-1.3 2.7-0.5 0.4-1.1 0.6-1.7 0.6z"/>
					</g>
					<g id="&lt;Group&gt;">
						<path id="&lt;Path&gt;" class="s16" d="m718.4 699.6q-0.1 0-0.1 0c-0.6-0.1-1.3-0.3-1.8-0.6-2-1.5-3.4-1.3-7.4-0.6-2.3 0.4-5.1 0.9-8.7 1-9.4 0.1-12.7-6.8-13.1-10.5-0.1-1.7 1.1-3.1 2.7-3.3 1.7-0.2 3.1 1 3.3 2.7 0.1 0.8 1 5.2 7 5.1 3.1-0.1 5.6-0.5 7.7-0.9 2.2-0.4 4.4-0.8 6.5-0.6 0.4-1.8 1.3-3.5 2.2-5.1 0.9-1.7 2-3.6 2.7-6.1q0.6-1.9-0.1-3.2c-1-1.8-3.5-2.9-4.4-3.1-1.6-0.5-2.5-2.2-2.1-3.8 0.5-1.5 2.1-2.5 3.7-2 0.6 0.1 5.7 1.7 8 6 1.3 2.3 1.5 5 0.7 7.9-1 3-2.2 5.3-3.2 7.2-1.8 3.1-2 3.7-1 5.3 0.5 0.9 0.5 2.1 0 3.1-0.6 0.9-1.5 1.5-2.6 1.5z"/>
					</g>
					<g id="&lt;Group&gt;">
						<path id="&lt;Path&gt;" class="s16" d="m729 679.2c-4.5-0.1-8.1-2.5-9.8-4.4-1.1-1.2-0.9-3.1 0.3-4.2 1.2-1.1 3.1-1 4.2 0.2 0.4 0.5 4.2 4.3 9.4 1.1 2.5-1.6 4.3-3.2 5.9-4.6 1.5-1.3 3-2.6 4.8-3.5-0.8-1.6-1-3.4-1.3-5.1-0.2-1.9-0.5-4-1.4-6.4-1.7-4.8-7.5-3.5-8.2-3.3-1.6 0.4-3.2-0.6-3.6-2.2-0.4-1.6 0.6-3.2 2.2-3.7 4-1 12.3-0.8 15.2 7.1 1.2 3.1 1.5 5.6 1.8 7.7 0.5 3.3 0.6 4.1 2.6 5.1 1.1 0.5 1.7 1.5 1.7 2.6 0.1 1.2-0.5 2.2-1.5 2.7-0.5 0.3-1.2 0.5-1.8 0.4-2.6-0.2-3.7 0.6-6.6 3.1-1.6 1.5-3.7 3.3-6.7 5.2-2.5 1.6-5 2.2-7.2 2.2z"/>
					</g>
					<g id="&lt;Group&gt;">
						<path id="&lt;Path&gt;" class="s16" d="m739.4 647.9c-3.5 0-6.5-1.4-8.2-2.7-1.3-1-1.6-2.9-0.6-4.2 1-1.3 2.9-1.6 4.2-0.6 0.5 0.3 5 3.5 9.4-0.6 2.2-1.9 3.5-3.8 4.8-5.4 1.2-1.6 2.3-3.1 3.9-4.3-1.1-1.4-1.7-3.1-2.3-4.7-0.7-1.8-1.4-3.8-2.9-6.1-2.9-4.6-8.6-2-8.8-1.9-1.5 0.7-3.3 0-4-1.5-0.7-1.5 0-3.3 1.5-4 3.7-1.7 11.9-3 16.4 4.2 1.8 2.8 2.7 5.2 3.4 7.2 1.2 3.2 1.6 4 3.8 4.7 1.1 0.3 2 1.1 2.2 2.3 0.2 1.1-0.2 2.2-1.1 2.9-0.5 0.4-1.1 0.6-1.7 0.7-2.6 0.2-3.4 1.2-5.6 4.1-1.3 1.8-3 3.9-5.5 6.3-2.9 2.7-6.1 3.6-8.9 3.6z"/>
					</g>
					<g id="&lt;Group&gt;">
						<path id="&lt;Path&gt;" class="s16" d="m655.9 736c-1.5 0-2.9-1.1-3.1-2.6 0-0.2-1.1-7.1-9.1-8.8-4.3-1-7.3-2.9-9.1-5.8-2.4-3.8-1.6-7.8-1.5-8.2 0.4-1.6 2-2.6 3.6-2.2 1.6 0.3 2.6 1.9 2.2 3.5-0.2 1.3-0.5 5.3 6.1 6.8 5.5 1.2 8.8 4.1 10.8 7 2.1-2.9 5.4-5.8 10.9-7 6.6-1.4 6.4-5.5 6.1-6.7-0.3-1.6 0.7-3.2 2.3-3.5 1.6-0.4 3.2 0.6 3.6 2.2 0.1 0.4 0.9 4.4-1.5 8.2-1.9 2.9-4.9 4.8-9.2 5.7-8 1.7-9.1 8.6-9.2 8.9-0.2 1.4-1.5 2.5-2.9 2.5z"/>
					</g>
					<g id="&lt;Group&gt;">
						<path id="&lt;Path&gt;" class="s16" d="m602.4 723.2q-0.6 0-1.2-0.2c-1.5-0.7-2.3-2.4-1.7-3.9 0.3-0.7 2.4-6.8-3.5-11.3-3.3-2.5-5.1-5.4-5.4-8.6-0.5-4.7 2.4-8 2.7-8.3 1.1-1.3 3-1.4 4.2-0.3 1.3 1.1 1.4 3 0.3 4.2-0.1 0.1-1.5 1.8-1.2 3.8q0.2 2.3 3 4.4c4.1 3.2 5.8 7 6.3 10.6 3.2-1.7 7.6-3 13.1-1.8 7.1 1.4 8.9-3 9.2-3.9 0.5-1.5 2.2-2.4 3.7-1.9 1.6 0.5 2.5 2.1 2 3.7-1.1 3.7-5.9 10-16.1 7.9-8.3-1.7-13 4.4-13 4.4-0.6 0.8-1.5 1.2-2.4 1.2z"/>
					</g>
					<g id="&lt;Group&gt;">
						<path id="&lt;Path&gt;" class="s16" d="m586.7 699.6c-2.7 0-5.8-0.9-8.9-3.2-6.6-4.9-13.9-1.3-14-1.3-1.2 0.7-2.7 0.4-3.6-0.7-0.5-0.6-0.8-1.4-0.7-2.2 0-0.8 0.4-1.6 1-2.1 0.2-0.2 5.6-5 2.6-11.4-1.6-3.5-1.8-6.7-0.7-9.6 1.8-4.5 6.1-6.4 6.6-6.6 1.5-0.7 3.3 0.1 3.9 1.6 0.7 1.5-0.1 3.3-1.6 3.9-0.1 0-2.5 1.1-3.3 3.3q-0.8 2 0.5 4.8c2.1 4.4 1.8 8.4 0.6 11.7 3.6-0.1 8 0.6 12.2 3.7 5.8 4.3 9.9 0.6 10.4 0.2 1.2-1.2 3.1-1.2 4.2 0 1.2 1.2 1.2 3.1 0 4.2-1.7 1.7-5 3.7-9.2 3.7z"/>
					</g>
					<g id="&lt;Group&gt;">
						<path id="&lt;Path&gt;" class="s16" d="m562.5 668.4c-4.1 0-9-1.7-12-7.7-3.4-6.7-11.5-6.5-11.8-6.5-1.5 0.1-2.8-0.9-3.1-2.3-0.3-1.6 0.6-3.2 2.1-3.6 0.4-0.1 7.9-2.3 8.3-9.5 0.7-9.5 8.5-11.9 12.8-11.9q0.1 0 0.2 0c1.6 0 3 1.4 2.9 3 0 1.7-1.4 3-3 3q0 0-0.1 0c-1.1 0-6.4 0.3-6.8 6.3-0.3 4.9-2.6 8.3-5.1 10.6 3.2 1.3 6.7 3.7 8.9 8.2 3.1 6.1 8.9 4.1 9.2 4 1.5-0.6 3.3 0.3 3.8 1.8 0.6 1.6-0.2 3.3-1.8 3.8-1.2 0.5-2.8 0.8-4.5 0.8z"/>
					</g>
					<g id="&lt;Group&gt;">
						<path id="&lt;Path&gt;" class="s16" d="m709.7 726.2c-1 0-1.9-0.4-2.5-1.2-0.1-0.2-4.7-6.1-12.9-4.4-10.3 2-15-4.4-16.1-8-0.5-1.6 0.4-3.3 2-3.8 1.6-0.4 3.3 0.5 3.7 2.1 0.3 0.8 2.1 5.2 9.2 3.8 5.5-1.1 9.9 0.1 13 1.8 0.5-3.5 2.3-7.3 6.4-10.5q2.8-2.1 3.1-4.4c0.2-2-1.2-3.8-1.3-3.8-1-1.2-0.9-3.1 0.4-4.2 1.2-1.1 3.1-1 4.2 0.3 0.3 0.3 3.1 3.7 2.6 8.3-0.3 3.2-2.1 6.1-5.4 8.6-6.1 4.7-3.6 11.2-3.6 11.3 0.6 1.5-0.1 3.2-1.6 3.8q-0.6 0.3-1.2 0.3z"/>
					</g>
					<g id="&lt;Group&gt;">
						<path id="&lt;Path&gt;" class="s16" d="m725.4 702.6c-4.2 0-7.5-2-9.2-3.7-1.2-1.1-1.1-3 0-4.2 1.2-1.2 3.1-1.2 4.3 0 0.4 0.4 4.6 4.2 10.3-0.1 4.3-3.1 8.7-3.8 12.3-3.6-1.2-3.3-1.5-7.4 0.6-11.8q1.3-2.8 0.5-4.8c-0.8-2.2-3.2-3.3-3.3-3.3-1.5-0.6-2.2-2.4-1.5-3.9 0.6-1.5 2.3-2.2 3.9-1.6 0.4 0.2 4.8 2.1 6.5 6.6 1.1 3 0.9 6.2-0.7 9.6-3.1 6.5 2.5 11.4 2.6 11.5 1.2 1 1.4 2.9 0.3 4.2-0.9 1-2.4 1.4-3.7 0.8-0.3-0.2-7.4-3.6-13.9 1.1-3.2 2.4-6.3 3.2-9 3.2z"/>
					</g>
					<g id="&lt;Group&gt;">
						<path id="&lt;Path&gt;" class="s16" d="m749.8 671.5c-1.8 0-3.4-0.3-4.6-0.7-1.5-0.6-2.3-2.3-1.8-3.9 0.6-1.5 2.3-2.3 3.9-1.8 1 0.4 6.2 1.9 9.2-4 2.2-4.4 5.7-6.8 8.9-8.1-2.5-2.3-4.8-5.7-5.1-10.6-0.4-6-5.6-6.4-6.8-6.4q0 0 0 0c-1.6 0-3-1.3-3-2.9 0-1.7 1.3-3 2.9-3.1q0.1 0 0.3 0c4.2 0 12 2.5 12.6 12.1 0.5 7.1 8 9.3 8.3 9.4 1.5 0.5 2.4 2 2.1 3.5-0.3 1.5-1.6 2.5-3.1 2.5-0.3 0-8.4-0.3-11.8 6.3-3 6.1-8 7.7-12 7.7z"/>
					</g>
					<g id="&lt;Group&gt;">
						<path id="&lt;Path&gt;" class="s16" d="m551.6 634.6c-4.4 0-10.3-2-12.3-9.7-1.8-7-9.8-7.8-9.8-7.8-1.6-0.2-2.8-1.5-2.8-3 0-1.5 1.1-2.9 2.6-3.1 0.4 0 8.4-1.2 10.4-8.4 2.7-9.3 11-10.5 15.1-9.8 1.6 0.2 2.7 1.8 2.4 3.4-0.2 1.7-1.8 2.8-3.4 2.5-1.1-0.2-6.5-0.7-8.3 5.6-1.4 4.8-4.4 7.8-7.3 9.6 2.9 1.8 5.7 4.8 6.9 9.5 1.5 5.9 6.9 5.3 7.9 5.1 1.6-0.4 3.2 0.7 3.5 2.3 0.3 1.6-0.7 3.2-2.3 3.5-0.8 0.2-1.7 0.3-2.6 0.3z"/>
					</g>
					<g id="&lt;Group&gt;">
						<path id="&lt;Path&gt;" class="s16" d="m757.5 635q-1.1 0-2-0.2c-1.6-0.2-2.7-1.8-2.4-3.4 0.2-1.7 1.8-2.8 3.4-2.5 1.1 0.2 6.5 0.7 8.3-5.6 1.4-4.7 4.4-7.8 7.3-9.6-2.9-1.8-5.7-4.8-6.9-9.5-1.5-5.9-6.9-5.2-7.9-5-1.6 0.3-3.2-0.8-3.5-2.4-0.3-1.6 0.7-3.2 2.3-3.5 4.1-0.9 12.5 0 14.9 9.4 1.7 6.9 9.5 7.8 9.9 7.8 1.5 0.2 2.7 1.5 2.7 3.1-0.1 1.5-1.2 2.8-2.6 3-0.4 0-8.4 1.2-10.4 8.4-2.4 8-8.8 10-13.1 10z"/>
					</g>
				</g>
			</g>
			<text id="Crown chakra
Sahasrara
" style="transform: matrix(2,.004,-0.004,2,655.26,783.966)" >
				<tspan x="-43.5" y="0" class="t2">Crown chakra
</tspan>
				<tspan x="-30.6" y="15.2" class="t3">Sahasrara
</tspan>
			</text>
			<text id="I am that I am
" style="transform: matrix(2,.004,-0.004,2,654.376,861.062)" >
				<tspan x="-57.1" y="0" class="t4" dx="0 1 1 1 1 1 1 1 1 1 1 1 1 1 1" >I am that I am
</tspan>
			</text>
		</g>
	</g>
</svg>