<?xml version="1.0" encoding="utf-8"?>
<!-- Generator: Adobe Illustrator 27.0.1, SVG Export Plug-In . SVG Version: 6.00 Build 0)  -->
<svg version="1.1" id="Capa_1" xmlns="http://www.w3.org/2000/svg" xmlns:xlink="http://www.w3.org/1999/xlink" x="0px" y="0px"
	 viewBox="0 0 33.9 37" style="enable-background:new 0 0 33.9 37;" xml:space="preserve">
<style type="text/css">
	.st0{fill:none;stroke:#F0833B;stroke-width:0.7498;stroke-miterlimit:10;}
</style>
<g>
	<g>
		<path class="st0" d="M21,11.6c0,0.4-0.4,0.8-0.8,0.8c-0.5,0-0.8-0.4-0.8-0.8c0-0.4,0.4-0.8,0.8-0.8C20.6,10.8,21,11.2,21,11.6z"/>
		<path class="st0" d="M20.1,21.6c0,1.9-1.9,3.4-4.3,3.4s-4.3-1.5-4.3-3.4c0-1.9,1.9-3.4,4.3-3.4S20.1,19.7,20.1,21.6z"/>
		<line class="st0" x1="11.1" y1="14.6" x2="23.2" y2="14.6"/>
		<line class="st0" x1="20.1" y1="12.3" x2="20.1" y2="26.2"/>
	</g>
	<g>
		<ellipse class="st0" cx="17.4" cy="18.7" rx="12.2" ry="11.6"/>
		<g>
			<path class="st0" d="M5.2,18.3c-0.2-0.1-0.3-0.1-0.5-0.2c-1.5-0.6-3.1-2.3-3.1-4.2c0-2.3-1-4.1-1-4.1s1.8-0.4,4.4-2.2
				c1.4-1,3.4-0.9,4.7-0.4c0.7,0.3,1.4,0.7,1.9,1.2"/>
			<path class="st0" d="M10.7,28.4c0,0-0.1,0.1-0.1,0.1c-1.3,0.9-3.7,1.3-5.4,0.4c-2.1-1.1-4.2-1.2-4.2-1.2s0.5-1.7,0.2-4.7
				c-0.2-1.6,0.9-3.3,2-4c0.6-0.4,1.4-0.8,2.1-0.9"/>
			<path class="st0" d="M22.9,28.9c0.2,1.5-0.6,3.7-2.3,4.6c-2.1,1.2-3.2,2.8-3.2,2.8s-1.3-1.3-4.2-2.5c-1.6-0.7-2.6-2.3-2.7-3.7
				c-0.1-0.6,0-1.2,0.1-1.8"/>
			<path class="st0" d="M29.7,19c1.4,0.7,2.9,2.3,2.9,4.1c0,2.3,1,4.1,1,4.1s-1.8,0.4-4.4,2.2c-1.4,1-3.4,0.9-4.7,0.4
				c-0.5-0.2-0.9-0.5-1.3-0.8"/>
			<path class="st0" d="M23.5,8.7c0.1,0,0.1-0.1,0.2-0.1c1.3-0.9,3.7-1.3,5.4-0.4c2.1,1.1,4.2,1.2,4.2,1.2s-0.5,1.7-0.2,4.7
				c0.2,1.6-0.9,3.3-2,4c-0.5,0.3-0.9,0.6-1.4,0.7"/>
			<path class="st0" d="M11.4,8.6c0-0.1,0-0.3-0.1-0.4c-0.2-1.5,0.6-3.7,2.3-4.6c2.1-1.2,3.2-2.8,3.2-2.8s1.3,1.3,4.2,2.5
				c1.6,0.7,2.6,2.3,2.7,3.7c0.1,0.7,0,1.4-0.2,2.1"/>
		</g>
	</g>
</g>
</svg>
