<?xml version="1.0" encoding="utf-8"?>
<!-- Generator: Adobe Illustrator 27.0.1, SVG Export Plug-In . SVG Version: 6.00 Build 0)  -->
<svg version="1.1" id="Capa_1" xmlns="http://www.w3.org/2000/svg" xmlns:xlink="http://www.w3.org/1999/xlink" x="0px" y="0px"
	 viewBox="0 0 33.9 37" style="enable-background:new 0 0 33.9 37;" xml:space="preserve">
<style type="text/css">
	.st0{fill:none;stroke:#FDD448;stroke-width:0.7498;stroke-miterlimit:10;}
</style>
<g>
	<g>
		<path class="st0" d="M17.7,12.3c-0.2,0.4-0.7,0.5-1.1,0.3c-0.4-0.2-0.5-0.7-0.3-1.1c0.2-0.4,0.7-0.5,1.1-0.3
			C17.8,11.4,17.9,11.9,17.7,12.3z"/>
		<line class="st0" x1="11" y1="15.1" x2="22.4" y2="15.1"/>
		<path class="st0" d="M15.6,25.8L12.9,21c0-0.1,0-0.2,0.1-0.1c0,0,0,0,0,0c2.1,0.3,3.9-1.3,3.9-3.4l0-2.3"/>
	</g>
	<g>
		<circle class="st0" cx="16.7" cy="18.5" r="11.8"/>
		<g>
			<path class="st0" d="M4.9,18.4c-0.3,0-0.7-0.1-1-0.2c-1.1-0.4-2.3-1.6-2.4-3c-0.1-1.8-0.9-3-0.9-3s1.3-0.4,3-1.9
				C4.6,9.5,6,9.4,7,9.7c0.4,0.1,0.8,0.3,1.1,0.6"/>
			<path class="st0" d="M8.4,26.7c-0.3,0.2-0.6,0.4-1,0.6c-1,0.5-2.8,0.5-3.9-0.4c-1.3-1.1-2.8-1.5-2.8-1.5s0.6-1.2,0.8-3.5
				c0.1-1.2,1.1-2.3,2-2.7C4,19,4.4,18.9,4.8,18.8"/>
			<path class="st0" d="M16.6,30.3c0,0.3-0.1,0.6-0.2,1c-0.4,1.1-1.6,2.3-3,2.4c-1.8,0.1-3,0.9-3,0.9s-0.4-1.3-1.9-3
				c-0.8-1-0.9-2.4-0.5-3.3c0.1-0.4,0.4-0.8,0.6-1.1"/>
			<path class="st0" d="M25,27c0.2,0.2,0.3,0.5,0.5,0.8c0.5,1,0.5,2.8-0.4,3.9c-1.1,1.3-1.5,2.8-1.5,2.8s-1.2-0.6-3.5-0.8
				c-1.2-0.1-2.3-1.1-2.7-2c-0.2-0.4-0.3-0.8-0.4-1.2"/>
			<path class="st0" d="M28.5,18.6c0.3,0,0.6,0.1,0.9,0.2c1.1,0.4,2.3,1.6,2.4,3c0.1,1.8,0.9,3,0.9,3s-1.3,0.4-3,1.9
				c-1,0.8-2.4,0.9-3.3,0.5c-0.4-0.1-0.8-0.3-1.1-0.6"/>
			<path class="st0" d="M25.1,10.2c0.3-0.2,0.5-0.4,0.8-0.5c1-0.5,2.8-0.5,3.9,0.4c1.3,1.1,2.8,1.5,2.8,1.5s-0.6,1.2-0.8,3.5
				c-0.1,1.2-1.1,2.3-2,2.7c-0.4,0.2-0.8,0.3-1.2,0.4"/>
			<path class="st0" d="M16.8,6.7c0-0.3,0.1-0.6,0.2-1c0.4-1.1,1.6-2.3,3-2.4c1.8-0.1,3-0.9,3-0.9s0.4,1.3,1.9,3
				c0.8,1,0.9,2.4,0.5,3.3c-0.1,0.4-0.3,0.7-0.6,1.1"/>
			<path class="st0" d="M8.4,10.1C8.2,9.9,8,9.6,7.9,9.3c-0.5-1-0.5-2.8,0.4-3.9c1.1-1.3,1.5-2.8,1.5-2.8s1.2,0.6,3.5,0.8
				c1.2,0.1,2.3,1.1,2.7,2c0.2,0.4,0.3,0.8,0.4,1.2"/>
		</g>
		<line class="st0" x1="16.7" y1="30.3" x2="16.6" y2="30.2"/>
	</g>
</g>
</svg>
