<?xml version="1.0" encoding="utf-8"?>
<!-- Generator: Adobe Illustrator 27.0.1, SVG Export Plug-In . SVG Version: 6.00 Build 0)  -->
<svg version="1.1" id="Capa_1" xmlns="http://www.w3.org/2000/svg" xmlns:xlink="http://www.w3.org/1999/xlink" x="0px" y="0px"
	 viewBox="0 0 33.9 37" style="enable-background:new 0 0 33.9 37;" xml:space="preserve">
<style type="text/css">
	.st0{fill:none;stroke:#44AFE4;stroke-width:0.7498;stroke-miterlimit:10;}
</style>
<g>
	<g>
		<path class="st0" d="M17.7,11.3c-0.2,0.4-0.7,0.5-1,0.3c-0.4-0.2-0.5-0.7-0.3-1c0.2-0.4,0.7-0.5,1-0.3
			C17.7,10.5,17.9,11,17.7,11.3z"/>
		<line class="st0" x1="11.2" y1="14" x2="22.1" y2="14"/>
		<path class="st0" d="M15.5,26.6c-1.3-0.6-2.2-1.9-2.2-3.4c0-2,1.6-3.7,3.7-3.7c1.4,0,2.7,0.8,3.3,2.1"/>
		<path class="st0" d="M14.2,20.7c0,0-1.9-4.4,5.1-3.7v-3"/>
	</g>
	<g>
		<circle class="st0" cx="16.7" cy="18.5" r="11.3"/>
		<g>
			<path class="st0" d="M13.1,7.8c-0.6-0.3-1-0.8-1.1-1.5c-0.3-1.4,1.3-3.4,1.3-3.4s2.6,1.1,2.9,2.5c0.2,0.7,0,1.3-0.4,1.8"/>
			<path class="st0" d="M9.3,10C8.7,9.9,8.1,9.6,7.7,9C6.9,7.9,7.6,5.4,7.6,5.4s2.8,0,3.7,1.2c0.4,0.5,0.5,1.2,0.3,1.8"/>
			<path class="st0" d="M6.5,13.5c-0.6,0.1-1.2,0-1.7-0.3c-1.2-0.7-1.5-3.4-1.5-3.4s2.6-1,3.9-0.3c0.5,0.3,0.9,0.9,1,1.5"/>
			<path class="st0" d="M5.3,17.7c-0.5,0.3-1.1,0.5-1.7,0.4C2.2,17.9,1,15.6,1,15.6s2-2,3.5-1.7c0.6,0.1,1.2,0.5,1.5,1"/>
			<path class="st0" d="M5.9,22.1c-0.3,0.5-0.8,1-1.5,1.1C3.1,23.5,1,21.8,1,21.8s1.1-2.6,2.5-2.9c0.7-0.2,1.4,0,1.9,0.5"/>
			<path class="st0" d="M8.1,26c-0.1,0.6-0.4,1.2-0.9,1.5c-1.1,0.8-3.7,0.1-3.7,0.1s0-2.8,1.2-3.7c0.6-0.4,1.3-0.5,1.9-0.3"/>
			<path class="st0" d="M11.6,28.7c0.2,0.6,0.1,1.2-0.3,1.8C10.6,31.6,8,31.9,8,31.9s-1-2.6-0.3-3.9c0.3-0.6,0.9-0.9,1.6-1"/>
			<path class="st0" d="M15.9,29.8c0.4,0.5,0.5,1.1,0.4,1.7c-0.2,1.4-2.5,2.7-2.5,2.7s-2-2-1.7-3.5c0.1-0.7,0.6-1.3,1.2-1.5"/>
			<path class="st0" d="M20.2,29.2c0.6,0.3,1,0.8,1.1,1.5c0.3,1.4-1.3,3.4-1.3,3.4s-2.6-1.1-2.9-2.5c-0.2-0.6,0-1.3,0.4-1.8"/>
			<path class="st0" d="M24.1,27.1c0.6,0.1,1.2,0.4,1.6,0.9c0.8,1.1,0.1,3.7,0.1,3.7s-2.8,0-3.7-1.2c-0.4-0.6-0.5-1.3-0.3-1.9"/>
			<path class="st0" d="M26.9,23.6c0.6-0.1,1.2,0,1.7,0.3c1.2,0.7,1.5,3.4,1.5,3.4s-2.6,1-3.9,0.3c-0.6-0.4-0.9-1-1-1.6"/>
			<path class="st0" d="M28,19.4c0.5-0.5,1-0.6,1.7-0.5c1.4,0.2,2.7,2.5,2.7,2.5s-2,2-3.5,1.7c-0.7-0.1-1.2-0.5-1.5-1"/>
			<path class="st0" d="M27.5,15c0.3-0.6,0.7-1,1.4-1.1c1.4-0.3,3.4,1.3,3.4,1.3s-1.1,2.6-2.5,2.9c-0.6,0.1-1.3,0-1.8-0.3"/>
			<path class="st0" d="M25.3,11.2c0-0.7,0.3-1.2,0.9-1.7c1.1-0.8,3.7-0.1,3.7-0.1s0,2.8-1.2,3.7c-0.5,0.4-1.2,0.5-1.7,0.4"/>
			<path class="st0" d="M21.9,8.5c-0.3-0.6-0.3-1.2,0.1-1.9c0.7-1.2,3.4-1.5,3.4-1.5s1,2.6,0.3,3.9c-0.3,0.5-0.9,0.9-1.5,1"/>
			<path class="st0" d="M17.5,7.3c-0.4-0.5-0.6-1.1-0.5-1.8c0.2-1.4,2.5-2.7,2.5-2.7s2,2,1.7,3.5c-0.1,0.6-0.5,1.2-1,1.5"/>
		</g>
	</g>
</g>
</svg>
