<svg version="1.2" xmlns="http://www.w3.org/2000/svg" viewBox="0 0 337 306" width="337" height="306">
	<title>3978615-ai</title>
	<style>
		tspan { white-space:pre } 
		.s0 { fill: #f54a53 } 
		.s1 { fill: #b3242b } 
		.t2 { font-size: 13px;fill: #3b1952;font-weight: 700;font-family: "Rubik-Bold", "Rubik" } 
		.t3 { font-size: 13px;fill: #3b1952;font-weight: 400;font-style: italic;font-family: "Rubik-Italic", "Rubik" } 
		.t4 { font-size: 25px;fill: #3b1952;font-weight: 500;font-family: "Mathlete-Bulky", "Mathlete" } 
		.s5 { fill: #f28e04 } 
		.s6 { fill: #db3d04 } 
		.s7 { fill: #feff4b } 
		.s8 { fill: #e39e36 } 
		.s9 { fill: #aeff7f } 
		.s10 { fill: #64b833 } 
		.s11 { fill: #40fcfd } 
		.s12 { fill: #209191 } 
		.s13 { fill: #6250ca } 
		.s14 { fill: #35278a } 
		.s15 { fill: #ad6dd9 } 
		.s16 { fill: #72319e } 
	</style>
	<g id="BACKGROUND">
	</g>
	<g id="OBJECTS">
		<g id="&lt;Group&gt;">
			<g id="&lt;Group&gt;">
				<g id="&lt;Group&gt;">
					<g id="&lt;Group&gt;">
						<path id="&lt;Path&gt;" class="s0" d="m-239.1-349.4c0 53.1-43 96.1-96.1 96.1-53.1 0-96.1-43-96.1-96.1 0-53.1 43-96.2 96.1-96.2 53.1 0 96.1 43.1 96.1 96.2z"/>
						<path id="&lt;Compound Path&gt;" fill-rule="evenodd" class="s0" d="m-335.2-251.3c-54.1 0-98.1-44-98.1-98.1 0-54.1 44-98.2 98.1-98.2 54.1 0 98.1 44.1 98.1 98.2 0 54.1-44 98.1-98.1 98.1zm0-192.3c-51.9 0-94.1 42.3-94.1 94.2 0 51.9 42.2 94.1 94.1 94.1 51.9 0 94.1-42.2 94.1-94.1 0-51.9-42.2-94.2-94.1-94.2z"/>
					</g>
					<g id="&lt;Group&gt;">
						<path id="&lt;Path&gt;" class="s0" d="m-268-282.2h-134.4v-134.4h134.4z"/>
						<path id="&lt;Compound Path&gt;" fill-rule="evenodd" class="s0" d="m-268-280.2h-134.4c-1.1 0-2-0.9-2-2v-134.4c0-1.1 0.9-2 2-2h134.4c1.1 0 2 0.9 2 2v134.4c0 1.1-0.9 2-2 2zm-132.4-4h130.4v-130.4h-130.4z"/>
					</g>
					<g id="&lt;Group&gt;">
						<path id="&lt;Path&gt;" class="s0" d="m-371.9-376.8h73.4l-36.7 62.5z"/>
						<path id="&lt;Compound Path&gt;" fill-rule="evenodd" class="s0" d="m-335.2-312.3c-0.7 0-1.4-0.4-1.7-1l-36.7-62.5c-0.4-0.6-0.4-1.4 0-2 0.3-0.6 1-1 1.7-1h73.4c0.7 0 1.4 0.4 1.7 1 0.4 0.6 0.4 1.4 0 2l-36.7 62.5c-0.3 0.6-1 1-1.7 1zm-33.2-62.5l33.2 56.6 33.2-56.6z"/>
					</g>
					<g id="&lt;Group&gt;">
						<path id="&lt;Path&gt;" class="s0" d="m-429.7-350.1c0 0-32.6-0.3-22.6-36.4 8.3-29.9 17.6-35.4 8.8-62l-1.3-2.2c26.9 7.7 38.1-8.2 67.7-17.6 35.7-11.4 43.4 21.2 43.4 21.2"/>
						<path id="&lt;Path&gt;" class="s0" d="m-429.7-348.1q0 0 0 0c-0.6 0-14.3-0.2-21.8-10.2-5.2-6.9-6.1-16.6-2.8-28.7 2.4-8.5 4.8-15 6.9-20.7 5.2-13.9 8.1-21.7 2.1-40l-1.2-2c-0.4-0.7-0.3-1.6 0.2-2.3 0.5-0.6 1.3-0.9 2.1-0.6 17.2 4.9 27.5-0.1 41.7-7.1 7-3.4 14.9-7.3 24.8-10.5 11.8-3.8 21.9-3.3 30.1 1.4 12.4 6.9 15.8 20.6 15.9 21.2 0.2 1.1-0.4 2.2-1.5 2.4-1.1 0.3-2.1-0.4-2.4-1.4 0-0.2-3.2-12.7-14-18.8-7.2-4-16.2-4.4-26.9-1-9.6 3.1-17.4 6.9-24.3 10.3-13.3 6.5-24 11.8-40.3 8.3 5.9 18.9 2.7 27.5-2.5 41.5-2.1 5.7-4.5 12-6.8 20.4-3 10.8-2.3 19.3 2.1 25.1 6.3 8.5 18.5 8.7 18.6 8.7 1.1 0 2 0.9 2 2 0 1.1-0.9 2-2 2z"/>
					</g>
					<g id="&lt;Group&gt;">
						<path id="&lt;Path&gt;" class="s0" d="m-237.2-350.1c0 0 32.6-0.3 22.6-36.4-8.3-29.9-20.8-35.4-12-62l1.3-2.2c-26.9 7.7-35-8.2-64.6-17.6-35.6-11.4-43.8 21.2-43.8 21.2"/>
						<path id="&lt;Path&gt;" class="s0" d="m-237.2-348.1c-1.1 0-2-0.9-2-2-0.1-1.1 0.8-2 1.9-2 0.2 0 12.3-0.2 18.7-8.7 4.4-5.8 5.1-14.3 2-25.1-2.6-9.7-5.7-16.8-8.5-23-5.4-12.3-9.3-21.2-3.8-38.8-15.8 3.3-25.3-1.7-37.2-7.9-6.7-3.6-14.3-7.6-24.4-10.8-10.6-3.4-19.7-3-27 1-10.9 6.1-14.2 18.7-14.2 18.8-0.3 1-1.4 1.7-2.4 1.4-1.1-0.2-1.8-1.3-1.5-2.4 0.1-0.6 3.7-14.3 16.1-21.3 8.3-4.6 18.5-5 30.2-1.3 10.5 3.3 18.2 7.4 25.1 11 12.5 6.6 21.6 11.4 38.4 6.6 0.7-0.3 1.6 0 2.1 0.6 0.5 0.7 0.6 1.6 0.2 2.3l-1.2 2c-5.6 17-2.3 24.6 3.3 37.2 2.8 6.3 5.9 13.5 8.7 23.5 3.4 12.1 2.4 21.8-2.8 28.7-7.5 10-21.1 10.2-21.7 10.2q0 0 0 0z"/>
					</g>
					<g id="&lt;Group&gt;">
						<path id="&lt;Path&gt;" class="s0" d="m-429.7-349.8c0 0-32.6 0.3-22.6 36.4 8.3 30 17.6 35.4 8.8 62l-1.3 2.3c26.9-7.8 38.1 8.1 67.7 17.5 35.7 11.4 43.4-21.2 43.4-21.2"/>
						<path id="&lt;Path&gt;" class="s0" d="m-362.9-227.2q-6.9 0-14.8-2.5c-9.9-3.1-17.8-7-24.8-10.5-14.2-7-24.5-12-41.7-7-0.8 0.2-1.6-0.1-2.1-0.7-0.5-0.7-0.6-1.5-0.2-2.2l1.2-2.1c6-18.3 3.1-26-2.1-40-2.1-5.7-4.5-12.2-6.9-20.7-3.3-12.1-2.4-21.8 2.8-28.6 7.5-10 21.2-10.3 21.8-10.3 1.1 0.1 2 0.9 2 2 0 1.1-0.9 2-2 2-0.1 0-12.3 0.3-18.6 8.7-4.4 5.8-5.1 14.3-2.1 25.2 2.3 8.3 4.7 14.7 6.8 20.3 5.2 14.1 8.4 22.7 2.5 41.5 16.3-3.5 27 1.8 40.3 8.3 6.9 3.4 14.7 7.2 24.3 10.3 10.7 3.4 19.7 3.1 26.9-1 10.8-6.1 14-18.6 14-18.7 0.3-1.1 1.3-1.8 2.4-1.5 1.1 0.2 1.7 1.3 1.5 2.4-0.1 0.6-3.5 14.3-15.9 21.3q-6.8 3.8-15.3 3.8z"/>
					</g>
					<g id="&lt;Group&gt;">
						<path id="&lt;Path&gt;" class="s0" d="m-237.2-349.8c0 0 32.6 0.3 22.6 36.4-8.3 30-20.8 35.4-12 62l1.3 2.3c-26.9-7.8-35 8.1-64.6 17.5-35.6 11.4-43.8-21.2-43.8-21.2"/>
						<path id="&lt;Path&gt;" class="s0" d="m-304-227.2q-8.6 0-15.5-3.8c-12.4-6.9-16-20.7-16.1-21.3-0.3-1.1 0.4-2.1 1.5-2.4 1-0.3 2.1 0.4 2.4 1.4 0 0.2 3.3 12.8 14.2 18.8 7.3 4.1 16.4 4.4 27 1 10.1-3.2 17.7-7.2 24.4-10.7 11.9-6.3 21.4-11.3 37.2-7.9-5.5-17.7-1.6-26.6 3.8-38.9 2.8-6.2 5.9-13.2 8.5-22.9 3.1-10.9 2.4-19.4-2-25.2-6.4-8.4-18.5-8.7-18.7-8.7-1.1 0-2-0.9-1.9-2 0-1.1 0.8-2 2-2 0.6 0 14.2 0.3 21.7 10.3 5.2 6.8 6.2 16.5 2.8 28.6-2.8 10-5.9 17.2-8.7 23.5-5.6 12.6-8.9 20.2-3.3 37.2l1.2 2.1c0.4 0.7 0.3 1.5-0.2 2.2-0.5 0.6-1.4 0.9-2.1 0.7-16.8-4.9-25.9-0.1-38.4 6.5-6.9 3.6-14.6 7.7-25.1 11q-7.9 2.5-14.7 2.5z"/>
					</g>
				</g>
				<g id="&lt;Group&gt;">
					<g id="&lt;Group&gt;">
						<path id="&lt;Compound Path&gt;" fill-rule="evenodd" class="s1" d="m-335.2-250.3c-54.7 0-99.1-44.5-99.1-99.1 0-54.7 44.4-99.2 99.1-99.2 54.7 0 99.1 44.5 99.1 99.2 0 54.6-44.4 99.1-99.1 99.1zm0-192.3c-51.4 0-93.1 41.8-93.1 93.2 0 51.3 41.7 93.1 93.1 93.1 51.3 0 93.1-41.8 93.1-93.1 0-51.4-41.8-93.2-93.1-93.2z"/>
					</g>
					<g id="&lt;Group&gt;">
						<path id="&lt;Compound Path&gt;" fill-rule="evenodd" class="s1" d="m-268-279.2h-134.4c-1.6 0-3-1.4-3-3v-134.4c0-1.7 1.4-3 3-3h134.4c1.6 0 3 1.3 3 3v134.4c0 1.6-1.4 3-3 3zm-131.4-6h128.4v-128.4h-128.4z"/>
					</g>
					<g id="&lt;Group&gt;">
						<path id="&lt;Compound Path&gt;" fill-rule="evenodd" class="s1" d="m-335.2-311.3c-1.1 0-2.1-0.6-2.6-1.5l-36.7-62.5c-0.5-0.9-0.5-2.1 0-3 0.5-0.9 1.5-1.5 2.6-1.5h73.4c1.1 0 2.1 0.6 2.6 1.5 0.5 0.9 0.5 2.1 0 3l-36.7 62.5c-0.6 0.9-1.5 1.5-2.6 1.5zm-31.5-62.5l31.5 53.6 31.4-53.6z"/>
					</g>
				</g>
			</g>
			<text id="Root chakra
 Muladhara 
" style="transform: matrix(2,0,0,2,-326.477,-134.58)" >
				<tspan x="-38.1" y="0" class="t2">Root chakra
</tspan>
				<tspan x="-34.6" y="15.2" class="t3"> Muladhara 
</tspan>
			</text>
			<text id="I exist" style="transform: matrix(2,0,0,2,-327.203,-47.991)" >
				<tspan x="-25.6" y="0" class="t4" dx="0 1 1 1 1 1 1 1" >I exist
</tspan>
			</text>
		</g>
		<g id="&lt;Group&gt;">
			<g id="&lt;Group&gt;">
				<g id="&lt;Group&gt;">
					<g id="&lt;Group&gt;">
						<path id="&lt;Path&gt;" class="s5" d="m114.1-324.5c0 51-41.3 92.3-92.3 92.3-50.9 0-92.2-41.3-92.2-92.3 0-50.9 41.3-92.2 92.2-92.2 51 0 92.3 41.3 92.3 92.2z"/>
						<path id="&lt;Compound Path&gt;" fill-rule="evenodd" class="s5" d="m21.8-230.2c-52 0-94.2-42.3-94.2-94.3 0-51.9 42.2-94.2 94.2-94.2 52 0 94.3 42.3 94.3 94.2 0 52-42.3 94.3-94.3 94.3zm0-184.5c-49.8 0-90.2 40.5-90.2 90.2 0 49.8 40.4 90.3 90.2 90.3 49.8 0 90.3-40.5 90.3-90.3 0-49.7-40.5-90.2-90.3-90.2z"/>
					</g>
					<g id="&lt;Group&gt;">
						<path id="&lt;Path&gt;" class="s5" d="m94.9-331.2c0 40.4-32.7 73.2-73.1 73.2-40.4 0-73.1-32.8-73.1-73.2 0-40.4 32.7-73.1 73.1-73.1 40.4 0 73.1 32.7 73.1 73.1z"/>
						<path id="&lt;Compound Path&gt;" fill-rule="evenodd" class="s5" d="m21.8-256c-41.4 0-75.1-33.7-75.1-75.2 0-41.4 33.7-75.1 75.1-75.1 41.4 0 75.1 33.7 75.1 75.1 0 41.5-33.7 75.2-75.1 75.2zm0-146.3c-39.2 0-71.1 31.9-71.1 71.1 0 39.2 31.9 71.2 71.1 71.2 39.2 0 71.1-32 71.1-71.2 0-39.2-31.9-71.1-71.1-71.1z"/>
					</g>
					<g id="&lt;Group&gt;">
						<path id="&lt;Path&gt;" class="s5" d="m73.5-349.5c0 28.5-23.1 51.7-51.7 51.7-28.5 0-51.7-23.2-51.7-51.7 0-28.6 23.2-51.7 51.7-51.7 28.6 0 51.7 23.1 51.7 51.7z"/>
						<path id="&lt;Compound Path&gt;" fill-rule="evenodd" class="s5" d="m21.8-295.8c-29.6 0-53.7-24.1-53.7-53.7 0-29.6 24.1-53.7 53.7-53.7 29.6 0 53.7 24.1 53.7 53.7 0 29.6-24.1 53.7-53.7 53.7zm0-103.4c-27.4 0-49.7 22.3-49.7 49.7 0 27.4 22.3 49.7 49.7 49.7 27.4 0 49.7-22.3 49.7-49.7 0-27.4-22.3-49.7-49.7-49.7z"/>
					</g>
					<g id="&lt;Group&gt;">
						<path id="&lt;Path&gt;" class="s5" d="m68.2-406.4c0 0 15.5-10.8 1.5-28.4-10.2-12.9-41.3-19.1-47.5-33.1h0.6c-6.2 14-37.3 20.2-47.5 33.1-14 17.6 1.5 28.4 1.5 28.4"/>
						<path id="&lt;Path&gt;" class="s5" d="m68.2-404.4c-0.6 0-1.3-0.3-1.7-0.8-0.6-0.9-0.4-2.2 0.5-2.8 0.1-0.1 5.5-3.9 6.4-10.5 0.7-4.8-1.1-9.8-5.2-15-4.4-5.6-13.5-10.1-22.2-14.4-9.2-4.6-18.6-9.3-23.5-15.6-4.9 6.3-14.3 11-23.5 15.6-8.7 4.3-17.7 8.8-22.1 14.4-4.2 5.2-6 10.2-5.3 15 0.9 6.6 6.3 10.5 6.4 10.5 0.9 0.6 1.1 1.9 0.5 2.8-0.7 0.9-1.9 1.1-2.8 0.5-0.3-0.2-6.8-4.9-8-13.2-0.9-5.9 1.1-12 6-18.1 5-6.3 14.4-11 23.5-15.5 9.5-4.7 19.3-9.6 23.1-15.8-0.2-0.5-0.1-1.2 0.2-1.7 0.4-0.5 1-0.9 1.7-0.9h0.6c0.7 0 1.4 0.4 1.7 0.9 0.3 0.5 0.4 1.2 0.3 1.7 3.7 6.2 13.5 11.1 23 15.8 9.1 4.5 18.5 9.2 23.5 15.5 4.9 6.1 6.9 12.2 6.1 18.1-1.2 8.3-7.8 13-8.1 13.2q-0.5 0.3-1.1 0.3z"/>
					</g>
					<g id="&lt;Group&gt;">
						<path id="&lt;Path&gt;" class="s5" d="m68.2-241.5c0 0 15.5 10.8 1.5 28.4-10.2 12.9-41.3 19.1-47.5 33.1h0.6c-6.2-14-37.3-20.2-47.5-33.1-14-17.6 1.5-28.4 1.5-28.4"/>
						<path id="&lt;Path&gt;" class="s5" d="m22.8-178h-0.6c-0.7 0-1.3-0.3-1.7-0.9-0.3-0.5-0.4-1.1-0.2-1.7-3.8-6.2-13.6-11.1-23.1-15.8-9.1-4.5-18.5-9.2-23.5-15.4-4.9-6.2-6.9-12.3-6-18.2 1.2-8.3 7.7-12.9 8-13.1 0.9-0.7 2.2-0.5 2.8 0.4 0.6 1 0.4 2.2-0.5 2.8-0.1 0.1-5.5 4-6.4 10.5-0.7 4.8 1.1 9.8 5.3 15.1 4.4 5.5 13.4 10 22.1 14.3 9.2 4.6 18.6 9.3 23.5 15.6 4.9-6.3 14.3-11 23.5-15.6 8.7-4.3 17.8-8.8 22.2-14.3 4.1-5.3 5.9-10.3 5.2-15.1-0.9-6.5-6.3-10.4-6.4-10.5-0.9-0.6-1.1-1.9-0.4-2.8 0.6-0.9 1.8-1.1 2.7-0.4 0.3 0.2 6.9 4.8 8.1 13.1 0.8 5.9-1.2 12-6.1 18.2-5 6.2-14.4 10.9-23.5 15.4-9.5 4.7-19.3 9.6-23 15.8 0.1 0.6 0 1.2-0.3 1.7-0.3 0.6-1 0.9-1.7 0.9z"/>
					</g>
					<g id="&lt;Group&gt;">
						<path id="&lt;Path&gt;" class="s5" d="m-28.3-408.4c0 0-2.3-18.8-24.4-14.6-16.2 3-36.2 27.6-51.5 26.5l0.3-0.6c9.5 12 0.4 42.5 7 57.5 9 20.6 25.9 12 25.9 12"/>
						<path id="&lt;Path&gt;" class="s5" d="m-79.2-323.9c-2 0-4.1-0.2-6.3-1-5.6-2-10.1-6.7-13.2-13.9-3.2-7.3-3-17.8-2.7-28 0.3-10.6 0.6-21.5-3.2-27.7-0.5-0.1-1-0.5-1.3-1-0.4-0.6-0.4-1.3-0.1-1.9l0.4-0.6c0.3-0.6 0.9-1 1.5-1.1 0.7 0 1.2 0.2 1.6 0.6 7.3-0.4 16.2-6.8 24.8-13 8.2-5.9 16.8-12 24.6-13.5 7.8-1.4 14.1-0.4 18.9 3.1 6.8 5 7.8 12.9 7.9 13.3 0.1 1.1-0.7 2.1-1.8 2.2-1 0.2-2.1-0.6-2.2-1.7 0-0.1-0.9-6.7-6.3-10.6-3.9-2.8-9.2-3.6-15.7-2.4-7 1.3-15.2 7.2-23.1 12.9-8.3 6-16.9 12.1-24.8 13.5 3.4 7.2 3.1 17.8 2.8 28-0.2 9.8-0.5 19.8 2.3 26.3 2.7 6.1 6.4 10.1 10.9 11.7 6.2 2.2 12.2-0.7 12.3-0.7 0.9-0.5 2.1-0.1 2.6 0.8 0.5 1 0.2 2.2-0.8 2.7-0.2 0.1-4 2-9.1 2z"/>
					</g>
					<g id="&lt;Group&gt;">
						<path id="&lt;Path&gt;" class="s5" d="m-72.1-321.7c0 0-17.6-7-24.6 14.3-5.2 15.7 6.7 45.1-1.5 57.9l-0.4-0.5c15.1-2.5 37.4 20.1 53.8 21.5 22.3 2 22.9-16.9 22.9-16.9"/>
						<path id="&lt;Path&gt;" class="s5" d="m-41.6-226.3q-1.7 0-3.4-0.2c-8-0.7-17.1-6-25.8-11.1-9.2-5.3-18.6-10.9-25.9-10.6-0.4 0.5-0.9 0.7-1.5 0.7-0.7 0-1.3-0.3-1.7-0.9l-0.4-0.5c-0.3-0.6-0.4-1.3-0.1-1.9 0.2-0.6 0.7-1 1.3-1.1 3.1-6.6 1.8-17.4 0.5-27.9-1.2-10.2-2.5-20.6 0-28.2 2.4-7.4 6.4-12.5 11.8-15 7.6-3.6 15.1-0.7 15.4-0.5 1.1 0.4 1.6 1.5 1.1 2.6-0.4 1-1.5 1.5-2.5 1.1-0.1 0-6.3-2.4-12.3 0.4-4.4 2.1-7.6 6.3-9.7 12.7-2.2 6.7-1 16.7 0.2 26.4 1.2 10.1 2.5 20.6-0.2 28.2 8 0.6 17.1 5.9 26 11 8.4 4.9 17.1 10 24.1 10.7 6.7 0.6 11.9-0.8 15.5-3.9 5-4.4 5.3-11.1 5.3-11.1 0-1.1 0.9-2 2-2 1.1 0.1 2 1 2 2.1 0 0.3-0.3 8.4-6.6 13.9-3.8 3.4-8.9 5.1-15.1 5.1z"/>
					</g>
					<g id="&lt;Group&gt;">
						<path id="&lt;Path&gt;" class="s5" d="m72.7-408.4c0 0 2.4-18.8 24.4-14.6 16.2 3 36.3 27.6 51.5 26.5l-0.3-0.6c-9.4 12-0.4 42.5-7 57.5-9 20.6-25.8 12-25.8 12"/>
						<path id="&lt;Path&gt;" class="s5" d="m123.6-323.9c-5 0-8.8-1.9-9-2-1-0.5-1.4-1.7-0.9-2.7 0.5-0.9 1.7-1.3 2.7-0.8 0 0 6 2.9 12.3 0.7 4.5-1.6 8.1-5.6 10.8-11.7 2.8-6.5 2.6-16.5 2.3-26.3-0.2-10.2-0.5-20.8 2.8-28-7.9-1.4-16.4-7.5-24.8-13.5-7.9-5.7-16.1-11.6-23-12.9-6.6-1.2-11.9-0.4-15.8 2.4-5.3 3.9-6.3 10.5-6.3 10.6-0.1 1.1-1.1 1.8-2.2 1.7-1.1-0.1-1.9-1.1-1.7-2.2 0-0.4 1.1-8.3 7.8-13.3 4.8-3.5 11.2-4.5 18.9-3.1 7.9 1.5 16.4 7.6 24.7 13.5 8.6 6.2 17.4 12.6 24.7 13 0.4-0.4 1-0.6 1.6-0.6 0.7 0.1 1.3 0.5 1.6 1.1l0.3 0.6c0.3 0.6 0.3 1.3 0 1.9-0.3 0.5-0.8 0.9-1.4 1-3.7 6.2-3.5 17.1-3.2 27.7 0.3 10.2 0.6 20.7-2.7 28-3.1 7.2-7.5 11.9-13.1 13.9-2.2 0.8-4.4 1-6.4 1z"/>
					</g>
					<g id="&lt;Group&gt;">
						<path id="&lt;Path&gt;" class="s5" d="m116.5-321.7c0 0 17.6-7 24.6 14.3 5.2 15.7-6.7 45.1 1.6 57.9l0.3-0.5c-15-2.5-37.4 20.1-53.7 21.5-22.4 2-22.9-16.9-22.9-16.9"/>
						<path id="&lt;Path&gt;" class="s5" d="m86-226.3c-6.2 0-11.3-1.7-15.1-5.1-6.2-5.5-6.5-13.6-6.5-13.9-0.1-1.1 0.8-2 1.9-2.1 1.1 0 2 0.9 2.1 2 0 0 0.3 6.7 5.2 11.1 3.6 3.1 8.8 4.5 15.5 3.9 7.1-0.7 15.8-5.8 24.2-10.7 8.8-5.1 17.9-10.4 25.9-11-2.6-7.6-1.4-18.1-0.1-28.2 1.2-9.7 2.4-19.7 0.1-26.4-2.1-6.4-5.3-10.7-9.7-12.7-6-2.8-12.2-0.4-12.2-0.4-1 0.4-2.2-0.1-2.6-1.1-0.4-1.1 0.1-2.2 1.1-2.6 0.3-0.2 7.8-3.1 15.4 0.5 5.4 2.5 9.4 7.6 11.8 15 2.5 7.6 1.3 18 0 28.2-1.2 10.5-2.5 21.3 0.6 27.9 0.5 0.1 1 0.5 1.3 1.1 0.2 0.6 0.2 1.3-0.2 1.9l-0.4 0.5c-0.3 0.6-0.9 1-1.7 0.9-0.5 0-1.1-0.2-1.5-0.7-7.3-0.2-16.7 5.3-25.8 10.6-8.8 5.1-17.9 10.4-25.9 11.1q-1.7 0.2-3.4 0.2z"/>
					</g>
				</g>
				<g id="&lt;Group&gt;">
					<g id="&lt;Group&gt;">
						<path id="&lt;Compound Path&gt;" fill-rule="evenodd" class="s6" d="m21.8-229.2c-52.5 0-95.2-42.7-95.2-95.3 0-52.5 42.7-95.2 95.2-95.2 52.5 0 95.3 42.7 95.3 95.2 0 52.6-42.8 95.3-95.3 95.3zm0-184.5c-49.2 0-89.2 40-89.2 89.2 0 49.3 40 89.3 89.2 89.3 49.2 0 89.3-40 89.3-89.3 0-49.2-40.1-89.2-89.3-89.2z"/>
					</g>
					<g id="&lt;Group&gt;">
						<path id="&lt;Compound Path&gt;" fill-rule="evenodd" class="s6" d="m21.8-255c-42 0-76.1-34.2-76.1-76.2 0-41.9 34.1-76.1 76.1-76.1 42 0 76.1 34.2 76.1 76.1 0 42-34.1 76.2-76.1 76.2zm0-146.3c-38.7 0-70.1 31.5-70.1 70.1 0 38.7 31.4 70.2 70.1 70.2 38.7 0 70.1-31.5 70.1-70.2 0-38.6-31.4-70.1-70.1-70.1z"/>
					</g>
					<g id="&lt;Group&gt;">
						<path id="&lt;Compound Path&gt;" fill-rule="evenodd" class="s6" d="m21.8-294.8c-30.1 0-54.7-24.6-54.7-54.7 0-30.2 24.6-54.7 54.7-54.7 30.2 0 54.7 24.5 54.7 54.7 0 30.1-24.5 54.7-54.7 54.7zm0-103.4c-26.8 0-48.7 21.8-48.7 48.7 0 26.8 21.9 48.7 48.7 48.7 26.9 0 48.7-21.9 48.7-48.7 0-26.9-21.8-48.7-48.7-48.7z"/>
					</g>
				</g>
			</g>
			<text id="Sacral chakra
Svadhistana 
" style="transform: matrix(2,0,0,2,22.215,-134.58)" >
				<tspan x="-43.1" y="0" class="t2">Sacral chakra
</tspan>
				<tspan x="-38.7" y="15.2" class="t3">Svadhistana 
</tspan>
			</text>
			<text id="I desire
" style="transform: matrix(2,0,0,2,21.487,-47.992)" >
				<tspan x="-28.6" y="0" class="t4" dx="0 1 1 1 1 1 1 1 1" >I desire
</tspan>
			</text>
		</g>
		<g id="&lt;Group&gt;">
			<g id="&lt;Group&gt;">
				<g id="&lt;Group&gt;">
					<g id="&lt;Group&gt;">
						<path id="&lt;Path&gt;" class="s7" d="m489-322.9c0 51.7-41.9 93.6-93.6 93.6-51.6 0-93.5-41.9-93.5-93.6 0-51.6 41.9-93.5 93.5-93.5 51.7 0 93.6 41.9 93.6 93.5z"/>
						<path id="&lt;Compound Path&gt;" fill-rule="evenodd" class="s7" d="m395.4-227.3c-52.6 0-95.5-42.9-95.5-95.6 0-52.6 42.9-95.5 95.5-95.5 52.7 0 95.6 42.9 95.6 95.5 0 52.7-42.9 95.6-95.6 95.6zm0-187.1c-50.4 0-91.5 41.1-91.5 91.5 0 50.5 41.1 91.6 91.5 91.6 50.5 0 91.6-41.1 91.6-91.6 0-50.4-41.1-91.5-91.6-91.5z"/>
					</g>
					<g id="&lt;Group&gt;">
						<path id="&lt;Path&gt;" class="s7" d="m316.9-372l158.1-0.5-79.6 143.2z"/>
						<path id="&lt;Compound Path&gt;" fill-rule="evenodd" class="s7" d="m395.4-227.3q0 0 0 0c-0.7 0-1.4-0.4-1.7-1.1l-78.6-142.6c-0.3-0.6-0.3-1.4 0.1-2 0.3-0.6 1-1 1.7-1l158.1-0.5q0 0 0 0c0.7 0 1.4 0.4 1.8 1 0.3 0.6 0.3 1.4 0 2l-79.6 143.2c-0.4 0.6-1 1-1.8 1zm-75.1-142.7l75.2 136.6 76.1-137.1z"/>
					</g>
					<g id="&lt;Group&gt;">
						<path id="&lt;Path&gt;" class="s7" d="m399.8-418.9c0 0-6.9-11.6 7.4-18.9 10.4-5.3 32.4-0.2 40.5-7.4l-0.4-0.2c-0.1 10.8 18.2 24.1 21 35.4 3.9 15.5-9.4 18-9.4 18"/>
						<path id="&lt;Path&gt;" class="s7" d="m458.9-390c-0.9 0-1.7-0.7-1.9-1.7-0.2-1.1 0.5-2.1 1.6-2.3 0 0 4.4-0.9 6.8-4.7 1.8-2.7 2.1-6.4 1-10.8-1.2-4.8-5.7-10.3-10-15.6-4.5-5.5-9-11.1-10.6-16.6-5.1 2.5-12.3 2.7-19.4 3-6.9 0.2-14 0.4-18.3 2.7-4.1 2.1-6.7 4.7-7.6 7.8-1.2 4.3 1 8.2 1 8.2 0.6 1 0.3 2.2-0.7 2.8-1 0.5-2.2 0.2-2.7-0.7-0.2-0.2-3.2-5.4-1.4-11.4 1.2-4.2 4.4-7.7 9.5-10.3 5.2-2.6 12.8-2.9 20.1-3.1 7.3-0.3 14.9-0.6 19-3.2 0.2-0.5 0.5-0.9 0.9-1.2 0.6-0.4 1.3-0.4 1.9-0.1l0.4 0.2c0.6 0.2 1.1 0.8 1.2 1.5 0 0.5-0.1 1-0.3 1.4 0.7 4.9 5.4 10.8 10.1 16.5 4.6 5.6 9.4 11.5 10.8 17.1 1.4 5.6 0.9 10.3-1.5 14-3.4 5.2-9.2 6.4-9.5 6.4q-0.2 0.1-0.4 0.1z"/>
					</g>
					<g id="&lt;Group&gt;">
						<path id="&lt;Path&gt;" class="s7" d="m462.6-387.2c0 0 2.4-13.2 17.9-9.4 11.4 2.8 24.6 21 35.5 20.9l-0.2-0.4c-7.2 8.1-2 30.1-7.3 40.6-7.2 14.2-18.8 7.4-18.8 7.4"/>
						<path id="&lt;Path&gt;" class="s7" d="m496.2-324.5c-4.2 0-7.3-1.8-7.5-1.9-1-0.5-1.3-1.8-0.7-2.7 0.5-1 1.8-1.3 2.7-0.7 0 0 4 2.2 8.3 0.9 3.1-0.9 5.7-3.5 7.8-7.6 2.2-4.3 2.4-11.4 2.6-18.3 0.2-7.1 0.4-14.3 2.8-19.4-5.4-1.5-11.1-6.1-16.5-10.5-5.4-4.3-10.9-8.8-15.7-10-4.5-1.1-8.1-0.7-10.8 1-3.8 2.4-4.6 6.8-4.7 6.9-0.2 1.1-1.2 1.8-2.3 1.6-1.1-0.2-1.8-1.2-1.6-2.3 0.1-0.3 1.2-6.1 6.4-9.5 3.7-2.4 8.4-2.9 14-1.6 5.6 1.4 11.5 6.2 17.2 10.8 5.7 4.6 11.6 9.3 16.5 10 0.4-0.2 0.9-0.4 1.4-0.3 0.7 0.1 1.2 0.5 1.5 1.1l0.2 0.5c0.3 0.6 0.3 1.3-0.1 1.9-0.3 0.4-0.7 0.7-1.2 0.8-2.6 4.2-2.9 11.8-3.1 19.1-0.2 7.3-0.4 14.9-3.1 20.1-2.6 5.1-6 8.3-10.3 9.6-1.3 0.4-2.6 0.5-3.8 0.5z"/>
					</g>
					<g id="&lt;Group&gt;">
						<path id="&lt;Path&gt;" class="s7" d="m393.4-418.9c0 0 6.9-11.6-7.3-18.9-10.5-5.3-32.5-0.2-40.6-7.4l0.4-0.2c0.1 10.8-18.2 24.1-21 35.4-3.9 15.5 9.4 18 9.4 18"/>
						<path id="&lt;Path&gt;" class="s7" d="m334.3-390q-0.2 0-0.4-0.1c-0.2 0-6.1-1.2-9.5-6.4-2.3-3.7-2.8-8.4-1.5-14 1.4-5.6 6.2-11.5 10.8-17.1 4.7-5.7 9.4-11.6 10.1-16.5-0.2-0.4-0.3-0.9-0.3-1.4 0.1-0.7 0.6-1.3 1.2-1.5l0.4-0.2c0.6-0.3 1.3-0.3 1.9 0.1 0.4 0.3 0.7 0.7 0.9 1.2 4.1 2.6 11.7 2.9 19 3.2 7.3 0.2 14.9 0.5 20.1 3.1 5.1 2.6 8.3 6.1 9.5 10.3 1.8 6-1.2 11.2-1.4 11.4-0.5 0.9-1.7 1.2-2.7 0.7-0.9-0.6-1.3-1.8-0.7-2.8 0 0 2.2-3.9 1-8.2-0.9-3.1-3.5-5.7-7.6-7.8-4.3-2.3-11.4-2.5-18.3-2.7-7-0.3-14.3-0.5-19.4-3-1.5 5.5-6.1 11.1-10.6 16.6-4.3 5.3-8.8 10.8-10 15.6-1.1 4.4-0.8 8.1 1 10.8 2.4 3.8 6.8 4.7 6.8 4.7 1.1 0.2 1.8 1.3 1.6 2.3-0.2 1-1 1.7-1.9 1.7z"/>
					</g>
					<g id="&lt;Group&gt;">
						<path id="&lt;Path&gt;" class="s7" d="m327.5-387.2c0 0-2.4-13.2-17.9-9.4-11.4 2.8-24.6 21-35.5 20.9l0.2-0.4c7.2 8.1 2 30.1 7.3 40.6 7.2 14.2 18.8 7.4 18.8 7.4"/>
						<path id="&lt;Path&gt;" class="s7" d="m293.9-324.5c-1.2 0-2.5-0.1-3.8-0.5-4.3-1.3-7.7-4.5-10.3-9.6-2.6-5.2-2.9-12.8-3.1-20.1-0.2-7.3-0.5-14.9-3.1-19.1-0.5-0.1-0.9-0.4-1.2-0.8-0.4-0.6-0.4-1.3-0.1-1.9l0.2-0.5c0.3-0.6 0.8-1 1.5-1.1 0.5-0.1 1 0 1.4 0.3 4.9-0.7 10.8-5.4 16.5-10 5.7-4.6 11.6-9.4 17.2-10.8 5.6-1.3 10.3-0.8 14 1.6 5.2 3.4 6.4 9.2 6.4 9.5 0.2 1.1-0.5 2.1-1.6 2.3-1.1 0.2-2.1-0.5-2.3-1.6 0 0-0.9-4.5-4.7-6.9-2.7-1.7-6.4-2.1-10.8-1-4.8 1.2-10.3 5.7-15.7 10-5.4 4.4-11.1 9-16.5 10.5 2.4 5.1 2.6 12.4 2.8 19.4 0.2 6.9 0.4 14 2.6 18.3 2.1 4.2 4.8 6.7 7.9 7.6 4.2 1.3 8.2-0.9 8.2-0.9 0.9-0.6 2.2-0.3 2.7 0.7 0.6 0.9 0.3 2.2-0.7 2.7-0.2 0.1-3.3 1.9-7.5 1.9z"/>
					</g>
					<g id="&lt;Group&gt;">
						<path id="&lt;Path&gt;" class="s7" d="m399.8-228.9c0 0-6.9 11.6 7.4 18.8 10.4 5.4 32.4 0.2 40.5 7.5l-0.4 0.1c-0.1-10.8 18.2-24 21-35.4 3.9-15.5-9.4-17.9-9.4-17.9"/>
						<path id="&lt;Path&gt;" class="s7" d="m447.3-200.5q-0.6 0-1.1-0.3c-0.4-0.2-0.7-0.7-0.9-1.1-4.1-2.7-11.7-3-19-3.2-7.3-0.3-14.9-0.5-20.1-3.2-5.1-2.6-8.3-6.1-9.5-10.3-1.8-6 1.2-11.1 1.4-11.3 0.5-1 1.7-1.3 2.7-0.8 0.9 0.6 1.3 1.8 0.7 2.8 0 0-2.2 3.9-1 8.2 0.9 3.1 3.5 5.8 7.6 7.9 4.3 2.2 11.4 2.4 18.3 2.7 7.1 0.2 14.3 0.5 19.4 2.9 1.6-5.5 6.1-11.1 10.6-16.6 4.3-5.3 8.8-10.8 10-15.6 1.1-4.4 0.8-8.1-1-10.8-2.4-3.8-6.8-4.7-6.8-4.7-1.1-0.2-1.8-1.2-1.6-2.3 0.2-1.1 1.2-1.8 2.3-1.6 0.3 0 6.1 1.2 9.5 6.4 2.4 3.7 2.9 8.4 1.5 14-1.4 5.6-6.2 11.5-10.8 17.2-4.7 5.7-9.4 11.5-10.1 16.4 0.2 0.5 0.3 1 0.3 1.5-0.1 0.6-0.6 1.2-1.2 1.5l-0.4 0.2q-0.4 0.1-0.8 0.1z"/>
					</g>
					<g id="&lt;Group&gt;">
						<path id="&lt;Path&gt;" class="s7" d="m465.7-260.7c0 0 2.4 13.2 17.9 9.4 11.4-2.7 24.6-21 35.5-20.9l-0.2 0.4c-7.2-8.1-2-30.1-7.3-40.5-7.2-14.3-18.8-7.5-18.8-7.5"/>
						<path id="&lt;Path&gt;" class="s7" d="m478.3-248.6q-4.7 0-8.2-2.3c-5.2-3.3-6.3-9.2-6.4-9.4-0.2-1.1 0.5-2.2 1.6-2.4 1.1-0.2 2.1 0.5 2.3 1.6 0 0.1 0.9 4.5 4.7 6.9 2.7 1.8 6.4 2.1 10.8 1 4.8-1.2 10.3-5.6 15.7-9.9 5.4-4.5 11.1-9 16.5-10.6-2.4-5.1-2.6-12.3-2.8-19.4-0.2-6.8-0.4-13.9-2.6-18.3-2.1-4.1-4.8-6.7-7.9-7.6-4.2-1.2-8.2 0.9-8.2 1-0.9 0.5-2.2 0.2-2.7-0.8-0.6-0.9-0.3-2.1 0.7-2.7 0.2-0.1 5.4-3.1 11.3-1.3 4.3 1.2 7.7 4.4 10.3 9.6 2.7 5.2 2.9 12.7 3.1 20 0.2 7.3 0.5 14.9 3.1 19.1 0.5 0.1 0.9 0.4 1.2 0.8 0.4 0.6 0.4 1.3 0.1 2l-0.2 0.4c-0.3 0.6-0.8 1-1.5 1.1-0.5 0.1-1 0-1.4-0.3-4.9 0.7-10.8 5.5-16.5 10.1-5.7 4.6-11.6 9.3-17.2 10.7q-3.1 0.7-5.8 0.7z"/>
					</g>
					<g id="&lt;Group&gt;">
						<path id="&lt;Path&gt;" class="s7" d="m390.3-228.9c0 0 6.9 11.6-7.3 18.8-10.5 5.4-32.5 0.2-40.6 7.5l0.4 0.1c0.1-10.8-18.2-24-21-35.4-3.9-15.5 9.4-17.9 9.4-17.9"/>
						<path id="&lt;Path&gt;" class="s7" d="m342.8-200.5q-0.4 0-0.8-0.1l-0.4-0.2c-0.6-0.3-1.1-0.9-1.2-1.5 0-0.5 0.1-1 0.3-1.5-0.7-4.9-5.4-10.7-10.1-16.4-4.6-5.7-9.4-11.6-10.8-17.2-1.3-5.6-0.8-10.3 1.5-14 3.4-5.2 9.2-6.4 9.5-6.4 1.1-0.2 2.1 0.5 2.3 1.6 0.2 1.1-0.5 2.1-1.6 2.3 0 0-4.4 0.9-6.8 4.7-1.8 2.7-2.1 6.4-1 10.8 1.2 4.8 5.7 10.3 10 15.6 4.5 5.5 9 11.1 10.6 16.6 5.1-2.4 12.4-2.7 19.4-2.9 6.9-0.3 14-0.5 18.3-2.7 4.1-2.1 6.7-4.8 7.6-7.9 1.2-4.3-1-8.2-1-8.2-0.6-1-0.2-2.2 0.7-2.8 1-0.5 2.2-0.2 2.7 0.8 0.2 0.2 3.2 5.3 1.4 11.3-1.2 4.2-4.4 7.7-9.5 10.3-5.2 2.7-12.8 2.9-20.1 3.2-7.3 0.2-14.9 0.5-19 3.2-0.2 0.4-0.5 0.9-0.9 1.1q-0.5 0.3-1.1 0.3z"/>
					</g>
					<g id="&lt;Group&gt;">
						<path id="&lt;Path&gt;" class="s7" d="m327.5-260.7c0 0-2.4 13.2-17.9 9.4-11.4-2.7-24.6-21-35.5-20.9l0.2 0.4c7.2-8.1 2-30.1 7.3-40.5 7.2-14.3 18.8-7.5 18.8-7.5"/>
						<path id="&lt;Path&gt;" class="s7" d="m314.9-248.6q-2.7 0-5.8-0.7c-5.6-1.4-11.5-6.1-17.2-10.7-5.7-4.6-11.6-9.4-16.5-10.1-0.4 0.3-0.9 0.4-1.4 0.3-0.7-0.1-1.2-0.5-1.5-1.1l-0.2-0.4c-0.3-0.7-0.3-1.4 0.1-2 0.3-0.4 0.7-0.7 1.2-0.8 2.7-4.2 2.9-11.8 3.1-19.1 0.2-7.3 0.5-14.8 3.1-20 2.6-5.2 6-8.4 10.3-9.6 5.9-1.8 11.1 1.2 11.3 1.3 1 0.6 1.3 1.8 0.7 2.7-0.5 1-1.8 1.3-2.7 0.8 0-0.1-4-2.3-8.2-1-3.2 0.9-5.8 3.5-7.9 7.6-2.2 4.4-2.4 11.5-2.6 18.3-0.2 7.1-0.4 14.3-2.8 19.4 5.4 1.6 11.1 6.1 16.5 10.6 5.4 4.3 10.9 8.7 15.7 9.9 4.4 1.1 8.1 0.8 10.8-1 3.8-2.4 4.7-6.8 4.7-6.9 0.2-1.1 1.2-1.8 2.3-1.6 1.1 0.2 1.8 1.3 1.6 2.4 0 0.2-1.2 6.1-6.4 9.4q-3.5 2.3-8.2 2.3z"/>
					</g>
				</g>
				<g id="&lt;Group&gt;">
					<g id="&lt;Group&gt;">
						<path id="&lt;Compound Path&gt;" fill-rule="evenodd" class="s8" d="m395.4-226.3c-53.2 0-96.5-43.3-96.5-96.6 0-53.2 43.3-96.5 96.5-96.5 53.3 0 96.6 43.3 96.6 96.5 0 53.3-43.3 96.6-96.6 96.6zm0-187.1c-49.9 0-90.5 40.6-90.5 90.5 0 50 40.6 90.6 90.5 90.6 50 0 90.6-40.6 90.6-90.6 0-49.9-40.6-90.5-90.6-90.5z"/>
					</g>
					<g id="&lt;Group&gt;">
						<path id="&lt;Compound Path&gt;" fill-rule="evenodd" class="s8" d="m395.4-226.3q0 0 0 0c-1.1 0-2.1-0.6-2.6-1.6l-78.5-142.6c-0.5-0.9-0.5-2.1 0-3 0.5-0.9 1.5-1.5 2.6-1.5l158.1-0.5q0 0 0 0c1.1 0 2.1 0.6 2.6 1.5 0.6 0.9 0.6 2.1 0.1 3l-79.6 143.1c-0.6 1-1.6 1.6-2.7 1.6zm-73.4-142.7l73.5 133.5 74.4-134z"/>
					</g>
				</g>
			</g>
			<text id="Solar Plexus chakra
Manipura 
" style="transform: matrix(2,0,0,2,396.603,-134.58)" >
				<tspan x="-61.8" y="0" class="t2">Solar Plexus chakra
</tspan>
				<tspan x="-29.3" y="15.2" class="t3">Manipura 
</tspan>
			</text>
			<text id="tI control
" style="transform: matrix(2,0,0,2,395.826,-47.991)" >
				<tspan x="-38.2" y="0" class="t4" dx="0 1 1 1 1 1 1 1 1 1 1" >tI control
</tspan>
			</text>
		</g>
		<g id="&lt;Group&gt;">
			<g id="&lt;Group&gt;">
				<g id="&lt;Group&gt;">
					<g id="&lt;Group&gt;">
						<path id="&lt;Path&gt;" class="s9" d="m832.9-324.2c0 50.8-41.2 92-92 92-50.8 0-92-41.2-92-92 0-50.8 41.2-92 92-92 50.8 0 92 41.2 92 92z"/>
						<path id="&lt;Compound Path&gt;" fill-rule="evenodd" class="s9" d="m740.9-230.2c-51.8 0-94-42.2-94-94 0-51.8 42.2-94 94-94 51.8 0 94 42.2 94 94 0 51.8-42.2 94-94 94zm0-184c-49.6 0-90 40.4-90 90 0 49.6 40.4 90 90 90 49.6 0 90-40.4 90-90 0-49.6-40.4-90-90-90z"/>
					</g>
					<g id="&lt;Group&gt;">
						<path id="&lt;Path&gt;" class="s9" d="m659.3-279.8l84.2-135.9 78 135.9z"/>
						<path id="&lt;Compound Path&gt;" fill-rule="evenodd" class="s9" d="m825-277.8h-169.3l87.9-141.8zm-162.2-4h155.2l-74.6-130z"/>
					</g>
					<g id="&lt;Group&gt;">
						<path id="&lt;Path&gt;" class="s9" d="m659.3-369.2l84.2 135.9 78-135.9z"/>
						<path id="&lt;Compound Path&gt;" fill-rule="evenodd" class="s9" d="m743.6-229.3l-87.9-141.9h169.3zm-80.7-137.8l80.6 130 74.6-130z"/>
					</g>
					<g id="&lt;Group&gt;">
						<g id="&lt;Group&gt;">
							<path id="&lt;Path&gt;" class="s9" d="m705.8-455.8c8.1 7.6 7.8 4.3 22.3 9.4 20.2 7.2 10.7 27.6 10.7 27.6l-40.3 13.5c0 0-19.1-11.9-6.2-29 9.3-12.3 10.9-9.3 13.5-20.1"/>
							<path id="&lt;Compound Path&gt;" fill-rule="evenodd" class="s9" d="m698.3-403.2l-0.8-0.4c-0.4-0.3-9.6-6.1-11.4-15.7-1-5.4 0.6-10.8 4.6-16.2 3.5-4.5 5.9-7 7.6-8.9 3-3.1 4-4.1 5.5-10.5l0.9 0.2 2.5-2.6c4.8 4.5 6.2 4.9 10.4 5.8 2.4 0.6 5.8 1.4 11.2 3.3 6.3 2.2 10.6 5.9 12.7 11 3.8 9-0.7 18.9-0.9 19.3l-0.3 0.8zm8.9-48.8c-1.6 5.7-3.1 7.3-6 10.3-1.7 1.8-4 4.2-7.3 8.5-3.3 4.4-4.6 8.8-3.8 13.1 1.2 6.4 6.7 11 8.7 12.5l38.5-12.9c0.9-2.2 3.1-9.2 0.5-15.3-1.7-3.9-5.2-6.9-10.4-8.8-5.1-1.8-8.4-2.5-10.7-3.1-3.8-0.8-5.8-1.3-9.5-4.3z"/>
						</g>
					</g>
					<g id="&lt;Group&gt;">
						<g id="&lt;Group&gt;">
							<path id="&lt;Path&gt;" class="s9" d="m662.8-370.3c0 0-22.5-0.2-20.3-21.5 1.5-15.3 4.4-13.6 1-24.2"/>
							<path id="&lt;Path&gt;" class="s9" d="m662.8-368.3c-0.5 0-11.3-0.2-17.8-7.4-3.7-4.1-5.2-9.6-4.5-16.3 0.6-5.6 1.3-9 1.9-11.5 0.9-4.2 1.2-5.6-0.8-11.9l3.8-1.2c2.3 7.3 1.9 9.4 0.9 14-0.6 2.3-1.3 5.6-1.9 11-0.5 5.5 0.7 10 3.5 13.2 5.4 6 14.8 6.1 14.9 6.1z"/>
						</g>
						<g id="&lt;Group&gt;">
							<path id="&lt;Path&gt;" class="s9" d="m642.8-417.2c10.9 2.3 8.9-0.4 24-3.5 20.9-4.3 23.4 18.1 23.4 18.1l-30.9 33.4"/>
							<path id="&lt;Path&gt;" class="s9" d="m660.7-367.8l-2.9-2.7 30.3-32.8c-0.4-2.4-2.2-9.5-7.5-13.3-3.5-2.5-8-3.2-13.4-2.1-5.3 1.1-8.5 2.1-10.8 2.9-4.5 1.5-6.5 2.2-14 0.5l0.8-3.9c6.5 1.4 7.8 1 11.9-0.4 2.4-0.8 5.7-1.9 11.3-3 6.5-1.4 12.1-0.4 16.6 2.8 7.9 5.7 9.2 16.5 9.2 16.9l0.1 0.9z"/>
						</g>
					</g>
					<g id="&lt;Group&gt;">
						<g id="&lt;Group&gt;">
							<path id="&lt;Path&gt;" class="s9" d="m607.7-354.9c10.8-2.9 7.8-4.3 19.8-14 16.7-13.3 29.1 5.5 29.1 5.5l-9.8 41.3c0 0-20.2 10-27.9-10-5.5-14.4-2.1-14.1-10-22"/>
							<path id="&lt;Compound Path&gt;" fill-rule="evenodd" class="s9" d="m635.8-317.6c-2.4 0-4.9-0.4-7.4-1.3-5.1-2-8.9-6.2-11.3-12.5-2.1-5.3-2.9-8.6-3.6-11.1-1-4.1-1.4-5.5-6-10.2l0.6-0.7-0.9-3.4c6.4-1.7 7.4-2.8 10.4-5.8 1.8-1.8 4.2-4.3 8.7-7.8 5.2-4.2 10.6-5.9 16.1-5 9.6 1.5 15.6 10.5 15.9 10.9l0.5 0.7-10.3 43.1-0.8 0.4c-0.3 0.1-5.6 2.7-11.9 2.7zm-24-36.4c4 4.3 4.6 6.4 5.6 10.5 0.6 2.4 1.5 5.6 3.4 10.7 2 5.2 5 8.6 9.1 10.1 6 2.4 12.9 0.1 15.2-0.8l9.4-39.5c-1.5-1.9-6.3-7.5-12.8-8.5-4.2-0.7-8.6 0.8-12.9 4.2-4.3 3.4-6.6 5.8-8.4 7.5-2.6 2.7-4.1 4.2-8.6 5.8z"/>
						</g>
					</g>
					<g id="&lt;Group&gt;">
						<g id="&lt;Group&gt;">
							<path id="&lt;Path&gt;" class="s9" d="m696.8-241.8c0 0-18.2 13.2-4.2 29.3 10.2 11.6 11.5 8.5 14.9 19.2"/>
							<path id="&lt;Path&gt;" class="s9" d="m705.6-192.7c-2-6.3-3.1-7.3-6.3-10.1-1.8-1.8-4.4-4.1-8.2-8.4-4.4-5-6.3-10.3-5.7-15.8 1.1-9.7 9.8-16.1 10.2-16.4l2.4 3.2c-0.1 0.1-7.7 5.7-8.6 13.7-0.5 4.3 1.1 8.5 4.7 12.7 3.6 4.1 6.1 6.3 7.9 8 3.5 3.1 5.1 4.6 7.4 11.9z"/>
						</g>
						<g id="&lt;Group&gt;">
							<path id="&lt;Path&gt;" class="s9" d="m707.6-191.9c7.6-8.2 7.5-4.9 21.6-11.1 19.6-8.5 8.7-28.2 8.7-28.2l-42.5-8.4-8 17.5"/>
							<path id="&lt;Path&gt;" class="s9" d="m709.1-190.6l-2.9-2.7c5.2-5.6 7.2-6.3 11.7-7.6 2.3-0.7 5.5-1.7 10.5-3.9 5.1-2.2 8.3-5.4 9.7-9.5 2.1-6.2-0.5-12.9-1.5-15.2l-40.1-7.9-7.3 16.1-3.6-1.7 8.6-18.9 45 8.9 0.5 0.8c0.2 0.4 5.4 9.9 2.2 19.2-1.7 5.2-5.8 9.2-11.9 11.9-5.2 2.2-8.5 3.3-11 4-4.1 1.2-5.4 1.7-9.9 6.5z"/>
						</g>
					</g>
					<g id="&lt;Group&gt;">
						<g id="&lt;Group&gt;">
							<path id="&lt;Path&gt;" class="s9" d="m647.7-225c2.8-10.7 0.1-8.8-2.3-24.1-3.3-21.1 19.2-22.5 19.2-22.5l27.8 21 3 11"/>
							<path id="&lt;Path&gt;" class="s9" d="m649.6-224.4l-3.9-1.1c1.7-6.3 1.3-7.7 0.2-11.9-0.7-2.4-1.6-5.8-2.5-11.4-1-6.6 0.2-12.1 3.6-16.4 6.1-7.6 17-8.4 17.4-8.4l0.8-0.1 28.9 21.9 3.2 11.6-3.9 1.1-2.8-10.3-26.6-20.2c-2.3 0.3-9.7 1.7-13.9 6.9-2.7 3.4-3.6 7.9-2.7 13.3 0.8 5.4 1.7 8.6 2.4 11 1.2 4.5 1.8 6.5-0.2 14z"/>
						</g>
						<g id="&lt;Group&gt;">
							<path id="&lt;Path&gt;" class="s9" d="m693.7-240.7c0 0-1.4 22.4-22.5 19.2-15.3-2.3-13.4-5.1-24.1-2.2"/>
							<path id="&lt;Path&gt;" class="s9" d="m675.2-219.2q-2.1 0-4.3-0.3c-5.6-0.9-9-1.8-11.4-2.5-4.2-1.1-5.6-1.5-11.9 0.2l-1.1-3.8c7.5-2 9.5-1.5 14-0.2 2.4 0.6 5.6 1.5 11 2.3 5.5 0.9 9.9-0.1 13.3-2.8 6.2-5.1 6.9-14.5 6.9-14.6l4 0.3c-0.1 0.4-0.8 11.3-8.4 17.4-3.3 2.7-7.4 4-12.1 4z"/>
						</g>
					</g>
					<g id="&lt;Group&gt;">
						<g id="&lt;Group&gt;">
							<path id="&lt;Path&gt;" class="s9" d="m612-284.9c7.9-7.9 4.5-7.6 10-22 7.7-20 27.9-10 27.9-10l9.8 41.3c0 0-12.4 18.8-29.1 5.4-12-9.6-9-11-19.8-13.9"/>
							<path id="&lt;Compound Path&gt;" fill-rule="evenodd" class="s9" d="m642.7-263.4c-4.5 0-9-1.7-13.3-5.2-4.5-3.5-6.9-6-8.7-7.8-3-3.1-4-4.1-10.4-5.8l0.9-3.4-0.6-0.7c4.6-4.7 5-6.1 6-10.2 0.7-2.5 1.5-5.9 3.6-11.2 2.4-6.2 6.2-10.4 11.3-12.4 9.1-3.5 18.9 1.2 19.3 1.4l0.8 0.4 10.3 43.1-0.5 0.7c-0.3 0.4-6.3 9.4-15.9 10.9q-1.4 0.2-2.8 0.2zm-27.8-21.6c4.5 1.5 6 3 8.6 5.8 1.8 1.7 4.1 4.1 8.4 7.5 4.3 3.4 8.6 4.8 12.9 4.2 6.5-1 11.3-6.6 12.8-8.5l-9.4-39.5c-2.3-0.9-9.1-3.2-15.2-0.9-4.1 1.6-7.1 5-9.1 10.2-1.9 5.1-2.8 8.3-3.4 10.7-1 4.1-1.6 6.1-5.6 10.5z"/>
						</g>
					</g>
					<g id="&lt;Group&gt;">
						<g id="&lt;Group&gt;">
							<path id="&lt;Path&gt;" class="s9" d="m779.3-454.4c2.6 10.8 4.1 7.8 13.5 20.1 12.9 17.1-6.2 29-6.2 29l-40.3-13.5c0 0-9.5-20.4 10.7-27.6 14.5-5.1 14.1-1.8 22.3-9.4"/>
							<path id="&lt;Compound Path&gt;" fill-rule="evenodd" class="s9" d="m786.8-403.2l-42-13.9-0.3-0.8c-0.2-0.4-4.7-10.3-0.9-19.3 2.1-5.1 6.4-8.8 12.7-11 5.3-1.9 8.7-2.7 11.2-3.3 4.2-0.9 5.6-1.3 10.4-5.8l2.5 2.6 0.9-0.2c1.5 6.4 2.5 7.4 5.5 10.5 1.7 1.9 4.1 4.4 7.6 8.9 4 5.4 5.5 10.8 4.5 16.2-1.7 9.6-10.9 15.4-11.3 15.7zm-39-17.3l38.4 12.8c2.1-1.4 7.6-6 8.8-12.4 0.8-4.3-0.5-8.7-3.8-13.1-3.3-4.3-5.6-6.7-7.3-8.5-3-3-4.4-4.6-6-10.3-3.7 3-5.8 3.5-9.5 4.3-2.4 0.6-5.6 1.3-10.8 3.1-5.2 1.9-8.7 4.9-10.4 8.8-2.5 6.1-0.3 13.1 0.6 15.3z"/>
						</g>
					</g>
					<g id="&lt;Group&gt;">
						<g id="&lt;Group&gt;">
							<path id="&lt;Path&gt;" class="s9" d="m841.6-416c-3.4 10.6-0.6 8.9 1 24.2 2.2 21.3-20.3 21.5-20.3 21.5l-27.5-32.3c0 0 2.6-22.4 23.5-18.1 15.1 3.1 13.1 5.8 24 3.5"/>
							<path id="&lt;Compound Path&gt;" fill-rule="evenodd" class="s9" d="m821.4-368.3l-28.6-33.7 0.1-0.9c0-0.4 1.3-11.2 9.2-16.9 4.5-3.2 10-4.2 16.6-2.8 5.6 1.1 8.9 2.2 11.3 3 4.1 1.4 5.4 1.8 11.9 0.4l0.7 3.5 0.9 0.3c-2 6.3-1.7 7.7-0.8 11.9 0.6 2.5 1.3 5.9 1.9 11.5 0.7 6.7-0.8 12.2-4.5 16.3-6.5 7.2-17.3 7.4-17.8 7.4zm-24.4-34.9l26.2 30.9c2.5-0.2 9.7-1.3 14-6.1 2.9-3.3 4-7.7 3.5-13.2-0.6-5.4-1.3-8.7-1.8-11.1-1-4.1-1.4-6.2 0.2-11.9-4.7 0.7-6.7 0-10.3-1.2-2.4-0.8-5.5-1.8-10.9-2.9-5.4-1.2-9.9-0.4-13.4 2.1-5.4 3.9-7.1 11-7.5 13.4z"/>
						</g>
					</g>
					<g id="&lt;Group&gt;">
						<g id="&lt;Group&gt;">
							<path id="&lt;Path&gt;" class="s9" d="m874.3-354.9c-10.8-2.9-7.8-4.3-19.8-14-16.7-13.3-29.1 5.5-29.1 5.5l9.8 41.3c0 0 20.1 10 27.8-10 5.6-14.4 2.2-14.1 10.1-22"/>
							<path id="&lt;Compound Path&gt;" fill-rule="evenodd" class="s9" d="m846.2-317.6c-6.3 0-11.6-2.6-11.9-2.7l-0.9-0.4-10.2-43.1 0.5-0.7c0.3-0.4 6.3-9.4 15.9-10.9 5.5-0.9 10.9 0.8 16.1 5 4.4 3.5 6.9 6 8.7 7.8 3 3 4 4.1 10.4 5.8l-0.9 3.4 0.6 0.7c-4.6 4.7-5 6.1-6.1 10.2-0.6 2.5-1.5 5.8-3.5 11.1-2.4 6.3-6.2 10.5-11.4 12.5-2.4 0.9-4.9 1.3-7.3 1.3zm-9.3-5.9c2.3 0.9 9.1 3.2 15.2 0.8 4-1.5 7.1-4.9 9.1-10.1 1.9-5.1 2.8-8.3 3.4-10.7 1-4.1 1.6-6.2 5.6-10.5-4.5-1.6-6-3.1-8.7-5.8-1.7-1.7-4-4.1-8.3-7.5-4.3-3.5-8.7-4.9-12.9-4.2-6.5 1-11.3 6.6-12.8 8.5z"/>
						</g>
					</g>
					<g id="&lt;Group&gt;">
						<g id="&lt;Group&gt;">
							<path id="&lt;Path&gt;" class="s9" d="m774.5-193.3c3.4-10.7 4.7-7.6 14.8-19.2 14.1-16.1-4.1-29.3-4.1-29.3l-41.1 10.6c0 0-10.9 19.7 8.7 28.2 14.1 6.2 14 2.9 21.6 11.1"/>
							<path id="&lt;Compound Path&gt;" fill-rule="evenodd" class="s9" d="m772.9-190.6c-4.5-4.8-5.9-5.3-9.9-6.5-2.5-0.7-5.8-1.8-11-4-6.2-2.7-10.2-6.7-11.9-11.9-3.2-9.3 2-18.8 2.2-19.2l0.4-0.8 42.9-11 0.8 0.6c0.3 0.3 9.1 6.7 10.2 16.4 0.6 5.5-1.3 10.8-5.8 15.8-3.7 4.3-6.3 6.6-8.2 8.4-3.1 2.8-4.2 3.8-6.2 10.1l-0.9-0.3zm-27.4-39c-1 2.3-3.7 9-1.6 15.3 1.4 4.1 4.7 7.3 9.7 9.5 5 2.2 8.2 3.1 10.6 3.8 3.6 1.2 5.6 1.8 9.1 5.1 2-5.7 3.6-7.1 6.7-9.9 1.8-1.7 4.3-3.9 7.9-8 3.6-4.2 5.2-8.5 4.7-12.8-0.7-6.4-5.9-11.4-7.8-13z"/>
						</g>
					</g>
					<g id="&lt;Group&gt;">
						<g id="&lt;Group&gt;">
							<path id="&lt;Path&gt;" class="s9" d="m834.3-225c-2.9-10.7-0.1-8.8 2.3-24.1 3.3-21.1-19.2-22.5-19.2-22.5l-29.1 30.9c0 0 1.3 22.4 22.5 19.2 15.2-2.3 13.3-5.1 24.1-2.2"/>
							<path id="&lt;Compound Path&gt;" fill-rule="evenodd" class="s9" d="m806.8-219.2c-4.8 0-8.8-1.3-12.1-4-7.6-6.1-8.4-17-8.4-17.4v-0.9l30.3-32.2 1 0.1c0.4 0 11.2 0.8 17.3 8.4 3.5 4.3 4.7 9.8 3.7 16.4-0.9 5.6-1.8 9-2.5 11.4-1.2 4.2-1.6 5.6 0.1 11.9l-0.9 0.3-0.9 3.4c-6.4-1.7-7.8-1.3-11.9-0.2-2.4 0.7-5.8 1.6-11.4 2.5q-2.2 0.3-4.3 0.3zm-16.4-20.8c0.3 2.4 1.7 9.6 6.8 13.7 3.4 2.7 7.8 3.7 13.3 2.8 5.4-0.8 8.6-1.7 11-2.3 3.6-1 5.7-1.6 10.4-0.7-1.4-5.8-0.8-7.9 0.3-11.9 0.7-2.4 1.6-5.6 2.4-11 0.9-5.4-0.1-9.9-2.8-13.3-4-5.1-11.1-6.5-13.6-6.8z"/>
						</g>
					</g>
					<g id="&lt;Group&gt;">
						<g id="&lt;Group&gt;">
							<path id="&lt;Path&gt;" class="s9" d="m832.1-316.9c0 0 20.1-10 27.8 10 5.6 14.4 2.2 14.1 10.1 22"/>
							<path id="&lt;Path&gt;" class="s9" d="m868.6-283.5c-5.4-5.4-6-7.5-7.1-12-0.6-2.4-1.5-5.6-3.4-10.7-2-5.2-5.1-8.6-9.1-10.2-7.5-2.9-16 1.2-16 1.3l-1.8-3.6c0.4-0.2 10.2-4.9 19.2-1.4 5.2 2 9 6.2 11.4 12.4 2 5.3 2.9 8.7 3.5 11.2 1.1 4.1 1.5 5.5 6.1 10.2z"/>
						</g>
						<g id="&lt;Group&gt;">
							<path id="&lt;Path&gt;" class="s9" d="m871.2-284.1c-10.8 2.9-7.8 4.3-19.8 13.9-16.7 13.4-29.1-5.4-29.1-5.4l12.9-46.5"/>
							<path id="&lt;Path&gt;" class="s9" d="m839.3-263.4q-1.4 0-2.8-0.2c-9.6-1.5-15.6-10.5-15.9-10.9l-0.5-0.8 13.1-47.3 3.9 1-12.6 45.6c1.5 2 6.2 7.5 12.7 8.5 4.2 0.6 8.6-0.8 12.9-4.2 4.3-3.4 6.6-5.8 8.3-7.5 3.3-3.4 4.8-4.9 12.2-6.8l1.1 3.8c-6.4 1.7-7.4 2.7-10.4 5.8-1.8 1.8-4.3 4.3-8.7 7.8-4.3 3.5-8.8 5.2-13.3 5.2z"/>
						</g>
					</g>
				</g>
				<g id="&lt;Group&gt;">
					<g id="&lt;Group&gt;">
						<path id="&lt;Compound Path&gt;" fill-rule="evenodd" class="s10" d="m740.9-229.2c-52.4 0-95-42.6-95-95 0-52.4 42.6-95 95-95 52.4 0 95 42.6 95 95 0 52.4-42.6 95-95 95zm0-184c-49.1 0-89 39.9-89 89 0 49.1 39.9 89 89 89 49.1 0 89-39.9 89-89 0-49.1-39.9-89-89-89z"/>
					</g>
					<g id="&lt;Group&gt;">
						<path id="&lt;Compound Path&gt;" fill-rule="evenodd" class="s10" d="m821.5-276.8h-162.2c-1.1 0-2.1-0.6-2.7-1.5-0.5-1-0.5-2.1 0.1-3l84.2-136c0.6-0.9 1.6-1.4 2.6-1.4 1.1 0 2.1 0.6 2.6 1.5l78 135.9c0.6 1 0.6 2.1 0 3-0.5 1-1.5 1.5-2.6 1.5zm-156.9-6h151.7l-72.9-127z"/>
					</g>
					<g id="&lt;Group&gt;">
						<path id="&lt;Compound Path&gt;" fill-rule="evenodd" class="s10" d="m743.5-230.3c-1 0-2-0.5-2.6-1.4l-84.2-135.9c-0.6-0.9-0.6-2.1-0.1-3 0.6-1 1.6-1.6 2.7-1.6h162.2c1.1 0 2.1 0.6 2.6 1.5 0.6 1 0.6 2.1 0 3l-78 135.9c-0.5 1-1.5 1.5-2.6 1.5q0 0 0 0zm-78.9-135.9l78.8 127.1 72.9-127.1z"/>
					</g>
				</g>
			</g>
			<text id="Heart chakra
Anahata
" style="transform: matrix(2,0,0,2,740.991,-134.58)" >
				<tspan x="-41.1" y="0" class="t2">Heart chakra
</tspan>
				<tspan x="-25.4" y="15.2" class="t3">Anahata
</tspan>
			</text>
			<text id="I love
" style="transform: matrix(2,0,0,2,740.264,-47.991)" >
				<tspan x="-22.1" y="0" class="t4" dx="0 1 1 1 1 1 1" >I love
</tspan>
			</text>
		</g>
		<g id="&lt;Group&gt;">
			<g id="&lt;Group&gt;">
				<g id="&lt;Group&gt;">
					<g id="&lt;Group&gt;">
						<path id="&lt;Path&gt;" class="s11" d="m-86.9 144.7c0 49.5-40.2 89.6-89.7 89.6-49.5 0-89.7-40.1-89.7-89.6 0-49.5 40.2-89.7 89.7-89.7 49.5 0 89.7 40.2 89.7 89.7z"/>
						<path id="&lt;Compound Path&gt;" fill-rule="evenodd" class="s11" d="m-176.6 236.3c-50.6 0-91.7-41.1-91.7-91.6 0-50.6 41.1-91.7 91.7-91.7 50.5 0 91.7 41.1 91.7 91.7 0 50.5-41.2 91.6-91.7 91.6zm0-179.3c-48.3 0-87.7 39.3-87.7 87.7 0 48.3 39.4 87.6 87.7 87.6 48.3 0 87.7-39.3 87.7-87.6 0-48.4-39.4-87.7-87.7-87.7z"/>
					</g>
					<g id="&lt;Group&gt;">
						<path id="&lt;Path&gt;" class="s11" d="m-205.5 59.5c0 0-10-8.6-3.2-17.7 6.8-9.1 12.5-17.7 11.6-20.8l0.9 0.1c0.7 3 3.9 10.2 14.4 16.5 10.5 6.3 5.2 17.4 5.2 17.4"/>
						<path id="&lt;Path&gt;" class="s11" d="m-205.5 61.5c-0.4 0-0.9-0.1-1.3-0.5-3.9-3.4-9.7-12.1-3.5-20.4 11.4-15.3 11.4-18.5 11.3-19-0.1-0.6 0-1.3 0.4-1.8 0.4-0.5 0.9-0.8 1.6-0.8l0.8 0.1c1 0 1.8 0.6 2 1.5 0.2 0.9 2 8.5 13.4 15.3 9.5 5.7 8.1 15.6 6 20-0.4 1-1.6 1.4-2.6 0.9-1-0.4-1.4-1.6-1-2.6 0.2-0.4 4.3-9.6-4.4-14.9-7.6-4.5-11.5-9.5-13.4-13-1.6 3.3-4.7 8.5-10.9 16.7-5.5 7.4 2.6 14.7 2.9 15 0.9 0.7 1 2 0.2 2.8-0.4 0.5-0.9 0.7-1.5 0.7z"/>
					</g>
					<g id="&lt;Group&gt;">
						<path id="&lt;Path&gt;" class="s11" d="m-234.2 75.8c0 0-12.5-4.3-9.6-15.2 2.8-11 4.8-21.1 2.9-23.6l0.8-0.4c1.8 2.6 7.5 8.1 19.6 10 12.1 1.8 11.4 14.1 11.4 14.1"/>
						<path id="&lt;Path&gt;" class="s11" d="m-234.2 77.8q-0.3 0-0.6-0.1c-5-1.7-13.6-7.6-11-17.6 4.9-18.5 3.6-21.5 3.3-21.9-0.3-0.5-0.5-1.2-0.3-1.8 0.2-0.6 0.6-1.1 1.2-1.3l0.8-0.3c0.9-0.4 1.9 0 2.4 0.7 0.5 0.7 5.1 7.1 18.2 9.1 11 1.7 13.4 11.4 13.1 16.2 0 1.1-1 2-2.1 1.9-1.1 0-1.9-1-1.9-2.1 0-0.4 0.4-10.5-9.7-12.1-8.7-1.3-14.2-4.4-17.4-7-0.1 3.7-1.1 9.6-3.7 19.6-2.3 9 7.9 12.6 8.4 12.8 1 0.4 1.6 1.5 1.2 2.5-0.3 0.9-1 1.4-1.9 1.4z"/>
					</g>
					<g id="&lt;Group&gt;">
						<path id="&lt;Path&gt;" class="s11" d="m-255.8 103c0 0-13.2 0.9-14.8-10.3-1.5-11.2-3.6-21.4-6.3-22.9l0.6-0.7c2.6 1.8 10 4.6 21.9 1.7 11.9-2.9 16 8.7 16 8.7"/>
						<path id="&lt;Path&gt;" class="s11" d="m-256.8 105c-5.4 0-14.4-2.4-15.7-12.1-2.7-18.8-5-21.1-5.4-21.4-0.5-0.3-0.9-0.9-1-1.5 0-0.6 0.2-1.2 0.6-1.7l0.6-0.6c0.7-0.7 1.7-0.8 2.5-0.2 0.7 0.4 7.4 4.5 20.3 1.4 10.8-2.7 16.7 5.3 18.4 9.9 0.3 1.1-0.2 2.2-1.3 2.6-1 0.3-2.1-0.2-2.5-1.3-0.2-0.3-3.7-9.8-13.6-7.4-8.6 2.1-14.8 1.3-18.8 0.2 1.3 3.4 2.7 9.3 4.1 19.5 1.3 9.3 12.2 8.6 12.7 8.6 1.1-0.1 2 0.8 2.1 1.9 0.1 1.1-0.8 2-1.9 2.1q-0.5 0-1.1 0z"/>
					</g>
					<g id="&lt;Group&gt;">
						<path id="&lt;Path&gt;" class="s11" d="m-265.6 136c0 0-11.3 6.7-17.8-2.6-6.4-9.3-12.9-17.4-16-17.5l0.3-0.9c3.1 0.4 11-0.4 20.3-8.4 9.2-7.9 18.1 0.6 18.1 0.6"/>
						<path id="&lt;Path&gt;" class="s11" d="m-274 140.4c-3.9 0-8-1.5-11-5.8-10.9-15.7-14-16.7-14.5-16.7-0.6-0.1-1.2-0.4-1.5-1-0.4-0.5-0.5-1.1-0.3-1.7l0.3-0.8c0.3-0.9 1.2-1.5 2.1-1.4 0.9 0.1 8.7 0.8 18.8-7.9 8.4-7.2 17.3-2.7 20.8 0.6 0.8 0.8 0.8 2 0.1 2.8-0.8 0.8-2.1 0.9-2.9 0.1-0.3-0.3-7.7-7.1-15.4-0.5-6.8 5.8-12.7 7.9-16.7 8.6 2.7 2.5 6.6 7.2 12.5 15.6 5.3 7.7 14.7 2.2 15.1 2 1-0.6 2.2-0.3 2.8 0.7 0.5 0.9 0.2 2.2-0.7 2.7-2.2 1.3-5.8 2.7-9.5 2.7z"/>
					</g>
					<g id="&lt;Group&gt;">
						<path id="&lt;Path&gt;" class="s11" d="m-144.4 58.7c0 0 10-8.6 3.2-17.7-6.7-9-12.4-17.7-11.6-20.7h-0.9c-0.6 3-3.9 10.3-14.3 16.5-10.5 6.3-5.3 17.4-5.3 17.4"/>
						<path id="&lt;Path&gt;" class="s11" d="m-144.4 60.7c-0.5 0-1.1-0.2-1.5-0.6-0.7-0.9-0.6-2.1 0.2-2.9 0.4-0.3 8.5-7.6 2.9-15-6.1-8.2-9.3-13.3-10.8-16.7-2 3.6-5.8 8.5-13.4 13.1-8.8 5.2-4.6 14.4-4.5 14.8 0.5 1 0.1 2.2-0.9 2.7-1 0.4-2.2 0-2.7-1-2.1-4.4-3.5-14.3 6-20 11.4-6.8 13.3-14.4 13.5-15.2 0.2-1 1-1.6 1.9-1.6h0.9c0.6 0 1.2 0.3 1.6 0.7 0.4 0.5 0.5 1.2 0.4 1.8-0.2 0.5-0.2 3.8 11.2 19 6.3 8.4 0.5 17-3.5 20.5-0.3 0.3-0.8 0.4-1.3 0.4z"/>
					</g>
					<g id="&lt;Group&gt;">
						<path id="&lt;Path&gt;" class="s11" d="m-115.7 75c0 0 12.5-4.3 9.7-15.2-2.9-11-4.9-21.1-3-23.6l-0.8-0.3c-1.7 2.6-7.5 8-19.5 9.9-12.1 1.9-11.5 14.1-11.5 14.1"/>
						<path id="&lt;Path&gt;" class="s11" d="m-115.7 77c-0.8 0-1.6-0.5-1.9-1.3-0.3-1.1 0.2-2.2 1.3-2.6 0.4-0.1 10.7-3.8 8.3-12.8-2.5-9.9-3.5-15.9-3.7-19.6-3.1 2.6-8.6 5.7-17.3 7.1-10.1 1.5-9.8 11.6-9.8 12 0.1 1.1-0.8 2.1-1.9 2.1-1 0.1-2-0.8-2.1-1.9-0.2-4.8 2.2-14.5 13.2-16.2 13.1-2 17.7-8.3 18.2-9 0.5-0.8 1.5-1.1 2.4-0.8l0.8 0.3c0.6 0.3 1 0.8 1.2 1.4 0.1 0.6 0 1.2-0.4 1.7-0.3 0.4-1.5 3.4 3.3 21.9 2.7 10.1-6 15.9-10.9 17.6q-0.4 0.1-0.7 0.1z"/>
					</g>
					<g id="&lt;Group&gt;">
						<path id="&lt;Path&gt;" class="s11" d="m-94 102.2c0 0 13.2 0.9 14.7-10.3 1.6-11.2 3.7-21.4 6.4-22.9l-0.7-0.6c-2.6 1.7-10 4.5-21.8 1.6-11.9-2.9-16 8.7-16 8.7"/>
						<path id="&lt;Path&gt;" class="s11" d="m-93.1 104.3q-0.6 0-1.1-0.1c-1.1 0-1.9-1-1.8-2.1 0-1.1 1-1.9 2.1-1.9 0.5 0.1 11.4 0.6 12.6-8.6 1.5-10.1 2.8-16 4.1-19.5-3.9 1.2-10.1 2-18.7-0.1-9.9-2.5-13.5 7-13.6 7.4-0.4 1-1.5 1.6-2.6 1.2-1-0.4-1.6-1.5-1.2-2.6 1.6-4.6 7.6-12.6 18.3-9.9 13 3.1 19.6-0.9 20.3-1.4 0.8-0.5 1.9-0.4 2.5 0.2l0.7 0.6c0.4 0.5 0.6 1.1 0.6 1.7-0.1 0.6-0.5 1.2-1 1.5-0.5 0.3-2.8 2.6-5.4 21.5-1.3 9.6-10.4 12.1-15.8 12.1z"/>
					</g>
					<g id="&lt;Group&gt;">
						<path id="&lt;Path&gt;" class="s11" d="m-86.1 139.5c0 0 12 5.7 17.6-4.1 5.6-9.9 11.3-18.5 14.4-18.9l-0.4-0.9c-3 0.7-10.9 0.5-20.9-6.6-9.9-7.1-18 2.1-18 2.1"/>
						<path id="&lt;Path&gt;" class="s11" d="m-78.7 143.1c-3.2 0-6.2-0.9-8.2-1.8-1-0.5-1.5-1.7-1-2.7 0.5-1 1.7-1.4 2.7-0.9 0.4 0.2 10.3 4.7 14.9-3.3 5.1-8.9 8.6-13.9 11.1-16.6-4.1-0.4-10.2-2-17.3-7.1-8.4-6-15.1 1.5-15.4 1.8-0.8 0.8-2 0.9-2.9 0.2-0.8-0.8-0.9-2-0.1-2.9 3.2-3.6 11.7-8.8 20.7-2.4 10.8 7.8 18.5 6.5 19.3 6.3 1-0.2 1.9 0.3 2.3 1.1l0.3 0.8c0.3 0.6 0.3 1.3 0 1.8-0.4 0.6-0.9 0.9-1.5 1-0.5 0.1-3.5 1.4-13 18-2.9 5.1-7.6 6.7-11.9 6.7z"/>
					</g>
					<g id="&lt;Group&gt;">
						<path id="&lt;Path&gt;" class="s11" d="m-208.6 229.3c0 0-10 8.7-3.2 17.8 6.8 9 12.5 17.7 11.6 20.7h0.9c0.7-3 3.9-10.3 14.4-16.6 10.5-6.2 5.2-17.4 5.2-17.4"/>
						<path id="&lt;Path&gt;" class="s11" d="m-200.2 269.8c-0.6 0-1.2-0.3-1.5-0.8-0.4-0.5-0.6-1.1-0.4-1.7 0.1-0.5 0.1-3.8-11.3-19-6.2-8.4-0.4-17 3.5-20.5 0.9-0.7 2.1-0.6 2.8 0.2 0.8 0.9 0.7 2.1-0.2 2.8-0.3 0.4-8.4 7.6-2.9 15.1 6.2 8.2 9.3 13.3 10.9 16.7 1.9-3.6 5.8-8.5 13.4-13.1 8.8-5.3 4.6-14.4 4.4-14.8-0.4-1 0-2.2 1-2.7 1-0.4 2.2 0 2.6 1 2.1 4.4 3.5 14.2-6 20-11.4 6.8-13.2 14.4-13.4 15.2-0.2 0.9-1 1.6-2 1.6h-0.8q-0.1 0-0.1 0z"/>
					</g>
					<g id="&lt;Group&gt;">
						<path id="&lt;Path&gt;" class="s11" d="m-240.4 213.1c0 0-12.5 4.2-9.6 15.2 2.8 10.9 4.8 21.1 2.9 23.6l0.8 0.3c1.8-2.6 7.5-8 19.6-9.9 12.1-1.9 11.4-14.2 11.4-14.2"/>
						<path id="&lt;Path&gt;" class="s11" d="m-246.3 254.2q-0.3 0-0.7-0.1l-0.8-0.3c-0.6-0.3-1.1-0.8-1.2-1.4-0.2-0.6-0.1-1.2 0.3-1.7 0.3-0.4 1.6-3.5-3.3-21.9-2.6-10.1 6-15.9 11-17.6 1-0.4 2.2 0.2 2.5 1.2 0.4 1.1-0.2 2.2-1.2 2.6-0.5 0.1-10.7 3.8-8.4 12.8 2.6 9.9 3.6 15.9 3.7 19.6 3.2-2.6 8.7-5.7 17.4-7.1 10.1-1.6 9.7-11.6 9.7-12.1 0-1.1 0.8-2 1.9-2 1.1-0.1 2 0.7 2.1 1.8 0.3 4.9-2.1 14.6-13.1 16.3-13.1 2-17.7 8.3-18.2 9-0.4 0.6-1 0.9-1.7 0.9z"/>
					</g>
					<g id="&lt;Group&gt;">
						<path id="&lt;Path&gt;" class="s11" d="m-262 179.6c0 0-13.2-0.8-14.8 10.4-1.5 11.2-3.6 21.3-6.3 22.9l0.6 0.6c2.6-1.7 10-4.5 21.9-1.6 11.9 2.9 16-8.7 16-8.7"/>
						<path id="&lt;Path&gt;" class="s11" d="m-282.5 215.5c-0.5 0-1-0.2-1.4-0.5l-0.6-0.7c-0.5-0.4-0.7-1-0.6-1.6 0.1-0.7 0.4-1.2 1-1.5 0.4-0.3 2.7-2.6 5.4-21.5 1.4-10.3 11.6-12.4 16.8-12 1.1 0 2 1 1.9 2.1-0.1 1.1-1.1 1.9-2.1 1.8-0.5 0-11.4-0.5-12.7 8.7-1.4 10.1-2.8 16-4.1 19.5 4-1.2 10.2-2 18.8 0.1 10 2.5 13.4-7 13.6-7.4 0.4-1 1.5-1.6 2.5-1.2 1.1 0.4 1.6 1.5 1.3 2.5-1.7 4.6-7.6 12.6-18.4 10-12.9-3.1-19.6 0.9-20.3 1.4q-0.5 0.3-1.1 0.3z"/>
					</g>
					<g id="&lt;Group&gt;">
						<path id="&lt;Path&gt;" class="s11" d="m-268.7 143.6c0 0-11.3-6.8-17.8 2.5-6.4 9.3-12.9 17.4-16 17.6l0.3 0.8c3.1-0.3 11 0.5 20.3 8.4 9.2 8 18.1-0.5 18.1-0.5"/>
						<path id="&lt;Path&gt;" class="s11" d="m-273.4 178.3c-3.1 0-6.5-1-9.8-3.8-10.2-8.7-17.9-8.1-18.8-8-0.9 0.1-1.8-0.4-2.1-1.3l-0.3-0.8c-0.2-0.6-0.1-1.3 0.2-1.8 0.4-0.5 1-0.9 1.6-0.9 0.5 0 3.6-1.1 14.5-16.7 5.9-8.6 16-5.8 20.5-3.2 0.9 0.6 1.2 1.8 0.7 2.8-0.6 0.9-1.8 1.2-2.8 0.7-0.4-0.3-9.8-5.7-15.1 2-5.9 8.4-9.8 13-12.5 15.5 4 0.8 9.9 2.9 16.7 8.6 7.8 6.7 15.1-0.2 15.4-0.4 0.8-0.8 2.1-0.8 2.9 0 0.7 0.8 0.7 2.1-0.1 2.8-2.1 2.1-6.2 4.5-11 4.5z"/>
					</g>
					<g id="&lt;Group&gt;">
						<path id="&lt;Path&gt;" class="s11" d="m-144.4 230.1c0 0 10 8.7 3.2 17.7-6.7 9.1-12.4 17.8-11.6 20.8h-0.9c-0.6-3.1-3.9-10.3-14.3-16.6-10.5-6.3-5.3-17.4-5.3-17.4"/>
						<path id="&lt;Path&gt;" class="s11" d="m-152.8 270.6q0 0 0 0h-0.9c-0.9 0-1.7-0.7-1.9-1.6-0.2-0.8-2.1-8.4-13.5-15.3-9.5-5.7-8.1-15.5-6-19.9 0.5-1 1.7-1.5 2.7-1 1 0.5 1.4 1.7 0.9 2.7-0.1 0.3-4.3 9.5 4.5 14.8 7.6 4.6 11.4 9.5 13.4 13.1 1.5-3.4 4.7-8.5 10.8-16.8 5.6-7.4-2.5-14.7-2.9-15-0.8-0.7-0.9-2-0.2-2.8 0.7-0.8 2-0.9 2.8-0.2 4 3.4 9.8 12.1 3.5 20.4-11.4 15.3-11.4 18.6-11.2 19.1 0.1 0.6 0 1.2-0.4 1.7-0.4 0.5-1 0.8-1.6 0.8z"/>
					</g>
					<g id="&lt;Group&gt;">
						<path id="&lt;Path&gt;" class="s11" d="m-112.6 210.8c0 0 12.5 4.2 9.7 15.2-2.9 10.9-4.9 21.1-2.9 23.6l-0.9 0.3c-1.7-2.6-7.5-8.1-19.5-9.9-12.1-1.9-11.5-14.2-11.5-14.2"/>
						<path id="&lt;Path&gt;" class="s11" d="m-106.7 251.9c-0.6 0-1.3-0.3-1.6-0.9-0.5-0.7-5.1-7-18.2-9.1-11-1.7-13.4-11.3-13.2-16.2 0.1-1.1 1.1-1.9 2.2-1.9 1.1 0.1 1.9 1 1.8 2.1 0 0.4-0.3 10.5 9.8 12.1 8.7 1.3 14.2 4.5 17.3 7 0.2-3.7 1.2-9.6 3.7-19.5 2.4-9.1-7.9-12.7-8.3-12.9-1.1-0.3-1.6-1.4-1.3-2.5 0.4-1 1.5-1.6 2.6-1.2 4.9 1.6 13.6 7.5 10.9 17.6-4.8 18.4-3.6 21.4-3.3 21.9 0.4 0.5 0.5 1.1 0.4 1.7-0.2 0.6-0.6 1.1-1.2 1.3l-0.8 0.4q-0.4 0.1-0.8 0.1z"/>
					</g>
					<g id="&lt;Group&gt;">
						<path id="&lt;Path&gt;" class="s11" d="m-95.1 180.8c0 0 13.1-1.6 15.3 9.5 2.2 11.1 4.9 21.1 7.7 22.5l-0.6 0.6c-2.7-1.6-10.3-4-22-0.4-11.7 3.6-16.4-7.7-16.4-7.7"/>
						<path id="&lt;Path&gt;" class="s11" d="m-99.1 215.7c-7.6 0-12.3-5.9-13.9-9.6-0.4-1.1 0.1-2.2 1.1-2.7 1-0.4 2.2 0.1 2.6 1.1 0.2 0.4 4.3 9.6 14 6.6 8.5-2.6 14.8-2.2 18.7-1.2-1.5-3.4-3.2-9.2-5.2-19.3-1.8-9.1-12.6-7.9-13.1-7.8-1.1 0.1-2.1-0.7-2.2-1.8-0.2-1.1 0.6-2.1 1.7-2.2 5.2-0.6 15.5 0.8 17.6 11.1 3.7 18.7 6.1 20.8 6.6 21.1 0.5 0.3 0.9 0.8 1 1.4 0.1 0.6-0.1 1.3-0.5 1.7l-0.6 0.7c-0.6 0.7-1.6 0.8-2.4 0.3-0.8-0.4-7.7-4.1-20.4-0.2q-2.7 0.8-5 0.8z"/>
					</g>
					<g id="&lt;Group&gt;">
						<path id="&lt;Path&gt;" class="s11" d="m-84.3 147.4c0 0 11.4-6.7 17.8 2.6 6.5 9.3 12.9 17.4 16.1 17.6l-0.3 0.8c-3.1-0.3-11 0.5-20.3 8.4-9.3 8-18.2-0.5-18.2-0.5"/>
						<path id="&lt;Path&gt;" class="s11" d="m-79.5 182.2c-4.8 0-8.9-2.4-11.1-4.5-0.8-0.7-0.8-2 0-2.8 0.7-0.8 2-0.8 2.8-0.1 0.3 0.3 7.7 7.1 15.5 0.5 6.7-5.8 12.6-7.9 16.6-8.6-2.7-2.5-6.5-7.1-12.4-15.6-5.3-7.6-14.8-2.2-15.2-1.9-0.9 0.5-2.1 0.2-2.7-0.8-0.6-0.9-0.3-2.1 0.7-2.7 4.5-2.6 14.5-5.4 20.5 3.2 10.9 15.6 14 16.6 14.5 16.7 0.6 0 1.2 0.4 1.5 0.9 0.3 0.5 0.4 1.1 0.2 1.7l-0.2 0.9c-0.3 0.9-1.2 1.4-2.2 1.3-0.8-0.1-8.6-0.7-18.7 7.9-3.3 2.9-6.7 3.9-9.8 3.9z"/>
					</g>
					<g id="&lt;Group&gt;">
						<path id="&lt;Path&gt;" class="s11" d="m-251.4 98.2h152.3l-75.6 133.7z"/>
						<path id="&lt;Compound Path&gt;" fill-rule="evenodd" class="s11" d="m-174.7 233.9c-0.7 0-1.4-0.4-1.7-1l-76.8-133.7c-0.3-0.7-0.3-1.4 0.1-2 0.3-0.7 1-1 1.7-1h152.3c0.7 0 1.4 0.3 1.7 1 0.4 0.6 0.4 1.3 0.1 1.9l-75.6 133.8c-0.4 0.6-1 1-1.8 1q0 0 0 0zm-73.3-133.7l73.3 127.6 72.2-127.6z"/>
					</g>
					<g id="&lt;Group&gt;">
						<path id="&lt;Path&gt;" class="s11" d="m-132.4 141.6c0 24.4-19.8 44.2-44.2 44.2-24.4 0-44.2-19.8-44.2-44.2 0-24.4 19.8-44.2 44.2-44.2 24.4 0 44.2 19.8 44.2 44.2z"/>
						<path id="&lt;Compound Path&gt;" fill-rule="evenodd" class="s11" d="m-176.6 187.8c-25.5 0-46.2-20.8-46.2-46.2 0-25.5 20.7-46.2 46.2-46.2 25.5 0 46.2 20.7 46.2 46.2 0 25.4-20.7 46.2-46.2 46.2zm0-88.4c-23.3 0-42.2 18.9-42.2 42.2 0 23.2 18.9 42.2 42.2 42.2 23.3 0 42.2-19 42.2-42.2 0-23.3-18.9-42.2-42.2-42.2z"/>
					</g>
				</g>
				<g id="&lt;Group&gt;">
					<g id="&lt;Group&gt;">
						<path id="&lt;Compound Path&gt;" fill-rule="evenodd" class="s12" d="m-176.6 237.3c-51.1 0-92.7-41.5-92.7-92.6 0-51.1 41.6-92.7 92.7-92.7 51.1 0 92.7 41.6 92.7 92.7 0 51.1-41.6 92.6-92.7 92.6zm0-179.3c-47.8 0-86.7 38.9-86.7 86.7 0 47.8 38.9 86.6 86.7 86.6 47.8 0 86.7-38.8 86.7-86.6 0-47.8-38.9-86.7-86.7-86.7z"/>
					</g>
					<g id="&lt;Group&gt;">
						<path id="&lt;Compound Path&gt;" fill-rule="evenodd" class="s12" d="m-174.7 234.9c-1 0-2-0.6-2.6-1.5l-76.7-133.7c-0.6-1-0.6-2.1 0-3 0.5-1 1.5-1.5 2.6-1.5h152.3c1.1 0 2.1 0.5 2.6 1.4 0.5 1 0.5 2.1 0 3l-75.6 133.8c-0.5 0.9-1.5 1.5-2.6 1.5q0 0 0 0zm-71.5-133.7l71.5 124.6 70.5-124.6z"/>
					</g>
					<g id="&lt;Group&gt;">
						<path id="&lt;Compound Path&gt;" fill-rule="evenodd" class="s12" d="m-176.6 188.8c-26 0-47.2-21.2-47.2-47.2 0-26 21.2-47.2 47.2-47.2 26 0 47.2 21.2 47.2 47.2 0 26-21.2 47.2-47.2 47.2zm0-88.4c-22.7 0-41.2 18.5-41.2 41.2 0 22.7 18.5 41.2 41.2 41.2 22.7 0 41.2-18.5 41.2-41.2 0-22.7-18.5-41.2-41.2-41.2z"/>
					</g>
				</g>
			</g>
			<text id="Throat chakra
Vishuddha
" style="transform: matrix(2,0,0,2,-176.451,313.912)" >
				<tspan x="-44.5" y="0" class="t2">Throat chakra
</tspan>
				<tspan x="-31.6" y="15.2" class="t3">Vishuddha
</tspan>
			</text>
			<text id="I express
" style="transform: matrix(2,0,0,2,-177.204,391.01)" >
				<tspan x="-34.9" y="0" class="t4" dx="0 1 1 1 1 1 1 1 1 1" >I express
</tspan>
			</text>
		</g>
		<g id="&lt;Group&gt;">
			<g id="&lt;Group&gt;">
				<g id="&lt;Group&gt;">
					<g id="&lt;Group&gt;">
						<path id="&lt;Path&gt;" class="s13" d="m91.2 102.2l151.6-0.4-71 132.9z"/>
						<path id="&lt;Compound Path&gt;" fill-rule="evenodd" class="s13" d="m171.8 236.7c-0.7 0-1.3-0.3-1.7-0.9l-80.6-132.6c-0.4-0.6-0.4-1.4 0-2 0.3-0.6 1-1 1.7-1l151.6-0.4q0 0 0 0c0.7 0 1.3 0.4 1.7 1 0.3 0.6 0.4 1.3 0 1.9l-70.9 133c-0.3 0.6-1 1-1.7 1q0 0-0.1 0zm-77-132.5l76.9 126.5 67.7-126.9z"/>
					</g>
					<g id="&lt;Group&gt;">
						<path id="&lt;Path&gt;" class="s13" d="m268 150.4c0 48.5-43.3 87.8-96.6 87.8-53.3 0-96.5-39.3-96.5-87.8 0-48.5 43.2-87.8 96.5-87.8 53.3 0 96.6 39.3 96.6 87.8z"/>
						<path id="&lt;Compound Path&gt;" fill-rule="evenodd" class="s13" d="m171.4 240.2c-54.3 0-98.5-40.3-98.5-89.8 0-49.5 44.2-89.8 98.5-89.8 54.4 0 98.6 40.3 98.6 89.8 0 49.5-44.2 89.8-98.6 89.8zm0-175.6c-52.1 0-94.5 38.5-94.5 85.8 0 47.3 42.4 85.8 94.5 85.8 52.2 0 94.6-38.5 94.6-85.8 0-47.3-42.4-85.8-94.6-85.8z"/>
					</g>
					<g id="&lt;Group&gt;">
						<path id="&lt;Path&gt;" class="s13" d="m145.9 236.1c0 0-41.9 14.1-67.9-3.9-21.2-14.7-26-37.5-39.9-56.4-14.3-19.6-31.8-25.4-31.8-25.4v0.1c0 0 17.5-5.9 31.8-25.4 13.9-19 18.7-41.7 39.9-56.4 26-18 67.9-3.9 67.9-3.9"/>
						<path id="&lt;Path&gt;" class="s13" d="m112.3 243.4c-11.9 0-24.8-2.3-35.4-9.6-14.2-9.9-21.4-23.3-28.3-36.4-3.6-6.8-7.4-13.9-12.1-20.4-12.2-16.7-26.8-23.2-30.1-24.5-0.4 0-0.9-0.1-1.2-0.4-0.6-0.3-0.9-0.9-0.9-1.6 0-0.6 0.3-1.3 0.9-1.7 0.3-0.2 0.7-0.4 1.1-0.4 3.2-1.3 18-7.8 30.2-24.5 4.7-6.5 8.5-13.6 12.1-20.5 6.9-13 14.1-26.5 28.3-36.3 26.5-18.4 67.8-4.8 69.6-4.2 1 0.3 1.6 1.5 1.3 2.5-0.4 1.1-1.5 1.6-2.6 1.3-0.4-0.2-41.2-13.6-66 3.6-13.5 9.3-20.1 21.8-27 35-3.7 7-7.6 14.2-12.5 20.9-10.2 14-21.9 21.1-28.2 24.2 6.3 3.1 18 10.3 28.2 24.2 4.9 6.7 8.8 14 12.5 20.9 7 13.2 13.5 25.7 27 35 24.8 17.2 65.6 3.8 66 3.7 1.1-0.4 2.2 0.2 2.6 1.2 0.3 1.1-0.3 2.2-1.3 2.6-1.1 0.3-16.4 5.4-34.2 5.4z"/>
					</g>
					<g id="&lt;Group&gt;">
						<path id="&lt;Path&gt;" class="s13" d="m198.6 236.1c0 0 41.8 14.1 67.8-3.9 21.2-14.7 26.1-37.5 39.9-56.4 14.4-19.6 31.8-25.4 31.8-25.4v0.1c0 0-17.4-5.9-31.8-25.4-13.8-19-18.7-41.7-39.9-56.4-26-18-67.8-3.9-67.8-3.9"/>
						<path id="&lt;Path&gt;" class="s13" d="m232.2 243.4c-17.9 0-33.2-5.1-34.3-5.4-1-0.4-1.6-1.5-1.2-2.6 0.3-1 1.5-1.6 2.5-1.2 0.4 0.1 41.2 13.5 66.1-3.7 13.4-9.3 20-21.8 27-35 3.7-6.9 7.5-14.2 12.4-20.9 10.2-13.9 21.9-21.1 28.2-24.2-6.3-3.1-18-10.2-28.2-24.2-4.9-6.7-8.7-13.9-12.4-20.9-7-13.2-13.6-25.7-27-35-24.9-17.2-65.7-3.8-66.1-3.6-1 0.3-2.2-0.2-2.5-1.3-0.4-1 0.2-2.2 1.2-2.5 1.8-0.6 43.2-14.2 69.6 4.2 14.3 9.8 21.4 23.3 28.3 36.3 3.6 6.9 7.4 14 12.1 20.5 12.2 16.6 26.8 23.1 30.2 24.5 0.4-0.1 0.8 0.1 1.2 0.3 0.5 0.4 0.8 1 0.8 1.7 0 0.6-0.3 1.3-0.8 1.7-0.4 0.2-0.8 0.4-1.2 0.4-3.2 1.3-17.9 7.8-30.2 24.5-4.7 6.5-8.5 13.6-12.1 20.4-6.9 13.1-14 26.5-28.3 36.4-10.5 7.3-23.5 9.6-35.3 9.6z"/>
					</g>
				</g>
				<g id="&lt;Group&gt;">
					<g id="&lt;Group&gt;">
						<path id="&lt;Compound Path&gt;" fill-rule="evenodd" class="s14" d="m171.8 237.7c-1 0-2-0.5-2.5-1.4l-80.7-132.6c-0.5-0.9-0.5-2 0-3 0.5-0.9 1.5-1.5 2.6-1.5l151.6-0.4q0 0 0 0c1 0 2 0.5 2.5 1.4 0.6 0.9 0.6 2.1 0.1 3l-70.9 132.9c-0.5 1-1.5 1.6-2.6 1.6q0 0-0.1 0zm-75.3-132.5l75.2 123.5 66.1-123.9z"/>
					</g>
					<g id="&lt;Group&gt;">
						<path id="&lt;Compound Path&gt;" fill-rule="evenodd" class="s14" d="m171.4 241.2c-54.8 0-99.5-40.7-99.5-90.8 0-50 44.7-90.8 99.5-90.8 54.9 0 99.6 40.8 99.6 90.8 0 50.1-44.7 90.8-99.6 90.8zm0-175.6c-51.5 0-93.5 38.1-93.5 84.8 0 46.8 42 84.8 93.5 84.8 51.6 0 93.6-38 93.6-84.8 0-46.7-42-84.8-93.6-84.8z"/>
					</g>
				</g>
			</g>
			<text id="Third Eye chakra
Ajna
" style="transform: matrix(2,0,0,2,203.24,400.912)" >
				<tspan x="-52.4" y="0" class="t2">Third Eye chakra
</tspan>
				<tspan x="-13.4" y="15.2" class="t3">Ajna
</tspan>
			</text>
			<text id="I am the witness
" style="transform: matrix(2,0,0,2,171.488,391.01)" >
				<tspan x="-64.3" y="0" class="t4" dx="0 1 1 1 1 1 1 1 1 1 1 1 1 1 1 1 1" >I am the witness
</tspan>
			</text>
		</g>
		<g id="&lt;Group&gt;">
			<g id="&lt;Group&gt;">
				<g id="&lt;Group&gt;">
					<path id="&lt;Compound Path&gt;" fill-rule="evenodd" class="s15" d="m683.8 163.7l-0.1 0.1c-5.6 1.7-5 6.9-10 14.5-4.9 7.7-11.7 3.3-11.7 3.3v-0.5l-1.7 0.8c2.4 1.6 4.6 2.2 4.6 2.2l-0.1 0.1c0 0-7.5-0.4-12.3 4.9l1.5 1.6 0.6-1c0 0 8.8-1.5 9.6 6.8 0.8 8.2-2.4 12.5 2.1 15.9h-0.1c-5.7-1.3-7.8 3.5-15.9 7.6-5.8 3-9.3 0.2-10.8-1.7l-2.9-0.1c1.1 4.4 4.3 7.1 4.3 7.1l-0.1 0.1c0 0-5.3-2.8-11.6-1.2l0.5 2.7c1.4 0.3 8.2 2.7 6 9.8-2.5 7.9-7.1 10.6-4.3 15.5h-0.1c-4.8-3.4-8.5 0.1-17.6 0.8-9.1 0.7-9.7-7.4-9.7-7.4l0.5-0.3-2.2-3.7c-3.7 5.5-1.4 11.4-1.4 11.4v0.1c0 0-4.1-5.4-11.5-5.9l-2.2 0.8c1.6 1.6 5.4 6.1 0.9 11.1-5.6 6.2-10.9 6.7-10.4 12.3-3-5.2-7.9-3.5-16.4-6.6-8.5-3.2-5.7-10.8-5.7-10.8l1.4-0.3-1.2-1.2c-7.7 3.1-8.7 10.5-8.7 10.5h-0.1c0 0-1-7.6-9-10.6l-0.8 1.5 0.4 0.1c0 0 2.8 7.6-5.7 10.8-8.5 3.1-13.4 1.4-16.4 6.6 0.5-5.6-4.8-6.1-10.3-12.3-5.6-6.1 1.4-11.6 1.4-11.6l0.5 0.1v-3.2c-8.7-0.5-13.5 5.9-13.5 5.9h-0.1c0 0 1.6-4 0.2-8.4l-2.7-0.3 1.3 0.9c0 0-0.6 8.1-9.7 7.4-9.1-0.7-12.8-4.2-17.6-0.8h-0.1c2.8-4.9-1.8-7.6-4.3-15.5-2-6.3 3.2-8.9 5.4-9.6l-2.8-2.9c-5.3-0.7-9.6 1.5-9.6 1.5v-0.1c0 0 3.1-2.6 4.2-6.8l-4.3-3.8 1.2 2c0 0-3.7 7.2-11.8 3-8.1-4.1-10.2-8.9-15.9-7.6h-0.1c4.5-3.4 1.3-7.7 2.1-15.9 0.8-8.3 9.6-6.8 9.6-6.8l3.8 6.3-1.8-7.9c-3.3-2.7-7.3-3.4-9.4-3.5v0.1c0 0-6.8 4.4-11.7-3.3-5-7.6-4.4-12.8-10-14.5l-0.1-0.1c5.6-0.7 5-6 9.8-12.7 3.6-5.1 8.4-3.1 10.5-1.8l0.2-0.7c-3.9-3.7-9.2-4.2-9.2-4.2v-0.1c0 0 5-0.7 8.9-4.2v-0.2c-2.2 1.3-6.9 3.1-10.4-1.9-4.8-6.8-4.2-12-9.8-12.7l0.1-0.1c5.6-1.8 5-6.9 10-14.6 3.8-5.9 8.7-4.6 10.8-3.7 1.3 0 4.8-0.3 8.2-2.1l0.1-2.5c0 0-8.8 1.5-9.6-6.7-0.8-8.3 2.4-12.5-2.1-15.9h0.1c5.7 1.3 7.8-3.5 15.9-7.7 8.1-4.1 11.8 3.1 11.8 3.1l3.5 0.3c-0.1-5.8-4.6-9.6-4.6-9.6v-0.1c0 0 5.1 2.6 11.1 1.3l0.5-2.3c-2.4-1.1-6.3-3.7-4.6-9.4 2.5-7.9 7.1-10.6 4.3-15.5h0.1c4.8 3.5 8.5-0.1 17.6-0.8 9.1-0.7 9.7 7.4 9.7 7.4l-0.8 0.6 1.9 0.1c1.8-4.7 0.1-9 0.1-9l0.1-0.1c0 0 4.3 5.8 12.1 6l1.9-2.7-1 0.2c0 0-7-5.5-1.4-11.7 5.5-6.1 10.8-6.6 10.3-12.2 3 5.1 7.9 3.5 16.4 6.6 8.5 3.2 5.7 10.8 5.7 10.8l-3.7 0.7 1.2 1.2q0.2-0.1 0.5-0.2c10.2-2.2 11.4-11.3 11.4-11.3h0.1c0 0 1.1 7.8 9.5 10.8l2.7-0.5-3.7-0.7c0 0-2.8-7.6 5.7-10.8 8.5-3.1 13.4-1.5 16.4-6.6-0.5 5.6 4.8 6.1 10.4 12.2 4 4.5 1.4 8.6-0.3 10.5l1.5 0.9c7.5-0.5 11.6-5.9 11.6-5.9 0 0-2.3 5.8 1.3 11.3l2.1-3.1-0.3-0.2c0 0 0.6-8.1 9.7-7.4 9.1 0.7 12.8 4.3 17.6 0.8h0.1c-2.8 4.9 1.8 7.6 4.3 15.5 2.5 7.9-6.2 10-6.2 10l-0.2-0.1 0.5 2.2c6 1.2 11-1.3 11-1.3h0.1c0 0-2 1.7-3.4 4.6h0.3l2 2.7c1.7-1.9 5.1-4.2 10.5-1.4 8.1 4.2 10.2 9 15.9 7.7h0.1c-4.5 3.4-1.3 7.6-2.1 15.9-0.5 5.1-4.1 6.5-6.7 6.8l1.2 3.9c3.3 1.1 6.1 0.9 6.1 0.9l0.1 0.1c0 0-1.3 0.4-2.9 1.2l2.8 0.9c2.4-0.5 6-0.2 8.9 4.3 5 7.7 4.4 12.8 10 14.6l0.1 0.1c-5.6 0.7-5 5.9-9.8 12.7-2.7 3.8-6.1 3.6-8.6 2.7v0.6c3.2 1.7 6.2 2 6.2 2v0.1c0 0-2.9 0.4-6 2.1v2.8c2.4-0.9 5.7-1 8.4 2.8 4.8 6.7 4.2 12 9.8 12.7zm-251.1-55.5q-0.8-0.4-1.5-0.7v1.3zm-1.6 72.5c0.8-0.3 1.9-0.9 3-1.6l-3-1.2z"/>
					<path id="&lt;Compound Path&gt;" fill-rule="evenodd" class="s15" d="m577.7 273.4q-0.4 0-0.8-0.2c-0.3-0.1-0.8-0.5-1-0.8-1.3-2.4-3-2.8-7-3.6-2.3-0.4-5-1-8.3-2.2-3.2-1.2-5.4-3-6.6-5.6-0.7-1.6-0.9-3.3-0.8-4.6-3.5 2.9-4.1 6.8-4.1 6.9-0.1 0.9-1 1.7-2 1.7-1 0-1.9-0.8-2-1.7-0.1-0.3-0.8-4.8-5.1-7.7 0.1 1.5 0.1 3.4-0.8 5.4-1.2 2.6-3.4 4.4-6.6 5.6-3.3 1.2-6 1.8-8.3 2.2-4 0.8-5.7 1.2-7 3.6q-0.3 0.5-0.9 0.8c-0.7 0.3-1.5 0.2-2.1-0.2-0.5-0.4-0.9-1.1-0.8-1.8 0.2-2.3-0.8-3.2-3.9-5.5-1.7-1.3-3.8-2.9-5.9-5.2-2-2.2-2.9-4.6-2.6-7.1 0.2-3.3 2.6-5.9 3.7-7-6.2 0.6-9.6 5-9.6 5.1-0.5 0.7-1.5 1-2.4 0.6-1-0.4-1.5-1.6-1.1-2.6 0 0 0.2-0.5 0.3-1.2q-0.5 0.6-1.2 1.3c-2.1 1.8-4.9 2.6-8.3 2.3-3.5-0.2-6.3-0.9-8.5-1.5-3.9-0.9-5.6-1.2-7.9 0.3-0.3 0.3-0.8 0.4-1.2 0.4-0.7 0-1.4-0.4-1.7-1-0.4-0.6-0.4-1.4 0-2 1.1-2 0.6-3.3-1.2-6.6-1-1.9-2.3-4.2-3.3-7.3-1.6-5.1 0.7-8.7 3.9-10.8l-0.3-0.4c-4.3-0.3-7.7 1.4-7.8 1.4-0.8 0.4-1.8 0.2-2.4-0.5-0.7-0.8-0.7-2.2 0.2-2.9 0 0 2.1-1.8 3.2-4.7-1 1.2-2.6 2.7-4.9 3.5-2.7 0.8-5.6 0.5-8.6-1.1-3.1-1.6-5.4-3.3-7.2-4.6-3.3-2.5-4.7-3.4-7.4-2.8q-0.6 0.1-1.2-0.2c-0.7-0.3-1.2-0.9-1.2-1.6-0.1-0.7 0.1-1.4 0.7-1.8 1.9-1.4 1.9-2.8 1.5-6.6-0.2-2.1-0.5-4.7-0.2-7.9 0.3-2.9 1.5-5.2 3.5-6.7 1.7-1.3 3.8-1.8 5.5-1.9-1.6-0.7-3.1-0.9-4.2-1.1-1.1 0.6-3.9 1.8-7.1 1.1-2.8-0.6-5.1-2.3-6.9-5.2-1.9-2.9-3-5.5-3.9-7.6-1.7-3.7-2.4-5.3-5-6.1q-0.6-0.2-1-0.7c-0.5-0.6-0.6-1.4-0.3-2 0.3-0.7 0.9-1.2 1.6-1.3 2.3-0.3 3-1.5 4.5-4.9 0.9-1.9 2-4.4 3.9-7 1.1-1.5 2.4-2.7 3.9-3.4-0.6-0.1-1-0.1-1-0.1-1-0.1-1.8-1-1.8-2 0-1 0.8-1.9 1.7-2.1q0.1 0 0.5-0.1-1.9-1-3.3-3.1c-1.9-2.6-3-5-3.9-6.9-1.5-3.5-2.2-4.7-4.5-5-0.7 0-1.4-0.5-1.6-1.2-0.3-0.6-0.2-1.4 0.2-1.9 0.3-0.4 0.7-0.7 1.1-0.8 2.6-0.8 3.3-2.4 5-6.1 0.9-2.1 2-4.7 3.9-7.7 4.5-6.9 10.5-5.5 12.8-4.6 0.9 0 2.4-0.2 4-0.7-1.3-0.2-2.8-0.8-4.1-1.8-2-1.5-3.2-3.7-3.5-6.6-0.3-3.2 0-5.9 0.2-8 0.4-3.7 0.4-5.1-1.5-6.5-0.6-0.4-0.9-1.1-0.8-1.8 0.1-0.7 0.5-1.3 1.2-1.6 0.4-0.2 0.9-0.3 1.3-0.2 2.7 0.6 4.1-0.4 7.4-2.8 1.8-1.4 4.1-3.1 7.2-4.6 3-1.6 5.9-2 8.6-1.1 2.7 0.8 4.4 2.8 5.3 4-1-3.6-3.6-5.9-3.6-5.9-0.9-0.7-1-2-0.2-2.8 0.6-0.7 1.6-1 2.4-0.5 0.1 0 3.5 1.6 7.8 1.4-3.6-2.5-4.9-6.3-3.6-10.7 1-3 2.3-5.4 3.3-7.3 1.8-3.3 2.3-4.5 1.2-6.6-0.4-0.6-0.4-1.3-0.1-1.9 0.4-0.6 1-1 1.7-1.1 0.4 0 1 0.2 1.3 0.4 2.3 1.6 4 1.3 7.9 0.3 2.2-0.5 5-1.2 8.5-1.5 3.4-0.2 6.2 0.6 8.3 2.4q0.8 0.7 1.4 1.5c-0.2-1.3-0.5-2.1-0.5-2.1-0.4-1 0.1-2.1 1-2.6 0.9-0.3 2-0.1 2.5 0.6 0.1 0.2 3.3 4.2 8.9 5-1.2-1.3-2.8-3.5-3-6.3-0.3-2.5 0.6-4.8 2.6-7 2.1-2.4 4.2-4 5.9-5.3 3.1-2.2 4.1-3.1 3.9-5.5-0.1-0.7 0.2-1.4 0.8-1.8 0.6-0.4 1.3-0.5 2-0.2 0.4 0.2 0.8 0.5 1 0.9 1.3 2.4 3 2.8 7 3.6 2.3 0.4 5 0.9 8.3 2.1 3.2 1.2 5.4 3.1 6.6 5.6 0.8 1.7 0.9 3.4 0.8 4.8 4.4-3 5-7.6 5.1-7.6 0.1-1 0.9-1.8 1.9-1.8 1 0 2 0.8 2.1 1.8 0 0.2 0.6 4 4.1 6.9 0-1.2 0.2-2.7 0.8-4.1 1.2-2.5 3.4-4.4 6.6-5.6 3.3-1.2 6-1.7 8.3-2.1 4-0.8 5.7-1.2 7-3.6 0.2-0.4 0.6-0.7 1-0.8 0.6-0.3 1.4-0.3 2 0.2 0.5 0.4 0.9 1 0.8 1.7-0.2 2.4 0.8 3.3 3.9 5.5 1.7 1.3 3.8 2.9 5.9 5.3 2.9 3.2 3.4 6.9 1.7 10.4 5.2-1.1 8-4.8 8.1-4.8 0.5-0.8 1.5-1 2.4-0.7 1 0.5 1.5 1.6 1.1 2.6-0.1 0.2-1 2.6-0.5 5.6 0.4-1.5 1.3-3.6 3.2-5.3 2.1-1.8 4.9-2.6 8.3-2.4 3.5 0.3 6.3 1 8.5 1.5 4 1 5.7 1.3 7.9-0.3 0.3-0.2 0.8-0.3 1.2-0.4 0.7 0.1 1.4 0.4 1.7 1.1 0.4 0.6 0.4 1.3 0.1 1.9-1.2 2.1-0.7 3.3 1.1 6.6 1 1.9 2.3 4.3 3.3 7.3 0.8 2.8 0.7 5.3-0.6 7.5-0.9 1.6-2.3 2.7-3.6 3.5 3.7 0 6.5-1.4 6.5-1.4 0.9-0.4 1.9-0.2 2.5 0.5 0.7 0.8 0.6 2.1-0.2 2.8 0 0-1.2 1-2.2 2.7l0.1 0.1c3.1-2.1 7.1-2.2 11.1-0.1 3.1 1.5 5.4 3.2 7.2 4.6 3.3 2.4 4.7 3.4 7.4 2.8q0.6-0.1 1.2 0.1c0.7 0.3 1.2 0.9 1.2 1.6 0.1 0.8-0.1 1.5-0.7 1.9-1.9 1.4-1.8 2.8-1.5 6.5 0.2 2.1 0.5 4.8 0.2 8-0.4 4-2.6 6.9-6.2 8.1l0.3 0.8c2.4 0.6 4.4 0.5 4.5 0.5 0.9 0 1.8 0.7 2 1.6q0 0.2 0 0.4c2.6 0.1 5.9 1.2 8.6 5.4 1.9 3 3 5.6 3.9 7.7 1.7 3.7 2.4 5.3 5 6.1q0.6 0.2 1 0.7c0.5 0.5 0.6 1.3 0.3 2-0.3 0.7-0.9 1.2-1.6 1.2-2.3 0.3-3 1.5-4.5 5-0.9 1.9-2 4.3-3.9 6.9q-1.2 1.7-2.7 2.7c0.5 0.4 0.7 1 0.7 1.6 0 0.9-0.8 1.8-1.7 2-0.1 0-0.9 0.1-2.2 0.5 2.3 0.4 4.3 1.8 5.9 4 1.9 2.6 3 5.1 3.9 7 1.5 3.4 2.2 4.6 4.5 4.9 0.7 0.1 1.4 0.6 1.6 1.2 0.3 0.7 0.2 1.4-0.2 2-0.3 0.3-0.7 0.7-1.1 0.8-2.6 0.8-3.3 2.4-5 6.1-0.9 2.1-2 4.7-3.9 7.6-1.8 2.9-4.1 4.6-6.9 5.2q-0.9 0.2-1.8 0.2c-0.3 0.8-1.1 1.4-2 1.4 0 0-3.5-0.1-7 1.5 1.6 0.2 3.4 0.7 5.1 1.9 1.9 1.5 3.1 3.8 3.4 6.7 0.3 3.2 0 5.8-0.2 7.9-0.3 3.8-0.4 5.2 1.5 6.6 0.6 0.4 0.9 1.1 0.8 1.8-0.1 0.7-0.5 1.3-1.2 1.6-0.4 0.2-0.9 0.3-1.3 0.2-2.7-0.6-4.1 0.3-7.4 2.8-1.8 1.3-4.1 3-7.2 4.6-4.7 2.5-8.3 1.6-10.6 0.1 0.8 1.2 1.6 1.9 1.6 1.9 0.8 0.7 0.9 1.9 0.2 2.8-0.6 0.7-1.6 1-2.5 0.6 0-0.1-3.3-1.7-7.5-1.4 1.6 0.7 3.6 2.1 4.7 4.3 1.2 2.1 1.3 4.5 0.5 7.2-1 3.1-2.3 5.4-3.3 7.3-1.8 3.3-2.3 4.6-1.1 6.6 0.3 0.6 0.3 1.4 0 2-0.6 1-2.1 1.3-3 0.6-2.2-1.5-3.9-1.2-7.9-0.3-2.2 0.6-5 1.3-8.5 1.5-3.4 0.3-6.2-0.5-8.3-2.3-2-1.8-2.9-4.1-3.2-5.5-0.4 2.8 0.5 5.1 0.5 5.1 0.4 1-0.1 2.1-1 2.6-0.9 0.3-2 0.1-2.5-0.6-0.1-0.1-3.1-4-8.5-5 1.9 3.3 2.2 7.3-1.3 11.2-2.1 2.3-4.2 3.9-5.9 5.2-3.1 2.3-4.1 3.2-3.9 5.5 0.1 0.7-0.2 1.4-0.8 1.8q-0.5 0.4-1.2 0.4zm-20.5-17.7c-0.3 1.8-0.2 5.3 4.8 7.2 2.9 1.1 5.4 1.6 7.6 2 2.6 0.5 5 0.9 6.9 2.3 1-2 2.8-3.3 4.7-4.7 1.6-1.2 3.5-2.6 5.4-4.7 3-3.4 1.2-6.4-0.8-8.3-0.5-0.5-0.7-1.2-0.6-1.9 0.1-0.7 0.6-1.2 1.3-1.4l2.2-0.9q0.4-0.1 0.8-0.1c3.7 0.2 6.6 1.5 8.7 2.9 0.1-2.3 0.7-5 2.5-7.6 0.4-0.6 1-1 1.7-0.9 0.7 0 1.3 0.4 1.7 1l2.1 3.7c0.4 0.7 0.3 1.4 0 2 0.4 1.8 1.9 5.1 7.3 4.7 3.2-0.2 5.7-0.8 7.8-1.3 2.6-0.7 4.9-1.2 7.2-0.8 0.1-2.2 1.2-4.2 2.3-6.2 1-1.8 2.1-3.9 3-6.6 0.5-1.6 0.4-3-0.2-4.1-1.1-2.2-3.9-3.1-4.5-3.2-0.7-0.2-1.2-0.8-1.4-1.6l-0.4-2.6c-0.2-1.1 0.4-2.1 1.5-2.3 2.5-0.7 5-0.7 7.1-0.4-0.5-1-0.9-2-1.2-3.2-0.2-0.6 0-1.3 0.4-1.8 0.4-0.5 1-0.7 1.6-0.7l2.8 0.1c0.6 0 1.1 0.3 1.5 0.7 2.1 2.6 4.9 3 8.4 1.3 2.8-1.5 4.8-3 6.6-4.3 2.1-1.6 4-3 6.3-3.6-0.7-2-0.5-4.2-0.3-6.6 0.2-2 0.5-4.3 0.2-7.1-0.2-1.8-0.8-3.1-1.9-3.9-1.4-1.1-3.4-1.2-4.5-1.2l-0.1 0.1c-0.3 0.6-0.9 0.9-1.5 1-0.7 0.1-1.3-0.2-1.7-0.6l-1.5-1.7c-0.7-0.8-0.7-1.9 0-2.7 2.3-2.5 5.2-3.9 7.7-4.7-0.3-0.3-0.4-0.8-0.3-1.3 0-0.7 0.5-1.3 1.1-1.6l1.7-0.8c0.6-0.3 1.4-0.2 1.9 0.2q0.5 0.3 0.7 0.8c1.6 0.7 5.3 1.6 8.3-3 1.7-2.7 2.7-5 3.6-7.1 1-2.4 2-4.6 3.7-6.2-1.7-1.4-2.6-3.4-3.6-5.5-0.8-1.9-1.8-4.1-3.4-6.4-1.7-2.2-3.6-2.9-6.1-2.1-0.6 0.2-1.3 0.2-1.8-0.2-0.5-0.4-0.9-1-0.9-1.6v-2.7c-0.1-0.7 0.3-1.4 1-1.8q0.3-0.2 0.6-0.4-0.3-0.1-0.7-0.3c-0.6-0.4-1-1-1.1-1.7v-0.6c0-0.7 0.3-1.3 0.9-1.7 0.5-0.4 1.2-0.5 1.8-0.2 2.6 0.9 4.6 0.3 6.3-2.1 1.6-2.3 2.6-4.4 3.4-6.3 1-2.1 1.9-4.1 3.6-5.5-1.7-1.7-2.7-3.8-3.7-6.3-0.9-2-1.9-4.3-3.6-7-1.9-2.9-4.2-4-6.9-3.4-0.5 0.1-1 0-1.4-0.3l-2.4-0.6c-0.8-0.3-1.3-1-1.4-1.8q0 0 0 0-0.9-0.2-1.9-0.5c-0.7-0.2-1.1-0.7-1.3-1.3l-1.2-3.9c-0.2-0.6-0.1-1.2 0.2-1.7 0.3-0.5 0.9-0.9 1.4-0.9 3.1-0.4 4.7-2 5-5 0.3-2.8 0-5.1-0.2-7.2-0.2-2.3-0.4-4.5 0.3-6.6-2.3-0.5-4.2-1.9-6.3-3.5-1.8-1.3-3.8-2.8-6.6-4.3-3.3-1.7-6-1.4-8.2 0.9-0.4 0.5-0.9 0.7-1.5 0.7-0.6-0.1-1.2-0.4-1.5-0.8l-1.5-2.1q-0.5-0.2-0.8-0.6c-0.4-0.6-0.5-1.4-0.2-2q0.1-0.2 0.2-0.4c-1.9 0.3-4.1 0.3-6.5-0.2-0.7-0.1-1.3-0.7-1.5-1.5l-0.5-2.2c-0.2-0.8 0.1-1.6 0.8-2.1 0.4-0.2 0.8-0.3 1.3-0.3 0.9-0.3 3.1-1.2 4.1-3 0.6-1.2 0.7-2.6 0.2-4.3-0.9-2.7-2-4.7-3-6.5-1.1-2.1-2.2-4.1-2.3-6.2-2.3 0.4-4.6-0.2-7.2-0.8-2.1-0.5-4.6-1.1-7.8-1.4-5.6-0.4-7 3.1-7.3 4.8 0.2 0.7 0.2 1.4-0.2 2l-2.2 3q-0.6 0.8-1.7 0.9c-0.6 0-1.2-0.4-1.6-0.9-1.7-2.6-2.2-5.2-2.3-7.4-2.1 1.3-5.1 2.6-8.7 2.9q-0.6 0-1.1-0.3l-1.6-0.8c-0.5-0.3-0.9-0.8-1-1.4-0.1-0.6 0.1-1.3 0.5-1.7 3.6-4.1 1.1-6.9 0.3-7.8-1.9-2.1-3.8-3.5-5.4-4.8-1.9-1.3-3.7-2.7-4.7-4.6-1.9 1.3-4.3 1.8-6.9 2.3-2.2 0.4-4.7 0.9-7.6 2-5 1.8-5.1 5.3-4.8 7.1l2.5 0.6c0.9 0.2 1.6 1 1.5 2 0 0.9-0.7 1.7-1.6 1.9l-2.7 0.4q-0.5 0.1-1-0.1c-4.6-1.6-7.3-4.5-8.8-7.1-1.8 3-5.1 6.5-11.1 7.8l-0.4 0.1c-0.6 0.1-1.3 0-1.8-0.4l-1.3-1.1c-0.5-0.5-0.8-1.3-0.6-2.1 0.2-0.7 0.8-1.3 1.5-1.4l2.6-0.6c0.3-1.8 0.2-5.3-4.8-7.1-2.9-1.1-5.4-1.6-7.6-2-2.6-0.5-5-1-6.9-2.3-1 1.9-2.8 3.3-4.7 4.6-1.6 1.3-3.5 2.7-5.4 4.8-1.2 1.3-1.7 2.6-1.6 4 0.2 1.8 1.5 3.3 2.2 4.1 0.8-0.1 1.6 0.2 2 0.9 0.5 0.7 0.5 1.5 0 2.2l-1.8 2.7c-0.4 0.6-1 0.8-1.7 0.9-4-0.1-7.2-1.5-9.4-3-0.1 1.5-0.3 3.1-1 4.8-0.3 0.8-1 1.3-1.9 1.3l-2-0.1c-0.8 0-1.6-0.6-1.8-1.4-0.3-0.7-0.1-1.5 0.5-2-0.5-1.8-2-5-7.3-4.6-3.2 0.3-5.6 0.9-7.8 1.4-2.6 0.6-4.9 1.2-7.2 0.8-0.1 2.1-1.2 4.1-2.3 6.2-1 1.8-2.1 3.8-3 6.5-0.3 1.2-1.4 4.8 3.5 6.9 0.8 0.4 1.3 1.4 1.1 2.3l-0.5 2.3c-0.1 0.8-0.7 1.4-1.5 1.6-2.4 0.5-4.6 0.5-6.5 0.2 0.9 1.7 1.5 3.8 1.6 6.2 0 0.6-0.3 1.1-0.7 1.5-0.4 0.4-1 0.6-1.5 0.5l-3.5-0.3c-0.7-0.1-1.3-0.5-1.6-1.1-0.5-0.9-3.2-5.3-9.1-2.2-2.8 1.5-4.8 3-6.6 4.3-2.1 1.6-4 3-6.3 3.5 0.7 2.1 0.5 4.3 0.3 6.6-0.2 2.1-0.4 4.4-0.2 7.2 0.2 1.8 0.8 3 1.9 3.9 2.1 1.6 5.4 1.1 5.4 1.1 0.6-0.1 1.2 0 1.7 0.4 0.4 0.4 0.7 1 0.6 1.6l-0.1 2.4c0 0.7-0.4 1.4-1 1.7-1.6 0.9-3.3 1.5-4.8 1.8q0 0.1 0 0.2c0 0.8-0.5 1.4-1.3 1.7l-1.6 0.6c-0.6 0.2-1.3 0.1-1.8-0.3-0.5-0.3-0.8-0.9-0.8-1.6v-0.3c-2.3-0.9-5.4-1-8.1 3.1-1.7 2.7-2.7 5-3.6 7-1 2.5-2 4.6-3.7 6.3 1.7 1.4 2.6 3.4 3.6 5.5 0.8 1.9 1.8 4 3.4 6.3 2 2.8 4.6 3.2 7.8 1.3 0.6-0.3 1.3-0.3 2 0 0.6 0.3 1 1 1 1.6v0.3c0.1 0.6-0.2 1.2-0.6 1.6-1.3 1.1-2.6 2-3.9 2.7 1.4 0.6 2.8 1.6 4.2 2.8 0.4 0.5 0.6 1.2 0.5 1.8l-0.1 0.7c-0.1 0.6-0.5 1.2-1.1 1.5-0.6 0.3-1.3 0.2-1.9-0.1-3.2-2-5.9-1.5-7.9 1.2-1.6 2.3-2.6 4.5-3.4 6.4-1 2.1-1.9 4.1-3.6 5.5 1.7 1.6 2.7 3.8 3.7 6.2 0.9 2.1 1.9 4.4 3.6 7.1q1.9 2.9 4.4 3.4c1.5 0.3 2.8 0 3.7-0.4l-0.1-2.3c0-0.7 0.4-1.3 0.9-1.7 0.5-0.4 1.2-0.5 1.8-0.2l3.1 1.1c0.7 0.3 1.2 0.9 1.3 1.6 0.1 0.6-0.1 1.1-0.4 1.5 1.9 0.6 4.1 1.5 6.1 3.1 0.3 0.3 0.6 0.7 0.7 1.2l1.7 7.9c0.2 1-0.3 1.9-1.2 2.3-0.9 0.4-2 0-2.5-0.8l-3.2-5.5c-1.1 0-3.1 0.1-4.5 1.2-1.1 0.8-1.7 2.1-1.9 3.9-0.2 2.8 0 5.1 0.2 7.1 0.2 2.4 0.4 4.6-0.3 6.6 2.3 0.6 4.2 2 6.3 3.6 1.8 1.3 3.8 2.8 6.6 4.3q3.1 1.5 5.5 0.8c1.5-0.5 2.5-1.5 3-2.2l-0.5-0.9c-0.5-0.8-0.3-1.9 0.4-2.6 0.8-0.6 1.9-0.6 2.6 0.1l4.3 3.8c0.6 0.5 0.8 1.3 0.6 2-0.3 1.1-0.7 2-1.1 2.9 1.4-0.2 3.1-0.2 4.8 0 0.5 0 0.9 0.2 1.2 0.6l2.8 2.9c0.5 0.5 0.7 1.2 0.5 1.8-0.1 0.7-0.6 1.2-1.2 1.4-2.7 1-5.5 3-4.2 7.2 0.9 2.7 2 4.8 3 6.6 1.1 2 2.2 4 2.3 6.2 2.3-0.4 4.6 0.1 7.2 0.8 2.2 0.5 4.6 1.1 7.8 1.3 2.3 0.2 4.1-0.3 5.4-1.4 1.1-0.9 1.6-2.2 1.9-3.1l-0.3-0.2c-0.7-0.5-1-1.5-0.7-2.4 0.4-0.8 1.3-1.3 2.1-1.2l2.7 0.3c0.8 0.1 1.4 0.6 1.7 1.4 0.4 1.4 0.6 2.8 0.7 4 2.5-1.7 6.2-3.2 10.9-2.9 1.1 0.1 1.9 0.9 1.9 2v3.2c0 0.6-0.2 1.2-0.7 1.5q-0.5 0.4-1.1 0.5c-0.8 0.8-2.1 2.3-2.3 4.2-0.1 1.4 0.4 2.7 1.6 4 1.9 2.1 3.8 3.5 5.4 4.7 1.9 1.4 3.7 2.7 4.7 4.7 2-1.4 4.3-1.8 6.9-2.3 2.2-0.4 4.7-0.9 7.6-2q3.3-1.2 4.3-3.5c0.7-1.5 0.6-3.1 0.4-4q-0.3-0.2-0.5-0.6c-0.2-0.6-0.2-1.2 0-1.8l0.8-1.5c0.5-1 1.6-1.4 2.5-1 4.4 1.6 6.9 4.5 8.4 7 1.4-2.5 3.8-5.2 7.9-6.9 0.8-0.3 1.6-0.1 2.2 0.5l1.2 1.2c0.5 0.5 0.7 1.3 0.5 2-0.2 0.7-0.8 1.2-1.5 1.4z"/>
				</g>
				<g id="&lt;Group&gt;">
					<g id="&lt;Group&gt;">
						<path id="&lt;Compound Path&gt;" fill-rule="evenodd" class="s16" d="m548.9 227.3c-45.7 0-82.9-37.1-82.9-82.8 0-45.7 37.2-82.8 82.9-82.8 45.6 0 82.8 37.1 82.8 82.8 0 45.7-37.2 82.8-82.8 82.8zm0-159.6c-42.4 0-76.9 34.4-76.9 76.8 0 42.4 34.5 76.8 76.9 76.8 42.3 0 76.8-34.4 76.8-76.8 0-42.4-34.5-76.8-76.8-76.8z"/>
					</g>
					<g id="&lt;Group&gt;">
						<path id="&lt;Path&gt;" class="s16" d="m514 71.8c-0.6 0-1.3-0.2-1.8-0.6-0.5-0.3-4.4-3.5-4.8-8.2-0.2-1.9 0.2-4.8 2.8-7.8 2.2-2.5 4.4-4.1 6.1-5.4 3-2.3 3.6-2.9 3.4-4.6-0.1-1.1 0.4-2.1 1.3-2.8 0.8-0.6 1.9-0.7 2.9-0.3 0.6 0.3 1.2 0.7 1.5 1.3 1.1 2 2.5 2.3 6.4 3 2.3 0.5 5.1 1 8.4 2.2 3.5 1.3 5.9 3.3 7.2 6.1 1.9 4.1 0.5 8.1 0.3 8.5-0.5 1.6-2.3 2.4-3.8 1.8-1.6-0.6-2.4-2.3-1.8-3.9 0.4-1.1 1.3-4.9-3.9-6.8-2.9-1.1-5.4-1.6-7.5-2-2.3-0.4-4.5-0.8-6.4-1.8-1.1 1.6-2.7 2.8-4.3 4.1-1.7 1.2-3.5 2.6-5.3 4.6-1 1.1-1.4 2.2-1.3 3.2 0.1 1.9 2 3.7 2.4 4 1.4 1.1 1.6 2.9 0.6 4.3-0.6 0.7-1.5 1.1-2.4 1.1z"/>
					</g>
					<g id="&lt;Group&gt;">
						<path id="&lt;Path&gt;" class="s16" d="m487 89.9q-0.4 0-0.8-0.1c-0.6-0.1-5.7-1.6-8.1-6-1.2-2.3-1.5-5-0.6-7.8 0.9-3.1 2.2-5.4 3.2-7.2 1.7-3.2 1.9-3.8 1-5.4-0.6-0.9-0.6-2.1-0.1-3.1 0.6-0.9 1.6-1.5 2.7-1.4 0.6 0 1.3 0.2 1.8 0.5 2 1.5 3.5 1.3 7.4 0.6 2.3-0.4 5.1-0.9 8.7-1q0.2 0 0.4 0c9.2 0 12.3 6.8 12.7 10.5 0.2 1.6-1 3.1-2.7 3.3-1.6 0.1-3.1-1.1-3.3-2.7-0.1-0.9-0.9-5.2-7-5.1-3.1 0.1-5.5 0.5-7.7 0.9-2.2 0.4-4.3 0.8-6.5 0.6-0.3 1.8-1.3 3.5-2.2 5.1-0.9 1.7-1.9 3.6-2.7 6.1-0.4 1.3-0.3 2.3 0.2 3.2 1.2 2.2 4.3 3.1 4.4 3.1 1.6 0.5 2.5 2.1 2.1 3.7-0.4 1.4-1.6 2.2-2.9 2.2z"/>
					</g>
					<g id="&lt;Group&gt;">
						<path id="&lt;Path&gt;" class="s16" d="m470.6 115.7c-4.1 0-9.3-1.6-11.5-7.5-1.1-3-1.5-5.6-1.8-7.6-0.5-3.3-0.6-4.2-2.6-5.1-1.1-0.5-1.7-1.5-1.8-2.7 0-1.1 0.6-2.2 1.7-2.7 0.5-0.3 1.1-0.4 1.7-0.4 2.6 0.3 3.7-0.5 6.5-3.1 1.7-1.4 3.8-3.3 6.7-5.1 7.7-4.8 14.5-0.7 17 2.1 1.1 1.2 1 3.1-0.2 4.2-1.3 1.1-3.1 1-4.2-0.2-0.4-0.4-4.2-4.2-9.4-1-2.5 1.5-4.3 3.1-5.9 4.5-1.5 1.4-3 2.7-4.8 3.6 0.8 1.6 1 3.3 1.3 5.1 0.2 1.8 0.5 3.9 1.4 6.3 1.8 5 7.9 3.5 8.2 3.4 1.6-0.4 3.2 0.5 3.6 2.1 0.5 1.6-0.5 3.3-2.1 3.7-1 0.3-2.3 0.4-3.8 0.4z"/>
					</g>
					<g id="&lt;Group&gt;">
						<path id="&lt;Path&gt;" class="s16" d="m463.2 147.9c-3.5 0-7.5-1.3-10.1-5.6-1.8-2.7-2.7-5.1-3.4-7.1-1.2-3.3-1.6-4-3.9-4.7-1-0.3-1.9-1.1-2.1-2.2-0.3-1.1 0.1-2.2 1-3 0.5-0.4 1.1-0.7 1.7-0.7 2.6-0.2 3.5-1.2 5.7-4.1 1.3-1.8 2.9-3.9 5.4-6.3 6.6-6 14.1-3.3 17.2-0.9 1.3 1 1.5 2.8 0.5 4.2-1 1.3-2.8 1.5-4.2 0.5-0.4-0.3-5-3.4-9.4 0.6-2.1 2-3.5 3.8-4.7 5.5-1.2 1.5-2.3 3.1-3.9 4.3 1.1 1.4 1.7 3.1 2.3 4.7 0.7 1.8 1.4 3.8 2.8 6 3 4.6 8.7 2.1 8.9 2 1.5-0.7 3.3-0.1 4 1.4 0.7 1.5 0 3.3-1.5 4-1.5 0.7-3.8 1.4-6.3 1.4z"/>
					</g>
					<g id="&lt;Group&gt;">
						<path id="&lt;Path&gt;" class="s16" d="m579.8 71.8c-0.9 0-1.8-0.4-2.4-1.1-1-1.3-0.7-3.2 0.5-4.2 0.7-0.5 2.4-2.3 2.5-4.1q0.2-1.6-1.3-3.2c-1.8-2-3.6-3.4-5.2-4.6-1.7-1.3-3.3-2.5-4.4-4.1-1.9 1-4.1 1.4-6.4 1.8-2.1 0.4-4.6 0.9-7.5 2-5.2 1.9-4.3 5.7-3.9 6.9 0.5 1.5-0.3 3.2-1.8 3.8-1.6 0.5-3.3-0.2-3.8-1.8-0.2-0.4-1.6-4.4 0.3-8.5 1.3-2.8 3.7-4.8 7.2-6.1 3.3-1.2 6.1-1.7 8.4-2.2 3.9-0.7 5.3-1 6.4-3 0.3-0.6 0.8-1 1.4-1.3 1-0.4 2.1-0.3 3 0.4 0.9 0.6 1.4 1.6 1.3 2.7-0.2 1.7 0.4 2.3 3.4 4.6 1.7 1.3 3.9 2.9 6.1 5.4 2.6 3 3 5.9 2.8 7.8-0.4 4.7-4.3 7.9-4.8 8.2-0.5 0.4-1.2 0.6-1.8 0.6z"/>
					</g>
					<g id="&lt;Group&gt;">
						<path id="&lt;Path&gt;" class="s16" d="m606.8 89.9c-1.3 0-2.5-0.8-2.9-2.2-0.4-1.6 0.5-3.2 2.1-3.7 0.9-0.2 3.4-1.3 4.4-3.1q0.8-1.3 0.2-3.2c-0.8-2.5-1.8-4.4-2.7-6.1-0.9-1.6-1.8-3.3-2.2-5.1-2.2 0.2-4.3-0.2-6.5-0.6-2.2-0.4-4.6-0.8-7.7-0.9-6.1-0.1-6.9 4.2-7 5.1-0.2 1.6-1.8 2.8-3.4 2.6-1.6-0.1-2.8-1.6-2.6-3.2 0.4-3.7 3.6-10.7 13.1-10.5 3.6 0.1 6.4 0.6 8.7 1 3.9 0.7 5.4 0.9 7.4-0.6 0.5-0.3 1.1-0.5 1.7-0.5 1-0.1 2.2 0.5 2.7 1.4 0.6 1 0.6 2.2 0 3.1-0.9 1.6-0.7 2.2 1 5.4 1 1.8 2.3 4.1 3.2 7.2 0.9 2.8 0.6 5.5-0.6 7.8-2.4 4.4-7.5 5.9-8.1 6q-0.4 0.1-0.8 0.1z"/>
					</g>
					<g id="&lt;Group&gt;">
						<path id="&lt;Path&gt;" class="s16" d="m626.3 115.7c-1.4 0-2.8-0.1-3.8-0.4-1.6-0.4-2.5-2.1-2.1-3.7 0.4-1.6 2-2.5 3.6-2.1 0.7 0.1 6.4 1.4 8.2-3.4 0.9-2.4 1.2-4.5 1.4-6.3 0.3-1.8 0.5-3.5 1.3-5.1-1.8-0.9-3.3-2.2-4.8-3.6-1.6-1.4-3.4-3-5.9-4.5-5.2-3.2-9 0.6-9.4 1-1.1 1.2-3 1.3-4.2 0.2-1.2-1.1-1.3-3-0.2-4.2 2.5-2.8 9.3-6.9 17-2.1 3 1.8 5 3.7 6.7 5.1 2.8 2.6 3.9 3.4 6.5 3.1 0.6 0 1.2 0.1 1.7 0.4 1 0.5 1.6 1.6 1.6 2.7 0 1.1-0.6 2.2-1.6 2.7-2.1 0.9-2.2 1.8-2.7 5.1-0.3 2-0.7 4.6-1.8 7.6-2.2 5.9-7.4 7.5-11.5 7.5z"/>
					</g>
					<g id="&lt;Group&gt;">
						<path id="&lt;Path&gt;" class="s16" d="m633.7 147.9c-2.5 0-4.8-0.7-6.3-1.4-1.5-0.7-2.2-2.5-1.5-4 0.7-1.5 2.5-2.1 4-1.4 0.6 0.2 6 2.5 8.9-2 1.4-2.2 2.1-4.2 2.8-6 0.6-1.6 1.2-3.3 2.3-4.7-1.6-1.2-2.7-2.8-3.9-4.3-1.2-1.7-2.6-3.5-4.7-5.5-4.4-4-8.9-0.9-9.5-0.5-1.3 0.9-3.2 0.7-4.1-0.7-1-1.3-0.8-3.1 0.5-4.1 3.1-2.4 10.6-5.1 17.2 0.9 2.5 2.4 4.1 4.5 5.4 6.3 2.2 2.9 3.1 3.9 5.7 4.1 0.6 0 1.1 0.3 1.6 0.7 0.9 0.7 1.3 1.8 1.1 2.9-0.2 1.1-1 2-2.1 2.3-2.3 0.7-2.7 1.4-3.9 4.7-0.7 2-1.6 4.4-3.4 7.1-2.6 4.3-6.6 5.6-10.1 5.6z"/>
					</g>
					<g id="&lt;Group&gt;">
						<path id="&lt;Path&gt;" class="s16" d="m566.9 50q-0.3 0-0.6-0.1c-1.6-0.4-2.6-2-2.3-3.6 0.3-1.2 0.6-5.3-6-6.7-5.6-1.2-8.9-4.1-10.9-7-2 2.9-5.4 5.8-10.9 7q-3.9 0.8-5.4 3.1c-1 1.7-0.7 3.6-0.7 3.6 0.4 1.6-0.6 3.2-2.2 3.6-1.6 0.4-3.2-0.6-3.6-2.3-0.1-0.4-0.9-4.3 1.5-8.2 1.8-2.8 4.9-4.8 9.1-5.7 8.1-1.8 9.2-8.8 9.2-8.9 0.2-1.4 1.4-2.6 2.9-2.6 1.5 0 2.9 1.2 3.1 2.6 0 0.3 1.2 7.2 9.1 8.9 4.3 0.9 7.4 2.9 9.2 5.7 2.4 3.9 1.6 7.8 1.5 8.2-0.4 1.4-1.6 2.4-3 2.4z"/>
					</g>
					<g id="&lt;Group&gt;">
						<path id="&lt;Path&gt;" class="s16" d="m486.7 68.3c-0.8 0-1.7-0.3-2.3-1-0.3-0.4-3.1-3.7-2.7-8.3 0.4-3.3 2.2-6.2 5.5-8.6 6.1-4.7 3.6-11.3 3.6-11.3-0.6-1.5 0-3.2 1.5-3.9 1.3-0.5 2.9-0.2 3.7 0.9 0.2 0.3 4.8 6.1 13 4.5 10.2-2.1 15 4.3 16.1 8 0.5 1.5-0.4 3.2-2 3.7-1.6 0.5-3.3-0.5-3.8-2-0.2-0.9-2.1-5.3-9.1-3.8-5.5 1.1-9.9-0.2-13.1-1.9-0.5 3.5-2.2 7.4-6.3 10.5q-2.8 2.2-3.1 4.5c-0.2 2 1.2 3.7 1.2 3.7 1.1 1.3 1 3.2-0.2 4.3-0.6 0.5-1.3 0.7-2 0.7z"/>
					</g>
					<g id="&lt;Group&gt;">
						<path id="&lt;Path&gt;" class="s16" d="m461.2 95.9q-0.5 0-1.1-0.3c-0.5-0.2-4.8-2.1-6.6-6.6-1.1-2.9-0.9-6.1 0.7-9.6 3.1-6.5-2.5-11.4-2.6-11.4-0.6-0.5-0.9-1.3-1-2.1-0.1-0.8 0.2-1.5 0.7-2.2 0.9-1 2.4-1.4 3.7-0.7 0.3 0.1 7.5 3.6 13.9-1.2 8.1-6 15.4-2.3 18.2 0.4 1.1 1.2 1.1 3.1 0 4.3-1.2 1.2-3.1 1.1-4.3 0-0.4-0.4-4.6-4.2-10.3 0.1-4.3 3.1-8.7 3.9-12.3 3.7 1.2 3.3 1.5 7.3-0.5 11.7q-1.3 2.8-0.6 4.8c0.8 2.2 3.3 3.3 3.3 3.3 1.5 0.7 2.2 2.4 1.6 3.9-0.5 1.2-1.6 1.9-2.8 1.9z"/>
					</g>
					<g id="&lt;Group&gt;">
						<path id="&lt;Path&gt;" class="s16" d="m449.8 131.2c-4.3 0-12.1-2.4-12.7-12-0.5-7.2-8.2-9.4-8.3-9.4-1.5-0.5-2.4-2-2.1-3.5 0.3-1.5 1.6-2.6 3.1-2.5 0.3 0 8.4 0.3 11.7-6.4 4.4-8.7 12.8-8.3 16.6-6.9 1.6 0.5 2.4 2.2 1.8 3.8-0.6 1.6-2.3 2.4-3.8 1.8-1-0.3-6.3-1.8-9.2 4-2.2 4.4-5.7 6.9-8.9 8.2 2.5 2.3 4.7 5.7 5.1 10.5 0.4 6.4 6.1 6.5 6.8 6.4 1.6 0 3 1.3 3 3 0.1 1.6-1.2 3-2.9 3q-0.1 0-0.2 0z"/>
					</g>
					<g id="&lt;Group&gt;">
						<path id="&lt;Path&gt;" class="s16" d="m607.8 65.5c-0.7 0-1.4-0.2-2-0.7-1.2-1.1-1.4-3-0.3-4.2 0.1-0.1 1.5-1.8 1.2-3.8q-0.2-2.3-3-4.4c-4.1-3.2-5.9-7-6.4-10.5-3.1 1.7-7.5 2.9-13 1.8-7.1-1.5-8.9 2.9-9.2 3.8-0.5 1.6-2.2 2.5-3.7 2-1.6-0.5-2.5-2.2-2-3.7 1.1-3.7 5.9-10.1 16.1-8 8.3 1.7 12.9-4.4 13-4.4 0.8-1.2 2.3-1.6 3.6-1 1.5 0.7 2.2 2.4 1.6 3.9-0.2 0.7-2.3 6.8 3.6 11.3 3.3 2.5 5.1 5.4 5.4 8.6 0.5 4.6-2.3 8-2.7 8.3-0.6 0.7-1.4 1-2.2 1z"/>
					</g>
					<g id="&lt;Group&gt;">
						<path id="&lt;Path&gt;" class="s16" d="m633.2 93.1c-1.2 0-2.3-0.7-2.7-1.9-0.7-1.5 0-3.2 1.6-3.9 0 0 2.4-1.1 3.3-3.3q0.7-2-0.6-4.8c-2.1-4.3-1.7-8.4-0.5-11.7-3.6 0.2-8.1-0.5-12.3-3.7-6-4.4-10.2-0.3-10.4-0.1-1.1 1.2-3 1.2-4.2 0-1.2-1.2-1.2-3.1 0-4.2 2.8-2.8 10.1-6.5 18.2-0.5 6.4 4.8 13.6 1.3 13.9 1.2 1.2-0.6 2.7-0.3 3.6 0.7 1.1 1.3 1 3.2-0.3 4.3-0.2 0.2-5.6 5-2.6 11.5 1.6 3.4 1.9 6.6 0.7 9.5-1.7 4.6-6 6.5-6.5 6.7q-0.6 0.2-1.2 0.2z"/>
					</g>
					<g id="&lt;Group&gt;">
						<path id="&lt;Path&gt;" class="s16" d="m644.7 128.5q-0.1 0-0.2 0c-1.7-0.1-3-1.5-3-3.1 0.1-1.6 1.4-2.9 3-2.9q0.1 0 0.1 0c1.1 0 6.4-0.4 6.8-6.4 0.3-4.9 2.6-8.3 5.1-10.6-3.2-1.3-6.7-3.7-8.9-8.2-3.1-6.1-8.9-4.1-9.2-4-1.6 0.6-3.3-0.2-3.8-1.8-0.6-1.5 0.2-3.2 1.8-3.8 3.8-1.4 12.2-1.7 16.5 7 3.4 6.6 11.5 6.4 11.8 6.3 1.5 0 2.8 1 3.1 2.4 0.3 1.6-0.6 3.2-2.1 3.6-0.3 0.1-7.8 2.3-8.3 9.5-0.6 9.5-8.5 12-12.7 12z"/>
					</g>
					<g id="&lt;Group&gt;">
						<path id="&lt;Path&gt;" class="s16" d="m522.8 246.3c-0.7 0-1.3-0.1-1.8-0.5-0.9-0.6-1.4-1.7-1.3-2.7 0.2-1.8-0.4-2.4-3.4-4.7-1.7-1.3-3.9-2.9-6.1-5.4-2.6-2.9-3-5.8-2.8-7.7 0.4-4.8 4.3-7.9 4.8-8.3 1.3-1 3.2-0.7 4.2 0.6 1 1.3 0.8 3.2-0.5 4.2-0.7 0.5-2.4 2.2-2.5 4q-0.2 1.6 1.3 3.2c1.8 2.1 3.6 3.4 5.3 4.7 1.6 1.2 3.2 2.4 4.3 4.1 1.9-1.1 4.1-1.5 6.4-1.9 2.1-0.4 4.6-0.9 7.5-1.9 5.2-1.9 4.3-5.8 3.9-6.9-0.5-1.6 0.3-3.3 1.8-3.8 1.6-0.6 3.3 0.2 3.8 1.7 0.2 0.5 1.6 4.4-0.3 8.5-1.3 2.8-3.7 4.8-7.2 6.1-3.3 1.2-6.1 1.8-8.4 2.2-3.9 0.7-5.3 1.1-6.4 3-0.3 0.6-0.8 1-1.4 1.3q-0.6 0.2-1.2 0.2z"/>
					</g>
					<g id="&lt;Group&gt;">
						<path id="&lt;Path&gt;" class="s16" d="m484.3 229.4c-1 0-2.1-0.6-2.6-1.5-0.6-1-0.6-2.1 0-3.1 0.9-1.5 0.7-2.2-1-5.3-1-1.9-2.3-4.1-3.2-7.2-0.9-2.8-0.6-5.6 0.6-7.9 2.4-4.3 7.5-5.8 8.1-6 1.6-0.4 3.2 0.5 3.7 2.1 0.4 1.6-0.5 3.2-2.1 3.7-0.9 0.2-3.4 1.3-4.4 3.1q-0.8 1.4-0.2 3.2c0.8 2.5 1.8 4.4 2.7 6.1 0.9 1.6 1.9 3.3 2.2 5.1 2.2-0.2 4.3 0.2 6.5 0.6 2.2 0.4 4.6 0.9 7.7 0.9 6.3 0.2 7-4.5 7-5.1 0.2-1.6 1.7-2.8 3.3-2.6 1.7 0.1 2.9 1.6 2.7 3.3-0.4 3.6-3.5 10.4-12.7 10.4q-0.2 0-0.4 0c-3.6 0-6.4-0.6-8.7-1-3.9-0.7-5.4-0.9-7.4 0.6-0.5 0.3-1.1 0.5-1.7 0.6q0 0-0.1 0z"/>
					</g>
					<g id="&lt;Group&gt;">
						<path id="&lt;Path&gt;" class="s16" d="m476.8 208.9c-2.2 0-4.7-0.6-7.3-2.1-2.9-1.9-5-3.7-6.7-5.2-2.8-2.6-3.9-3.3-6.5-3.1q-0.9 0.1-1.7-0.4c-1-0.5-1.6-1.6-1.6-2.7 0-1.1 0.6-2.2 1.7-2.6 2-1 2.1-1.8 2.6-5.2 0.3-2 0.7-4.6 1.8-7.6 2.9-7.9 11.3-8.1 15.3-7.1 1.6 0.5 2.6 2.1 2.1 3.7-0.4 1.6-2 2.6-3.6 2.2-0.7-0.2-6.4-1.5-8.2 3.3-0.9 2.4-1.2 4.5-1.4 6.4-0.3 1.7-0.5 3.4-1.3 5.1 1.8 0.9 3.3 2.2 4.8 3.5 1.6 1.4 3.4 3 5.9 4.6 5.2 3.2 9-0.6 9.4-1.1 1.1-1.2 3-1.3 4.2-0.2 1.2 1.1 1.3 3 0.2 4.2-1.6 1.9-5.2 4.3-9.7 4.3z"/>
					</g>
					<g id="&lt;Group&gt;">
						<path id="&lt;Path&gt;" class="s16" d="m466.4 177.7c-2.8 0-5.9-1-8.9-3.7-2.5-2.3-4.1-4.5-5.4-6.2-2.2-3-3.1-3.9-5.7-4.2-0.6 0-1.1-0.2-1.6-0.6-0.9-0.7-1.3-1.9-1.1-3 0.3-1.1 1-2 2.1-2.3 2.3-0.6 2.7-1.4 3.9-4.7 0.7-1.9 1.6-4.3 3.4-7.1 4.5-7.2 12.7-5.9 16.4-4.2 1.5 0.7 2.2 2.5 1.5 4-0.7 1.5-2.5 2.2-4 1.5-0.6-0.3-6-2.6-8.9 1.9-1.4 2.2-2.1 4.2-2.8 6-0.6 1.7-1.2 3.3-2.3 4.8 1.6 1.2 2.7 2.7 3.9 4.3 1.2 1.6 2.6 3.4 4.7 5.4 4.5 4.2 9.2 0.7 9.4 0.6 1.4-1 3.2-0.8 4.2 0.6 1 1.3 0.8 3.2-0.5 4.2-1.7 1.2-4.8 2.7-8.3 2.7z"/>
					</g>
					<g id="&lt;Group&gt;">
						<path id="&lt;Path&gt;" class="s16" d="m571.1 246.4q-0.6 0-1.2-0.3c-0.6-0.2-1.2-0.7-1.5-1.3-1.1-1.9-2.5-2.3-6.4-3-2.3-0.4-5.1-1-8.4-2.2-3.5-1.3-5.9-3.3-7.2-6.1-1.9-4.1-0.5-8-0.3-8.5 0.5-1.5 2.3-2.3 3.8-1.7 1.6 0.5 2.4 2.3 1.8 3.8-0.4 1.1-1.3 5 3.9 6.9 2.9 1 5.4 1.5 7.5 1.9 2.3 0.4 4.5 0.8 6.4 1.9 1.1-1.7 2.7-2.9 4.4-4.1 1.6-1.3 3.4-2.6 5.2-4.7 1-1.1 1.4-2.1 1.3-3.2-0.1-1.9-2-3.6-2.4-4-1.3-1-1.6-2.9-0.6-4.2 1-1.3 2.9-1.6 4.2-0.6 0.5 0.4 4.4 3.5 4.8 8.3 0.2 1.9-0.2 4.8-2.8 7.7-2.2 2.5-4.4 4.1-6.1 5.4-3 2.3-3.6 2.9-3.4 4.7 0.1 1-0.4 2.1-1.3 2.7-0.5 0.4-1.1 0.6-1.7 0.6z"/>
					</g>
					<g id="&lt;Group&gt;">
						<path id="&lt;Path&gt;" class="s16" d="m609.6 229.4q-0.1 0-0.1 0c-0.6-0.1-1.3-0.3-1.8-0.6-2-1.5-3.5-1.3-7.4-0.6-2.3 0.4-5.1 1-8.7 1-9.5 0.2-12.7-6.7-13.1-10.4-0.2-1.7 1-3.2 2.7-3.3 1.6-0.2 3.1 1 3.3 2.6 0.1 0.9 1 5.2 7 5.1 3.1 0 5.5-0.5 7.7-0.9 2.2-0.4 4.3-0.8 6.5-0.6 0.4-1.8 1.3-3.5 2.2-5.1 0.9-1.7 1.9-3.6 2.7-6.1q0.6-1.8-0.2-3.2c-1-1.8-3.5-2.9-4.4-3.1-1.6-0.5-2.5-2.1-2-3.7 0.4-1.6 2.1-2.5 3.6-2.1 0.6 0.2 5.7 1.7 8.1 6 1.2 2.3 1.5 5.1 0.6 7.9-0.9 3.1-2.2 5.3-3.2 7.2-1.7 3.1-1.9 3.8-1 5.3 0.6 1 0.6 2.1 0.1 3.1-0.6 0.9-1.6 1.5-2.6 1.5z"/>
					</g>
					<g id="&lt;Group&gt;">
						<path id="&lt;Path&gt;" class="s16" d="m620.1 208.9c-4.5 0-8.1-2.4-9.7-4.3-1.1-1.2-1-3.1 0.2-4.2 1.3-1.1 3.1-1 4.3 0.2 0.3 0.5 4.1 4.3 9.3 1.1 2.6-1.6 4.3-3.2 5.9-4.6 1.5-1.3 3-2.6 4.8-3.5-0.8-1.7-1-3.4-1.3-5.1-0.2-1.9-0.5-4-1.4-6.4-1.8-4.8-7.5-3.5-8.2-3.3-1.6 0.3-3.2-0.6-3.6-2.2-0.4-1.6 0.5-3.2 2.1-3.7 4-1 12.4-0.8 15.3 7.1 1.1 3 1.5 5.6 1.8 7.6 0.5 3.4 0.6 4.2 2.7 5.2 1 0.4 1.6 1.5 1.7 2.6 0 1.1-0.6 2.2-1.6 2.7-0.5 0.3-1.2 0.5-1.8 0.4-2.6-0.2-3.7 0.5-6.5 3.1-1.7 1.5-3.7 3.3-6.7 5.2-2.6 1.5-5.1 2.1-7.3 2.1z"/>
					</g>
					<g id="&lt;Group&gt;">
						<path id="&lt;Path&gt;" class="s16" d="m630.5 177.7c-3.5 0-6.6-1.5-8.3-2.7-1.3-1-1.5-2.9-0.5-4.2 1-1.4 2.8-1.6 4.2-0.6 0.5 0.3 5 3.5 9.4-0.6 2.1-2 3.5-3.8 4.7-5.4 1.2-1.6 2.3-3.1 3.9-4.3-1.1-1.5-1.7-3.1-2.3-4.8-0.7-1.8-1.4-3.8-2.8-6-3-4.6-8.7-2-8.9-1.9-1.5 0.7-3.3 0-4-1.5-0.7-1.5 0-3.3 1.5-4 3.7-1.7 11.9-3 16.4 4.2 1.8 2.8 2.7 5.2 3.4 7.1 1.2 3.3 1.6 4.1 3.9 4.7 1.1 0.3 1.9 1.2 2.1 2.3 0.3 1.1-0.2 2.2-1.1 2.9-0.4 0.4-1 0.7-1.6 0.7-2.6 0.3-3.5 1.2-5.7 4.2-1.3 1.7-2.9 3.9-5.4 6.2-3 2.7-6.1 3.7-8.9 3.7z"/>
					</g>
					<g id="&lt;Group&gt;">
						<path id="&lt;Path&gt;" class="s16" d="m547.1 266c-1.5 0-2.8-1.1-3-2.6-0.1-0.3-1.2-7.1-9.2-8.9-4.2-0.9-7.3-2.8-9.1-5.7-2.4-3.8-1.6-7.8-1.5-8.2 0.4-1.6 2-2.6 3.6-2.3 1.6 0.4 2.6 2 2.2 3.6-0.2 1.2-0.5 5.3 6.1 6.8 5.5 1.2 8.9 4.1 10.9 6.9 2-2.8 5.3-5.7 10.9-6.9 6.6-1.5 6.3-5.6 6-6.8-0.3-1.6 0.7-3.2 2.3-3.5 1.6-0.4 3.2 0.6 3.6 2.2 0.1 0.4 0.9 4.4-1.5 8.2-1.8 2.9-4.9 4.8-9.2 5.7-7.9 1.8-9.1 8.6-9.1 8.9-0.2 1.5-1.5 2.6-3 2.6z"/>
					</g>
					<g id="&lt;Group&gt;">
						<path id="&lt;Path&gt;" class="s16" d="m493.6 253.3q-0.6 0-1.2-0.3c-1.5-0.6-2.2-2.3-1.6-3.8 0.2-0.7 2.3-6.8-3.6-11.3-3.3-2.5-5.1-5.4-5.5-8.7-0.4-4.6 2.4-7.9 2.7-8.3 1.1-1.2 3-1.3 4.3-0.2 1.2 1.1 1.3 2.9 0.3 4.2-0.1 0.1-1.5 1.8-1.3 3.8q0.3 2.3 3.1 4.4c4.1 3.1 5.8 7 6.3 10.5 3.2-1.7 7.6-2.9 13.1-1.8 7 1.4 8.9-3 9.2-3.9 0.5-1.5 2.1-2.4 3.7-1.9 1.6 0.5 2.5 2.1 2 3.7-1.1 3.7-5.9 10-16.1 8-8.3-1.7-12.9 4.3-13 4.4-0.6 0.8-1.5 1.2-2.4 1.2z"/>
					</g>
					<g id="&lt;Group&gt;">
						<path id="&lt;Path&gt;" class="s16" d="m477.9 229.7c-2.7 0-5.8-0.9-9-3.2-6.5-4.9-13.8-1.3-13.9-1.2-1.2 0.6-2.8 0.3-3.7-0.8-0.5-0.6-0.7-1.4-0.7-2.2 0.1-0.8 0.4-1.5 1-2 0.3-0.2 5.7-5.1 2.6-11.5-1.6-3.4-1.8-6.6-0.7-9.6 1.8-4.5 6.1-6.4 6.6-6.6 1.5-0.7 3.3 0.1 3.9 1.6 0.7 1.5-0.1 3.3-1.6 3.9-0.1 0.1-2.5 1.1-3.3 3.3q-0.7 2 0.6 4.8c2 4.4 1.7 8.5 0.5 11.8 3.6-0.2 8 0.5 12.3 3.6 5.7 4.3 9.9 0.6 10.3 0.1 1.2-1.1 3.1-1.1 4.3 0.1 1.1 1.2 1.1 3 0 4.2-1.7 1.7-5 3.7-9.2 3.7z"/>
					</g>
					<g id="&lt;Group&gt;">
						<path id="&lt;Path&gt;" class="s16" d="m453.6 198.5c-4.1 0-9-1.7-12.1-7.7-3.3-6.7-11.4-6.4-11.7-6.4-1.5 0.1-2.8-0.9-3.1-2.4-0.3-1.5 0.6-3.1 2.1-3.5 0.3-0.1 7.8-2.4 8.3-9.5 0.6-9.5 8.4-12 12.7-12q0.1 0 0.2 0c1.7 0 3 1.4 2.9 3.1 0 1.6-1.3 2.9-3 2.9q0 0 0 0c-1.2 0-6.4 0.3-6.8 6.4-0.4 4.9-2.6 8.3-5.1 10.6 3.2 1.3 6.7 3.7 8.9 8.1 3.1 6.2 8.9 4.1 9.2 4 1.5-0.5 3.2 0.3 3.8 1.8 0.6 1.6-0.2 3.3-1.8 3.9-1.2 0.4-2.8 0.7-4.5 0.7z"/>
					</g>
					<g id="&lt;Group&gt;">
						<path id="&lt;Path&gt;" class="s16" d="m600.9 256c-0.9 0-1.9-0.4-2.4-1.1-0.2-0.3-4.8-6.1-13-4.5-10.3 2.1-15-4.3-16.1-7.9-0.5-1.6 0.4-3.3 2-3.8 1.6-0.5 3.3 0.5 3.7 2 0.3 0.9 2.1 5.3 9.2 3.8 5.5-1.1 9.9 0.2 13 1.9 0.5-3.5 2.3-7.4 6.4-10.5q2.8-2.2 3-4.4c0.3-2.1-1.2-3.8-1.2-3.8-1-1.3-0.9-3.2 0.3-4.3 1.3-1 3.1-0.9 4.2 0.3 0.4 0.4 3.2 3.7 2.7 8.3-0.3 3.3-2.1 6.2-5.4 8.7-6.1 4.6-3.6 11.2-3.6 11.2 0.6 1.5-0.1 3.2-1.5 3.9q-0.6 0.2-1.3 0.2z"/>
					</g>
					<g id="&lt;Group&gt;">
						<path id="&lt;Path&gt;" class="s16" d="m616.6 232.4c-4.2 0-7.5-2-9.2-3.6-1.2-1.2-1.2-3.1 0-4.3 1.2-1.1 3.1-1.1 4.2 0 0.5 0.4 4.6 4.2 10.4-0.1 4.2-3.1 8.7-3.9 12.3-3.7-1.2-3.3-1.6-7.3 0.5-11.7q1.3-2.8 0.6-4.8c-0.9-2.2-3.3-3.3-3.3-3.3-1.6-0.7-2.3-2.4-1.6-3.9 0.6-1.6 2.4-2.3 3.9-1.6 0.5 0.2 4.8 2.1 6.5 6.6 1.2 2.9 0.9 6.2-0.7 9.6-3 6.5 2.6 11.4 2.6 11.4 1.3 1.1 1.4 2.9 0.4 4.2-0.9 1.1-2.5 1.5-3.7 0.8-0.3-0.1-7.5-3.6-13.9 1.2-3.2 2.4-6.3 3.2-9 3.2z"/>
					</g>
					<g id="&lt;Group&gt;">
						<path id="&lt;Path&gt;" class="s16" d="m640.9 201.3c-1.8 0-3.4-0.3-4.5-0.8-1.6-0.5-2.4-2.2-1.8-3.8 0.5-1.6 2.2-2.4 3.8-1.8 1 0.3 6.3 1.8 9.2-4 2.2-4.4 5.7-6.9 8.9-8.2-2.5-2.3-4.8-5.7-5.1-10.5-0.4-6.1-5.7-6.4-6.8-6.4q0 0 0 0c-1.7 0-3-1.3-3.1-3 0-1.6 1.3-3 3-3q0.1 0 0.2 0c4.2 0 12.1 2.4 12.7 12 0.5 7.1 8 9.3 8.3 9.4 1.5 0.5 2.4 2 2.1 3.5-0.3 1.5-1.6 2.5-3.1 2.5-0.3 0-8.4-0.3-11.8 6.4-3 6-8 7.7-12 7.7z"/>
					</g>
					<g id="&lt;Group&gt;">
						<path id="&lt;Path&gt;" class="s16" d="m442.6 164.7c-4.3 0-10.3-2-12.3-9.6-1.8-7-9.8-7.8-9.8-7.8-1.6-0.2-2.8-1.5-2.8-3 0-1.5 1.1-2.9 2.6-3.1 0.3 0 8.3-1.2 10.4-8.4 2.7-9.3 11-10.5 15-9.9 1.7 0.3 2.8 1.8 2.5 3.5-0.3 1.6-1.8 2.7-3.5 2.4-1-0.1-6.4-0.6-8.2 5.7-1.4 4.7-4.4 7.7-7.3 9.6 2.9 1.8 5.7 4.7 6.9 9.5 1.6 5.9 6.9 5.2 7.9 5 1.6-0.3 3.2 0.7 3.5 2.4 0.4 1.6-0.7 3.1-2.3 3.5-0.7 0.1-1.6 0.2-2.6 0.2z"/>
					</g>
					<g id="&lt;Group&gt;">
						<path id="&lt;Path&gt;" class="s16" d="m648.5 164.7q-1 0-1.9-0.1c-1.6-0.3-2.8-1.8-2.5-3.5 0.3-1.6 1.8-2.7 3.5-2.4 1 0.1 6.4 0.6 8.2-5.7 1.4-4.7 4.4-7.7 7.3-9.6-2.9-1.8-5.7-4.7-6.9-9.5-1.6-5.9-6.9-5.2-7.9-5-1.6 0.3-3.2-0.7-3.5-2.4-0.4-1.6 0.7-3.1 2.3-3.5 4.1-0.8 12.5 0 14.9 9.4 1.7 6.9 9.5 7.8 9.9 7.8 1.5 0.2 2.7 1.5 2.7 3.1-0.1 1.5-1.2 2.8-2.6 2.9-0.3 0.1-8.3 1.3-10.4 8.5-2.3 8-8.7 10-13.1 10z"/>
					</g>
				</g>
			</g>
			<text id="Crown chakra
Sahasrara
" style="transform: matrix(2,0,0,2,546.604,313.912)" >
				<tspan x="-43.5" y="0" class="t2">Crown chakra
</tspan>
				<tspan x="-30.6" y="15.2" class="t3">Sahasrara
</tspan>
			</text>
			<text id="I am that I am
" style="transform: matrix(2,0,0,2,545.874,391.01)" >
				<tspan x="-57.1" y="0" class="t4" dx="0 1 1 1 1 1 1 1 1 1 1 1 1 1 1" >I am that I am
</tspan>
			</text>
		</g>
	</g>
</svg>