<?xml version="1.0" encoding="utf-8"?>
<!-- Generator: Adobe Illustrator 27.0.1, SVG Export Plug-In . SVG Version: 6.00 Build 0)  -->
<svg version="1.1" id="Capa_1" xmlns="http://www.w3.org/2000/svg" xmlns:xlink="http://www.w3.org/1999/xlink" x="0px" y="0px"
	 viewBox="0 0 33.9 37" style="enable-background:new 0 0 33.9 37;" xml:space="preserve">
<style type="text/css">
	.st0{fill:none;stroke:#344999;stroke-width:0.7498;stroke-miterlimit:10;}
</style>
<g>
	<g>
		<path class="st0" d="M17.6,12.5c-0.2,0.4-0.7,0.5-1,0.3c-0.4-0.2-0.5-0.7-0.3-1c0.2-0.4,0.7-0.5,1-0.3
			C17.7,11.7,17.8,12.1,17.6,12.5z"/>
		<path class="st0" d="M13.7,17.8c0.3-1.2,1.7-2.6,3.3-2.6c1.8,0,3.1,1.3,3.1,2.7c0,1-1,1.9-2.1,2.3v0.1c1.1,0.4,2.1,1.3,2.1,2.3
			c0,1.4-1.3,2.7-3.1,2.7c-1.6,0-3-1.4-3.3-2.6"/>
		<path class="st0" d="M19.7,12.5c-0.1,1.5-1.3,2.6-2.8,2.6c-1.5,0-2.7-1.2-2.8-2.6"/>
	</g>
	<g>
		<path class="st0" d="M12.2,10.1C9.1,8.6,5.6,10.6,5,13.4c-1.4,5.8-4.4,5.4-4.4,5.4c3.6,0.2,3.2,4,5.2,6.8c2.6,3.6,6.6,1.7,6.6,1.7
			"/>
		<path class="st0" d="M21.7,10.1c3.1-1.4,6.6,0.5,7.2,3.3c1.4,5.8,4.4,5.4,4.4,5.4c-3.6,0.2-3.2,4-5.2,6.8
			c-2.6,3.6-6.6,1.7-6.6,1.7"/>
		<g>
			<circle class="st0" cx="16.8" cy="18.5" r="9.7"/>
		</g>
	</g>
</g>
</svg>
