<?xml version="1.0" encoding="utf-8"?>
<!-- Generator: Adobe Illustrator 27.0.1, SVG Export Plug-In . SVG Version: 6.00 Build 0)  -->
<svg version="1.1" id="Capa_1" xmlns="http://www.w3.org/2000/svg" xmlns:xlink="http://www.w3.org/1999/xlink" x="0px" y="0px"
	 viewBox="0 0 36 36" style="enable-background:new 0 0 36 36;" xml:space="preserve">
<style type="text/css">
	.st0{fill:#344999;}
	.st1{fill:#FFFFFF;}
</style>
<g>
	<circle class="st0" cx="18" cy="18" r="18"/>
	<g>
		<g>
			<path class="st1" d="M14.3,25.6C14.3,25.5,14.2,25.5,14.3,25.6L14.3,25.6L14.3,25.6z"/>
			<path class="st1" d="M13.9,25.5c0,0.1,0,0.2,0,0.3C13.9,25.6,14,25.7,13.9,25.5c0.1,0,0.1,0.1,0.2,0.1c0,0,0.1,0,0.1-0.1
				C14,25.4,14,25.5,13.9,25.5C13.9,25.5,13.9,25.5,13.9,25.5z"/>
			<path class="st1" d="M10.1,25.2L10.1,25.2C10.2,25.2,10.2,25.2,10.1,25.2z"/>
			<path class="st1" d="M8.5,23.5C8.6,23.5,8.6,23.5,8.5,23.5C8.6,23.5,8.5,23.5,8.5,23.5z"/>
			<path class="st1" d="M8.5,23.1C8.5,23.1,8.5,23.1,8.5,23.1C8.5,23.1,8.5,23.1,8.5,23.1z"/>
			<path class="st1" d="M10.1,25.2L10.1,25.2C10.1,25.1,10.1,25.1,10.1,25.2z"/>
			<path class="st1" d="M13.5,25.9C13.5,25.9,13.5,25.9,13.5,25.9L13.5,25.9L13.5,25.9z"/>
			<path class="st1" d="M11.1,25.4L11.1,25.4C11.2,25.4,11.2,25.4,11.1,25.4L11.1,25.4z"/>
			<path class="st1" d="M11.9,25.5c0,0,0,0.1,0,0.1C11.9,25.6,11.9,25.6,11.9,25.5C11.9,25.6,11.9,25.5,11.9,25.5z"/>
			<path class="st1" d="M13.2,25.6L13.2,25.6L13.2,25.6z"/>
			<path class="st1" d="M10.6,25.2C10.6,25.2,10.6,25.2,10.6,25.2C10.6,25.2,10.6,25.2,10.6,25.2z"/>
			<path class="st1" d="M13.2,10.1L13.2,10.1C13.2,10.1,13.2,10.1,13.2,10.1z"/>
			<polygon class="st1" points="14,10.9 14,10.9 13.9,10.9 			"/>
			<path class="st1" d="M8.2,22.3L8.2,22.3C8.3,22.4,8.3,22.4,8.2,22.3z"/>
			<path class="st1" d="M5.7,18.1c-0.2,0-0.1-0.1-0.3-0.1C5.5,18.1,5.6,18.1,5.7,18.1z"/>
			<path class="st1" d="M13.4,25.9L13.4,25.9C13.4,25.9,13.4,25.9,13.4,25.9z"/>
			<polygon class="st1" points="5.4,18.1 5.4,18.1 5.4,18.1 			"/>
			<path class="st1" d="M7.5,20.8C7.5,20.8,7.5,20.8,7.5,20.8C7.5,20.8,7.5,20.8,7.5,20.8z"/>
			<path class="st1" d="M7.9,22L7.9,22C7.9,22,7.9,22,7.9,22z"/>
			<path class="st1" d="M7.1,20.2C7.1,20.1,7.1,20.1,7.1,20.2C7.1,20.1,7.1,20.1,7.1,20.2C7.1,20.1,7.1,20.1,7.1,20.2z"/>
			<polygon class="st1" points="6.8,19.5 6.8,19.5 6.8,19.5 			"/>
			<path class="st1" d="M10.8,10.2C10.9,10.2,10.9,10.2,10.8,10.2C10.9,10.2,11,10.1,10.8,10.2z"/>
			<path class="st1" d="M13.4,25.9C13.4,25.9,13.4,25.9,13.4,25.9L13.4,25.9C13.5,25.9,13.5,25.9,13.4,25.9z"/>
			<path class="st1" d="M6.4,20.5l0-0.1C6.3,20.4,6.3,20.4,6.4,20.5z"/>
			<path class="st1" d="M7.3,14.1L7.3,14.1C7.3,14.1,7.3,14.1,7.3,14.1z"/>
			<path class="st1" d="M6.2,20.1C6.2,20.1,6.2,20,6.2,20.1C6.2,20,6.2,20,6.2,20.1L6.2,20.1z"/>
			<path class="st1" d="M10.9,10.3L10.9,10.3L10.9,10.3z"/>
			<path class="st1" d="M11.7,9.9c-0.1,0,0,0.1-0.1,0.2c-0.1,0.1-0.1-0.1-0.1-0.2c-0.1,0.1-0.1,0.2-0.2,0.2c0,0,0,0,0-0.1
				c-0.1,0.1-0.3,0.1-0.3,0.2c0,0,0,0,0,0c0,0.1,0.1,0.1,0.1,0.2c0,0-0.1,0.1-0.1,0c0,0,0,0,0-0.1l0,0.1c-0.1-0.1,0.1-0.1,0-0.2
				c-0.1,0.1-0.2,0.2-0.3,0.2c-0.1-0.1,0.2-0.1,0-0.2l0.1,0c-0.2-0.2,0.1,0-0.1-0.2c-0.2,0-0.2,0.1-0.3,0.1c0,0.1,0,0.1,0,0.2
				c-0.2,0.2-0.3-0.2-0.4,0c0,0.1,0.1,0.2-0.1,0.2l0-0.1c-0.2,0.1,0,0.2-0.2,0.2c0-0.1,0.1-0.1,0.1-0.1c-0.2,0,0,0.1-0.1,0.1
				l-0.1-0.1c-0.1,0.1-0.2,0.3-0.4,0.4c0,0,0-0.1-0.1-0.1c-0.1,0.2-0.4,0.3-0.6,0.4l0,0.1c0,0-0.1,0-0.1,0c-0.1,0,0,0.1,0.1,0.1
				c0,0-0.1,0-0.1,0c0,0.2-0.1,0.5-0.3,0.5l0,0c-0.1,0.1,0.1,0.2,0,0.3l0,0c-0.2,0.2-0.2,0.5-0.5,0.7c0.1,0.1-0.2,0.3,0.1,0.3
				c-0.2,0.1-0.2,0.1-0.3,0.3c0,0,0.1,0.1,0.1,0.2l-0.1,0L7.4,14l-0.1,0l0,0.1c0,0,0.1,0,0.1,0c0,0.1-0.1,0.2-0.2,0.2
				c0,0.1,0,0.2,0,0.3c0,0,0-0.1-0.1-0.1c0.1,0.2-0.1,0-0.1,0.1c0,0,0.1,0,0.1,0c-0.1,0-0.1,0.2-0.1,0.2l-0.1,0
				c-0.1,0.2-0.1,0.4-0.2,0.5c0.1,0,0.2,0,0.2,0.1l-0.1,0c0.1,0.1,0.1,0,0.1,0.1c0,0.1-0.1,0-0.2-0.1l0,0.1c0,0,0,0-0.1-0.1
				c0.1,0.1-0.2,0.1-0.1,0.2l0,0c-0.1,0.2-0.1,0.3-0.2,0.4c0.1,0.1,0,0.1,0.1,0.2c-0.1,0.1-0.2,0.1-0.3,0.3c0,0.1,0.1,0.1,0.1,0.1
				c-0.1,0-0.2,0.1-0.2,0c-0.1,0.1-0.1,0.2-0.2,0.4c0,0,0.1,0,0.1,0c0,0-0.1,0-0.1,0l0,0c-0.1,0.3-0.5,0.2-0.6,0.4l0,0l0,0.1
				c0,0-0.1,0.1-0.1,0.1c-0.2,0.1,0-0.1-0.1-0.1c-0.2,0.2-0.3,0.2-0.7,0.3c0,0.1,0,0.1,0,0.2c-0.2,0.1-0.2,0.1-0.2,0.2
				c0,0.1,0,0.1-0.1,0.1l0,0c0,0,0,0,0,0c0,0,0,0,0,0l0,0c0,0,0,0,0,0l0,0l0,0l-0.4,0l0,0l0,0l0.1,0c0.1,0,0.2,0,0.3,0
				c0.1,0,0.1,0.1,0.1,0.2c0,0.1-0.1,0.1-0.1,0.3c0,0,0,0.1,0,0.1c0.4,0,0.6-0.2,0.8,0l-0.3,0.1c0.5,0,0.8,0.2,0.8,0.3
				c0.1,0.1,0.2,0.2,0.3,0.2c0,0-0.1,0-0.1,0c0,0.1,0.1,0.2,0.2,0.1c0,0,0,0-0.1,0.1c0,0.1,0.2,0,0.1,0.1c0,0,0,0,0,0
				c0.1,0,0.1,0.1,0.2,0.1c0,0.1,0.1,0.1,0.1,0.2c0.1,0,0,0.2,0.2,0.1c-0.2,0.1,0,0.2,0.1,0.3c-0.1,0,0,0.1-0.1,0.1
				c0,0.1,0.1,0.1,0.2,0.1c-0.1,0.2,0.3,0.2,0.1,0.4c0.2,0.2,0.3,0.4,0.4,0.6c-0.2,0.1-0.1-0.2-0.3-0.1c0.1,0.2,0.3,0.2,0.4,0.4
				c0,0.1-0.1,0-0.1,0c0.1,0.2,0.1,0.4,0.3,0.5c0,0,0,0-0.1,0c0,0,0,0.1,0.1,0.1l0,0c0.1-0.1,0.3,0,0.3,0c-0.2,0,0,0.2-0.3,0.2
				c0,0,0.1,0,0.1,0c0,0,0,0.1-0.1,0.1c0.1,0.1,0.1,0,0.2,0.1c0,0-0.1,0-0.1,0c0.1,0,0.2,0.1,0.2,0.2c0,0,0,0-0.1,0
				c0.1,0.2,0.3,0.2,0.3,0.4c-0.2,0,0,0.1-0.1,0.2l0.1,0.1l0-0.1c0,0.1,0.2,0.1,0.2,0.2l-0.1,0l0.1,0.1l0-0.1c0.1,0,0.1-0.1,0.2,0
				c0,0,0,0.1,0,0.2h0c0.1,0,0.1,0,0.1,0.1c0,0-0.1,0.1-0.2,0.1c0.1,0,0.2,0.2,0.3,0.1c0,0-0.1,0-0.1,0.1l0.1,0c0,0.1,0,0.1-0.1,0.1
				c0.1,0.1,0.1-0.1,0.1,0c0,0,0,0,0,0c0.1,0.1,0.2,0.2,0.3,0.3c-0.1,0.1-0.1-0.1-0.2,0.1c0.2,0.1,0.4,0.2,0.6,0.3l0,0
				c0.1-0.1,0.1,0.2,0.2,0.1c0,0-0.1,0.1-0.1,0.1c0.1,0.1,0.3,0.1,0.5,0.2l0,0c0,0.1,0.2,0.1,0.2,0.2c0,0,0.1,0,0.1-0.1
				c0.1,0.4,0.5,0,0.7,0.3c0,0-0.1,0-0.1,0l0.2,0c0-0.1,0-0.1,0-0.1c0,0,0.1-0.1,0.1-0.1c-0.1,0,0,0.1,0,0.2c0,0,0-0.1,0-0.1
				c0.1,0.2,0-0.2,0.2,0l0,0c0.1,0,0.1-0.1,0.2-0.1c0,0.1-0.1,0-0.1,0.1c0.1,0,0.2-0.2,0.2-0.1c0,0-0.1,0-0.1,0
				c0.1,0.1,0.1,0.1,0.1,0.1l0,0c0,0,0.1,0,0.1,0.1l0,0c0.1-0.3,0.2,0,0.3-0.2c-0.1,0.2,0,0.1,0,0.2c0,0,0.1,0.1,0.1,0.1
				c0.1-0.1,0.1,0.1,0.2-0.1c0,0,0.1,0,0.1,0.1c0.1,0,0-0.1,0-0.1c0.1-0.1,0.3,0.1,0.5-0.1c0.1-0.1,0.2-0.2,0.3-0.3
				c0.1,0,0,0.1,0,0.1c0.1,0,0.1,0,0.2,0c0,0,0,0.1,0,0.1c0.1,0,0-0.1,0.1-0.1c0,0,0,0.1,0,0.2c0.1-0.1,0.1-0.1,0.2-0.2
				c0,0.1,0,0.1,0,0.2c0.1-0.1,0.2-0.1,0.2-0.2l-0.1,0c0,0,0,0.1,0,0.1c0,0.1-0.1,0-0.1,0l0,0c-0.1-0.2-0.2,0.1-0.3,0.1l0-0.2
				l-0.1,0.2c0,0-0.1-0.1,0-0.1c-0.1-0.1-0.1,0.1-0.1,0c0,0,0,0,0,0l-0.1,0.1c0,0,0-0.1,0-0.1c-0.1-0.1-0.2,0.2-0.2,0l0,0
				c-0.2,0.1,0,0.1-0.1,0.3l-0.1-0.3l0,0.1c0,0-0.1,0-0.1-0.1c-0.1,0.1,0,0,0,0.1c-0.1-0.1-0.2,0.1-0.3-0.1c0,0.1,0.1,0.1,0,0.1
				c0-0.2-0.1,0-0.2-0.1c0-0.1,0.1,0,0-0.1c0,0.2-0.2,0-0.2,0c0,0.1-0.1,0.1-0.3,0.1c0,0-0.2-0.1-0.3-0.2l0,0c0,0.1-0.1,0.1-0.2,0.1
				c0-0.1,0-0.1,0.1-0.1l-0.1,0c0,0-0.1,0.1-0.1,0.1l0-0.1c-0.1,0-0.2,0.1-0.3,0c0,0.1,0,0.3-0.1,0.3c0-0.1,0-0.1,0.1-0.1
				c0,0-0.1,0-0.1,0l0.1-0.1c0-0.1-0.1,0.1-0.1,0c0-0.1,0-0.1,0-0.1c0,0,0,0,0.1,0c0,0-0.1-0.1-0.1-0.2c0,0,0,0.1-0.1,0.1
				c-0.1,0,0-0.1,0-0.1c0,0-0.1,0-0.1,0.1c0,0,0-0.1,0-0.1c-0.1,0-0.2-0.1-0.2,0l0,0l0,0l0,0l0,0c-0.2,0-0.3-0.2-0.4-0.3l0,0
				c-0.1,0-0.2-0.1-0.3-0.1c0,0,0-0.1,0-0.1c-0.1,0-0.1,0-0.1-0.1c0.1,0,0-0.1,0.1,0c0-0.1,0-0.1-0.2-0.1c0.1,0,0-0.1,0-0.1l0,0.1
				c0,0-0.1-0.1-0.1-0.1l0.1-0.1c0-0.2-0.4-0.1-0.3-0.4c-0.1,0,0,0.1-0.1,0.1c0-0.1,0-0.3,0-0.3c0-0.1-0.2,0-0.2-0.1
				c0,0-0.1,0.1-0.2,0.1c0-0.1,0.1-0.2,0.2-0.2c0,0,0,0,0,0c0,0,0.1,0,0.1,0l0,0c0-0.1-0.1-0.2,0-0.2c-0.1,0-0.1,0-0.1,0.1
				c0-0.1-0.1-0.2-0.1-0.3c0,0,0,0.1-0.1,0.1c0-0.2-0.1,0-0.2-0.1c0-0.1,0.2-0.1,0-0.1c0-0.1,0.1-0.1,0.1-0.1
				c-0.1-0.1,0-0.2-0.1-0.3l0.1,0c0,0,0,0-0.1-0.1l-0.1,0.1c0,0,0-0.1,0-0.1c-0.1,0-0.1,0.1-0.2,0.1c0-0.1-0.1-0.1,0-0.2
				c0,0.1,0.1-0.1,0.2,0c0,0,0,0,0-0.1c0,0,0,0,0,0c0-0.2-0.1,0-0.2-0.1c0.1,0,0.1-0.1,0.1-0.1c0,0.1-0.1,0.1-0.2,0
				C8,22,7.9,22.1,7.9,22l0,0.1c-0.1,0-0.1,0-0.1-0.1c0,0,0.1,0,0.1,0c-0.1,0,0.1-0.2-0.1-0.3c0-0.1,0.1-0.1,0.1-0.1
				c-0.1-0.1,0-0.1-0.1-0.2c-0.1,0.1,0,0.1-0.2,0l0.1,0.2l-0.2-0.1c0,0.1,0.1,0.1,0.1,0.1c-0.1,0-0.1,0-0.1,0
				c0.1-0.1-0.1-0.1-0.1-0.2l0.2-0.1c0-0.2-0.2-0.2-0.2-0.4l0,0.1c-0.1,0-0.1-0.1-0.1-0.1c0.1,0,0.1-0.1,0.1-0.1c0,0,0-0.1-0.2-0.1
				l0.1-0.1c0-0.2-0.3-0.1-0.3-0.2c0.1,0,0.1-0.1,0.2,0c0,0,0-0.1-0.1-0.1c0,0-0.1-0.1-0.1-0.2c0,0-0.1,0-0.1,0c0,0,0,0,0,0
				c0,0-0.1-0.1-0.1,0c0.1-0.2-0.2-0.4-0.1-0.6c-0.1-0.1-0.2-0.2-0.2-0.3c0,0,0,0,0,0c0-0.2-0.2,0.1-0.3-0.1c0-0.1,0.1,0,0.1,0
				c0.2-0.2-0.1-0.1-0.1-0.3l0,0c0-0.1-0.2-0.1-0.3-0.2c0,0,0,0,0,0c-0.1,0-0.3,0-0.4-0.1c0.1-0.1,0.1,0,0.1-0.1
				c0,0-0.1,0.1-0.2,0.1c0,0,0-0.1,0.1-0.2l0.1,0c0.1-0.1-0.1,0-0.1-0.1l0.1,0c0,0-0.1,0-0.1,0c-0.1,0-0.2,0-0.2,0l-0.1,0
				c-0.3,0,0.1,0-0.2,0l0.3,0c-0.1,0-0.4,0-0.6,0c0.3,0,0.5,0,0.7,0c0,0-0.1,0-0.3,0c0,0,0.1,0,0.1,0c-0.3,0-0.5,0-0.6,0
				c0.4,0,0.4,0,0.4,0c-0.1,0,0.1,0,0.4,0l0,0c-0.1,0,0.3,0,0.3,0c-0.4,0,0,0-0.4-0.1c0,0,0,0,0.1,0c0.1,0,0.2,0,0.3,0l0,0
				c0,0,0,0,0,0c0,0,0,0,0.1,0c0,0,0,0,0,0c0,0,0.1,0,0.2,0.1c-0.1,0-0.1-0.1-0.1,0c0,0-0.1,0-0.1,0c-0.1-0.1,0.2,0.1,0.1,0
				c0,0,0,0,0,0.1c0,0,0,0,0,0C6,18.1,6,18.1,6,18c0.1-0.1,0.1-0.2,0.1-0.3c0,0,0.1,0,0.1,0.1c0.2-0.1,0.2-0.5,0.4-0.6l0,0
				c0,0,0-0.1,0-0.1c0,0,0,0,0,0c0,0,0-0.1,0.1-0.2l0,0.1C7,17,6.9,16.8,7,16.6c0.1,0.1,0.3,0,0.3-0.1l0,0c0.1-0.2,0.1-0.5,0.1-0.7
				c0.2-0.1,0.3-0.4,0.4-0.6c0,0-0.1-0.1-0.1-0.1c0.1,0-0.1-0.2,0.1-0.1l0,0C8,15,8,14.9,8.1,14.8l-0.2-0.1c0.4-0.1,0.1-0.6,0.4-0.7
				c0-0.1,0-0.1,0-0.2l0.1,0c0.1-0.2,0.1-0.2,0.1-0.4l0.1,0.1c0-0.1-0.3-0.2-0.2-0.3l0.2,0c0.1-0.1,0.2-0.2,0.2-0.4c0,0,0.1,0,0,0.1
				c0-0.1,0.2-0.2,0-0.3c0.1,0.1,0.1-0.1,0.1-0.2l0.1,0.1c-0.1-0.1-0.1-0.2-0.1-0.3c0,0,0.1,0,0,0c0.1,0,0-0.1,0.1-0.2l0,0.1
				C9,12.1,9,12.1,9,12c0-0.1,0.1-0.1,0.2,0c0,0-0.1-0.1,0-0.2c0,0,0,0.1,0,0.1c0.2,0,0.1-0.2,0.2-0.2c0,0,0,0,0.1,0
				c-0.1,0.1-0.2,0.1-0.2,0.1c0.1,0.1,0.1,0,0.2,0.2c0-0.1,0-0.3,0.1-0.3c0,0,0,0,0,0l0,0c0,0,0,0,0,0c0,0,0.1,0,0.1,0
				c0.1,0.1,0.1,0,0.1,0c-0.1-0.1,0-0.1-0.1-0.1c0,0,0,0,0,0c0,0,0,0,0,0l0,0c0,0-0.1,0-0.1,0.1c0-0.1,0-0.1,0.1-0.1
				c0-0.1,0-0.1,0-0.2c0.1,0.1,0.3,0.1,0.3,0.2c0.1-0.1,0.3-0.2,0.3-0.4c0,0,0.1,0,0.1,0.1c0,0,0,0,0,0.1c0.1-0.1,0.2-0.1,0.2-0.2
				c0.1,0,0,0.1,0.1,0.1l0,0c0.3,0.1,0.3-0.5,0.7-0.3c0,0,0,0,0,0c0.4,0.1,0.7-0.2,1.1,0c0.1,0.1,0.1,0,0.2-0.1l0,0.1l0.1-0.1
				c0.2-0.1,0.2,0.3,0.4,0.2l0-0.1c0.1,0,0.2,0,0.2,0.1c0,0,0-0.1,0.1,0l0,0.1l0.2,0c0.1,0.1-0.1,0.2,0.1,0.3c0.1,0,0.3-0.1,0.2-0.1
				c0,0-0.1-0.1,0-0.1l0.1,0c0.1-0.2,0.2-0.3,0.1-0.5l-0.2,0.1l0-0.1l0.1,0c0-0.1-0.1,0-0.1,0c0,0,0-0.1,0-0.1l-0.2,0.1
				c0-0.1,0.1-0.1,0-0.2c-0.1,0.1,0,0.2-0.1,0.2c0-0.1,0-0.1-0.1-0.1c0,0,0-0.1,0.1-0.1c-0.1,0-0.2,0-0.2,0.1c0-0.1-0.2,0-0.2-0.2
				c0,0-0.1,0.1-0.2,0.1c0.1-0.2-0.2,0-0.2-0.2c-0.1,0.2-0.3,0-0.4,0.1c0,0,0,0,0,0c-0.1,0-0.1-0.1-0.1-0.1c0,0.1-0.1,0.2-0.2,0.3
				c-0.1-0.1,0.1-0.2,0-0.3c0,0.1-0.2,0.1-0.1,0.2c-0.1-0.1-0.1,0-0.1-0.2c0,0.2-0.1,0-0.1,0.2c-0.1-0.1,0-0.2-0.2-0.1
				C11.6,9.9,11.7,9.9,11.7,9.9z M9.2,11.2L9.2,11.2C9.2,11.1,9.3,11.1,9.2,11.2C9.3,11.1,9.3,11.1,9.2,11.2z M9.1,11.3
				C9.1,11.3,9.1,11.3,9.1,11.3c0.1,0,0.1,0,0.1,0C9.2,11.3,9.1,11.3,9.1,11.3z M9.8,11.6C9.8,11.6,9.8,11.6,9.8,11.6
				C9.8,11.6,9.8,11.6,9.8,11.6L9.8,11.6C9.8,11.6,9.8,11.6,9.8,11.6z"/>
			<path class="st1" d="M9.8,11.5C9.8,11.5,9.8,11.5,9.8,11.5L9.8,11.5L9.8,11.5L9.8,11.5z"/>
			<path class="st1" d="M10.2,25.2L10.2,25.2L10.2,25.2C10.2,25.2,10.2,25.2,10.2,25.2z"/>
			<polygon class="st1" points="7.3,13.9 7.3,13.9 7.3,13.8 			"/>
			<path class="st1" d="M11.1,25.9C11.1,25.9,11.1,25.9,11.1,25.9C11.2,25.9,11.1,25.9,11.1,25.9z"/>
			<path class="st1" d="M11.7,26L11.7,26C11.7,26,11.7,26,11.7,26z"/>
			<path class="st1" d="M12.1,26.1C12.1,26.1,12.1,26.1,12.1,26.1L12.1,26.1L12.1,26.1z"/>
			<path class="st1" d="M7.2,22.3L7.2,22.3C7.2,22.3,7.2,22.3,7.2,22.3z"/>
			<path class="st1" d="M8.3,23.9C8.3,23.9,8.3,23.9,8.3,23.9C8.3,23.9,8.3,23.9,8.3,23.9z"/>
			<polygon class="st1" points="6.4,20.5 6.4,20.5 6.4,20.5 			"/>
			<path class="st1" d="M8.2,23.8C8.2,23.8,8.2,23.8,8.2,23.8C8.2,23.8,8.2,23.8,8.2,23.8z"/>
			<path class="st1" d="M13.8,25.8L13.8,25.8C13.8,25.8,13.8,25.8,13.8,25.8L13.8,25.8z"/>
			<path class="st1" d="M13.8,25.8L13.8,25.8C13.8,25.8,13.8,25.8,13.8,25.8z"/>
			<path class="st1" d="M13.9,25.8L13.9,25.8C13.9,25.8,13.9,25.8,13.9,25.8z"/>
			<path class="st1" d="M13.3,25.9L13.3,25.9C13.3,26,13.3,26,13.3,25.9z"/>
			<path class="st1" d="M13.1,26c0,0,0.1,0.1,0.2,0l0,0C13.3,26,13.1,25.9,13.1,26z"/>
			<path class="st1" d="M12.4,25.6l0.1,0c0,0-0.1-0.1,0-0.1C12.4,25.4,12.6,25.6,12.4,25.6z"/>
			<path class="st1" d="M12,25.6C12.1,25.5,12,25.5,12,25.6C12,25.5,12,25.5,12,25.6z"/>
			<path class="st1" d="M9.5,24.6L9.5,24.6C9.5,24.5,9.5,24.6,9.5,24.6z"/>
			<polygon class="st1" points="8.8,24.6 8.7,24.7 8.8,24.6 			"/>
			<polygon class="st1" points="9.1,23.9 9.1,23.9 9,23.9 			"/>
			<path class="st1" d="M6.9,19.6L6.9,19.6C6.9,19.7,7,19.6,6.9,19.6z"/>
			<path class="st1" d="M5.5,18.3C5.6,18.3,5.6,18.3,5.5,18.3C5.5,18.3,5.4,18.3,5.5,18.3z"/>
			<polygon class="st1" points="8.1,14.7 8.1,14.7 8.1,14.6 			"/>
		</g>
		<g>
			<path class="st1" d="M22,25.1C21.9,25.2,21.9,25.2,22,25.1L22,25.1L22,25.1z"/>
			<path class="st1" d="M22.1,25.4c0.1,0,0.2-0.1,0.2-0.2C22.2,25.3,22.2,25.3,22.1,25.4c-0.1-0.1-0.1-0.1,0-0.2c0,0,0,0-0.1,0
				C22,25.4,22,25.4,22.1,25.4C22.1,25.4,22.1,25.4,22.1,25.4z"/>
			<path class="st1" d="M26,25.5L26,25.5C26,25.5,26,25.5,26,25.5z"/>
			<path class="st1" d="M27.9,23.7C27.9,23.8,27.9,23.8,27.9,23.7C27.9,23.8,27.9,23.7,27.9,23.7z"/>
			<path class="st1" d="M28.2,23.4L28.2,23.4C28.2,23.4,28.2,23.4,28.2,23.4z"/>
			<path class="st1" d="M26,25.5L26,25.5C26.1,25.4,26,25.5,26,25.5z"/>
			<path class="st1" d="M22.7,25.3C22.7,25.3,22.7,25.3,22.7,25.3L22.7,25.3L22.7,25.3z"/>
			<path class="st1" d="M25,26L25,26C25,26,25,26,25,26L25,26z"/>
			<path class="st1" d="M24.1,26.1c0,0,0-0.1,0-0.1C24.1,26,24.1,26,24.1,26.1C24.1,26,24.1,26.1,24.1,26.1z"/>
			<path class="st1" d="M22.8,25.8L22.8,25.8L22.8,25.8z"/>
			<path class="st1" d="M25.6,25.8C25.6,25.8,25.6,25.8,25.6,25.8C25.6,25.8,25.6,25.8,25.6,25.8z"/>
			<path class="st1" d="M23,11L23,11C23,11,23,11,23,11z"/>
			<polygon class="st1" points="22,10.8 22,10.8 22,10.8 			"/>
			<path class="st1" d="M28.7,22.8L28.7,22.8C28.7,22.8,28.7,22.8,28.7,22.8z"/>
			<path class="st1" d="M31.6,17.9c-0.1,0.1-0.2-0.1-0.3,0.1C31.3,17.9,31.5,18,31.6,17.9z"/>
			<path class="st1" d="M22.7,25.3L22.7,25.3C22.7,25.3,22.7,25.3,22.7,25.3z"/>
			<path class="st1" d="M31.2,18L31.2,18L31.2,18C31.2,18,31.2,18,31.2,18z"/>
			<path class="st1" d="M29.3,21.1C29.3,21.1,29.3,21.1,29.3,21.1C29.2,21.1,29.3,21.1,29.3,21.1z"/>
			<path class="st1" d="M28.7,22.3L28.7,22.3C28.7,22.2,28.7,22.2,28.7,22.3z"/>
			<path class="st1" d="M29.4,20.4C29.4,20.4,29.4,20.4,29.4,20.4C29.4,20.4,29.4,20.4,29.4,20.4C29.4,20.4,29.4,20.4,29.4,20.4z"/>
			<polygon class="st1" points="29.7,19.8 29.7,19.8 29.7,19.8 			"/>
			<path class="st1" d="M24.9,11c0,0,0-0.1,0-0.1C24.9,11,24.8,11,24.9,11z"/>
			<path class="st1" d="M22.7,25.4C22.7,25.4,22.7,25.3,22.7,25.4L22.7,25.4C22.7,25.4,22.7,25.4,22.7,25.4z"/>
			<path class="st1" d="M28.7,20l0.1-0.1C28.7,20,28.7,20,28.7,20z"/>
			<path class="st1" d="M27.9,14.3L27.9,14.3C27.8,14.3,27.8,14.3,27.9,14.3z"/>
			<path class="st1" d="M28.9,19.6C28.9,19.6,29,19.6,28.9,19.6C29,19.6,29,19.6,28.9,19.6L28.9,19.6z"/>
			<path class="st1" d="M24.9,10.9L24.9,10.9L24.9,10.9z"/>
			<path class="st1" d="M24.2,11.1c0.1,0,0.1-0.1,0.1-0.2c0.1,0,0,0.1,0.1,0.2c0.1,0,0.1-0.1,0.2-0.1c0,0,0,0,0,0.1
				c0.1-0.1,0.2,0,0.3-0.1c0,0,0,0,0,0c0-0.1,0-0.1,0-0.2c0,0,0.1-0.1,0.1,0c0,0,0,0-0.1,0l0.1,0c0,0.1-0.1,0-0.1,0.1
				c0.1,0,0.2-0.1,0.3,0c0,0.1-0.2,0-0.1,0.1L25,10.9c0,0.2-0.1,0,0,0.2c0.1,0.1,0.2,0,0.3,0.1c0.1-0.1,0-0.1,0.1-0.2
				c0.2,0,0,0.4,0.2,0.3c0.1-0.1,0.2-0.2,0.2-0.1l-0.1,0.1c0.1,0.1,0.2-0.1,0.2,0c-0.1,0-0.1,0-0.1,0c0,0.1,0.1,0,0.2,0l-0.1,0.1
				c0.1,0.1,0.3,0.1,0.5,0.1c0,0-0.1,0-0.1,0.1c0.2,0.1,0.3,0.3,0.4,0.5l0.1,0c0,0,0,0.1,0,0.1c0,0.1,0.1,0,0.1,0c0,0,0,0.1-0.1,0.1
				c0.2,0,0.4,0.2,0.4,0.4l0,0c0,0.1,0.3,0,0.2,0.1l0,0c0.1,0.2,0.3,0.4,0.2,0.7c0.2,0,0,0.2,0.2,0.2c-0.1,0.2-0.1,0.1-0.1,0.4
				c0,0.1,0.2,0,0.2,0.1l-0.1,0l0.1,0.1l-0.1,0.1l0,0.1c0,0,0-0.1,0.1-0.1c0.1,0.1,0,0.3-0.1,0.3c0.1,0.1,0.1,0.1,0.2,0.2
				c0,0-0.1,0-0.1,0c0.2,0.1-0.1,0.1,0,0.1c0,0,0.1,0,0.1,0c0,0.1,0,0.2,0.1,0.3l-0.1,0c0,0.2,0.2,0.4,0.3,0.6
				c0-0.1,0.1-0.1,0.2-0.1l-0.1,0.1c0.1,0,0-0.1,0.1,0c0,0.1-0.1,0.1-0.2,0.1l0.1,0.1c0,0-0.1,0-0.1,0c0.1,0,0,0.2,0.1,0.2l0,0
				c0.1,0.2,0.2,0.3,0.3,0.4c0.1,0,0.1,0,0.2,0c0,0.1,0,0.3,0.1,0.4c0.1,0.1,0.1,0,0.2,0c-0.1,0.1,0,0.2-0.1,0.2
				c0.1,0.1,0.2,0.2,0.4,0.3c0,0,0-0.1,0-0.1c0,0,0,0.1,0,0.1l0,0c0.3,0.1,0.2,0.7,0.6,0.6l0,0l0.1,0c0,0,0,0,0.1,0
				c0,0-0.1,0-0.1,0.1c0.1-0.1,0.1,0,0.1,0c0,0,0,0,0.1,0c-0.2,0-0.2,0-0.1,0.1c0,0,0.2,0-0.1,0l0.2,0c0.2,0-0.1,0-0.1,0
				c0.1,0,0.2,0,0.3,0l0,0c0.2,0,0,0-0.2,0c-0.1,0-0.3,0-0.3,0c0,0,0,0,0,0c0.1,0,0.3,0.2,0.2,0.1c0,0-0.1-0.1-0.1-0.1
				c0.2,0-0.4,0.3-0.5,0.6c0,0,0-0.1,0-0.1c-0.1,0-0.2,0.2-0.1,0.3c0,0-0.1,0-0.1,0c-0.1,0,0,0.2-0.1,0.2c0,0,0,0,0,0
				c0,0.1-0.1,0.2,0,0.2c-0.1,0.1-0.1,0.2-0.2,0.3c0.1,0.1-0.1,0.2,0,0.3c-0.1-0.1-0.2,0.1-0.2,0.2c0,0-0.1,0-0.1,0
				c0,0.1,0,0.2,0.1,0.2c-0.2,0.1,0,0.4-0.2,0.3c0,0.3,0,0.5-0.1,0.7c-0.2-0.1,0.1-0.2-0.1-0.3c0,0.2,0.1,0.4,0,0.6
				c0,0-0.1-0.1-0.1-0.1c0,0.2-0.2,0.4-0.1,0.6c0,0,0,0,0-0.1c0,0-0.1,0.1,0,0.1l0,0c0.1,0,0.2,0.2,0.2,0.3
				c-0.2-0.1-0.1,0.1-0.3-0.1c0,0,0,0.1,0.1,0.1c0,0-0.1,0-0.1,0c0,0.1,0.1,0.1,0,0.2c0,0,0,0-0.1-0.1c0,0.1,0.1,0.2,0,0.2
				c0,0,0,0,0,0c-0.1,0.2,0,0.3-0.1,0.5c-0.1-0.1-0.1,0-0.2,0l0,0.1l0.1,0c0,0.1,0,0.2-0.1,0.2l0-0.1l-0.1,0.1l0.1,0
				c0,0.1,0.2,0.1,0.1,0.2c0,0-0.1,0.1-0.1,0.1l0,0c0,0.1,0,0.1,0,0.2c0,0-0.1-0.1-0.1-0.1c0.1,0.1-0.1,0.2,0,0.3
				c0,0-0.1-0.1-0.1-0.1l0.1,0.1c0,0-0.1,0-0.1,0c-0.1,0.1,0.2,0.1,0,0.1c0,0,0,0,0,0c-0.1,0.1-0.1,0.3-0.3,0.3
				c-0.1-0.1,0.1-0.1-0.1-0.2c-0.1,0.1-0.2,0.4-0.3,0.5l0,0c0.1,0.2-0.2,0-0.2,0.1c0,0,0-0.1,0-0.1c-0.1,0-0.2,0.2-0.3,0.3l0-0.1
				c-0.1,0-0.2,0.1-0.3,0.1c0,0.1,0,0.1,0,0.1c-0.3-0.2-0.4,0.3-0.7,0.2c0,0,0-0.1,0-0.1l-0.2,0.1c0,0.1,0,0,0.1,0.1
				c0,0.1-0.1,0.1-0.1,0.1c0.1-0.1,0-0.1-0.1-0.2c0,0,0,0.1,0,0.1c-0.1-0.1,0,0.2-0.1,0.1l0,0c0,0-0.1,0.1-0.1,0.1
				c0-0.1,0-0.1,0-0.1c-0.1,0-0.1,0.2-0.2,0.1c0,0,0.1,0,0.1-0.1c-0.1-0.1-0.1-0.1-0.1-0.1l0,0c0,0-0.1,0-0.1,0l0,0
				c-0.1,0.3-0.2,0.1-0.3,0.2c0.1-0.2,0-0.1,0-0.2c0,0-0.1-0.1-0.1-0.1c-0.1,0.1-0.1-0.1-0.2,0.1c0,0-0.1,0,0-0.1
				c-0.1,0,0,0.1,0,0.1c-0.1,0.1-0.3-0.2-0.5,0c-0.2,0-0.2,0.2-0.4,0.2c0-0.1,0.1-0.1,0.1-0.1c-0.1-0.1-0.1-0.1-0.2,0
				c0,0,0-0.1,0-0.1c-0.1,0-0.1,0.1-0.1,0c0,0,0.1-0.1,0.1-0.1c-0.1,0-0.2,0.1-0.2,0.1c0-0.1,0.1-0.1,0.1-0.1c-0.1,0-0.2,0-0.3,0.1
				l0,0.1c0,0,0-0.1,0-0.1c0.1-0.1,0.1,0.1,0.1,0.1l-0.1,0c0,0.2,0.2,0,0.3,0.1l-0.1,0.1l0.1-0.1c0,0,0,0.1,0,0.1
				c0.1,0.1,0.1,0,0.1,0.1c0,0,0,0,0,0l0.1,0c0,0,0,0.1-0.1,0.1c0.1,0.1,0.2-0.1,0.3,0.1l0,0c0.2,0,0-0.1,0.2-0.2l0.1,0.3l0-0.1
				c0,0,0.1,0,0,0.1c0.1-0.1,0,0,0-0.1c0.1,0.1,0.3,0,0.3,0.2c0-0.1-0.1-0.1,0-0.1c0,0.2,0.1,0,0.2,0.1c0,0.1-0.1,0,0,0.1
				c0.1-0.2,0.2,0,0.2,0c0-0.1,0.2-0.1,0.3-0.1c0,0,0.2,0,0.4,0.1l0,0c0-0.1,0.1-0.1,0.2-0.2c0,0.1,0,0.1,0,0.2l0.1,0
				c0,0,0-0.1,0.1-0.1l0,0.1c0.1,0,0.2-0.2,0.3-0.2c0-0.1-0.2-0.2-0.1-0.3c0,0,0.1,0.1,0,0.2c0,0,0-0.1,0.1,0l0,0.1
				c0.1,0,0-0.1,0.1-0.1c0,0.1,0.1,0,0.1,0.1c0,0-0.1,0-0.1,0c0.1,0,0.1,0,0.2,0.1c0,0,0-0.1,0-0.1c0.1,0,0.1,0.1,0.1,0.1
				c0-0.1,0.1,0,0-0.1c0,0,0.1,0,0.1,0.1c0-0.1,0.2-0.1,0.1-0.2l0,0l0,0l0,0l0,0c0.1-0.2,0.4-0.1,0.5-0.3l0,0
				c0.1-0.1,0.2-0.2,0.2-0.3c0,0,0.1,0,0.1,0c0-0.1,0-0.1,0.1-0.1c0,0.1,0.1,0,0,0.1c0.1,0,0.2,0,0.2-0.2c0,0.1,0.1,0,0.2,0l-0.1,0
				c0,0,0.1-0.1,0.1-0.1l0.1,0.1c0.3-0.1,0.1-0.5,0.4-0.4c0-0.1-0.1,0.1-0.2,0c0.1-0.1,0.3,0,0.3-0.1c0.1-0.1-0.1-0.2,0-0.3
				c0,0-0.2-0.1-0.1-0.2c0.1-0.1,0.2,0,0.2,0.1c0,0,0,0,0,0c0,0,0,0.1,0.1,0.1l0,0c0.1,0,0.1-0.1,0.2-0.1c0-0.1,0-0.1-0.1,0
				c0.1-0.1,0.1-0.2,0.2-0.3c0,0-0.1,0-0.1,0c0.1-0.1,0-0.1,0-0.2c0.1,0,0.1,0.1,0.1,0c0.1-0.1,0.1,0,0.1,0.1c0-0.1,0.1-0.2,0.2-0.2
				l0,0.1c0,0,0-0.1,0-0.1l-0.1,0c0,0,0-0.1,0.1,0c0-0.1-0.1,0-0.2-0.1c0.1,0,0-0.2,0.1-0.1c-0.1,0.1,0.1,0,0.1,0.2c0,0,0-0.1,0-0.1
				c0,0,0,0,0,0c0.2-0.1-0.1-0.1,0-0.3c0.1,0,0.1,0,0.1,0c0,0.1-0.1,0-0.1-0.1c0.1-0.1,0-0.1,0-0.2l0,0c-0.1,0,0-0.1,0-0.2
				c0.1,0,0,0.1,0,0.1c-0.1-0.1,0.2-0.1,0.1-0.2c0.1,0,0.1,0,0.2,0c0-0.1,0.1-0.1,0.1-0.2c-0.1,0-0.1,0-0.1-0.1l0,0.2l-0.1-0.2
				c0,0.1,0,0.1,0,0.2c0-0.1,0-0.1-0.1-0.1c0.2,0,0-0.2,0.1-0.2l0.2,0.1c0.1-0.1,0-0.3,0.1-0.4l-0.1,0c-0.1-0.1,0-0.1,0-0.2
				c0.1,0,0.1,0,0.2,0c-0.1,0,0.1-0.1-0.1-0.2l0.1,0c0.1-0.1-0.1-0.2-0.1-0.4c0.1,0.1,0.1,0,0.1,0.1c0,0,0-0.1,0-0.1
				c0.1,0,0-0.2,0-0.2c0,0-0.1-0.1-0.1-0.1c0,0,0,0,0,0c0,0,0-0.1-0.1-0.1c0.3,0,0.2-0.4,0.4-0.4c0-0.1,0.1-0.2,0.1-0.3c0,0,0,0,0,0
				c0.1-0.1-0.1-0.2,0-0.3c0.1,0,0,0.1,0.1,0.1c0.2,0.1,0.1-0.2,0.2-0.1l0,0c0.1,0,0.1-0.2,0.1-0.2c0,0,0,0,0,0
				c0-0.1,0.1-0.2,0.2-0.4c0,0.1,0,0.1,0.1,0.1c0.1,0-0.1-0.1,0-0.2c0.1,0,0.2,0,0.4,0.1l-0.2,0.1c0.2,0.1,0.2-0.1,0.4-0.1l0.1,0
				c0.1,0,0.1-0.1,0.1-0.1c-0.1-0.1-0.1-0.2-0.1-0.2l-0.1,0c-0.1-0.1,0.2,0,0.1-0.1l0.2,0c0,0,0-0.1,0.1-0.1c0,0,0,0,0,0
				c0,0,0,0.1,0,0.1c0,0,0,0,0-0.1c0,0,0.1,0,0,0c0,0,0,0-0.1,0c0,0,0,0,0.2,0c0.1,0,0.2,0,0.3,0l0.1,0l0,0l0,0l0,0l0,0l-0.3,0h0
				l0,0l0,0l0,0c0,0,0,0,0,0l0,0c-0.1,0-0.1,0-0.2-0.2c-0.2,0.1,0,0-0.3,0c-0.1,0-0.1-0.1,0-0.1l0.1-0.2c0,0,0,0,0,0c0,0,0,0,0,0
				c0,0,0.1,0,0.1,0c0,0,0-0.1,0-0.1c-0.1,0,0.1,0,0-0.1c-0.1,0.1-0.3,0-0.4,0c0,0,0,0.1,0.1,0.1c-0.2,0-0.2-0.1-0.3-0.1
				c0-0.1-0.1-0.1-0.3-0.2l0.1,0c0,0-0.1,0-0.2-0.1c0,0-0.1,0-0.1,0c-0.1,0-0.1,0-0.2,0c0,0,0-0.1,0.1-0.1C30.3,17,30,17,30,16.8
				l0.1,0c0,0-0.1,0-0.1-0.1c0,0,0.1,0,0,0c0,0-0.1,0-0.1-0.1l0.1,0c0-0.2-0.3-0.2-0.4-0.3c0.1-0.1,0.1-0.2,0.1-0.3l0,0
				c-0.1-0.2-0.3-0.3-0.5-0.4c0.1-0.2-0.1-0.4-0.1-0.7c0,0-0.1,0-0.2,0c0-0.1-0.2-0.1,0-0.1l0,0c0.1-0.1,0.1-0.2,0-0.2l-0.2,0
				c0.2-0.3-0.3-0.5,0-0.7c-0.1,0-0.1-0.1-0.1-0.1l0.1,0c0-0.1,0-0.2-0.1-0.4l0.1,0c0-0.1-0.3,0-0.4-0.1l0.1-0.1
				c-0.1-0.2,0-0.4-0.3-0.5c0,0,0.1,0,0.1,0c0-0.1-0.1-0.4-0.3-0.2c0.1-0.1-0.1-0.2-0.2-0.2l0.1,0c-0.2,0-0.2,0-0.3,0
				c0,0,0-0.1,0.1,0c0-0.1-0.1,0-0.2-0.1l0.1,0c-0.1-0.1-0.1,0-0.2,0c-0.1,0-0.1-0.2-0.1-0.2c-0.1,0-0.1,0-0.2,0c0,0,0,0,0.1,0
				c-0.1-0.2-0.3-0.1-0.3-0.2c0,0,0,0,0-0.1c0.1,0.1,0.2,0.2,0.2,0.2c0.1-0.1,0-0.2,0.1-0.2c-0.1,0-0.3,0-0.4-0.1c0,0,0,0,0,0l0,0
				c0,0,0,0-0.1,0c0,0,0-0.1-0.1-0.1c0-0.1-0.1-0.1-0.1-0.1c-0.1,0.1-0.1,0-0.1,0.1c0,0,0,0,0,0c0,0,0,0,0,0l0,0c0,0,0.1,0,0.1,0.1
				c-0.1,0-0.1,0-0.1-0.1c-0.1,0-0.1,0.1-0.2,0.1c0-0.2-0.1-0.3,0-0.4c-0.2,0-0.4-0.2-0.5,0c-0.1,0,0-0.1,0-0.1c0,0,0.1,0,0.1,0
				c-0.1,0-0.3-0.1-0.3,0c-0.1-0.1,0.1-0.1-0.1-0.1l0,0c-0.2-0.3-0.6,0.2-0.9-0.2c0,0,0,0,0,0.1c-0.4-0.2-0.8,0-1.2-0.1
				c-0.1,0-0.1,0.1-0.2,0.1l0-0.1l-0.1,0.1c-0.1,0.1-0.3-0.2-0.5,0l0,0.1c-0.1,0-0.2,0.1-0.2,0c0,0,0,0.1,0,0.1l0-0.1l-0.1,0.2
				c-0.1,0-0.1-0.2-0.3-0.2c-0.1,0.1-0.1,0.2-0.1,0.3c0,0,0.1,0,0.1,0.1L22,10.8c0.1,0.2,0.1,0.3,0.3,0.4l0.1-0.1l0.1,0.1l-0.1,0
				c0.1,0.1,0.1,0,0.1-0.1c0,0,0,0.1,0.1,0.1l0-0.2c0,0.1,0,0.1,0.1,0.2c0-0.1-0.1-0.1,0-0.2c0.1,0.1,0.1,0.1,0.1,0c0,0,0,0.1,0,0.1
				c0-0.1,0.1-0.1,0.1-0.2C22.9,11,23,10.8,23,11c0,0,0.1-0.2,0.1-0.2c-0.1,0.2,0.2,0,0.2,0.2c0-0.2,0.2-0.1,0.3-0.2c0,0,0,0,0,0
				c0.1,0,0.1,0.1,0.1,0.1c0-0.1,0.1-0.2,0.2-0.3c0.1,0.1-0.1,0.2,0,0.3c0-0.1,0.1-0.1,0.1-0.2c0.1,0.1,0.1,0,0.1,0.2
				c0-0.2,0.1,0,0.1-0.1c0.1,0.1,0,0.2,0.1,0.1C24.3,11,24.2,11.1,24.2,11.1z M26.4,11.6L26.4,11.6C26.4,11.6,26.4,11.6,26.4,11.6
				C26.4,11.6,26.4,11.6,26.4,11.6z M26.6,11.7C26.6,11.7,26.5,11.7,26.6,11.7c0-0.1,0-0.1,0-0.1C26.5,11.6,26.6,11.7,26.6,11.7z
				 M26.7,10.9C26.7,10.9,26.7,10.9,26.7,10.9C26.7,10.9,26.6,10.9,26.7,10.9L26.7,10.9C26.6,10.9,26.6,10.9,26.7,10.9z"/>
			<path class="st1" d="M26.5,10.9C26.5,10.9,26.5,10.9,26.5,10.9C26.5,11,26.5,11,26.5,10.9L26.5,10.9L26.5,10.9z"/>
			<path class="st1" d="M26,25.5L26,25.5C26,25.5,26,25.5,26,25.5C26,25.5,26,25.5,26,25.5z"/>
			<polygon class="st1" points="27.7,14.1 27.8,14.1 27.7,14.1 			"/>
			<path class="st1" d="M24.8,25.5C24.8,25.5,24.8,25.5,24.8,25.5C24.8,25.5,24.8,25.5,24.8,25.5z"/>
			<path class="st1" d="M24.3,25.6L24.3,25.6C24.3,25.6,24.3,25.6,24.3,25.6z"/>
			<path class="st1" d="M23.9,25.5C23.9,25.5,23.9,25.6,23.9,25.5L23.9,25.5L23.9,25.5z"/>
			<path class="st1" d="M28,22L28,22C28,22,28,22,28,22z"/>
			<path class="st1" d="M27.4,23.7C27.4,23.7,27.4,23.6,27.4,23.7C27.4,23.6,27.4,23.7,27.4,23.7z"/>
			<polygon class="st1" points="28.7,20.1 28.7,20.1 28.7,20 			"/>
			<path class="st1" d="M27.4,23.6C27.4,23.6,27.4,23.6,27.4,23.6C27.4,23.6,27.4,23.6,27.4,23.6z"/>
			<path class="st1" d="M22.4,25.2L22.4,25.2C22.4,25.2,22.4,25.2,22.4,25.2L22.4,25.2z"/>
			<path class="st1" d="M22.4,25.2L22.4,25.2C22.3,25.2,22.4,25.2,22.4,25.2z"/>
			<path class="st1" d="M22.3,25.2L22.3,25.2C22.3,25.2,22.3,25.2,22.3,25.2z"/>
			<path class="st1" d="M22.8,25.4L22.8,25.4C22.8,25.4,22.8,25.4,22.8,25.4z"/>
			<path class="st1" d="M23,25.4c0,0-0.1-0.1-0.1-0.1l0,0C22.9,25.3,22.9,25.5,23,25.4z"/>
			<path class="st1" d="M23.6,26l-0.1,0c0,0,0,0.1,0,0.1C23.6,26.2,23.4,25.9,23.6,26z"/>
			<path class="st1" d="M24,26C23.9,26.1,24,26.1,24,26C24,26.1,24,26.1,24,26z"/>
			<path class="st1" d="M26.8,25L26.8,25C26.9,25,26.8,25,26.8,25z"/>
			<polygon class="st1" points="26.9,24.2 26.8,24.2 26.8,24.3 			"/>
			<polygon class="st1" points="27.6,24.4 27.6,24.5 27.6,24.4 			"/>
			<path class="st1" d="M29.7,20l-0.1,0C29.6,20,29.7,20,29.7,20z"/>
			<path class="st1" d="M31.4,18.5c0.1,0,0.2,0,0.1,0C31.4,18.5,31.3,18.5,31.4,18.5z"/>
			<polygon class="st1" points="28.8,14.4 28.9,14.4 28.8,14.3 			"/>
		</g>
		<g>
			<g>
				<path class="st1" d="M25.8,18C25.9,18,26,18,25.8,18l0-0.1L25.8,18z"/>
				<path class="st1" d="M26.1,17.5c-0.1-0.1-0.2-0.2-0.3-0.1C25.9,17.5,25.8,17.5,26.1,17.5c0,0.1-0.1,0.2-0.1,0.2
					c0,0,0,0.1,0.1,0.2C26.1,17.7,26.1,17.6,26.1,17.5C26,17.5,26,17.5,26.1,17.5z"/>
				<path class="st1" d="M22.8,11.2L22.8,11.2C22.8,11.2,22.8,11.2,22.8,11.2z"/>
				<path class="st1" d="M18.5,9.6C18.5,9.6,18.5,9.6,18.5,9.6C18.5,9.6,18.5,9.6,18.5,9.6z"/>
				<path class="st1" d="M17.7,9.4C17.7,9.4,17.7,9.4,17.7,9.4C17.7,9.4,17.7,9.4,17.7,9.4z"/>
				<path class="st1" d="M22.8,11.2l-0.1-0.1C22.6,11.1,22.7,11.1,22.8,11.2z"/>
				<path class="st1" d="M25.6,16.5C25.7,16.6,25.7,16.6,25.6,16.5L25.6,16.5L25.6,16.5z"/>
				<path class="st1" d="M24.3,12.5L24.3,12.5C24.4,12.5,24.4,12.5,24.3,12.5L24.3,12.5z"/>
				<path class="st1" d="M25.3,13.8c0,0-0.1,0-0.2,0C25.1,13.8,25.2,13.8,25.3,13.8C25.2,13.8,25.2,13.8,25.3,13.8z"/>
				<path class="st1" d="M26,16.1L26,16.1C26,16.2,26,16.1,26,16.1z"/>
				<path class="st1" d="M23.5,11.7C23.6,11.6,23.6,11.6,23.5,11.7C23.6,11.6,23.5,11.6,23.5,11.7z"/>
				<path class="st1" d="M25.4,19.6L25.4,19.6C25.4,19.6,25.4,19.6,25.4,19.6z"/>
				<polygon class="st1" points="26.1,18 26.1,18 26.2,18 				"/>
				<path class="st1" d="M16.2,9.4L16.2,9.4C16.2,9.4,16.2,9.4,16.2,9.4z"/>
				<path class="st1" d="M9.5,19.8c0.1-0.2,0.2,0.2,0.2,0C9.7,19.8,9.5,19.6,9.5,19.8z"/>
				<path class="st1" d="M25.7,16.5L25.7,16.5C25.6,16.5,25.6,16.5,25.7,16.5z"/>
				<path class="st1" d="M9.7,19.8L9.7,19.8L9.7,19.8C9.7,19.8,9.7,19.8,9.7,19.8z"/>
				<path class="st1" d="M13,10.8C13,10.9,13.1,10.9,13,10.8C13.1,10.8,13.1,10.8,13,10.8z"/>
				<path class="st1" d="M15.4,9.9L15.4,9.9C15.3,9.9,15.4,9.9,15.4,9.9z"/>
				<path class="st1" d="M12.1,11.8C12.1,11.8,12.1,11.8,12.1,11.8L12.1,11.8C12,11.8,12.1,11.8,12.1,11.8z"/>
				<polygon class="st1" points="11.2,12.8 11.2,12.8 11.2,12.7 				"/>
				<path class="st1" d="M23.8,23c0,0,0.1,0,0.1,0C23.9,23,24,22.8,23.8,23z"/>
				<path class="st1" d="M25.7,16.5C25.7,16.5,25.7,16.5,25.7,16.5L25.7,16.5C25.7,16.5,25.7,16.5,25.7,16.5z"/>
				<path class="st1" d="M12.6,12.4l-0.2,0.1C12.5,12.5,12.6,12.5,12.6,12.4z"/>
				<path class="st1" d="M15.8,25.5L15.8,25.5C15.8,25.4,15.8,25.4,15.8,25.5z"/>
				<path class="st1" d="M12.1,13C12,13,12,13,12,13c0,0,0,0,0,0L12.1,13z"/>
				<path class="st1" d="M23.9,23L23.9,23L23.9,23z"/>
				<path class="st1" d="M24.5,21.8C24.4,22,24.5,22,24.6,22c-0.1,0.2-0.1,0-0.2,0.1c0,0.1,0,0.3-0.1,0.4c0,0,0,0-0.1,0
					c0,0.2-0.3,0.4-0.3,0.6c0,0,0,0,0,0c0.1,0,0.1,0.1,0.2,0.1c-0.1,0.1,0,0.2-0.1,0.1c0,0,0-0.1,0-0.1l0,0.1c-0.2,0,0-0.1,0-0.2
					c-0.1,0.2-0.1,0.4-0.3,0.5c-0.1-0.1,0.2-0.3,0-0.2l0.2-0.1c-0.3,0,0.1-0.1-0.2-0.1c-0.2,0.2-0.1,0.3-0.4,0.4
					c0,0.1,0.1,0.1,0.1,0.2c-0.2,0.4-0.4,0-0.5,0.3c0,0.1,0.1,0.3-0.1,0.3l0-0.2c-0.2,0.1,0,0.3-0.3,0.3c0-0.1,0.1-0.2,0.1-0.2
					c-0.2,0-0.1,0.1-0.2,0.2l-0.1-0.1c-0.2,0.2-0.4,0.4-0.7,0.6c0,0,0-0.1-0.1-0.1c-0.2,0.1-0.3,0.2-0.5,0.3
					c-0.2,0.1-0.4,0.1-0.6,0.1l-0.1,0.2c0,0-0.1,0,0-0.1c-0.2,0,0,0.1,0,0.1c-0.1,0-0.1,0-0.1-0.1c-0.2,0.2-0.7,0.4-1,0.3l0,0
					c-0.2,0-0.2,0.3-0.4,0.2l0,0c-0.5,0-1,0.1-1.3-0.1c-0.1,0.2-0.4-0.1-0.5,0.1c-0.2-0.1-0.2-0.2-0.5-0.3c-0.1,0-0.2,0.1-0.3,0.1
					l0-0.1L16,25.6l-0.1-0.2l-0.1,0c0,0,0.1,0.1,0.1,0.1c-0.2,0-0.4-0.2-0.4-0.3l-0.4-0.1c0,0,0.1,0,0.2,0c-0.3,0,0-0.1-0.2-0.1
					c0,0,0,0.1-0.1,0.1c-0.1-0.1-0.3-0.2-0.4-0.3l0.1-0.1c-0.3-0.1-0.6-0.3-0.9-0.5c0.1,0.1,0,0.2-0.1,0.2l0-0.1
					c-0.1,0,0.1,0.1-0.1,0.1c-0.1-0.1,0-0.2,0.1-0.2l-0.2-0.1c0,0,0.1,0,0.1-0.1c-0.1,0-0.1-0.3-0.3-0.2l0,0
					c-0.3-0.2-0.4-0.3-0.6-0.5c-0.1,0.1-0.1,0-0.3,0c-0.1-0.2-0.2-0.4-0.4-0.6c-0.2-0.1-0.1,0-0.2,0c0.1-0.1-0.1-0.3,0-0.2
					c-0.2-0.2-0.3-0.3-0.5-0.6c0,0.1,0,0.1,0,0.1c-0.1-0.1,0-0.2,0-0.2l0,0c-0.4-0.3-0.2-1-0.5-1.2l0,0l-0.2-0.3
					c0-0.2,0.1,0.1,0.1-0.1c-0.3-0.3-0.1-0.6-0.3-0.9c0.2-0.3-0.2-0.9,0-1.2l-0.1,0c-0.1-0.1,0-0.1,0-0.2c-0.1,0-0.1,0.1-0.1,0
					c-0.1-0.7,0.1-1.5,0.4-2.2c0.1-0.2-0.3-0.2-0.1-0.5l0.1,0.1c0-0.3,0.1-0.5,0.2-0.8c0.1-0.2,0.2-0.5,0.3-0.8c0,0,0,0.1,0,0.1
					c0.1-0.1,0.2-0.4,0.2-0.4c0.1-0.1,0.1,0,0.1,0c0.1-0.1,0-0.3,0.2-0.3c0,0,0,0,0,0.1c0-0.1,0.2-0.3,0.1-0.3
					c0.2-0.1,0.2-0.3,0.3-0.4c0-0.2,0.3-0.2,0.2-0.4c0.1,0.1,0.3-0.2,0.4-0.3c0,0.1,0.1,0,0.1,0c0.1-0.1,0.2-0.2,0.1-0.3
					c0.3,0,0.3-0.5,0.6-0.4c0.3-0.3,0.6-0.6,0.9-0.8c0.1,0.1-0.4,0.2-0.3,0.4c0.3-0.3,0.4-0.5,0.8-0.6c0.1,0,0,0.1,0,0.1
					c0.3-0.2,0.7-0.2,0.9-0.4c0,0,0,0-0.1,0.1c0.1,0,0.2,0,0.1-0.1l-0.1,0c-0.1-0.1,0.2-0.3,0.2-0.3c-0.1,0.2,0.3,0,0.2,0.3
					c0,0,0.1-0.1,0.1-0.1c0.1,0,0.1,0,0,0.1c0.2-0.1,0.1-0.2,0.3-0.2c0,0,0,0.1,0,0.1c0.1-0.1,0.2-0.2,0.4-0.2c0,0,0,0,0,0.1
					c0.3-0.1,0.5-0.2,0.9-0.2c-0.1,0.2,0.1,0,0.1,0.2c0.1,0,0.1,0,0.2,0l-0.1-0.1c0.2,0,0.3-0.1,0.4,0l-0.1,0.1l0.3,0L18.4,10
					c0.2-0.1,0-0.2,0.2-0.1c0,0,0.2,0,0.2,0.1l0,0c0.1,0,0.2-0.1,0.3,0c0,0,0,0.1,0,0.2c0.1-0.1,0.4,0,0.5-0.1c0,0-0.1,0.1,0,0.1
					l0.1-0.1c0.1,0,0.1,0.1,0,0.1c0.2,0.1,0-0.2,0.2,0c0,0,0,0-0.1,0c0.2,0.1,0.5,0.1,0.7,0.2c0,0.2-0.2,0-0.2,0.1
					c0.3,0.1,0.7,0.1,1,0.3l-0.1,0c0.1-0.2,0.2,0.2,0.4,0.2c0,0-0.1,0.1-0.1,0.1c0.2,0.2,0.4,0.2,0.8,0.3l-0.1,0
					c0.1,0.1,0.3,0.2,0.4,0.3c0.1,0,0.1,0,0.1,0c0.2,0.5,0.8,0.5,0.9,0.9c0,0-0.1-0.1-0.1,0l0.3,0.2c0-0.1,0-0.1,0-0.2
					c0.1,0,0.2,0,0.2,0.1c-0.2-0.1-0.1,0.1-0.1,0.2c0,0,0.1,0,0.1,0c0,0.2,0.2-0.1,0.2,0.2l0,0c0.1,0.1,0.2,0.1,0.2,0.2
					c-0.1,0.1-0.1-0.1-0.2,0c0.1,0.1,0.3,0.1,0.3,0.3c-0.1,0-0.1-0.1-0.2-0.1c0,0.2,0,0.2,0.1,0.3l0,0l0.1,0.2l0-0.1
					c0.3,0,0.2,0.3,0.5,0.4c-0.2-0.1-0.1,0-0.2,0c0,0.1,0,0.2,0,0.2c0.1,0.1,0,0.2,0.2,0.3c0,0,0,0.1,0,0.1c0.1,0.1,0-0.1,0.1-0.1
					c0.2,0.2,0,0.5,0.3,0.8c0.1,0.2,0.3,0.3,0.4,0.5c0,0.1-0.1,0-0.1,0c0,0.2,0,0.2,0.1,0.4c0,0-0.1,0-0.1,0.1c0,0.1,0.1,0,0.1,0.2
					c0,0-0.1,0-0.2-0.1c0.1,0.1,0.1,0.2,0.2,0.4c-0.1,0-0.1-0.1-0.2-0.1c0,0.1,0.1,0.4,0.2,0.4l0-0.1c0,0.1-0.1,0-0.1,0
					c-0.1-0.1,0-0.2,0-0.2l0,0.1c0.2-0.1-0.1-0.4-0.1-0.6l0.2,0.1l-0.2-0.2c0,0,0.1-0.1,0.2,0c0-0.2-0.1-0.1,0-0.2c0,0,0,0,0,0
					L25.9,16c0,0,0.1,0,0.1,0c0-0.3-0.2-0.4-0.1-0.5l0,0c-0.1-0.3-0.1,0-0.3-0.2l0.2-0.3l-0.1,0c0,0,0-0.1,0-0.1c-0.1-0.1,0,0-0.1,0
					c0-0.2-0.2-0.4-0.1-0.5c-0.1,0,0,0.2-0.1,0c0.2-0.1-0.1-0.2-0.1-0.3c0.1,0,0.1,0.2,0.1,0c-0.2,0-0.1-0.3-0.2-0.4
					c-0.1,0.1-0.2-0.2-0.3-0.4c0.1,0-0.2-0.4-0.3-0.6l0,0c-0.1,0.1-0.2-0.1-0.4-0.2c0.1,0,0.1-0.1,0.2,0l-0.1-0.1
					c-0.1,0-0.1,0-0.2-0.1l0.1,0c-0.1-0.1-0.3-0.2-0.5-0.4c-0.1,0.1,0,0.3-0.3,0.2c0,0,0.1-0.1,0.1-0.1c0,0-0.1,0-0.1-0.1l0.1,0
					c-0.1-0.1-0.1,0-0.2-0.1c0.1-0.1,0-0.1,0-0.1c0,0,0,0.1,0.1,0.1c-0.1-0.1-0.1-0.2-0.1-0.3c0,0-0.1,0.1-0.1,0
					c-0.1-0.1,0-0.1,0-0.2c-0.1,0-0.1-0.1-0.2,0c0,0,0-0.1,0-0.1c-0.1,0-0.4-0.3-0.4-0.1l0,0l0,0l0,0l0,0c-0.3-0.1-0.5-0.4-0.8-0.6
					l0,0c-0.2-0.1-0.4-0.2-0.6-0.2c-0.1,0-0.1-0.1-0.1-0.1c-0.1,0-0.2,0-0.3-0.1c0.2,0,0-0.1,0.2,0C21,10.1,21,10,20.8,10.1
					c0.1-0.1-0.1-0.2-0.2-0.2l0.1,0.1c-0.1,0-0.2-0.1-0.3-0.1l0.1-0.1c-0.4-0.3-0.8,0.1-1-0.2c-0.1,0.1,0.2,0.1,0.1,0.2
					c-0.2,0-0.3-0.2-0.4-0.3c-0.2-0.1-0.3,0.1-0.5,0.1c0,0,0,0.2-0.1,0.2c-0.2,0-0.2-0.2-0.1-0.2c0,0,0.1,0,0.1,0
					c0.1,0,0.1,0,0.1-0.1l0,0c-0.1,0-0.3-0.1-0.3-0.1c-0.1,0-0.1,0.1,0,0.1c-0.2-0.1-0.4,0-0.6-0.1c0,0,0.1,0.1,0,0.1
					c-0.4,0-0.2,0.1-0.4,0.1c-0.1-0.1,0-0.2-0.2-0.1c-0.2,0,0-0.1,0-0.2c-0.2,0.1-0.4,0-0.6,0l0.1-0.1c-0.1,0-0.1,0-0.2,0l0.1,0.1
					c-0.1,0-0.1,0-0.1,0c-0.1,0.1,0.1,0.1,0,0.2c-0.1,0-0.3,0.1-0.3,0c0.3,0-0.1-0.1,0.2-0.2c0,0-0.1,0-0.2,0c0,0,0,0,0,0
					c-0.3,0-0.1,0.2-0.4,0.2c0-0.1-0.1-0.1-0.1-0.1c0.1,0,0.1,0.1,0,0.2c-0.2,0-0.2,0.1-0.3,0.1l0.1,0c0,0.1-0.1,0.1-0.2,0.2
					c0,0,0.1-0.1,0-0.1c-0.1,0.2-0.3,0-0.5,0.1c-0.1,0-0.1-0.1-0.1-0.1c-0.2,0.2-0.3,0-0.4,0.2c0.1,0.1,0.1,0,0,0.2l0.3-0.2
					l-0.2,0.2c0.1,0,0.2-0.2,0.3-0.2c-0.1,0.1-0.1,0.1,0,0.1c-0.2-0.1-0.2,0.2-0.4,0.2l-0.1-0.2c-0.3,0-0.4,0.3-0.7,0.5l0.1,0
					c0,0.1-0.2,0.1-0.3,0.2c0-0.1-0.1-0.1-0.2-0.1c0,0-0.2,0.2-0.2,0.3l-0.2,0c-0.3,0.1-0.1,0.4-0.3,0.5c0-0.1-0.1-0.1,0-0.2
					c-0.1,0.1-0.1,0.1-0.1,0.1c-0.1,0-0.1,0.2-0.2,0.2c0,0,0,0.1,0,0.2c0,0,0,0,0,0c0,0-0.1,0.1,0,0.1c-0.3,0.1-0.5,0.6-0.8,0.6
					c-0.1,0.2-0.2,0.4-0.3,0.5c0,0,0,0,0,0c-0.2,0.2,0.1,0.2-0.1,0.4c-0.2,0.1,0-0.2-0.1-0.1c-0.2-0.1-0.2,0.3-0.4,0.4l0,0
					c-0.1,0.1-0.1,0.4-0.2,0.6c0,0,0,0,0,0c0,0.2,0,0.5-0.1,0.7c-0.1-0.1,0-0.1-0.1-0.1c0,0.1,0.2,0,0.1,0.2c-0.1,0-0.2,0.2-0.3,0.2
					c0-0.1,0-0.1,0.1-0.2c-0.2,0.1-0.1,0.2-0.1,0.3l-0.1,0c-0.1,0.3,0.1,0.3,0,0.6l0.1,0c0.1,0.2-0.1,0.1,0,0.3l-0.2,0
					c0,0.1,0.1,0.4,0.1,0.6c-0.1-0.1-0.1-0.4-0.2-0.5c0,0.1,0,0.4,0,0.5c0,0,0-0.1,0-0.2c0.1,0.2,0.1,0.3,0.1,0.6
					c-0.3-0.1-0.1,0.6-0.3,0.8c0.1,0.4,0,0.8,0.1,1.3c0.2-0.2,0,0.1,0.2,0.1c0,0.1,0,0.1,0,0.2l-0.1,0.4c0,0.1-0.1-0.1-0.1-0.1
					c0,0.2-0.1,0.1-0.1,0.3c0.1-0.1,0.1,0.1,0.1,0.2l0.1-0.2c0.2,0.3-0.1,0.3,0.1,0.6l-0.1-0.1c0.1,0.2,0.2,0.6,0.5,0.7
					c0,0,0,0.1-0.1,0c0.1,0.4,0.6,0.7,0.7,1.1l-0.1,0c0.1,0.1,0.2,0.1,0.2,0.2c0,0-0.1,0,0,0c0,0,0.2,0.1,0.2,0.2l-0.1,0
					c0.2,0.4,0.5,0.4,0.8,0.6c-0.1,0.1,0,0.4,0.2,0.5l0,0c0.3,0.3,0.7,0.5,1.1,0.7c0.1,0.3,0.7,0.6,1.1,0.9c0-0.1,0.1-0.1,0.1-0.1
					c0.1,0.1,0.3,0,0.2,0.1l0,0c0,0.2,0.2,0.2,0.4,0.3l0.1-0.2c0.3,0.4,1.1,0.2,1.3,0.5c0.1,0,0.2,0,0.4,0l0,0.1
					c0.3,0.1,0.4,0.1,0.8,0.1l-0.1,0.1c0.2,0,0.3-0.3,0.5-0.3l0,0.2c0.3,0,0.7,0.1,1.1,0c0,0,0,0.1-0.1,0.1c0.2,0,0.7,0,0.6-0.2
					c0,0.1,0.4,0,0.5-0.1l0,0.1c0.1-0.2,0.1-0.2,0.3-0.3c0.1,0,0.1,0.1,0,0.1c0.2,0,0.1-0.1,0.3-0.1l-0.1,0.1c0.2,0,0.2-0.1,0.2-0.2
					c0.1-0.1,0.3-0.1,0.4,0c0-0.1,0.1-0.2,0.2-0.2c0,0,0,0.1,0,0.1c0.3,0,0.4-0.3,0.6-0.3c0,0,0,0,0.1,0c-0.2,0.1-0.4,0.2-0.4,0.2
					c0,0.1,0.2,0,0.1,0.2c0.1-0.1,0.3-0.4,0.5-0.4c0,0,0,0,0,0l0,0c0,0,0.1,0,0.1-0.1c0.1,0,0.1,0,0.1-0.1c0.1,0.1,0.2-0.1,0.3-0.1
					c-0.1-0.1,0.1-0.1-0.1-0.1c0,0,0,0-0.1,0.1c0,0,0,0,0,0l0,0c-0.1,0-0.1,0.1-0.2,0.1c0-0.1,0.1-0.2,0.2-0.2c0-0.1,0-0.2,0-0.2
					c0.2,0.1,0.4,0,0.5,0c0.2-0.2,0.5-0.4,0.5-0.7c0-0.1,0.1,0,0.2,0c0,0-0.1,0.1-0.1,0.1c0.1-0.2,0.4-0.3,0.3-0.5
					c0.2-0.1,0,0.2,0.2,0l0,0.1c0.6-0.3,0.3-0.9,0.9-1.2c0,0-0.1,0-0.1,0c0.5-0.5,0.7-1.3,1.1-1.9c0.1-0.2,0-0.2,0-0.4l0.1,0
					l-0.1-0.2c0-0.3,0.4-0.4,0.3-0.8l-0.1,0c0-0.1,0-0.4,0.1-0.4c0,0-0.1-0.1,0-0.1l0.1,0c0-0.1,0-0.2-0.1-0.3
					c0.1-0.3,0.2,0.1,0.3-0.3c0-0.1-0.2-0.4-0.2-0.3c0,0.1,0,0.1-0.1,0.1l0-0.1c-0.2,0-0.3-0.1-0.5,0.2l0.1,0.2l-0.1,0.1l0-0.2
					c-0.1,0.1,0,0.2,0,0.2c0,0-0.1,0-0.1,0.1l0.2,0.2c-0.1,0-0.1-0.1-0.2,0c0.1,0.1,0.2-0.1,0.2,0.1c-0.1,0.1-0.2,0-0.1,0.2
					c0,0-0.1,0-0.1-0.1c0,0.1,0,0.3,0.1,0.3c-0.1,0.1,0,0.3-0.2,0.3c0,0,0.1,0.2,0.1,0.3c-0.1-0.2-0.1,0.3-0.3,0.2
					c0.1,0.2-0.1,0.4-0.1,0.7c0,0,0-0.1,0-0.1C25.1,20.9,25,20.9,25,21c0.1,0.1,0.1,0.3,0.1,0.4c-0.2,0.1-0.1-0.2-0.3-0.2
					c0.1,0,0,0.3,0.1,0.3c-0.1,0.1-0.1,0.1-0.2,0.1c0.2,0.1,0,0.1,0,0.2c-0.2,0.1-0.2,0-0.2,0.1C24.4,22,24.5,21.8,24.5,21.8z
					 M21.5,25L21.5,25C21.6,25,21.6,25,21.5,25C21.6,25,21.6,25,21.5,25z M21.2,25.2c0,0,0.1,0,0.1-0.1c0,0,0,0.1,0,0.1
					C21.3,25.2,21.3,25.2,21.2,25.2z M22.3,25.4C22.2,25.5,22.2,25.5,22.3,25.4C22.2,25.5,22.2,25.4,22.3,25.4
					C22.3,25.4,22.3,25.4,22.3,25.4C22.3,25.4,22.3,25.4,22.3,25.4z"/>
				<path class="st1" d="M22.3,25.3C22.3,25.3,22.3,25.3,22.3,25.3C22.3,25.2,22.3,25.2,22.3,25.3L22.3,25.3L22.3,25.3z"/>
				<path class="st1" d="M22.8,11.2L22.8,11.2C22.8,11.2,22.8,11.2,22.8,11.2L22.8,11.2z"/>
				<polygon class="st1" points="16.2,25.5 16.2,25.5 16.2,25.5 				"/>
				<path class="st1" d="M24.1,12.9C24.1,12.9,24.1,13,24.1,12.9C24.1,13,24.1,13,24.1,12.9z"/>
				<path class="st1" d="M24.6,13.7l0,0.1C24.6,13.8,24.6,13.7,24.6,13.7z"/>
				<path class="st1" d="M24.9,14.3C24.9,14.3,24.9,14.3,24.9,14.3L24.9,14.3L24.9,14.3z"/>
				<path class="st1" d="M15.6,10.5L15.6,10.5C15.6,10.6,15.6,10.6,15.6,10.5z"/>
				<path class="st1" d="M18.8,10c0,0-0.1,0-0.1,0C18.8,10.1,18.8,10.1,18.8,10z"/>
				<polygon class="st1" points="12.6,12.4 12.6,12.4 12.6,12.4 				"/>
				<path class="st1" d="M18.6,10c0.1,0,0.1,0,0.2,0C18.7,10,18.6,10,18.6,10z"/>
				<path class="st1" d="M25.7,17.2L25.7,17.2C25.7,17.2,25.7,17.2,25.7,17.2L25.7,17.2z"/>
				<path class="st1" d="M25.7,17.2L25.7,17.2C25.8,17.2,25.8,17.2,25.7,17.2z"/>
				<path class="st1" d="M25.8,17.3L25.8,17.3C25.8,17.2,25.8,17.3,25.8,17.3z"/>
				<path class="st1" d="M25.6,16.2L25.6,16.2C25.6,16.2,25.6,16.2,25.6,16.2z"/>
				<path class="st1" d="M25.5,16c0,0.1,0,0.2,0,0.3l0,0C25.5,16.2,25.6,16,25.5,16z"/>
				<path class="st1" d="M25.6,14.7l0.1,0.2c0-0.1,0.1-0.1,0.1,0C25.8,14.6,25.7,15,25.6,14.7z"/>
				<path class="st1" d="M25.3,14C25.4,14.1,25.4,14,25.3,14C25.3,13.9,25.3,13.9,25.3,14z"/>
				<path class="st1" d="M21.3,10.3L21.3,10.3C21.3,10.2,21.4,10.2,21.3,10.3z"/>
				<path class="st1" d="M20.2,10.4L20.2,10.4l0.1,0C20.3,10.4,20.3,10.4,20.2,10.4z"/>
				<polygon class="st1" points="19.8,9.6 19.8,9.6 19.7,9.6 				"/>
				<path class="st1" d="M11.3,12.5l0.1,0.1C11.4,12.5,11.3,12.4,11.3,12.5z"/>
				<path class="st1" d="M9.6,16.2c-0.1,0-0.1,0.1-0.1,0.2C9.6,16.3,9.6,16.3,9.6,16.2z"/>
				<polygon class="st1" points="14.9,26.1 14.8,26.1 15,26.1 				"/>
			</g>
			<g>
				<path class="st1" d="M11,14.1C11,14.1,10.9,14.1,11,14.1L11,14.1L11,14.1z"/>
				<path class="st1" d="M11,14.5c0.1,0,0.2,0,0.3-0.1C11.2,14.5,11.2,14.4,11,14.5c0-0.1,0-0.2,0.1-0.2c0,0,0-0.1-0.1-0.1
					C10.9,14.4,11,14.4,11,14.5C11.1,14.5,11,14.5,11,14.5z"/>
				<path class="st1" d="M13.8,19.7L13.8,19.7C13.8,19.7,13.8,19.7,13.8,19.7z"/>
				<path class="st1" d="M15.6,22.9C15.6,22.8,15.6,22.8,15.6,22.9C15.6,22.9,15.6,22.9,15.6,22.9z"/>
				<path class="st1" d="M15.8,23.5C15.8,23.5,15.8,23.4,15.8,23.5C15.8,23.4,15.8,23.5,15.8,23.5z"/>
				<path class="st1" d="M13.8,19.7l0,0.1C13.9,19.8,13.8,19.7,13.8,19.7z"/>
				<path class="st1" d="M11.7,15.1C11.7,15.1,11.6,15.1,11.7,15.1L11.7,15.1L11.7,15.1z"/>
				<path class="st1" d="M12.9,18.4L12.9,18.4C12.9,18.3,12.9,18.3,12.9,18.4L12.9,18.4z"/>
				<path class="st1" d="M12.3,17.3c0,0,0.1,0,0.2,0C12.4,17.3,12.4,17.3,12.3,17.3C12.3,17.3,12.3,17.3,12.3,17.3z"/>
				<path class="st1" d="M11.5,15.5L11.5,15.5L11.5,15.5z"/>
				<path class="st1" d="M13.4,19.1C13.3,19.1,13.3,19.2,13.4,19.1C13.3,19.2,13.3,19.1,13.4,19.1z"/>
				<path class="st1" d="M12.2,14.7L12.2,14.7C12.2,14.7,12.2,14.7,12.2,14.7z"/>
				<polygon class="st1" points="10.8,14.2 10.8,14.2 10.8,14.1 				"/>
				<path class="st1" d="M16.3,24.5L16.3,24.5C16.2,24.5,16.3,24.5,16.3,24.5z"/>
				<path class="st1" d="M22.4,19c-0.1,0.1,0-0.2-0.2-0.1C22.3,18.9,22.3,19.1,22.4,19z"/>
				<path class="st1" d="M11.7,15.1L11.7,15.1C11.7,15.1,11.7,15.1,11.7,15.1z"/>
				<polygon class="st1" points="22.2,18.9 22.2,18.9 22.2,18.9 				"/>
				<path class="st1" d="M18.3,26C18.3,26,18.2,26,18.3,26C18.2,26,18.2,26,18.3,26z"/>
				<path class="st1" d="M16.8,25L16.8,25C16.8,25,16.8,25,16.8,25z"/>
				<path class="st1" d="M18.8,24.8C18.8,24.7,18.9,24.7,18.8,24.8L18.8,24.8C18.9,24.7,18.9,24.7,18.8,24.8z"/>
				<polygon class="st1" points="19.4,23.8 19.3,23.9 19.3,23.9 				"/>
				<path class="st1" d="M15.4,14.6C15.4,14.6,15.4,14.6,15.4,14.6C15.4,14.6,15.2,14.6,15.4,14.6z"/>
				<path class="st1" d="M11.6,15.1C11.7,15.1,11.7,15.1,11.6,15.1L11.6,15.1C11.6,15.1,11.6,15.1,11.6,15.1z"/>
				<path class="st1" d="M18.1,24.3l0.1-0.1C18.2,24.2,18.2,24.2,18.1,24.3z"/>
				<path class="st1" d="M23,14.6L23,14.6C23,14.6,23,14.6,23,14.6z"/>
				<path class="st1" d="M18.5,23.7c0,0,0.1,0,0.1,0C18.6,23.7,18.6,23.7,18.5,23.7L18.5,23.7z"/>
				<path class="st1" d="M15.4,14.5L15.4,14.5L15.4,14.5z"/>
				<path class="st1" d="M14.3,14.8c0.2,0,0.1-0.1,0.1-0.2c0.2,0,0.1,0.1,0.2,0.2c0.1,0,0.2-0.2,0.3-0.2c0,0,0,0,0,0.1
					c0.1-0.1,0.4,0,0.5-0.1c0,0,0,0,0,0c0-0.1,0-0.1,0-0.2c0.1,0,0.1-0.1,0.2,0c0,0,0,0-0.1,0.1l0.1,0c0.1,0.1-0.1,0-0.1,0.1
					c0.1,0,0.3-0.2,0.4-0.1c0,0.1-0.3,0-0.1,0.2l-0.2,0c0.1,0.2-0.1,0,0,0.2c0.2,0,0.3-0.1,0.5,0c0.1-0.1,0-0.1,0-0.2
					c0.3-0.1,0.3,0.3,0.5,0.2c0.1-0.1,0.1-0.2,0.3-0.2l-0.1,0.1c0.2,0,0.1-0.2,0.4-0.1c0,0.1-0.2,0-0.1,0.1c0.1,0.1,0.1-0.1,0.2-0.1
					l0,0.1c0.2,0,0.5-0.1,0.8-0.1c0,0-0.1,0.1,0,0.1c0.3-0.1,0.7,0,1,0.1l0.1-0.1c0,0,0.1,0,0,0.1c0.1,0,0-0.1,0.1-0.1
					c0.1,0,0.1,0.1,0,0.1c0.2-0.1,0.6-0.2,0.9-0.1l0,0c0.2,0,0.2-0.2,0.4-0.1l0,0c0.4,0,0.8-0.1,1.1,0.1c0.1-0.2,0.4,0.1,0.4-0.2
					c0.2,0.1,0.2,0.1,0.5,0.2c0.1,0,0.1-0.1,0.2-0.2l0,0.1l0.1-0.1l0.1,0.1l0.1,0c0,0-0.1-0.1-0.1-0.1c0.2-0.1,0.4,0.1,0.4,0.1
					l0.4-0.1c0,0-0.1,0.1-0.1,0.1c0.2-0.1,0,0.1,0.2,0c0,0,0-0.1,0-0.1c0,0.1,0.1,0.1,0.1,0l-0.1,0.1c0,0,0.1,0,0.1,0c0,0,0,0,0,0
					c0.1,0,0.3-0.2,0.3-0.1L24,14.7c0.1,0,0.1-0.1,0.2-0.1c-0.1,0.1-0.2,0.1-0.3,0.1c0,0,0,0,0,0c-0.1,0-0.1,0-0.1,0
					c0.1,0-0.2,0,0,0l0,0c0,0,0,0,0,0c0,0.1-0.1,0.2-0.1,0.3c0.1,0.1,0,0.1,0.1,0.2c-0.1,0.1-0.3,0.3-0.4,0.5c0,0.2,0.1,0.1,0.1,0.2
					c-0.1,0-0.2,0.1-0.2,0c-0.1,0.2-0.2,0.3-0.3,0.6c0.1,0,0.1,0,0.1,0c0,0.1-0.1,0.1-0.1,0.1l0,0c-0.1,0.4-0.7,0.6-0.6,0.9l0,0
					l-0.1,0.3c-0.1,0.1,0-0.1-0.1-0.1c0,0.4-0.3,0.4-0.3,0.7c-0.3,0-0.4,0.6-0.7,0.8l0.1,0c0,0.1-0.1,0.1-0.1,0.1c0,0,0.1,0,0.1,0
					c-0.2,0.6-0.7,1-1.1,1.5c-0.1,0.2,0.2,0.3-0.1,0.5l-0.1-0.1c-0.1,0.5-0.5,0.8-0.6,1.3c0,0,0-0.1,0-0.1c-0.1,0-0.2,0.3-0.1,0.3
					c0,0.1-0.1,0-0.1,0c-0.1,0.1,0,0.3-0.1,0.3c0,0,0,0,0-0.1c0,0.1-0.2,0.2,0,0.2c-0.1,0.1-0.1,0.3-0.2,0.4
					c0.1,0.1-0.2,0.2-0.1,0.3c-0.1-0.1-0.3,0.2-0.3,0.3c0-0.1-0.1,0.1-0.1,0c-0.1,0.1-0.1,0.2,0,0.2c-0.3,0.1-0.1,0.5-0.3,0.3
					c0,0.1,0,0.3-0.1,0.5l0,0c0-0.1,0-0.1,0-0.1c0,0,0-0.1,0-0.2l0,0.1c0,0.1-0.1,0.1-0.1,0c0-0.1,0.1-0.1,0.1-0.1
					c0,0-0.1-0.1-0.1-0.1c-0.1-0.1-0.1-0.2-0.3-0.3c0,0,0,0,0.1,0c0,0,0-0.1-0.1-0.1l0,0c-0.1,0.1-0.3-0.1-0.4,0
					c0.2,0-0.1-0.3,0.2-0.3c0,0-0.1,0-0.1,0c0-0.1,0-0.1,0.1-0.1c-0.1-0.1-0.2,0-0.3-0.2c0,0,0.1,0,0.1,0c-0.1,0-0.2-0.1-0.3-0.2
					c0,0,0,0,0.1,0c-0.1-0.2-0.4-0.3-0.5-0.6c0.2,0,0-0.1,0.1-0.2l-0.1-0.1l0,0.1c-0.1-0.1-0.2-0.2-0.2-0.3l0.1,0.1L16,22.5l0,0.1
					c-0.1-0.1-0.1,0.1-0.2-0.1c0,0-0.1-0.1,0-0.2l0,0c-0.1,0-0.1-0.1-0.2-0.2c0,0,0.1-0.1,0.2-0.1c-0.1,0-0.2-0.3-0.3-0.3
					c0,0,0.1,0,0.1,0l-0.1,0c0-0.1,0-0.1,0.1-0.1c-0.1-0.2-0.1,0.1-0.2-0.1c0,0,0,0,0.1,0c-0.1-0.2-0.3-0.3-0.3-0.5
					c0.1-0.1,0.1,0.1,0.2,0c-0.2-0.2-0.5-0.4-0.6-0.7l0,0.1c-0.2,0.1,0-0.2-0.2-0.3c0,0,0.1,0,0.1,0c-0.1-0.2-0.2-0.3-0.4-0.5l0.1,0
					c0-0.1-0.1-0.3-0.2-0.4c-0.1,0-0.1-0.1-0.1,0c0.1-0.5-0.5-0.5-0.5-1c0,0,0.1,0.1,0.1,0l-0.2-0.2c-0.1,0.1,0,0.1-0.1,0.1
					c-0.1,0-0.1-0.1-0.2-0.1c0.1,0.1,0.1-0.1,0.1-0.1c0,0-0.1,0-0.1,0c0.1-0.2-0.2,0.1-0.2-0.2l0,0c-0.1-0.1-0.1-0.1-0.2-0.2
					c0.1-0.1,0.1,0,0.2,0c-0.1-0.1-0.3-0.1-0.2-0.2c0,0,0.1,0.1,0.1,0.1c0-0.2,0-0.2,0-0.2l0,0l-0.1-0.2l0,0.1
					c-0.3,0-0.2-0.2-0.4-0.3c0.2,0.1,0.1,0,0.2-0.1c0-0.1,0-0.1,0-0.1c-0.1,0,0-0.2-0.2-0.2c0,0,0-0.1,0-0.1c-0.1-0.1,0,0.1-0.1,0.1
					c-0.2-0.1-0.1-0.5-0.4-0.6c-0.2-0.2-0.3-0.1-0.5-0.3c0-0.1,0.1,0,0.1,0c0-0.1-0.1-0.2-0.2-0.3c0,0,0.1,0,0.1-0.1
					c-0.1-0.1-0.1,0-0.2-0.1c0,0,0.1,0,0.2,0c-0.1-0.1-0.2-0.1-0.3-0.2c0-0.1,0.1,0,0.2,0c-0.1-0.1-0.2-0.2-0.3-0.2l0,0.1
					c0,0,0.1-0.1,0.1,0c0.1,0,0,0.1,0,0.2l-0.1-0.1c-0.1,0.2,0.2,0.2,0.3,0.4l-0.2,0l0.2,0.1c0,0-0.1,0.1-0.1,0.1
					c0,0.1,0.1,0.1,0.1,0.2c0,0,0,0,0,0l0.1,0.1c0,0-0.1,0.1-0.1,0c0,0.2,0.3,0.2,0.2,0.3l0,0c0.2,0.2,0.1,0,0.3,0.1l-0.2,0.3l0.1,0
					c0,0,0,0.1,0,0.1c0.1,0,0,0,0.1,0c0,0.2,0.2,0.3,0.1,0.4c0.1,0,0-0.1,0.1-0.1c-0.1,0.1,0.1,0.1,0.1,0.3c-0.1,0-0.1-0.1-0.1,0
					c0.2,0,0.1,0.2,0.2,0.3c0.1-0.1,0.2,0.2,0.3,0.3c0,0,0.1,0.3,0.1,0.5l0,0c0.1,0,0.2,0.1,0.3,0.2c-0.1,0-0.1,0-0.2,0l0.1,0.1
					c0.1,0,0.1,0,0.1,0.1l-0.1,0c0.1,0.1,0.3,0.2,0.3,0.4c0.1,0,0.2-0.3,0.3-0.1c0,0-0.1,0.1-0.2,0c0,0,0.1,0,0.1,0.1l-0.1,0
					c0,0.1,0.1,0,0.1,0.1c-0.1,0,0,0.1-0.1,0.1c0,0,0-0.1,0-0.1c0,0.1,0,0.2,0,0.2c0,0,0.1-0.1,0.1,0c0.1,0.1-0.1,0.1,0,0.2
					c0.1,0,0.1,0.1,0.2,0.1c0,0,0,0.1,0,0.1c0.1,0,0.2,0.3,0.3,0.2l0,0l0,0l0,0l0,0c0.2,0.2,0.2,0.5,0.4,0.7l0,0
					c0.1,0.1,0.2,0.3,0.3,0.3c0,0,0,0.1-0.1,0.1c0.1,0.1,0.1,0.1,0.2,0.3c-0.1-0.1,0,0.1-0.1-0.1c0,0.1,0,0.2,0.2,0.3
					c-0.1,0,0,0.2,0,0.2l0-0.1c0.1,0.1,0.1,0.1,0.1,0.2l-0.1,0c0,0.3,0.5,0.3,0.4,0.7c0.1,0,0-0.2,0.1-0.2c0.1,0.1,0,0.3,0,0.4
					c0,0.2,0.2,0.1,0.3,0.3c0,0,0.1-0.1,0.2,0c0.1,0.1-0.1,0.2-0.1,0.2c0,0,0,0,0-0.1c0,0-0.1-0.1-0.1,0l0,0c0,0.1,0.1,0.2,0,0.2
					c0.1,0.1,0.1,0,0.1-0.1c0,0.2,0.1,0.2,0.2,0.4c0,0,0-0.1,0.1-0.1c0.1,0.3,0.1,0.1,0.2,0.2c0,0.1-0.2,0,0,0.2
					c0,0.1-0.1,0.1-0.1,0.1c0.2,0.1,0.1,0.3,0.1,0.4L16,24.2c0,0,0.1,0.1,0.1,0.1l0.1-0.1c0,0.1,0,0.1,0,0.1c0.1,0,0.1-0.1,0.2-0.1
					c0,0.1,0.2,0.2,0.1,0.2c-0.1-0.2-0.1,0.1-0.2-0.1c0,0,0.1,0.1,0.1,0.1c0,0,0,0,0,0c0,0.2,0.2,0,0.3,0.2c-0.1,0-0.1,0.1-0.1,0.1
					c0-0.1,0.1-0.1,0.2,0c0,0.1,0.1,0.1,0.1,0.2l0-0.1c0.1,0,0.1,0.1,0.2,0.1c0,0-0.1-0.1-0.1,0c0.2,0,0,0.2,0.2,0.4
					c0,0.1-0.1,0.1-0.1,0.2c0.2,0.2,0.1,0.4,0.3,0.6c0-0.2,0-0.2,0.1-0.1l-0.3-0.3c0.1,0,0.1,0.1,0.2,0.1c-0.1-0.1-0.2-0.2-0.2-0.3
					c0.1,0,0.1,0,0.1-0.1c0,0.3,0.2,0.2,0.2,0.4l-0.1,0.3c0.1,0.2,0.2,0.3,0.3,0.4c0.1-0.2,0.2-0.4,0.3-0.5l-0.1,0.1
					c0-0.2,0.1-0.2,0.2-0.4c0,0.1,0.1,0.1,0.1,0.1c0-0.1,0.2-0.3,0.1-0.4c0.1,0,0.1-0.1,0.2-0.1c0.2-0.3,0-0.4,0.1-0.5
					c0,0.1,0.1,0,0.1,0.2c0-0.1,0.1-0.1,0-0.1c0.1,0,0-0.2,0.1-0.2c0,0-0.1-0.1,0-0.2c0,0,0,0,0,0c0,0,0-0.1-0.1-0.1
					c0.3-0.1,0.3-0.5,0.6-0.6c0.1-0.1,0.1-0.3,0.2-0.4c0,0,0,0,0,0c0.2-0.1-0.1-0.2,0.1-0.4c0.2,0,0,0.1,0.1,0.1
					c0.2,0.1,0.1-0.2,0.3-0.3l0,0c0.1-0.1,0.1-0.3,0.2-0.4c0,0,0,0,0,0c0-0.2,0-0.4,0.1-0.6c0.1,0.1,0,0.1,0.1,0.1
					c0-0.1-0.1-0.1-0.1-0.2c0.1,0,0.2-0.1,0.3-0.1l-0.1,0.1c0.2,0,0.1-0.2,0.2-0.2l0,0c0.1-0.2,0-0.3,0.1-0.5l-0.1,0
					c-0.1-0.2,0.1-0.1,0.1-0.2l0.1,0c0-0.1,0-0.3,0.1-0.5c0,0.1,0,0.3,0,0.5c0-0.1,0.1-0.3,0.1-0.3c0,0,0,0.1,0,0.1
					c0-0.2,0-0.3,0.1-0.5c0.2,0.2,0.3-0.4,0.6-0.4c0.1-0.3,0.4-0.5,0.5-0.8c-0.3,0,0-0.1-0.2-0.2c0-0.1,0.1-0.1,0.1-0.1l0.2-0.2
					c0.1,0,0,0.1,0.1,0.1c0.1-0.2,0.1,0,0.2-0.1c-0.1,0-0.1-0.1,0-0.2l-0.2,0.1c0-0.3,0.3-0.1,0.3-0.4l0,0.1c0-0.1,0.3-0.4,0.2-0.6
					c0,0,0.1,0,0.1,0.1c0.2-0.3,0.2-0.7,0.4-0.9l0,0c0-0.1,0-0.1,0-0.2c0,0,0,0,0.1,0c0,0,0-0.2,0.1-0.2l0,0.1
					c0.2-0.2,0.1-0.5,0.2-0.7c0.1,0.1,0.3-0.1,0.4-0.2l0,0c0.1-0.1,0.1-0.2,0.1-0.2c0-0.1,0.1-0.2,0.1-0.3c0.1-0.2,0.2-0.5,0.2-0.7
					c0.2-0.2,0.4-0.5,0.6-0.8c-0.3,0-0.6,0-0.9-0.1c0.1,0-0.1,0.1-0.2,0.1c-0.1,0-0.4,0.1-0.3,0l0,0c0-0.1-0.4-0.1-0.5-0.1l0,0.2
					c-0.3-0.3-0.9,0.1-1-0.2c-0.1,0-0.2,0-0.3,0.1l0-0.1c-0.2,0-0.3,0-0.6,0l0.1-0.1c-0.2,0-0.2,0.3-0.3,0.3l0-0.2
					c-0.3,0-0.5-0.1-0.8,0c0,0,0-0.1,0.1-0.1c-0.1,0-0.5-0.1-0.4,0.1c0-0.1-0.3,0-0.4,0l0-0.1c-0.1,0.1-0.1,0.2-0.3,0.2
					c0,0,0-0.1,0-0.1c-0.1-0.1-0.1,0.1-0.3,0l0.1-0.1c-0.1,0-0.1,0-0.2,0.1c-0.1,0-0.3,0-0.3-0.1c0,0.1-0.1,0.1-0.2,0.1
					c0,0,0-0.1,0-0.1c-0.2-0.1-0.3,0.1-0.5,0c0,0,0-0.1,0-0.1c0.2,0,0.3,0,0.3,0c0-0.1-0.1-0.1,0-0.2c-0.1,0.1-0.3,0.2-0.5,0.2
					c0,0,0,0,0,0l0,0c0,0-0.1,0-0.1,0c0,0-0.1,0-0.1,0c0-0.1-0.2,0-0.2,0c0,0.1-0.1,0.1,0,0.2c0,0,0,0,0.1,0c0,0,0,0,0,0l0,0
					c0,0,0.1,0,0.2,0c-0.1,0.1-0.1,0.1-0.2,0c0,0.1-0.1,0.1-0.1,0.2c-0.1-0.1-0.3-0.2-0.3-0.3c-0.2,0.1-0.5,0-0.7,0.2
					c-0.1,0-0.1-0.1-0.1-0.1c0,0,0.1,0,0.1,0c-0.1,0.1-0.4,0-0.4,0.2c-0.2-0.1,0.1-0.1-0.1-0.1l0,0c-0.4-0.2-0.7,0.4-1.2,0.1
					c0,0,0.1,0,0.1,0c-0.6-0.1-1.1,0.1-1.7-0.1c-0.2,0-0.2,0-0.3,0.1l0-0.1l-0.2,0.1c-0.2,0.1-0.4-0.3-0.7-0.1l0,0.1
					c-0.1,0-0.3,0-0.3,0c0,0,0,0.1-0.1,0l0-0.1l-0.3,0.1c-0.2,0,0-0.2-0.3-0.2c-0.1,0-0.3,0.2-0.3,0.2c0,0,0.1,0,0.1,0.1l-0.1,0
					c0,0.2-0.1,0.4,0.1,0.5l0.2-0.1l0.1,0.1l-0.1,0c0.1,0.1,0.1,0,0.2,0c0,0,0,0.1,0.1,0.1l0.2-0.2c0,0.1-0.1,0.1,0,0.2
					c0.1-0.1-0.1-0.2,0.1-0.2c0.1,0.1,0.1,0.1,0.2,0.1c0,0,0,0.1,0,0.1c0.1-0.1,0.2,0,0.3-0.1c0.1,0.1,0.3,0,0.3,0.1
					c0,0,0.1-0.1,0.2-0.1c-0.1,0.2,0.3,0,0.3,0.2c0.1-0.2,0.4-0.1,0.6-0.2c0,0,0,0,0,0c0.1,0,0.1,0.1,0.2,0.1c0-0.1,0.2-0.2,0.3-0.3
					c0.1,0.1-0.1,0.2,0,0.3c0-0.1,0.2-0.1,0.2-0.2c0.1,0.1,0.1,0,0.1,0.2c0-0.2,0.1,0,0.2-0.1c0.1,0.1,0,0.2,0.2,0.1
					C14.4,14.7,14.3,14.8,14.3,14.8z M18,14.5L18,14.5C18,14.5,17.9,14.5,18,14.5C17.9,14.5,18,14.5,18,14.5z M18.3,14.5
					c0,0-0.1,0-0.1,0c0,0,0-0.1,0-0.1C18.2,14.4,18.3,14.4,18.3,14.5z M17.6,13.7C17.7,13.7,17.7,13.8,17.6,13.7
					C17.7,13.8,17.7,13.8,17.6,13.7L17.6,13.7C17.6,13.8,17.6,13.8,17.6,13.7z"/>
				<path class="st1" d="M17.6,13.9C17.5,13.9,17.5,13.9,17.6,13.9L17.6,13.9L17.6,13.9L17.6,13.9z"/>
				<path class="st1" d="M13.8,19.6L13.8,19.6C13.8,19.6,13.8,19.6,13.8,19.6C13.8,19.6,13.8,19.6,13.8,19.6z"/>
				<polygon class="st1" points="22.6,14.7 22.6,14.7 22.6,14.7 				"/>
				<path class="st1" d="M13.3,18C13.3,18,13.3,18,13.3,18C13.3,17.9,13.3,18,13.3,18z"/>
				<path class="st1" d="M12.9,17.3l0-0.1C12.9,17.3,12.9,17.3,12.9,17.3z"/>
				<path class="st1" d="M12.6,16.8C12.6,16.8,12.6,16.8,12.6,16.8L12.6,16.8L12.6,16.8z"/>
				<path class="st1" d="M17.4,24.6L17.4,24.6C17.4,24.6,17.4,24.6,17.4,24.6z"/>
				<path class="st1" d="M15.8,22.4C15.8,22.4,15.9,22.4,15.8,22.4C15.9,22.4,15.8,22.3,15.8,22.4z"/>
				<polygon class="st1" points="18.1,24.3 18.1,24.3 18.1,24.3 				"/>
				<path class="st1" d="M15.9,22.5c0-0.1,0-0.1-0.1-0.1C15.9,22.5,15.9,22.5,15.9,22.5z"/>
				<path class="st1" d="M11.4,14.6L11.4,14.6C11.4,14.6,11.4,14.6,11.4,14.6L11.4,14.6z"/>
				<path class="st1" d="M11.4,14.6L11.4,14.6C11.4,14.6,11.4,14.6,11.4,14.6z"/>
				<path class="st1" d="M11.3,14.6L11.3,14.6C11.4,14.6,11.4,14.6,11.3,14.6z"/>
				<path class="st1" d="M11.8,15.3L11.8,15.3C11.8,15.3,11.8,15.3,11.8,15.3z"/>
				<path class="st1" d="M11.9,15.5c0-0.1,0-0.2-0.1-0.2l0,0C11.9,15.3,11.8,15.5,11.9,15.5z"/>
				<path class="st1" d="M12,16.6l-0.1-0.2c0,0,0,0.1-0.1,0C11.8,16.7,11.9,16.4,12,16.6z"/>
				<path class="st1" d="M12.2,17.1C12.2,17,12.2,17.2,12.2,17.1C12.2,17.2,12.2,17.2,12.2,17.1z"/>
				<path class="st1" d="M14.4,20.9L14.4,20.9C14.4,21,14.4,20.9,14.4,20.9z"/>
				<polygon class="st1" points="15.3,21.3 15.3,21.2 15.2,21.2 				"/>
				<polygon class="st1" points="14.9,22.1 14.9,22.1 15,22.2 				"/>
				<path class="st1" d="M19.4,24.1l-0.1,0C19.2,24.1,19.3,24.2,19.4,24.1z"/>
				<path class="st1" d="M20.9,21.3c0.1,0,0.1-0.1,0.1-0.1C20.9,21.2,20.9,21.3,20.9,21.3z"/>
				<polygon class="st1" points="23.5,13.7 23.5,13.7 23.4,13.7 				"/>
			</g>
		</g>
	</g>
</g>
</svg>
