<?xml version="1.0" encoding="utf-8"?>
<!-- Generator: Adobe Illustrator 27.0.1, SVG Export Plug-In . SVG Version: 6.00 Build 0)  -->
<svg version="1.1" id="Capa_1" xmlns="http://www.w3.org/2000/svg" xmlns:xlink="http://www.w3.org/1999/xlink" x="0px" y="0px"
	 viewBox="0 0 33.9 37" style="enable-background:new 0 0 33.9 37;" xml:space="preserve">
<style type="text/css">
	.st0{fill:none;stroke:#9E2685;stroke-width:0.7498;stroke-miterlimit:10;}
</style>
<g>
	<g>
		<path class="st0" d="M12.4,17.7c0.3-0.8,0.8-1.5,1.8-1.5c1.4,0,2.4,1,2.4,2.1c0,0.8-0.8,1.5-1.7,1.8v0.1c0.9,0.3,1.7,1,1.7,1.8
			c0,1.1-1,2.1-2.4,2.1c-1.2,0-2.3-1.1-2.6-2"/>
		<path class="st0" d="M12.4,17.7"/>
		<path class="st0" d="M17.5,13.7c-0.2,0.3-0.5,0.4-0.8,0.2c-0.3-0.2-0.4-0.5-0.2-0.8c0.2-0.3,0.5-0.4,0.8-0.2
			C17.6,13,17.7,13.4,17.5,13.7z"/>
		<path class="st0" d="M19.3,13.7c-0.1,1.2-1.1,2.2-2.4,2.2c-1.3,0-2.3-1-2.4-2.2"/>
		<path class="st0" d="M16.5,21.1h0.7c0.3,0,0.6-0.2,0.6-0.5c0.1-1,0.4-2.9,2.2-2.9c1.2,0,2.3,1.1,2.3,2.5c0,1.4-1,2.5-2.3,2.5"/>
	</g>
	<g>
		<circle class="st0" cx="16.8" cy="18.2" r="9.3"/>
		<g>
			<path class="st0" d="M13.6,9.6c-0.1-0.2-0.2-0.4-0.3-0.6c-0.2-1.1,1-2.7,1-2.7s2,0.9,2.3,2c0.1,0.2,0.1,0.4,0,0.7"/>
			<path class="st0" d="M10.4,11.6c-0.2-0.1-0.4-0.3-0.6-0.5c-0.6-0.9-0.1-2.9-0.1-2.9s2.2,0,2.9,1c0.1,0.2,0.2,0.3,0.3,0.5"/>
			<path class="st0" d="M8.3,14.6c-0.3,0-0.5-0.1-0.8-0.3c-0.9-0.6-1.2-2.6-1.2-2.6s2-0.8,3-0.2c0.2,0.1,0.4,0.3,0.5,0.5"/>
			<path class="st0" d="M7.6,18.1c-0.3,0.1-0.6,0.2-1,0.1c-1.1-0.2-2.1-2-2.1-2s1.6-1.5,2.7-1.4c0.2,0,0.4,0.1,0.6,0.2"/>
			<path class="st0" d="M8.2,21.7c-0.2,0.2-0.5,0.4-0.9,0.5c-1.1,0.2-2.7-1-2.7-1s0.9-2,2-2.3c0.3-0.1,0.7-0.1,1,0.1"/>
			<path class="st0" d="M10,24.9c-0.1,0.3-0.3,0.5-0.6,0.7c-0.9,0.6-2.9,0.1-2.9,0.1s0-2.2,1-2.9c0.3-0.2,0.6-0.3,1-0.3"/>
			<path class="st0" d="M13,26.6c0.1,0.4,0,0.9-0.2,1.3c-0.6,0.9-2.6,1.2-2.6,1.2s-0.8-2-0.2-3c0.2-0.3,0.5-0.6,0.9-0.7"/>
			<path class="st0" d="M16.4,27.5c0.2,0.4,0.4,0.8,0.3,1.3c-0.2,1.1-2,2.1-2,2.1s-1.5-1.6-1.4-2.7c0.1-0.4,0.3-0.7,0.6-1"/>
			<path class="st0" d="M19.9,27.1c0.4,0.2,0.6,0.6,0.7,1.1c0.2,1.1-1,2.7-1,2.7s-2-0.9-2.3-2c-0.1-0.5,0-0.9,0.2-1.3"/>
			<path class="st0" d="M22.9,25.3c0.4,0.1,0.8,0.3,1.1,0.7c0.6,0.9,0.1,2.9,0.1,2.9s-2.2,0-2.9-1c-0.3-0.4-0.4-0.8-0.3-1.3"/>
			<path class="st0" d="M25,22.5c0.4-0.1,0.9,0,1.3,0.2c0.9,0.6,1.2,2.6,1.2,2.6s-2,0.8-3,0.2c-0.4-0.2-0.7-0.6-0.7-1.1"/>
			<path class="st0" d="M26.1,19c0.3-0.2,0.7-0.2,1.1-0.2c1.1,0.2,2.1,2,2.1,2s-1.6,1.5-2.7,1.4c-0.5-0.1-0.8-0.3-1.1-0.7"/>
			<path class="st0" d="M25.7,15.3c0.2-0.2,0.5-0.4,0.9-0.5c1.1-0.2,2.7,1,2.7,1s-0.9,2-2,2.3c-0.4,0.1-0.8,0-1.1-0.1"/>
			<path class="st0" d="M23.9,12.1c0.1-0.3,0.3-0.5,0.6-0.7c0.9-0.6,2.9-0.1,2.9-0.1s0,2.2-1,2.9c-0.3,0.2-0.6,0.3-1,0.3"/>
			<path class="st0" d="M20.9,9.8c0-0.2,0.1-0.5,0.3-0.7C21.7,8.2,23.8,8,23.8,8s0.8,2,0.2,3c-0.2,0.3-0.4,0.5-0.6,0.6"/>
			<path class="st0" d="M17.3,9c-0.1-0.2-0.1-0.5,0-0.8c0.2-1.1,2-2.1,2-2.1s1.5,1.6,1.4,2.7c0,0.2-0.1,0.4-0.2,0.6"/>
		</g>
		<g>
			<path class="st0" d="M15.2,6.6C15.1,6.4,15,6.1,15,5.7c0-1.4,2-3,2-3s2.3,1.6,2.3,3.1c0,0.1,0,0.3,0,0.4"/>
			<path class="st0" d="M7.3,11.3c-0.3-0.1-0.5-0.3-0.7-0.5c-1-1-0.7-3.6-0.7-3.6s2.7-0.5,3.8,0.5C9.7,7.9,9.8,8,9.8,8.1"/>
			<path class="st0" d="M5.1,20.2c-0.3,0.1-0.6,0.2-1,0.2c-1.4,0-3-2-3-2s1.6-2.3,3.1-2.3c0.1,0,0.2,0,0.4,0"/>
			<path class="st0" d="M9.8,28.1c-0.1,0.3-0.3,0.6-0.5,0.8c-1,1-3.6,0.7-3.6,0.7s-0.5-2.7,0.5-3.8c0.1-0.1,0.2-0.2,0.3-0.3"/>
			<path class="st0" d="M18.7,30.5c0.1,0.3,0.2,0.5,0.2,0.8c0,1.4-2,3-2,3s-2.3-1.6-2.3-3.1c0-0.1,0-0.2,0-0.3"/>
			<path class="st0" d="M26.6,25.7c0.3,0.1,0.5,0.3,0.7,0.5c1,1,0.7,3.6,0.7,3.6s-2.7,0.5-3.8-0.5c-0.1-0.1-0.2-0.2-0.2-0.3"/>
			<path class="st0" d="M28.9,16.7c0.3-0.1,0.5-0.2,0.8-0.2c1.4,0,3,2,3,2s-1.6,2.3-3.1,2.3c-0.1,0-0.2,0-0.3,0"/>
			<path class="st0" d="M24.1,8.8c0.1-0.3,0.3-0.5,0.5-0.7c1-1,3.6-0.7,3.6-0.7s0.5,2.7-0.5,3.8c-0.1,0.1-0.2,0.2-0.3,0.2"/>
			<g>
				<path class="st0" d="M10.7,8.2c-0.3-1.2,0.7-3.1,0.7-3.1s1.9,0.4,2.8,1.4"/>
				<path class="st0" d="M10.8,8.3c0-0.1,0-0.1-0.1-0.2"/>
				<path class="st0" d="M5.2,15.6c-1.1-0.6-1.7-2.7-1.7-2.7s1.6-1,2.9-1"/>
				<path class="st0" d="M6.7,24.7C5.5,25.1,3.5,24,3.5,24s0.4-1.9,1.4-2.8"/>
				<path class="st0" d="M6.8,24.7c0,0-0.1,0-0.1,0"/>
				<path class="st0" d="M14,30.2c-0.6,1.1-2.7,1.8-2.7,1.8s-1-1.6-1-2.9"/>
				<path class="st0" d="M23.2,28.9c0.3,1.2-0.7,3.1-0.7,3.1s-1.9-0.4-2.7-1.4"/>
				<path class="st0" d="M28.6,21.4c1.1,0.6,1.8,2.7,1.8,2.7s-1.6,1-2.9,1"/>
				<path class="st0" d="M27.3,12.3c1.2-0.3,3.1,0.7,3.1,0.7s-0.4,1.8-1.3,2.7"/>
				<path class="st0" d="M19.8,6.8c0.6-1.1,2.7-1.7,2.7-1.7s1,1.6,1,2.9"/>
			</g>
		</g>
	</g>
</g>
</svg>
